<svg xmlns="http://www.w3.org/2000/svg" xmlns:xlink="http://www.w3.org/1999/xlink" viewBox="0 0 891.74 449.95"><defs><style>.a{fill:url(#a);}.b{fill:#42b0bc;}.c{fill:#6bdbc8;}.d{fill:url(#b);}.e{fill:#728589;}.f{fill:#daf2f0;}.g{fill:#fff;}.h{fill:#bad8d3;}.i{fill:#6e868e;}.j{fill:#2d769e;}</style><linearGradient id="a" x1="262.72" y1="450.48" x2="1154.46" y2="450.48" gradientUnits="userSpaceOnUse"><stop offset="0.24" stop-color="#6bdbc8"/><stop offset="1" stop-color="#66bbc3"/></linearGradient><linearGradient id="b" x1="274.44" y1="645.94" x2="1072.93" y2="645.94" gradientUnits="userSpaceOnUse"><stop offset="0" stop-color="#d9d6d7"/><stop offset="0.53" stop-color="#aca5a7"/><stop offset="1" stop-color="#d9d6d7"/></linearGradient></defs><path class="a" d="M1106.86,578c.23-9.62-.3-41.52-30.29-72.58-28-29-71.39-32.8-87.64-24.26,12.4-17.35,8.13-59.72-14.08-88.39-35.77-46.17-84.91-38.36-97.3-36.76a78.66,78.66,0,0,0-11.86-33c-10.55-16.82-32.78-38.55-78.74-46.61-51.28-9-85,4.22-104.27,16.9-17,11.18-25.91,23.66-28.85,28.33-9.7-6.82-58.19-37.34-111.06-8.12-23.81,13.16-36.83,31-43.89,47.57A53.15,53.15,0,0,0,458,365.44s-50-19.66-79.69,22.47-5.41,77-5.41,77-41.22,1.09-76.36,42c-51.42,59.84-29,120.73-29,120.73h885a1.92,1.92,0,0,0,1.91-1.91C1154.46,589,1115.62,579.6,1106.86,578Z" transform="translate(-262.72 -229.99)"/><path class="b" d="M378,626.45H988.89s1.93-25.72-21.37-36.24-44,5.93-44,5.93-1.23-15-18.45-19.16-25.51,8.6-25.51,8.6,9.12-41.1-29-63c-41.17-23.61-80.53,10.24-80.53,10.24s-41.16-36.25-98.69-19.15C619.23,529.22,610.17,575,610.17,575a34.79,34.79,0,0,0-24.35-23.15C562.76,545.46,547.6,557,547.6,557s-12.3-45.27-68.87-36c-61.6,10.09-54.5,56.38-54.5,56.38s-22-9.2-39.25,6.7S378,626.45,378,626.45Z" transform="translate(-262.72 -229.99)"/><path class="c" d="M339.27,449.33l-3.6-2.13,2.13-3.6a2,2,0,0,0-3.5-2.07l-2.13,3.6-3.6-2.12a2,2,0,1,0-2.06,3.5l3.6,2.12-2.13,3.6a2,2,0,1,0,3.5,2.07l2.13-3.6,3.6,2.13a2,2,0,1,0,2.06-3.5Z" transform="translate(-262.72 -229.99)"/><path class="c" d="M1020.84,461.46l-2.31-1.36,1.36-2.31a1.3,1.3,0,1,0-2.24-1.33l-1.37,2.31-2.31-1.36a1.3,1.3,0,0,0-1.32,2.24L1015,461l-1.37,2.3a1.32,1.32,0,0,0,.46,1.79,1.31,1.31,0,0,0,1.79-.46l1.36-2.31,2.31,1.37a1.31,1.31,0,0,0,1.33-2.25Z" transform="translate(-262.72 -229.99)"/><path class="c" d="M455,349.63l-3-1.76,1.76-3a1.68,1.68,0,1,0-2.9-1.71l-1.76,3-3-1.76a1.68,1.68,0,0,0-1.71,2.9l3,1.77-1.76,3a1.68,1.68,0,1,0,2.9,1.71l1.77-3,3,1.76a1.68,1.68,0,1,0,1.71-2.9Z" transform="translate(-262.72 -229.99)"/><path class="d" d="M1072.77,628.33s3.2,4.23-19.33,8.89c-26.44,5.46-90.7,1.35-97,11.43-6.86,11,43.79,7.91,43.21,20.76-.5,10.93-34.94,10.53-73.77,10.53H490.63c-31.44,0-25.75-9.53-21.3-13.86,6.46-6.3,3.62-12.11-24.67-12.91-27.47-.78-47.59-1.45-62.58-1.45-40,0-32.13-13.18-63.28-13.18-20.14,0-44.36-5.07-44.36-10.95C403.13,617.37,542.52,611.33,691.3,612,826.73,612.6,954.22,618.69,1072.77,628.33Z" transform="translate(-262.72 -229.99)"/><path class="e" d="M614.29,661.73h51s-.55-18.77-19.61-21.48a81,81,0,0,0-17.51-.66l6.4-69.26L612,562.76l4.71,78.84c-.81.25-1.24.42-1.24.42Z" transform="translate(-262.72 -229.99)"/><path class="e" d="M732,661.73h51s-.54-18.77-19.6-21.48a81.12,81.12,0,0,0-17.52-.66l6.41-69.26-22.64-7.57,4.7,78.84c-.8.25-1.23.42-1.23.42Z" transform="translate(-262.72 -229.99)"/><path class="f" d="M579.42,466.55c0,22.43.59,57.61.9,86.75a17.21,17.21,0,0,0,17.22,17H761.71a17.22,17.22,0,0,0,17.22-17.22V441.24s4.27-32.71-37.26-32.71c-52,0-101,2.59-129.28,7.49S579.42,446,579.42,466.55Z" transform="translate(-262.72 -229.99)"/><path class="g" d="M606.12,553.3c-.31-29.14-.9-64.32-.9-86.75,0-20.52,4.66-45.62,33-50.53,24.52-4.24,56.92-6.75,98.91-7.35-1.81-.09-3.68-.14-5.65-.14-52,0-90.75,2.59-119.06,7.49s-33,30-33,50.53c0,22.43.59,57.61.9,86.75a17.21,17.21,0,0,0,17.22,17h25.8A17.21,17.21,0,0,1,606.12,553.3Z" transform="translate(-262.72 -229.99)"/><path class="f" d="M609.29,402H741.18c28.14,0,37.75-14,37.75-53.67s-22.57-92.87-93.24-92.87-97.21,42.54-103,81.78S581.52,402,609.29,402Z" transform="translate(-262.72 -229.99)"/><path class="g" d="M605.88,339.37c5.6-37.93,34.21-69.78,102.68-69.78A301.49,301.49,0,0,1,742,271.24c-13.91-9.66-32.34-15.81-56.34-15.81-70.67,0-97.21,42.54-103,81.78S581.52,402,609.29,402h22.35C604.73,402,600.27,377.31,605.88,339.37Z" transform="translate(-262.72 -229.99)"/><path class="h" d="M767.77,348.3a106.32,106.32,0,0,0-8-40.55,28.64,28.64,0,0,0-26.42-17.58H669.49c-35.63,0-62.44,37.77-53.68,68.13s45.5,25.9,76.46,25.9h52.14a22.82,22.82,0,0,0,22.77-20.78C767.58,358.86,767.77,353.83,767.77,348.3Z" transform="translate(-262.72 -229.99)"/><circle class="i" cx="667.77" cy="335.11" r="11.81" transform="translate(-32.7 710.59) rotate(-80.78)"/><path class="i" d="M752.64,335.11a7.19,7.19,0,1,1-7.19-7.19A7.19,7.19,0,0,1,752.64,335.11Z" transform="translate(-262.72 -229.99)"/><path class="e" d="M569.47,552c-1.78-13.49-9.65-19.46-17-20.46h-.18c-.27-.08-.49-.21-.77-.28-7.95-2.13-17,.65-21.53,5-5.92,5.7-6.13,13.79-6.13,13.79a7.49,7.49,0,0,0-.13,2.6l1.36,10.5c.45,3.52,3.33,6,6.4,5.46a5.54,5.54,0,0,0,3.69-2.54l0,1.17c.14,3.56,2.79,6.34,5.89,6.18a5.24,5.24,0,0,0,3.37-1.53V572c-.34,3.31,1.73,6.34,4.61,6.74l.72.1c2.88.39,5.52-2,5.87-5.3l.64-6.09V549.75s4.87,1.37,5.68,10S571.26,565.51,569.47,552Z" transform="translate(-262.72 -229.99)"/><path class="e" d="M601.92,436.33a8.35,8.35,0,0,0-12.22-4.77c-21.86,13-36.78,32.84-43.59,52.9-10.59,31.19-7.91,61.17-7.91,61.17L551,547.07c3.47-53,26.13-76.87,42.31-87.28a20.68,20.68,0,0,0,8.63-23.46Z" transform="translate(-262.72 -229.99)"/><path class="e" d="M676.44,431.2l-16.64-8.79a5.31,5.31,0,0,1-2.2-7.15h0a5.3,5.3,0,0,1,7.14-2.2l16.64,8.79a5.31,5.31,0,0,1,2.21,7.15h0A5.31,5.31,0,0,1,676.44,431.2Z" transform="translate(-262.72 -229.99)"/><path class="j" d="M673.75,292.57a47.12,47.12,0,1,0,44,50A47.13,47.13,0,0,0,673.75,292.57Zm-5.41,85.14A38.18,38.18,0,1,1,708.86,342,38.18,38.18,0,0,1,668.34,377.71Z" transform="translate(-262.72 -229.99)"/><path class="j" d="M661.17,490.34h0a5.17,5.17,0,0,1-4.83-5.49l6.42-101,10.32.66-6.42,101A5.17,5.17,0,0,1,661.17,490.34Z" transform="translate(-262.72 -229.99)"/><path class="e" d="M681.38,421.85c-4-2.11-7.07,2-8.63,4.94a5.24,5.24,0,0,0-1.24-1L654.87,417a5.29,5.29,0,0,0-5.91,8.69,5.27,5.27,0,0,0-2.79,9.93l1.79.95A5.29,5.29,0,0,0,643,446l16.64,8.8s15.62,8.34,24-7.46S687.25,425,681.38,421.85Z" transform="translate(-262.72 -229.99)"/><path class="e" d="M740.76,408.91h0c25.21,2.2,33.91,13.36,36.84,22,6.68,1.65,13.56,5.43,15.94,13.85,3.12,11-.4,27.23-34.94,24.51s-76-31.94-76-31.94l-4,11.83s21.59,17.45,54.14,30.47C762.28,491.41,813,489.55,813,449S751.71,408.91,740.76,408.91Z" transform="translate(-262.72 -229.99)"/><path class="f" d="M594.6,241.93a78,78,0,0,0-18.55-5.59,8.13,8.13,0,1,0-.37,4.76,73.43,73.43,0,0,1,17.16,5.24c16.51,7.39,27.76,19.91,33.45,37.2l4.5-1.48A65.09,65.09,0,0,0,594.6,241.93Z" transform="translate(-262.72 -229.99)"/></svg>