<svg xmlns="http://www.w3.org/2000/svg" viewBox="0 0 1469.05 2071.87" style="fill:rgb(234,182,0);"><defs><style>.a{stroke:rgb(234,182,0);stroke-miterlimit:10;}</style></defs><path d="M2654.5,962.13H1344.77a79.66,79.66,0,0,0-79.66,79.66V2954.34a79.66,79.66,0,0,0,132.29,59.8l602.24-530,602.23,530a79.66,79.66,0,0,0,132.29-59.8V1041.79A79.66,79.66,0,0,0,2654.5,962.13Zm-79.66,1816-522.58-459.88a79.65,79.65,0,0,0-105.25,0l-522.58,459.88V1121.45H2574.84Z" transform="translate(-1265.11 -962.13)"/><rect class="a" x="128.39" y="136.37" width="1213" height="1378"/><rect class="a" x="128.39" y="1375.37" width="257" height="441"/><rect class="a" x="1094.39" y="1301.37" width="260" height="515"/><rect class="a" x="338.39" y="1443.37" width="177" height="177"/><rect class="a" x="948.39" y="1465.37" width="186" height="186"/></svg>