<svg xmlns="http://www.w3.org/2000/svg" viewBox="0 0 23.18 23.16"><defs><style>.a{fill:rgb(150,150,150);}</style></defs><path class="a" d="M208.06,276.35a.5.5,0,0,1,0-.7l7.09-7.09a1.5,1.5,0,0,0,0-2.12l-1.59-1.59a1.55,1.55,0,0,0-2.12,0l-7.09,7.09a.5.5,0,0,1-.7,0l-7.09-7.09a1.55,1.55,0,0,0-2.12,0l-1.59,1.59a1.5,1.5,0,0,0,0,2.12l7.09,7.09a.5.5,0,0,1,0,.7l-7.09,7.09a1.5,1.5,0,0,0,0,2.12l1.59,1.59a1.55,1.55,0,0,0,2.12,0l7.09-7.09a.5.5,0,0,1,.7,0l7.09,7.09a1.5,1.5,0,0,0,2.12,0l1.59-1.59a1.5,1.5,0,0,0,0-2.12Z" transform="translate(-192.41 -264.43)"/></svg>