<svg xmlns="http://www.w3.org/2000/svg" viewBox="0 0 24 24"><defs><style>.a{fill:rgb(150,150,150);}</style></defs><path class="a" d="M156,181.2a3.61,3.61,0,0,1-.73-.07A4.3,4.3,0,0,1,152,177V176a4.3,4.3,0,0,1,3.26-4.1A4,4,0,0,1,160,175.8v1.4a4,4,0,0,1-4,4Z" transform="translate(-144 -168)"/><path class="a" d="M168,180a12,12,0,1,0-20.23,8.71.43.43,0,0,0,.12.11,11.93,11.93,0,0,0,16.22,0,.43.43,0,0,0,.12-.11A11.94,11.94,0,0,0,168,180Zm-22,0a10,10,0,1,1,17.4,6.7,9.25,9.25,0,0,0-14.8,0A10,10,0,0,1,146,180Z" transform="translate(-144 -168)"/></svg>