<svg xmlns="http://www.w3.org/2000/svg" viewBox="0 0 23 23"><defs><style>.a{fill:rgb(150,150,150);}</style></defs><path class="a" d="M117.5,81h-1a.48.48,0,0,1-.46-.31,8.35,8.35,0,0,0-.52-1.24.48.48,0,0,1,.11-.55l.7-.7a1.5,1.5,0,0,0,0-2.12l-1.42-1.42a1.55,1.55,0,0,0-2.12,0l-.7.7a.48.48,0,0,1-.55.11,8.35,8.35,0,0,0-1.24-.52.48.48,0,0,1-.31-.46v-1a1.5,1.5,0,0,0-1.5-1.5h-2a1.5,1.5,0,0,0-1.5,1.5v1a.48.48,0,0,1-.31.46,8.35,8.35,0,0,0-1.24.52.48.48,0,0,1-.55-.11l-.7-.7a1.55,1.55,0,0,0-2.12,0l-1.42,1.42a1.5,1.5,0,0,0,0,2.12l.7.7a.48.48,0,0,1,.11.55A8.35,8.35,0,0,0,99,80.69a.48.48,0,0,1-.46.31h-1A1.5,1.5,0,0,0,96,82.5v2A1.5,1.5,0,0,0,97.5,86h1a.48.48,0,0,1,.46.31,8.35,8.35,0,0,0,.52,1.24.48.48,0,0,1-.11.55l-.7.7a1.5,1.5,0,0,0,0,2.12l1.42,1.42a1.55,1.55,0,0,0,2.12,0l.7-.7a.48.48,0,0,1,.55-.11,8.35,8.35,0,0,0,1.24.52.48.48,0,0,1,.31.46v1a1.5,1.5,0,0,0,1.5,1.5h2a1.5,1.5,0,0,0,1.5-1.5v-1a.48.48,0,0,1,.31-.46,8.35,8.35,0,0,0,1.24-.52.48.48,0,0,1,.55.11l.7.7a1.55,1.55,0,0,0,2.12,0l1.42-1.42a1.5,1.5,0,0,0,0-2.12l-.7-.7a.48.48,0,0,1-.11-.55,8.35,8.35,0,0,0,.52-1.24.48.48,0,0,1,.46-.31h1a1.5,1.5,0,0,0,1.5-1.5v-2A1.5,1.5,0,0,0,117.5,81Zm-10,7a4.5,4.5,0,1,1,4.5-4.5A4.51,4.51,0,0,1,107.5,88Z" transform="translate(-96 -72)"/></svg>