<svg xmlns="http://www.w3.org/2000/svg" viewBox="0 0 1325.91 2612.14" fill="rgb(80,80,80)"><defs><style>.a{fill-rule:evenodd;}</style></defs><path class="a" d="M3116.28,2784.31q0,122-87.82,199.7-98.73,87.7-277.65,87.55-158,0-307.31-88.11l98.29-191.51q116.52,74.57,216.64,74.58c56.78,0,85-19.5,85-58.19,0-20.33-9.89-35.87-29.66-46.9-12.71-7.06-41.23-15.53-85.88-25.41-50-11-82.73-19.48-98-25.7q-72.86-28.38-103.74-84.92l44.55-91.64q64.35-132.62,128.34-266.52Q2762.4,2248,2844.84,2248c85.6,0,168.91,16.39,249.41,49.16l-91.53,174.53c-50.53-26-99.13-39-145.44-39-54.5,0-81.63,19.19-81.63,57.62q0,26.24,33,42.35c9.89,5.09,39,12.42,87.27,22.31,71.18,14.71,123.16,38.41,156.75,70.9q63.59,61,63.56,158.44" transform="translate(-1808.79 -1193.93)"/><path class="a" d="M2339,2751.64H2205.34L1808.79,1984h305.6l183.88,393.16L2482.7,1984H2715c160.45-317,306-590.59,419.69-790-129,318.18-344.17,795-600,1322.36s-497.15,991.46-667.18,1289.78c106.78-263.29,272.51-635.18,471.42-1054.43" transform="translate(-1808.79 -1193.93)"/></svg>