<svg xmlns="http://www.w3.org/2000/svg" viewBox="0 0 549.29 413.41"><defs><style>.a{fill:white;}</style></defs><path class="a" d="M852.9,889.28c0,9.63-10.2,17.42-22.78,17.42H576.35c-12.58,0-22.77-7.79-22.77-17.42v-16.7c0-9.63,10.19-17.44,22.77-17.44H830.12c12.58,0,22.78,7.81,22.78,17.44Z" transform="translate(-425.36 -493.3)"/><path class="a" d="M731.55,854.77a22.77,22.77,0,0,1-22.78,22.78H691.23a22.77,22.77,0,0,1-22.78-22.78V523.34a22.76,22.76,0,0,1,22.78-22.76h17.54a22.76,22.76,0,0,1,22.78,22.76Z" transform="translate(-425.36 -493.3)"/><rect class="a" x="228.54" width="92.21" height="92.22" rx="22.77"/><path class="a" d="M896.58,540.91a22.78,22.78,0,0,1-22.77,22.77H526.19a22.78,22.78,0,0,1-22.77-22.77v-3a22.78,22.78,0,0,1,22.77-22.77H873.81a22.78,22.78,0,0,1,22.77,22.77Z" transform="translate(-425.36 -493.3)"/><polygon class="a" points="529.5 217.47 448.64 87.67 370.97 217.29 351.44 205.58 448.26 43.98 548.84 205.42 529.5 217.47"/><path class="a" d="M776.45,698.91a101.17,101.17,0,0,0,198.19,0Z" transform="translate(-425.36 -493.3)"/><polygon class="a" points="19.78 217.47 0.45 205.42 101.03 43.98 197.85 205.58 178.31 217.29 100.65 87.67 19.78 217.47"/><path class="a" d="M623.55,698.91a101.17,101.17,0,0,1-198.19,0Z" transform="translate(-425.36 -493.3)"/></svg>