<svg xmlns="http://www.w3.org/2000/svg" viewBox="0 0 159.07 263.39"><defs><style>.a{fill:rgba(200,200,200,0.8);}</style></defs><path class="a" d="M2629.32,1810c-20.65,0-34.12-21-23.84-37.32,2.5-4,6.44-7.39,9.77-10.79q21-21.5,42-43l37.26-38.13c2.27-2.33,2.88-2,.64-4.31l-13.84-14.17-46-47c-9.07-9.29-18.62-18.33-27.27-27.94-13-14.51-3.74-37.16,16.57-40.37,10.81-1.7,20,2.73,27,9.85q16.59,17,33.16,33.94,23.34,23.87,46.66,47.75c7.83,8,16.26,15.78,23.57,24.21a23.19,23.19,0,0,1,2.85,27.22c-2,3.4-4.92,6.13-7.71,9L2713,1737l-45.59,46.66-14.3,14.64c-5.06,5.19-10.35,9.71-18.24,11.18A31,31,0,0,1,2629.32,1810Z" transform="translate(-2601.95 -1546.63)"/></svg>