<svg xmlns="http://www.w3.org/2000/svg" viewBox="0 0 193.87 169.1"><defs><style>.a{fill:#dadef1;}.b{fill:#f5f5fa;}.c{fill:#36174d;}.d{fill:#ffd236;}.e{fill:#f6b399;}.f{fill:#19c5ff;}.g{fill:#f66957;}.h{fill:#fff;}.i{fill:#ee796a;}.j{fill:#ffbb4d;}</style></defs><path class="a" d="M3194.17,386.71l-10.31,50.18a5.82,5.82,0,0,1-6.86,4.52l-41.76-8.59-24.43-5a5.79,5.79,0,0,1-4.51-6.85l10.31-50.18a5.81,5.81,0,0,1,6.82-4.53l24.46,5,41.76,8.59A5.8,5.8,0,0,1,3194.17,386.71Z" transform="translate(-3021.84 -343.85)"/><path class="b" d="M3147.89,371.27l-12.65,61.55-24.43-5a5.79,5.79,0,0,1-4.51-6.85l10.31-50.18a5.81,5.81,0,0,1,6.82-4.53Z" transform="translate(-3021.84 -343.85)"/><path class="c" d="M3193.31,390.91,3115.75,375l.72-3.52a6.5,6.5,0,0,1,7.67-5.06L3189,379.72a6.49,6.49,0,0,1,5.06,7.67Z" transform="translate(-3021.84 -343.85)"/><path class="d" d="M3114,416.54a4.58,4.58,0,1,1,4.58-4.58A4.58,4.58,0,0,1,3114,416.54Zm0-8a3.42,3.42,0,1,0,3.42,3.42A3.42,3.42,0,0,0,3114,408.54Z" transform="translate(-3021.84 -343.85)"/><path class="e" d="M3120.8,427c-1.93,7.35-7,11.09-15.79,11.09s-16.32-5.93-16.32-14.78a16,16,0,0,1,28.18-10.47,4.15,4.15,0,0,0,3.12-.55.58.58,0,0,1,.85.34C3121.61,416.77,3121.94,422.64,3120.8,427Z" transform="translate(-3021.84 -343.85)"/><path class="c" d="M3116.59,419.12a1.25,1.25,0,0,1-.93,1.5,1.23,1.23,0,0,1-1.49-.93,1.25,1.25,0,0,1,.93-1.5A1.23,1.23,0,0,1,3116.59,419.12Z" transform="translate(-3021.84 -343.85)"/><path class="e" d="M3115.09,432.19a4.69,4.69,0,1,1-4.69-4.69A4.69,4.69,0,0,1,3115.09,432.19Z" transform="translate(-3021.84 -343.85)"/><path class="f" d="M3186.84,469.57a4.15,4.15,0,0,1-4.15-4.15V415.13h8.3v50.29A4.15,4.15,0,0,1,3186.84,469.57Z" transform="translate(-3021.84 -343.85)"/><path class="b" d="M3215.13,398.63a28.12,28.12,0,1,1-21.89-33.21A28.12,28.12,0,0,1,3215.13,398.63Z" transform="translate(-3021.84 -343.85)"/><path class="a" d="M3210.31,397.64a23.21,23.21,0,1,1-18-27.4A23.2,23.2,0,0,1,3210.31,397.64Z" transform="translate(-3021.84 -343.85)"/><path class="f" d="M3085.34,395.93l-.59.45-4.49,6.06-1.6-2-13-16.24-.72-.9c3.1-3.05,5.15-5,5.39-5.25l.73-.88Z" transform="translate(-3021.84 -343.85)"/><path class="e" d="M3125.65,366c-.66,2-2.93,2.69-4.83,2.34-2.76-.5-4.44-3.43-7.15-3.58-3.15-.18-5.25,3.29-6.73,5.58a7.57,7.57,0,0,0-1.46,3.69,2.91,2.91,0,0,0,4.39,3,31,31,0,0,0,3.65-1.81c1.84-1,4.23-2.44,6.36-1.48,2.58,1.15,1.88,4.34.35,6.06a14.75,14.75,0,0,1-3.85,2.77c-5.49,3.11-10.41,8.48-16.94,9.07a61.29,61.29,0,0,0-6.65.59,18.53,18.53,0,0,0-7.45,3.7L3071,377.18a86.3,86.3,0,0,1,9.21-9.23l8.13-10.8c1.23-1.64,2.46-3.27,3.68-4.91,1.07-1.41,2.12-2.85,3.28-4.19,1.62-1.87,6-6.54,8.06-2.77,1.86,3.38-1.2,6.65-3.08,9.18-.69.93-1.35,1.9-2,2.87a3.36,3.36,0,0,1,1.7.71,6.49,6.49,0,0,1,3.77-2,3.33,3.33,0,0,1,2.45.79,10.75,10.75,0,0,1,3.78-2.07,9.75,9.75,0,0,1,7,.94,24.62,24.62,0,0,1,6,4.09C3124.56,361.3,3126.41,363.7,3125.65,366Z" transform="translate(-3021.84 -343.85)"/><path class="e" d="M3200.9,439.21a9.52,9.52,0,0,1-1.83,1.09l-2,1-1.48.76a16.93,16.93,0,0,0,.25,3.64,5.61,5.61,0,0,1-.48,3,10.31,10.31,0,0,1-.15,5.54,6,6,0,0,1-.46.91,3.22,3.22,0,0,1,3.57,2.33c.42,2.21-1.88,3.35-3.8,4.16l-14.41,6.08c-2.4,1-4.78,2.08-7.21,3a11.84,11.84,0,0,1-3.54.86,15.19,15.19,0,0,1-3.69-.26c-1.24-.21-2.46-.51-3.68-.79s-2.52-.55-3.77-.88a1.76,1.76,0,0,1-1.49-1.95,19.2,19.2,0,0,1,.48-2.91,52.29,52.29,0,0,1,4.53-11.54,81.69,81.69,0,0,1,1.51-9.07,11.31,11.31,0,0,1,3-5.68,32.87,32.87,0,0,1,5-3.63,13.33,13.33,0,0,0,4.43-4c1.08-1.79,1-4.5,3-5.61,1.83-1,4,.06,5.15,1.66,1.47,2.14.64,5-.55,7.1-.84,1.45-2,2.72-2.95,4.09l8.15-2.57,4.75-1.48a16.29,16.29,0,0,1,4-.89,5,5,0,0,1,3.52,1,3.6,3.6,0,0,1,1.2,2.45A3.1,3.1,0,0,1,3200.9,439.21Z" transform="translate(-3021.84 -343.85)"/><path class="e" d="M3175.79,480.39c-.29,1.38-.59,2.8-.9,4.24l-.24,1.1-.43,2c-.1.45-.18.82-.26,1.2-1.28,6-2.56,12-3.51,16.47a10.17,10.17,0,0,1-9.2,7.49s-23.15,0-23.15,0l13-33.21s.71-1.81.71-1.81l2.13-5.41Z" transform="translate(-3021.84 -343.85)"/><path class="e" d="M3179.37,463.7,3177.18,474l-20.73-7.76,3-7.66Z" transform="translate(-3021.84 -343.85)"/><path class="g" d="M3175.79,480.39c-.29,1.38-.59,2.8-.9,4.24l-.24,1.1-.43,2c-.1.45-.18.82-.26,1.2-1.18,5.58-2.41,11.4-3.37,15.91a5.73,5.73,0,0,1-.14.56,10.17,10.17,0,0,1-9.2,7.49l-.63,0H3138.1l13-33.21s.71-1.81.71-1.81l2.13-5.41Z" transform="translate(-3021.84 -343.85)"/><polygon class="e" points="92 91.52 89.46 105.49 80.5 104.38 83.87 92 92 91.52"/><path class="g" d="M3161.26,513h-25.61a10.18,10.18,0,0,1-8.66-4.82,10,10,0,0,1-.82-1.64l-.34-.86-1.09,0-3.81.1-.25.66a10.21,10.21,0,0,1-9.51,6.53h-53.35a10.18,10.18,0,0,1-9.26-14.43l10.85-23.69c-5.8-4-16.34-11.16-24.21-16.4-11.43-7.63-19-21.7-7.91-35.64,8.28-10.36,28-30.05,37.6-39.48l.72.9,13,16.24,1.6,2-19.85,26.81c-.65.89,14.74,9.26,16,10,6.6,3.59,13.72,7.29,21.4,7.52,3.46.11,6.92.34,10.38.51l14,.67c2.88.14,5.66-.07,8.49.61a21,21,0,0,1,7.64,3.59,17.56,17.56,0,0,1,1.62,1.35c3.28,3,5,6.83,6.38,10.85.78,2.3,1.44,4.67,2.19,7q1.35,4.2,2.64,8.42c.24.79.48,1.56.71,2.34,1.23,4,2.44,8.08,3.67,12.1l2.67,8.72q1.53,5,3.07,10Z" transform="translate(-3021.84 -343.85)"/><path class="h" d="M3077.68,439.26l-17-10-4.82-2.84a.58.58,0,0,0-.59,1l17,10,4.82,2.83A.58.58,0,0,0,3077.68,439.26Z" transform="translate(-3021.84 -343.85)"/><path class="c" d="M3109.51,446.05a3.53,3.53,0,0,0-.47,1.72,5.82,5.82,0,0,0,.64,2,8.6,8.6,0,0,1-.43,7.28,11.78,11.78,0,0,1-2.4,2.82,4.73,4.73,0,0,0-1.85,3.2c-.07,1.46.39,2.9.25,4.36A8.14,8.14,0,0,1,3104,471a14.13,14.13,0,0,1-6.37,5c-1.34.61-2.72,1.15-4.09,1.69a27.89,27.89,0,0,1-4.27,1.36c-3.12.68-6.25.18-9.38-.16s-6-.57-9-1a15.59,15.59,0,0,1-7.29-2.82,18.34,18.34,0,0,1-6.7-5.32,5.88,5.88,0,0,1-1.2-4,9.68,9.68,0,0,1,1.75-4.32,22.81,22.81,0,0,1,5.34-5.66c1-.75,2.12-1.3,3.08-2.08a2.79,2.79,0,0,0,.94-1.21,4.09,4.09,0,0,0-.09-2.11c-1-5.21,3.15-9.32,7.54-11.33,2.57-1.17,5.3-1.91,7.92-2.94,2.1-.82,4.65-1.94,5.15-4.32,0-1.28-.08-2.57-.2-3.86a25.12,25.12,0,0,1-.15-5.2,18.68,18.68,0,0,1,24.49-16,.72.72,0,0,1,.43.56c2.74,9.87,2.74,18.67-.83,26.3.1.34.2.69.29,1,.72,2.64,1.18,5.56.09,8.16C3110.93,443.93,3110.1,444.92,3109.51,446.05Z" transform="translate(-3021.84 -343.85)"/><path class="i" d="M3121.92,418.63a.59.59,0,0,0-.72-.41.61.61,0,0,0-.4.72c-1,3.09-1,3.46-.78,3.68a.58.58,0,0,0,.82,0A4.71,4.71,0,0,0,3121.92,418.63Z" transform="translate(-3021.84 -343.85)"/><path class="c" d="M3094,420a9.27,9.27,0,1,1-9.27-9.27A9.28,9.28,0,0,1,3094,420Z" transform="translate(-3021.84 -343.85)"/><path class="e" d="M3115.09,431.67a3.79,3.79,0,1,1-3.79-3.78A3.79,3.79,0,0,1,3115.09,431.67Z" transform="translate(-3021.84 -343.85)"/><path class="c" d="M3115.5,414.19c-.2.54-.73.77-1.2,1-.85,1.07-1.1,1.24-1.4,1.18a.59.59,0,0,1-.47-.6,6.35,6.35,0,0,1,.17-1,.57.57,0,0,1-.17-.63,3,3,0,0,1,1.13-1.43,1.48,1.48,0,0,1,1.44.05A1.13,1.13,0,0,1,3115.5,414.19Z" transform="translate(-3021.84 -343.85)"/><path class="d" d="M3115.38,423.08a4.58,4.58,0,1,1,4.58-4.58A4.58,4.58,0,0,1,3115.38,423.08Zm0-8a3.42,3.42,0,1,0,3.42,3.41A3.42,3.42,0,0,0,3115.38,415.09Z" transform="translate(-3021.84 -343.85)"/><path class="j" d="M3118.28,410.74a.59.59,0,0,0-.79.21,4.47,4.47,0,0,0-.7,3.86.59.59,0,0,0,.72.4.59.59,0,0,0,.4-.71c.26-2.48.4-2.73.58-3A.58.58,0,0,0,3118.28,410.74Z" transform="translate(-3021.84 -343.85)"/><path class="i" d="M3114.59,435.77a.59.59,0,0,0-.8-.2c-1.7,0-2.05.25-2.12.54a.61.61,0,0,0,.4.72,2.88,2.88,0,0,0,2.31-.26A.6.6,0,0,0,3114.59,435.77Z" transform="translate(-3021.84 -343.85)"/><path class="i" d="M3114.71,430.54a.6.6,0,0,0-.8-.21,13.65,13.65,0,0,1-3.31,1.33.58.58,0,0,0-.41.71.6.6,0,0,0,.72.41,15.53,15.53,0,0,0,3.59-1.45A.59.59,0,0,0,3114.71,430.54Z" transform="translate(-3021.84 -343.85)"/><path class="i" d="M3202.08,437a.58.58,0,0,0-1.12.31c.23.91-.88,1.69-1.5,2.15a16.32,16.32,0,0,1-2.66,1.6c-2,.95-4.07,1.67-6.1,2.46-.69.27-.39,1.39.31,1.12a64,64,0,0,0,7-2.9,15.75,15.75,0,0,0,2.85-1.94A2.88,2.88,0,0,0,3202.08,437Z" transform="translate(-3021.84 -343.85)"/><path class="i" d="M3195.86,447.83a.58.58,0,0,0-.82,0,3.73,3.73,0,0,1-.45.44,5.25,5.25,0,0,1-1.51.71.6.6,0,0,0-.4.72.59.59,0,0,0,.71.4,4.53,4.53,0,0,0,2.47-1.45A.59.59,0,0,0,3195.86,447.83Z" transform="translate(-3021.84 -343.85)"/><path class="i" d="M3195.51,455a.57.57,0,0,0-.27-.34.56.56,0,0,0-.44-.06c-1.59,1-1.66,1.14-1.65,1.28a.58.58,0,0,0,.58.58,2.3,2.3,0,0,0,1-.31,2.35,2.35,0,0,0,.74-.7A.59.59,0,0,0,3195.51,455Z" transform="translate(-3021.84 -343.85)"/><path class="i" d="M3200.28,433.61a4,4,0,0,0-3.72-.94,26.28,26.28,0,0,0-5,1.34c-3.4,1.17-6.72,2.49-10.19,3.43q-3,.8-6.05,1.34c-.74.13-.43,1.25.31,1.12a72.32,72.32,0,0,0,9.94-2.51c3.24-1.07,6.38-2.47,9.7-3.28,1.29-.32,3.16-.82,4.18.33C3200,435,3200.78,434.17,3200.28,433.61Z" transform="translate(-3021.84 -343.85)"/><path class="i" d="M3109.58,355.29a.59.59,0,0,0-.8-.2,12.78,12.78,0,0,0-2,1.32l-2,1.47a24.24,24.24,0,0,0-3.55,3.16c-.5.56.32,1.39.82.82a22.67,22.67,0,0,1,3.43-3.06c.61-.47,1.24-.92,1.86-1.38a11.35,11.35,0,0,1,2-1.33A.59.59,0,0,0,3109.58,355.29Z" transform="translate(-3021.84 -343.85)"/><path class="i" d="M3106.33,356.41a6.78,6.78,0,0,0-2.76-.66,5.41,5.41,0,0,0-2.6,1,21.61,21.61,0,0,0-4.37,3.67c-.5.55.31,1.37.82.82a20.66,20.66,0,0,1,3.86-3.31,5.23,5.23,0,0,1,2.21-1,5.46,5.46,0,0,1,2.53.61C3106.72,357.81,3107,356.69,3106.33,356.41Z" transform="translate(-3021.84 -343.85)"/><path class="i" d="M3099.67,357.28c-.34-.08-.58-.4-.86-.59a2.53,2.53,0,0,0-1.16-.38,4.76,4.76,0,0,0-2.32.43,12,12,0,0,0-3.68,2.85c-.52.54.3,1.36.82.83a11.53,11.53,0,0,1,3.23-2.59,3.75,3.75,0,0,1,1.89-.37c.72.09,1.08.78,1.77.94S3100.4,357.46,3099.67,357.28Z" transform="translate(-3021.84 -343.85)"/><path class="h" d="M3127,508.12a9.56,9.56,0,0,1-.82-1.63l-.34-.86-1.09,0q-3.09-7.53-6.48-14.91c-.31-.68.69-1.27,1-.59.76,1.66,1.51,3.34,2.25,5Q3124.37,501.6,3127,508.12Z" transform="translate(-3021.84 -343.85)"/><path class="h" d="M3158.9,502.2q-3-10.24-6-20.49l-1.7-5.84a.58.58,0,0,0-1.12.31q3,10.24,6,20.49l1.7,5.84A.58.58,0,0,0,3158.9,502.2Z" transform="translate(-3021.84 -343.85)"/><path class="h" d="M3122.1,372.66a1.4,1.4,0,1,1,.41-1.93A1.39,1.39,0,0,1,3122.1,372.66Z" transform="translate(-3021.84 -343.85)"/><path class="g" d="M3126.55,373.37a1.4,1.4,0,1,1,.41-1.93A1.39,1.39,0,0,1,3126.55,373.37Z" transform="translate(-3021.84 -343.85)"/><path class="j" d="M3131.07,374.1a1.4,1.4,0,1,1,.41-1.93A1.4,1.4,0,0,1,3131.07,374.1Z" transform="translate(-3021.84 -343.85)"/><path class="a" d="M3139.42,385.35q-9.12-1.61-18.18-3.52c-.73-.15-1,1-.31,1.12q9.06,1.92,18.18,3.52C3139.84,386.6,3140.16,385.48,3139.42,385.35Z" transform="translate(-3021.84 -343.85)"/><path class="a" d="M3124.33,385.94a7.62,7.62,0,0,0-3.52-.63.57.57,0,0,0-.58.58.59.59,0,0,0,.58.58,7.48,7.48,0,0,1,.82,0,8.43,8.43,0,0,1,1.42.24c1,.36,1.33.33,1.49,0A.58.58,0,0,0,3124.33,385.94Z" transform="translate(-3021.84 -343.85)"/><path class="a" d="M3138.71,389.32l-5.64-1.21c-1.8-.38-3.66-.67-5.42-1.2a.58.58,0,0,0-.31,1.12c1.76.53,3.62.82,5.42,1.2l5.65,1.2C3139.13,390.59,3139.45,389.47,3138.71,389.32Z" transform="translate(-3021.84 -343.85)"/><path class="a" d="M3137,393.42q-8.19-1.16-16.28-2.86c-.73-.15-1,1-.31,1.12q8.08,1.69,16.28,2.85a.6.6,0,0,0,.72-.4A.59.59,0,0,0,3137,393.42Z" transform="translate(-3021.84 -343.85)"/><path class="c" d="M3177,391.37c.31-.26.63-.51.95-.75.58-.45,1.18-.89,1.79-1.32,1.2-.84,2.44-1.63,3.7-2.38a1.16,1.16,0,0,0-1.17-2,57.41,57.41,0,0,0-5.08,3.38c-1,.75-3,1.77-2.94,3.21.07,1.27,1.8,2.62,2.59,3.47a62.48,62.48,0,0,0,4.76,4.59c1.13,1,2.78-.66,1.65-1.64s-2.09-1.86-3.08-2.84c-.76-.76-2.81-2.31-3.08-3.32Q3176.65,391.55,3177,391.37Z" transform="translate(-3021.84 -343.85)"/><path class="c" d="M3200.91,390.42a37.35,37.35,0,0,1-8.2-5.8c-1.1-1-2.74.62-1.64,1.64a40,40,0,0,0,7.24,5.37c-2.31,2-4.55,4.08-6.72,6.25a1.16,1.16,0,0,0,1.64,1.64q3.81-3.81,7.92-7.27A1.17,1.17,0,0,0,3200.91,390.42Z" transform="translate(-3021.84 -343.85)"/><path class="f" d="M3177.18,474c-.11.48-.21,1-.32,1.47-.33,1.57-.69,3.25-1.07,5L3154,472.52l1.91-4.87.57-1.46Z" transform="translate(-3021.84 -343.85)"/><path class="j" d="M3184,420.11a26.15,26.15,0,0,1-21.3-13.82c-4.49-8.57-4.4-22.22,3.08-29.18,1.09-1-.55-2.66-1.64-1.64-8.14,7.57-8.36,22.06-3.7,31.5A28.49,28.49,0,0,0,3184,422.43C3185.45,422.52,3185.45,420.2,3184,420.11Z" transform="translate(-3021.84 -343.85)"/><path class="j" d="M3180.68,363.58a54.59,54.59,0,0,1-.72-12.11c0-.68-.94-.75-1.14-.16q-2,6.12-4.09,12.23l-2.19-2.8a.58.58,0,0,0-1,.41,32.53,32.53,0,0,1,.19,3.56,146.86,146.86,0,0,1-9.5-15.16c-.36-.67-1.3-.08-1,.59,2.45,5.48,2.59,11.63,4.56,17.25a56.32,56.32,0,0,1-5.28-3.52c-.45-.35-1.14.34-.79.79a37.44,37.44,0,0,1,3.94,6.46,53.82,53.82,0,0,1-6.32-.82.58.58,0,0,0-.56,1,22.77,22.77,0,0,0,8.12,5.35c.7.27,1-.85.31-1.12a21.66,21.66,0,0,1-6.22-3.74c1.74.26,3.48.45,5.23.56a.51.51,0,0,0,.89.05c.69,0,.68-1.12,0-1.15-.79-1.56-1.6-3.06-2.51-4.49,1.32.88,2.67,1.71,4.06,2.47a.58.58,0,0,0,.79-.79c-1.82-4.27-2.31-8.91-3.38-13.39q3.55,6,7.68,11.62a.63.63,0,0,0,1,0,17.25,17.25,0,0,0,.14-3.64l1.67,2.14c.29.37.85.12,1-.25q1.64-4.84,3.25-9.7a56.42,56.42,0,0,0,.82,8.69C3179.68,364.62,3180.8,364.31,3180.68,363.58Z" transform="translate(-3021.84 -343.85)"/><path class="f" d="M3140.52,353.16a2.63,2.63,0,0,0-2.85-1.35,3.26,3.26,0,0,0-1.63.83,2.75,2.75,0,0,0-.85,1.71,3.11,3.11,0,0,0,2.23,3,2.69,2.69,0,0,0,3-1A3.18,3.18,0,0,0,3140.52,353.16Z" transform="translate(-3021.84 -343.85)"/><path class="g" d="M3212.75,424.12c-.59-1.19-1.13-2.41-1.61-3.66a.59.59,0,0,0-.71-.4.61.61,0,0,0-.39.35.56.56,0,0,0-.57.28l-1,1.94c-.16.33-.33.64-.49,1a1,1,0,0,0,.12,1.18,1.31,1.31,0,0,0,.91.33c.35,0,.71,0,1.06,0,.72,0,1.45-.06,2.17-.12A.59.59,0,0,0,3212.75,424.12Zm-3.29-.16a1.29,1.29,0,0,1,.17-1l.7-1.39c.32.8.67,1.58,1,2.36l-1,0Z" transform="translate(-3021.84 -343.85)"/><path class="j" d="M3055.26,368.3l-.8-1.54a2.31,2.31,0,0,0-.91-1.17c-.61-.29-1.13.08-1.63.4l-1.08.7c-.63.2-.71.43-.67.66.61,1.49,1,2.42,1.41,3.36a.58.58,0,0,0,.91.11,10.12,10.12,0,0,1,2.56-1.73A.59.59,0,0,0,3055.26,368.3Zm-3.74-.66.74-.49.6-.38a1.92,1.92,0,0,1,.7.77l.42.81a10.39,10.39,0,0,0-1.68,1.11Z" transform="translate(-3021.84 -343.85)"/><path class="g" d="M3054.12,378.21a2.79,2.79,0,0,0-2.52-.52,2.65,2.65,0,0,0-1.6,1.17.59.59,0,0,0-.31.67,3,3,0,0,0,.21.88,4.23,4.23,0,0,0,1.74,1.37,2.38,2.38,0,0,0,2.72-.9A2,2,0,0,0,3054.12,378.21Zm-.51,1.53c-1.29-1-1.13-1-1-1C3053.61,379.64,3053.61,379.69,3053.61,379.74Z" transform="translate(-3021.84 -343.85)"/></svg>