<?xml version="1.0" encoding="UTF-8"?>
<svg xmlns="http://www.w3.org/2000/svg" xmlns:xlink="http://www.w3.org/1999/xlink" viewBox="0 0 50 50" width="50px" height="50px">
<g id="surface2682378">
<path style=" stroke:none;fill-rule:nonzero;fill:white;fill-opacity:1;" d="M 39.128906 41.21875 L 32.421875 28.554688 C 36.148438 26.820312 38.429688 23.152344 38.429688 18.78125 C 38.429688 12 33.394531 7.621094 25.597656 7.621094 L 11.570312 7.621094 C 11.132812 7.621094 10.78125 7.972656 10.78125 8.410156 L 10.78125 41.589844 C 10.78125 42.027344 11.132812 42.378906 11.570312 42.378906 L 17.101562 42.378906 C 17.535156 42.378906 17.890625 42.027344 17.890625 41.589844 L 17.890625 29.738281 L 25.003906 29.738281 L 31.472656 41.960938 C 31.609375 42.21875 31.878906 42.378906 32.171875 42.378906 L 38.429688 42.378906 C 38.707031 42.378906 38.964844 42.234375 39.105469 41.996094 C 39.25 41.761719 39.257812 41.464844 39.128906 41.21875 Z M 25.019531 24.210938 L 17.890625 24.210938 L 17.890625 13.148438 L 24.875 13.148438 C 28.878906 13.148438 31.320312 15.257812 31.320312 18.691406 C 31.320312 22.195312 29.023438 24.210938 25.019531 24.210938 Z M 25.019531 24.210938 "/>
</g>
</svg>
