<?xml version="1.0" encoding="UTF-8"?>
<svg xmlns="http://www.w3.org/2000/svg" xmlns:xlink="http://www.w3.org/1999/xlink" viewBox="0 0 50 50" width="50px" height="50px">
<g id="surface2720929">
<path style=" stroke:none;fill-rule:nonzero;fill:white;fill-opacity:1;" d="M 34.417969 31.238281 C 34.074219 31.238281 33.78125 31.46875 33.671875 31.792969 C 32.582031 34.953125 29.53125 36.699219 25.605469 36.699219 C 19.882812 36.699219 16.421875 32.375 16.421875 24.988281 C 16.421875 17.625 19.882812 13.300781 25.582031 13.300781 C 29.597656 13.300781 32.714844 15.390625 33.738281 18.949219 C 33.839844 19.292969 34.136719 19.539062 34.496094 19.539062 C 34.496094 19.539062 38.8125 19.542969 40.210938 19.539062 C 40.445312 19.539062 40.628906 19.332031 40.597656 19.097656 C 39.683594 12.105469 33.40625 7.058594 25.582031 7.058594 C 15.601562 7.058594 9.398438 13.9375 9.398438 25.011719 C 9.398438 36.070312 15.609375 42.941406 25.605469 42.941406 C 33.457031 42.941406 39.46875 38.425781 40.597656 31.695312 C 40.636719 31.460938 40.449219 31.242188 40.210938 31.238281 Z M 34.417969 31.238281 "/>
</g>
</svg>
