<?xml version="1.0" encoding="UTF-8"?>
<svg xmlns="http://www.w3.org/2000/svg" xmlns:xlink="http://www.w3.org/1999/xlink" viewBox="0 0 50 50" width="50px" height="50px">
<g id="surface2675213">
<path style=" stroke:none;fill-rule:nonzero;fill:white;fill-opacity:1;" d="M 40.398438 9.601562 L 34.101562 9.601562 C 33.820312 9.601562 33.539062 9.738281 33.46875 10.019531 L 25 30.53125 L 16.53125 10.019531 C 16.460938 9.738281 16.179688 9.601562 15.898438 9.601562 L 9.601562 9.601562 C 9.179688 9.601562 8.898438 9.878906 8.898438 10.300781 L 8.898438 39.699219 C 8.898438 40.121094 9.179688 40.398438 9.601562 40.398438 L 14.5 40.398438 C 14.921875 40.398438 15.199219 40.121094 15.199219 39.699219 L 15.199219 20.800781 L 15.691406 20.800781 L 22.761719 37.878906 C 22.898438 38.160156 23.109375 38.300781 23.390625 38.300781 L 26.679688 38.300781 C 26.960938 38.300781 27.238281 38.160156 27.308594 37.878906 L 34.308594 20.800781 L 34.800781 20.800781 L 34.800781 39.699219 C 34.800781 40.121094 35.078125 40.398438 35.5 40.398438 L 40.398438 40.398438 C 40.820312 40.398438 41.101562 40.121094 41.101562 39.699219 L 41.101562 10.300781 C 41.101562 9.878906 40.820312 9.601562 40.398438 9.601562 Z M 40.398438 9.601562 "/>
</g>
</svg>
