<svg xmlns="http://www.w3.org/2000/svg" xmlns:xlink="http://www.w3.org/1999/xlink" viewBox="0 0 3015 1666.83"><defs><style>.a{fill:none;}.b{isolation:isolate;}.c{clip-path:url(#a);}.d{fill:rgb(150,150,190);}.e{opacity:0.7;mix-blend-mode:overlay;}.f{fill:#fff;}.g{fill:#e8531e;}.h{fill:#141213;}.i{fill:#f6b399;}.j{fill:#ee796a;}.k{fill:#29a9e1;}.l{fill:#ffd236;}</style><clipPath id="a"><rect class="a" width="3015" height="1666.83"/></clipPath></defs><g class="b"><g class="c"><path class="d" d="M2651.24,440.3c-182.11-.55-249,124.52-585.43,388-648,507.57-949.7,474.31-1002.19,728.6-74.76,362.21,471.65,748.16,609.55,845.56,140.11,99,971.6,686.26,1518,300.42,477.92-337.47,365.73-1156.68,163.32-1600.47C3320.65,1028.14,3045.06,441.5,2651.24,440.3Z"/><path class="d" d="M2927,229.11c-38.21-14.17-76.72-22.69-111.54-24.59-88-4.8-174.68,20.48-262.52,27.6-30.92,2.51-62.61,2.87-91.76,13.47C2413.35,263,2393.7,309.5,2384.71,356c-12.8,66.2-151.86,228.74-76.45,278.62,30.6,20.24,69.91,19.16,106.08,25.3,48.75,8.28,97.71,34,119.25,78.49,23.72,49,9.48,108.19,24.43,160.54,15,52.57,59.68,93.9,111.35,111.75,139,48,300-53,349.72-183.76,42.55-111.91,161.25-258.91,130.93-386.08C3126.71,343.16,3027.9,266.49,2927,229.11Z"/><path class="d" d="M1621.89,868.2c-41.75,57.11-50.22,124.79-13.41,184,53.79,83.66,184.24,75.64,293.34,60,123.31-21.61,166.12-8.15,189.85-96.25,7.69-24.17,38.23-29.63,54.53-45,28.35-37.39-44.33-43.24-54.61-74.2-14.7-34.46,21.19-68.37,33.28-108.67,23.05-75.43-32.63-114.14-109.47-133.72-133-36.19-206.8,9.31-284.49,91.55C1697.53,783.2,1653.61,822.65,1621.89,868.2Z"/><g class="e"><path class="f" d="M1454.44,1674.86a3565,3565,0,0,1,626.83-499.24q84.8-53.14,172.5-101.41c59.61-32.8,120-64.43,182.51-91.45,118.16-51.11,247.49-86.92,377.16-70.83,111.22,13.81,220.21,63,288.94,154.09,70.59,93.53,84.53,219.81,56.08,331.3C3129,1512.57,3053,1608.79,2958.28,1678.46c-103.1,75.83-226,118.88-351.07,141.41-69.7,12.56-140.35,19.26-211,23.15-69.26,3.82-140.06,8.38-209.18.62-62.39-7-123.17-26-171.41-67.45-41.82-36-71.31-87.74-70-144,1.47-62.08,37.41-116.44,78.29-160.53,42.39-45.73,92-85.6,142.06-122.6a1359.58,1359.58,0,0,1,331.33-179.49,1340.92,1340.92,0,0,1,182.46-54c58.85-12.93,119.24-23.32,179.54-25.62,54-2.06,110.35,2.55,160.85,23.18,51.95,21.22,94.48,60.15,116.42,112.34,22.23,52.88,14.31,110.42-13.45,159.61-31,55-81.36,96.66-131.3,133.85-52.72,39.26-109.75,73.31-170.07,99.52-60,26-123.06,40.32-186.52,55.11-130,30.3-262.52,56-396.39,57.82-64.89.9-130.06-4.07-193.65-17.34a692,692,0,0,1-94.74-26.81c-28.77-10.45-57.86-22.22-84-38.3-23-14.18-45.43-32.71-57.89-57.23-11.36-22.38-13.72-49.06-4.56-72.64,18.35-47.22,69.79-72.68,114.6-88.77,29.54-10.61,60.28-18.1,90.49-26.48,35.87-9.94,71.79-19.64,107.88-28.73,70.9-17.84,142.49-33.32,214.95-43.25,69.87-9.56,140.36-14,210.84-10.57,12.88.63,13,20.74,0,20.1-141.67-7-282,18.34-418.9,52.72-34.54,8.68-68.95,17.93-103.28,27.42-30.13,8.32-60.71,15.88-90.31,26-40.43,13.77-94.14,37-108.51,81.47-17.43,53.92,34,93.38,76.2,114.46,55.49,27.7,116.42,45.42,177.39,56,126,21.86,255.73,11.6,381-9.61,64-10.83,127.39-24.66,190.51-39.6,30.79-7.29,61.86-14.09,92.25-22.87a620.74,620.74,0,0,0,86.65-32.57c58-26.67,112.94-60.38,163.7-99.07,47.23-36,94.53-76.78,121.57-130.71,24.74-49.34,24.74-104.79-3.51-152.69-27.4-46.44-71.81-75.88-123.17-90.09-51-14.11-105.08-14.7-157.47-10.06-59,5.22-117.73,16.43-175.17,30.61a1342.91,1342.91,0,0,0-491,235.17c-48,36.59-96,76.08-135.28,122.11-36.74,43-67.25,98.14-58.37,156.63,8,52.68,44.93,96.76,88.91,124.63,54,34.21,119,43.83,181.82,45.62,67.52,1.93,135.71-1.91,203-6.89,131.18-9.69,264.21-31.6,384.51-87,102.35-47.17,196.5-118,258-213.63,60.69-94.46,85.2-213.47,58.08-323.32-13.31-53.91-39.37-104-77.4-144.66-36.4-38.87-82.09-68.62-131.37-88.55-109.26-44.18-229-42.39-341.81-13.23-127.56,33-245.78,95.91-359.88,160.3a3530.71,3530.71,0,0,0-626.65,450.39q-69.52,62.57-135.67,128.75c-9.16,9.16-23.38-5-14.22-14.21Z"/></g><path class="g" d="M2804.2,495.19c-28.33-38-76.4-58.16-123.65-57.73-19.28-71.59-75-133-140.11-167.12-99.2-52-218.31-54.86-327.29-42.36-111.34,12.77-221.61,48.14-314.93,111.11-83.6,56.41-153.45,133.68-195.43,225.81-44.18,97-54.4,210.47-23.47,312.88a395.71,395.71,0,0,0,29.65,72c4.56,8.54,18,1.65,13.38-6.94-48.33-90.5-57.3-198.77-32-297.57,24-93.83,79-177.33,150.33-242.1,76.42-69.37,170.77-116,270.46-141.27a808.9,808.9,0,0,1,161.57-23.69c52.47-2.42,105.75-.75,157.35,9.72,49.86,10.12,98.89,28.32,140.14,58.61,37.33,27.41,68,64.56,86.15,107.28a213.19,213.19,0,0,1,8.73,24.57c-32.68,3.48-63.87,17.15-86.57,42.1-16.48,18.11-27.41,41.35-24.72,66.26,2.42,22.45,16.66,44.3,38.62,51.72,23,7.76,49.46-1.41,66-18.34,18.53-19,26.28-45.56,28.6-71.41a201.22,201.22,0,0,0-3-56.23,145,145,0,0,1,74.7,21.51c87.62,54.63,65.51,174,40.91,256.82A1010.24,1010.24,0,0,1,2662,1017.67c-57.76,83.41-131.95,174.58-237.15,194.71-24.84,4.75-50.6,5-75.32-.6-9.38-2.13-14.19,12.16-4.73,14.3,54.77,12.4,112-.44,160.4-27.68s87.58-67.31,122.35-109.89c70.8-86.7,126.83-185.58,165.64-290.52,18.61-50.32,35.27-102.87,41.6-156.33C2840.71,591.2,2835.44,537.07,2804.2,495.19Zm-142.92,54.74c-10,20.61-30.21,37.65-54.22,36.14-21.58-1.36-35.39-20.21-38.26-40.35-3.28-23,9.77-45.06,25.92-60.29a119.93,119.93,0,0,1,52.2-28.54,140,140,0,0,1,21.81-3.81,186.11,186.11,0,0,1,3.6,26.31C2673.78,503,2671.71,528.38,2661.28,549.93Z"/><path class="h" d="M2571.76,813.38a88.44,88.44,0,0,0-15.07-9.79,21.68,21.68,0,0,0,8.63-15.18c.67-6.18-1.89-12.81-7.16-16.31-6.55-4.29-14.65-2.64-20.6,1.81-.53.38-1,.83-1.47,1.24-10.92-26.82-29-50.51-50-70.58-8.55-8.17-17.55-15.93-26.86-23.43,3.17-20.41-3-41.62-19.69-54.87-16.84-13.37-41.32-14.39-58.08-.49-.57.45-1.06,1-1.58,1.46-17-8.88-36.35-14.91-54.88-8.54-14.35,4.93-26.78,15.7-31,29.67a40.21,40.21,0,0,0-20.82-3.57c-12.92,1.2-24.07,8.55-31.23,19.32-17.55,26.48-7.34,58.64,4.37,85.12a6.75,6.75,0,0,0,1.17,1.88c8.1,30,43.24,49.42,64.86,68.85a355.16,355.16,0,0,1,75.25,95.89,344.65,344.65,0,0,1,26.55,64c1.21,3.95,4.75,6.59,9,5.72a158,158,0,0,0,95.63-62c19.74-27.38,29.49-61.4,28.51-95.07a44.05,44.05,0,0,0,23.81-2.11c2.41-.9,4-3.88,4.07-6.29C2575.3,817.22,2573.86,815.11,2571.76,813.38Z"/><path class="i" d="M2483.36,1067.39a235.14,235.14,0,0,1-34.24,30.54c-44.33,32-104.82,46.82-156.23,22.52-34.54-16.3-60-51.14-63.23-88.73,3.38.45,6.77.86,10.16,1.32,2.08.26,4.15.52,6.18.79.15,0,.26,0,.41,0,22,2.87,44.07,5.84,66.07,8.78-2-12.69-4.26-27.19-6.63-40.45-1-5.35-1.92-10.51-2.9-15.22-2.79-13.56-5.46-23.76-7.57-26l96.95-25.95,16.19,120.87c4.37.64,8.78,1.2,13.18,1.84,12.62,1.81,25.35,3.58,38,5.61,3.24.49,6.52,1,9.76,1.58C2474.09,1065.73,2478.73,1066.52,2483.36,1067.39Z"/><circle class="i" cx="2313.75" cy="865.48" r="122.01"/><path class="i" d="M2483.06,892.29c-33.67,58.34-115,74.5-181.54,36-62.75-36.19-90-107.94-64.82-164.89a104.71,104.71,0,0,1,15.06-24.56c37.86-46.51,110.92-57,171.75-21.84C2490.1,755.45,2516.77,833.94,2483.06,892.29Z"/><ellipse class="i" cx="2422.98" cy="941.27" rx="49.46" ry="47.29"/><path class="j" d="M2452.8,940.3a79.63,79.63,0,0,0-43.63-15.84c-3.93-.21-7.88,3.08-7.9,7.14a7.66,7.66,0,0,0,7.14,7.91c1.79.1,3.58.24,5.37.47.89.11,1.77.26,2.66.39l.43.07.9.19a71.17,71.17,0,0,1,9.7,2.8q2.54.93,5,2c.14.06,2.09,1,.67.31.8.42,1.6.82,2.39,1.25a72.29,72.29,0,0,1,9,5.88c3.15,2.39,8.45,1.15,10.43-2.18A7.72,7.72,0,0,0,2452.8,940.3Z"/><path class="i" d="M1891.47,1426.51c-5.69,2.07-11.41,4.18-17.1,6.29-78.87,29.11-159,60.07-243.31,66.51-42.37,3.24-86.62-.3-124.48-21.09-34.76-19.09-59-51.78-64.82-91.29-6.06-41.13,4.3-82.53,14.09-122.26q17.12-69.27,35.33-138.27,35.53-134.34,75.48-267.48-14.42-12.6-28.89-25.13c-18.87-4.78-37.66-10.13-56.2-16.08a933.2,933.2,0,0,1-123.76-49.87c-17.81-8.7-36.72-17.74-49.68-33.25-11-13.26-17.21-31.79-12.43-48.63-4.22-8.09-6.51-16.91-5.53-26.36,2-19.1,16.15-37.55,36.68-37a7.19,7.19,0,0,1,2.79.57c3.91-12.13,13.29-22.26,27-23.46,17.51-1.51,30.47,12.8,40.11,25.53,8.51,11.23,17.21,22,27.45,31.45-.3-1.13-.6-2.26-.82-3.39a178.73,178.73,0,0,1-4-27.61c-.64-9-.52-18.49,2.83-27,3.61-9.08,10.73-16.27,20.49-18.31s20.71,1,28.55,7.23c15,11.94,21.47,31.57,28.09,48.89,6.18,16.23,12.09,33.22,22.15,47.57,10.92,15.55,26.63,24.41,45.46,26.82,22.67,2.86,46.25.9,69.08.64,24.82-.34,49.6-.72,74.38-1,35.71-.45,79.47,3.8,93.79,42.6,7,18.79,5.34,39.35,3,58.86-2.94,24.75-6,49.49-9,74.24q-9,74.63-18.12,149.3c-4.26,35.18-20,83.91-24.29,119.09a1.07,1.07,0,0,0,.26-.19c4.75-2.82,11.22-7.79,18-13.25,3.5-2.75,7.08-5.69,10.59-8.48,6.66-5.31,12.95-10.21,17.47-13.07q28.47,86.33,53.48,173.78Q1874.54,1359.71,1891.47,1426.51Z"/><path class="h" d="M2480.76,924.26a5.22,5.22,0,0,1-2.11,1.43c.9,5.69-.1,7.64-6.21,3.46-18.11-12.47-52.45-9.69-65.86,8.09-4.33,5.69-12.6,8.72-12.07.85,2-30.59,14.39-58.76,34.54-81.74,9-10.28,18.68-20.67,17.21-35.44s-10.73-27.94-19.4-39.51A372.37,372.37,0,0,1,2271,710.48c-5.38-4.18-2.82-11.71,1.81-13.67,2.52-13.94,15.74-24.07,30.09-26.06,17.18-2.45,35.78,1.54,52.54,5.19,55.75,12.17,111.79,43.36,138.83,95.56C2519.21,819.75,2518.05,882.64,2480.76,924.26Z"/><path class="h" d="M2237,793.51a14,14,0,1,1,8.56,17.88A14,14,0,0,1,2237,793.51Z"/><path class="f" d="M2217.24,839a48.23,48.23,0,0,1-24-6,43,43,0,0,1-20.44-28.39A50.93,50.93,0,0,1,2206.64,746a42.94,42.94,0,0,1,34.81,3.5c27.43,15.84,34.93,38.94,21.1,65-5.58,10.52-15.9,18.4-29.09,22.19A59,59,0,0,1,2217.24,839Zm3-80.1a30.19,30.19,0,0,0-9.1,1.43,35.89,35.89,0,0,0-23.69,41A28.06,28.06,0,0,0,2200.75,820c7.47,4.31,18.4,5.18,28.55,2.26,9.21-2.65,16.29-7.89,19.93-14.76,10.13-19.12,5.41-33-15.31-44.94A27.19,27.19,0,0,0,2220.28,758.89Z"/><path class="j" d="M2274.65,758.58c-1.51-3.78-6.8-5-10.15-3.23-3.91,2-4.74,6.37-3.23,10.16,6.15,15.38,1,34.41-11.21,45.31-7.26,6.47-17.65,9.2-22.75,18-4.67,8.1-3.84,20.2,5,25.11,8.45,4.68,16.74-7.9,8.25-12.6-1.36-.76-1.5-2.26-.68-4.26,1.57-3.81,6.76-6,10.05-8,8-4.69,14.77-10.6,19.76-18.45A57.43,57.43,0,0,0,2274.65,758.58Z"/><path class="h" d="M2277.72,747.88c-.82-5.33-4.76-9.56-9.08-12.42-9.22-6.1-24.9-11.59-32.39.79a18.89,18.89,0,0,0-1.8,3.49c-4.76,13.85,23.26,28.2,34.2,23.4C2274.62,760.55,2278.73,754.51,2277.72,747.88Z"/><path class="h" d="M2318.26,824.29a14,14,0,1,1,8.55,17.88A14,14,0,0,1,2318.26,824.29Z"/><path class="j" d="M2299.09,876.71c-1.81-3.49-6.62-5.25-10.16-3.22a100.06,100.06,0,0,1-47.53,13.44c-4.07.08-7.69,2.87-7.9,7.14-.2,3.85,3.05,8,7.14,7.91a115.25,115.25,0,0,0,55.23-15.11A7.7,7.7,0,0,0,2299.09,876.71Z"/><path class="j" d="M1518.45,768.92c-47.55-29.34-85.27-81.06-92.58-137.26-2.12-16.22,1-33.91,14.57-44.38,7.69-5.92-2.45-17.07-10.1-11.18-28.93,22.23-20.88,63.95-10.32,93.55a218.58,218.58,0,0,0,49.18,79,215.62,215.62,0,0,0,41,32.86C1518.46,786.61,1526.72,774,1518.45,768.92Z"/><path class="j" d="M1499.4,783.83a338.4,338.4,0,0,1-124.21-80.49c-16.3-16.68-36.15-36.81-40.26-60.73a34.41,34.41,0,0,1,7.48-28.31c6-7,14.83-10.39,23.72-7,10.72,4.12,17.82,15.46,23.54,24.78,8.51,13.86,16.88,27.8,25.32,41.7,5,8.24,18.42,1.38,13.37-6.93-8.43-13.9-16.8-27.85-25.31-41.7-6.51-10.61-13.93-21.65-24.67-28.41s-23.94-8-35.25-2c-10.72,5.61-18.61,16.45-21.91,28-8.07,28.13,10.79,54.61,28.16,74.8a353.24,353.24,0,0,0,145.28,100.64C1503.78,801.51,1508.48,787.19,1499.4,783.83Z"/><path class="j" d="M1493,806.86A372.42,372.42,0,0,1,1379.2,757.7a350.82,350.82,0,0,1-49.42-38.45c-13.37-12.58-27.9-28.61-29.38-47.88-1.16-15.23,9.26-35.24,26.44-35,9.67.15,10.48-14.9.76-15-19.73-.31-35.16,15.13-40.27,33.39-6,21.47,3.26,42.49,16.66,59.1,14.28,17.68,33,32.47,51.31,45.73a387,387,0,0,0,59.41,35.21,379.86,379.86,0,0,0,73.54,26.38C1497.62,823.47,1502.41,809.18,1493,806.86Z"/><path class="j" d="M1419.7,784.71c-25.69-12-54.55-15.86-79.65-29.12-21.61-11.41-41.15-32.19-36.64-58.46.68-4-3.43-7.71-7.15-7.9-4.46-.23-7.21,3.11-7.9,7.14-5,29.25,15.3,55.6,39.34,69.56,27.19,15.79,59,19.91,87.26,33.08,3.69,1.72,8.35-1.24,9.52-4.78C1425.88,790,1423.4,786.43,1419.7,784.71Z"/><path class="g" d="M2777.36,1667.18a7.38,7.38,0,0,1-11.3,1.7H2088.75c-3.8,2.94-10.77,2.26-12.46-3.92q-10.68-39.54-19.7-79.51a1934.85,1934.85,0,0,1-35.18-209c-38.53,16.08-77.59,30.92-116.76,45.27q-6.33,2.37-12.73,4.67l-.45.15q-16.89-66.78-35.86-133.07-25-87.39-53.48-173.78,4.24-2.65,8.44-5.31c38.08-24,76-48.36,117.06-67a370.54,370.54,0,0,1,63-22.52c26-6.56,52.84-9.12,79.66-9,29.41.15,58.72,3.39,87.87,6.93q21.59,2.61,43.09,5.35l15.06,1.92,13.34,1.7c3.23,37.59,28.69,72.43,63.23,88.73,51.41,24.3,111.9,9.53,156.23-22.52a235.14,235.14,0,0,0,34.24-30.54c5.35,1,10.66,2,16,3.16,4.07.83,8.17,1.73,12.2,2.67,21.36,5,42.3,11.53,62.37,20.53,43,19.25,78,50.06,104.44,88.81,25.65,37.63,42.45,80.94,53.56,124.93,26.86,106.52,18.12,218.19,41.85,325.31a5.84,5.84,0,0,1,.83,2.18c1,6.7,1.92,13.41,2.9,20.11C2781.17,1657.8,2781,1664.13,2777.36,1667.18Z"/><path class="f" d="M1904.65,1421.69q-6.33,2.37-12.73,4.67l-.45.15c-5.69,2.07-11.41,4.18-17.1,6.29-.26-1-.56-2-.87-2.94q-44.4-148.58-88.84-297.13c6.66-5.31,12.95-10.21,17.47-13.07q4.24-2.65,8.44-5.31,13.15,40.51,25.91,81.17,28.53,90.78,55.37,182.14Q1898.29,1399.63,1904.65,1421.69Z"/><path class="f" d="M2499.33,1070.55c-21.21,24.82-80,81.5-167.87,72-86.25-9.27-109.11-76.42-115.14-112.58l13.34,1.7c3.38.45,6.77.86,10.16,1.32,2.08.26,4.15.52,6.18.79,8.25,29.07,29.79,72.5,85.46,80.52,57.66,8.29,104.22-27.19,128.24-51,3.24.49,6.52,1,9.76,1.58,4.63.76,9.27,1.55,13.9,2.42C2488.71,1068.36,2494,1069.42,2499.33,1070.55Z"/><path class="i" d="M2213.91,1339a6,6,0,0,1-2.48,6.74c-1.1.83-2.19,1.51-3.28,2.26-.68,1-1.32,2-2,2.94a7.35,7.35,0,0,1-8,2.9c-30.88,15-70.13,9.79-96-13.45-32-28.77-28.28-75.7-46.21-111.9a125,125,0,0,0-36.42-44.06,121.16,121.16,0,0,0-25-14.8c-9.79-4.22-20.26-6.63-30-11-9.42-4.29-17.66-10.25-22.9-19.4s-6.06-20-.94-29.22c5.42-9.68,15.33-13.68,25.87-14.81a99.94,99.94,0,0,1-12.27-4.25c-16.58-7.12-29.76-21.62-27-40.83a35.53,35.53,0,0,1,17.48-25.76,40.18,40.18,0,0,1-4.67-4c-10.21-10.14-14.88-28.1-6.71-40.79,9.64-14.92,29.53-13.15,44.78-11.42a269.16,269.16,0,0,1,122.26,46.25,217.42,217.42,0,0,0-35.74-56.87,221.58,221.58,0,0,0-20-20.19c-6.82-6-13.86-11.6-18.83-19.36-10.25-16-2.68-35.4,14.27-42.74,18.65-8,37.59.83,52.09,12.95a243.14,243.14,0,0,1,38.53,41.4c44.37,59.43,64.86,132.23,83.2,203.15a7.36,7.36,0,0,1,2.26,3.81c4.48,17.17,8.93,34.39,12.43,51.82C2238.69,1238.27,2240.31,1294,2213.91,1339Z"/><path class="i" d="M2623.62,1479c-54.39,114.68-89.53,183.16-146.14,244.21-37.06,40-69.53,40-132,40-87,0-148.09-71-196.79-246-13.3-47.76-46.52-176.76-46.52-176.76s45.12-105.49,52.73-111.82S2222.2,1178,2222.2,1178l123,254.27,6.4,13.25a148.86,148.86,0,0,0,9.19-14.72c8.63-15.26,21.77-42.49,32.77-81.66Z"/><path class="g" d="M2639.66,1445.49l-238.15-124.25c20.19-68.77,44.64-141.16,64.56-166.59,41.88-53.37,109.08-92.27,207.42,20.45C2734.31,1244.9,2686.18,1349,2639.66,1445.49Z"/><path class="f" d="M2639.66,1445.49c-2.26,4.75-4.55,9.49-6.81,14.2-3.13,6.48-6.22,12.88-9.23,19.29l-232.14-122.53c.87-3.13,3.82-13.63,4.72-16.79,1.74-6.07,3.51-12.24,5.31-18.42Z"/><path class="j" d="M2115.05,1163.26a254,254,0,0,0-70.17-48.32,240.48,240.48,0,0,0-40.21-14.56c-14.5-3.83-30.44-7.75-45.43-4.62-14.75,3.08-27.54,14.43-28.9,29.93-.85,9.66,14.2,10.41,15.05.76,1.42-16.21,22.12-17.64,34.21-16,15.51,2,31,6.83,45.5,12.44a234.4,234.4,0,0,1,78.77,50.52C2110.79,1180.09,2122,1170,2115.05,1163.26Z"/><path class="j" d="M2135.48,1099.47A220.19,220.19,0,0,0,2033,1026.08c-20.37-7-43.28-12.25-65-11.23-21.51,1-45.39,12.24-48.51,36-1.6,12.24,4.08,24.72,12.55,33.33,9.64,9.8,22.49,15.23,35.18,19.89,9.12,3.35,13.82-11,4.74-14.3-15.58-5.72-39.7-16.08-37.59-36.69,2-19.35,25.85-23.83,41.37-23.17,37,1.58,73.63,15.58,103.79,36.71a203.37,203.37,0,0,1,44.71,43C2130.21,1117.28,2141.35,1107.13,2135.48,1099.47Z"/><path class="j" d="M2146.14,1045.44c-23.08-33.1-57.84-55.72-94.86-70.54A306.75,306.75,0,0,0,1990,957.25c-20.47-3.55-44-2-59.46,13.64-15.07,15.21-16.32,42.13,2.37,55.14,8,5.55,16.2-7.07,8.25-12.61-12.5-8.7-7.19-26.59,3-34.52,15.23-11.79,36.35-8.78,53.76-4.76,34,7.87,67.55,20.37,96.23,40.64a166.83,166.83,0,0,1,40.76,40.76c2.32,3.34,7.88,3,10.63.54C2148.94,1053.07,2148.48,1048.79,2146.14,1045.44Z"/><circle class="k" cx="1767.36" cy="422.08" r="203.47" transform="translate(219.19 1373.34) rotate(-45)"/><path class="k" d="M2853.54,837.34a50.86,50.86,0,1,1-71.91,1.3A50.86,50.86,0,0,1,2853.54,837.34Z"/><path class="l" d="M2674.49,762.7l52.26,136.66a21.77,21.77,0,0,0,36,7.34L2849,817.33a21.78,21.78,0,0,0-8.64-35.73l-138.46-47.29C2684.4,728.35,2667.9,745.46,2674.49,762.7Z"/><path class="l" d="M2833.39,284.74A96.25,96.25,0,0,1,2737.12,381H2556.64a393.63,393.63,0,0,1-83.84,60c-5.58,3-13.11-2.86-10.62-9.08l20.56-51h-13a96.25,96.25,0,0,1,0-192.5h267.34A96.28,96.28,0,0,1,2833.39,284.74Z"/><circle class="f" cx="2489.12" cy="285.79" r="29.35" transform="translate(1653.55 2647.82) rotate(-77.07)"/><circle class="f" cx="2602.11" cy="285.79" r="29.35" transform="translate(93.2 1032.81) rotate(-22.85)"/><circle class="f" cx="2715.1" cy="285.79" r="29.35" transform="translate(459.66 1824.11) rotate(-40.3)"/><path class="j" d="M2382.31,984.56a159.75,159.75,0,0,1-76.46,17.63c-1-5.35-1.92-10.51-2.9-15.22a144.41,144.41,0,0,0,72.43-15.78C2384,966.75,2390.93,980.16,2382.31,984.56Z"/><path class="f" d="M1774.07,1141.21l-28.62,138.22c-.83,4-6,6-9.49,4.79-4.18-1.4-5.62-5.54-4.79-9.53L1756,1154.46C1760.78,1151.64,1767.25,1146.67,1774.07,1141.21Z"/><path class="f" d="M2409.16,1567.41q-31.63-66.5-63.31-133a6.64,6.64,0,0,1-.68-2.22l6.4,13.25a148.86,148.86,0,0,0,9.19-14.72q30.9,64.8,61.77,129.71C2426.71,1569.26,2413.34,1576.15,2409.16,1567.41Z"/><path class="f" d="M2334.25,880.16c-27.92,0-50.63-23.45-50.63-52.27s22.71-52.28,50.63-52.28,50.64,23.45,50.64,52.28S2362.17,880.16,2334.25,880.16Zm0-89.48c-19.61,0-35.56,16.69-35.56,37.21s15.95,37.21,35.56,37.21,35.57-16.7,35.57-37.21S2353.87,790.68,2334.25,790.68Z"/><path class="h" d="M2367.79,764.3a44.46,44.46,0,0,0-22.49-5.74c-5.37.14-10.79,2-13.81,6.72a12.7,12.7,0,0,0-.24,13.52c1.75,8.34,16.31,12.23,23,14.73,10.77,4,21,8.83,31.47,13.68,5.06,2.36,11.13-3.6,9.7-8.69C2391.52,784.75,2381.06,771.55,2367.79,764.3Z"/><path class="f" d="M2297.57,823.28a37,37,0,0,0-20.67-24.46c-10.41-4.74-23.53-3.63-33.15,2.45-3.33,2.1-5.37,6.42-3.23,10.16,1.9,3.29,6.6,5.47,10.16,3.22a29.75,29.75,0,0,1,3-1.7c.42-.2.84-.37,1.26-.57l.31-.14c1.13-.3,2.11-.62,3.13-.83.57-.12,1.14-.22,1.71-.31l.6-.08,1.17-.07c.58,0,1.16,0,1.73,0,1,0,2,.15,3,.28.17,0,.36.06.54.1.45.11.89.23,1.34.36,1.08.32,2.09.77,3.16,1.14.44.25.88.48,1.3.73a26.58,26.58,0,0,1,2.35,1.56c.35.25.68.52,1,.79.93.9,1.66,1.64,2.35,2.44a20.58,20.58,0,0,1,4.26,8.16c1,3.81,5,6.81,9,5.73C2295.67,831.24,2298.64,827.36,2297.57,823.28Z"/><path class="h" d="M2081.9,1670h-15.71q-8.93-30.29-16.72-60.87a1778.17,1778.17,0,0,1-48.59-286.73c-.33-4.07,1.32-8,5.73-9,3.61-.79,8.62,1.69,9,5.72q3.51,40.56,8.81,80.9A1774.82,1774.82,0,0,0,2081.9,1670Z"/><circle class="f" cx="1823.5" cy="386.02" r="72" transform="translate(-39.91 429.28) rotate(-13.28)"/><path class="g" d="M1720.74,523.21a28.28,28.28,0,1,1-28.28-28.29A28.28,28.28,0,0,1,1720.74,523.21Z"/><circle class="l" cx="1678.32" cy="453.08" r="52.38" transform="translate(851.76 1982.4) rotate(-76.72)"/></g></g></svg>