<svg id="Layer_1" data-name="Layer 1" xmlns="http://www.w3.org/2000/svg" viewBox="0 0 262.4 143.29"><defs><style>.cls-1{fill:#ee7500;}.cls-2{fill:#f7ad00;}.cls-3{fill:#f6c3d9;}.cls-4{fill:#f6b695;}.cls-5{fill:#c66da8;}.cls-6{fill:#e4007f;}.cls-7{fill:#9e0083;}.cls-8{fill:#922251;}.cls-9{fill:#ffe250;}.cls-10{fill:#ed80a5;}.cls-11{fill:#d26612;}.cls-12{fill:#e30011;}.cls-13{fill:#ffe000;}</style></defs><path class="cls-1" d="M379.64,307.19l-11.37,6.56c-2.92,1.7-2.92,4.46,0,6.15l11.37,6.56c2.93,1.7,5.32.31,5.32-3.07V310.27C385,306.89,382.57,305.5,379.64,307.19Z" transform="translate(-316.02 -228.16)"/><path class="cls-2" d="M367.25,312l11.37-6.56c2.93-1.69,2.93-4.46,0-6.15l-11.37-6.56c-2.92-1.69-5.32-.31-5.32,3.07v13.13C361.93,312.3,364.33,313.68,367.25,312Z" transform="translate(-316.02 -228.16)"/><path class="cls-2" d="M354.57,292.72l-11.37,6.56c-2.93,1.69-2.93,4.46,0,6.15L354.57,312c2.93,1.69,5.32.31,5.32-3.08V295.79C359.89,292.41,357.5,291,354.57,292.72Z" transform="translate(-316.02 -228.16)"/><path class="cls-2" d="M354.57,263.77l-11.37,6.56c-2.93,1.69-2.93,4.46,0,6.15L354.57,283c2.93,1.69,5.32.31,5.32-3.08V266.84C359.89,263.46,357.5,262.08,354.57,263.77Z" transform="translate(-316.02 -228.16)"/><path class="cls-2" d="M342.18,268.56,353.55,262c2.93-1.69,2.93-4.46,0-6.15l-11.37-6.56c-2.93-1.69-5.32-.3-5.32,3.08v13.12C336.86,268.87,339.25,270.25,342.18,268.56Z" transform="translate(-316.02 -228.16)"/><path class="cls-2" d="M342.18,297.51,353.55,291c2.93-1.69,2.93-4.45,0-6.15l-11.37-6.56c-2.93-1.69-5.32-.3-5.32,3.08v13.12C336.86,297.82,339.25,299.2,342.18,297.51Z" transform="translate(-316.02 -228.16)"/><path class="cls-2" d="M404.72,350.65l-11.37,6.56c-2.92,1.69-2.92,4.45,0,6.15l11.37,6.56c2.93,1.69,5.32.3,5.32-3.08V353.72C410,350.34,407.65,349,404.72,350.65Z" transform="translate(-316.02 -228.16)"/><path class="cls-2" d="M378.63,357.21l-11.37-6.56c-2.93-1.69-5.32-.31-5.32,3.07v13.12c0,3.38,2.39,4.77,5.32,3.08l11.37-6.56C381.56,361.66,381.56,358.9,378.63,357.21Z" transform="translate(-316.02 -228.16)"/><path class="cls-2" d="M403.7,348.88c2.93-1.69,2.93-4.46,0-6.15l-11.36-6.56c-2.93-1.69-5.33-.31-5.33,3.08v13.12c0,3.38,2.4,4.76,5.33,3.07Z" transform="translate(-316.02 -228.16)"/><path class="cls-2" d="M379.65,365.12l-11,6.34H385V368.2C385,364.81,382.58,363.43,379.65,365.12Z" transform="translate(-316.02 -228.16)"/><path class="cls-2" d="M387,368.2v3.26h16.3l-11-6.34C389.41,363.43,387,364.81,387,368.2Z" transform="translate(-316.02 -228.16)"/><path class="cls-2" d="M367.26,283l11.37-6.56c2.93-1.69,2.93-4.46,0-6.15l-11.37-6.56c-2.93-1.69-5.32-.31-5.32,3.07V280C361.94,283.35,364.33,284.73,367.26,283Z" transform="translate(-316.02 -228.16)"/><path class="cls-2" d="M392.34,268.56,403.7,262c2.93-1.69,2.93-4.46,0-6.15l-11.36-6.56c-2.93-1.69-5.33-.3-5.33,3.08v13.12C387,268.87,389.41,270.25,392.34,268.56Z" transform="translate(-316.02 -228.16)"/><path class="cls-2" d="M379.65,278.25l-11.37,6.55c-2.93,1.7-2.93,4.46,0,6.15l11.37,6.56c2.93,1.69,5.32.31,5.32-3.07V281.32C385,277.94,382.58,276.55,379.65,278.25Z" transform="translate(-316.02 -228.16)"/><path class="cls-2" d="M379.65,249.29l-11.37,6.56c-2.93,1.69-2.93,4.46,0,6.15l11.37,6.56c2.93,1.69,5.32.31,5.32-3.07V252.37C385,249,382.58,247.6,379.65,249.29Z" transform="translate(-316.02 -228.16)"/><path class="cls-3" d="M468.56,313.75c-2.92,1.7-2.92,4.46,0,6.15l11.37,6.56c2.93,1.7,5.32.31,5.32-3.07V310.27c0-3.38-2.39-4.77-5.32-3.08Z" transform="translate(-316.02 -228.16)"/><path class="cls-2" d="M442.47,326.46l11.37-6.56c2.92-1.69,2.92-4.45,0-6.15l-11.37-6.56c-2.93-1.69-5.32-.3-5.32,3.08v13.12C437.15,326.77,439.54,328.16,442.47,326.46Z" transform="translate(-316.02 -228.16)"/><path class="cls-2" d="M467.54,312l11.37-6.56c2.93-1.69,2.93-4.46,0-6.15l-11.37-6.56c-2.92-1.69-5.32-.31-5.32,3.07v13.13C462.22,312.3,464.62,313.68,467.54,312Z" transform="translate(-316.02 -228.16)"/><path class="cls-2" d="M454.86,321.67l-11.37,6.56c-2.93,1.69-2.93,4.46,0,6.15l11.36,6.56c2.93,1.69,5.33.31,5.33-3.07V324.75C460.18,321.36,457.78,320,454.86,321.67Z" transform="translate(-316.02 -228.16)"/><path class="cls-2" d="M454.85,292.72l-11.36,6.56c-2.93,1.69-2.93,4.46,0,6.15L454.86,312c2.92,1.69,5.32.31,5.32-3.08V295.79C460.18,292.41,457.78,291,454.85,292.72Z" transform="translate(-316.02 -228.16)"/><path class="cls-2" d="M467.54,340.94l11.37-6.56c2.93-1.69,2.93-4.46,0-6.15l-11.37-6.56c-2.92-1.69-5.32-.31-5.32,3.07v13.13C462.22,341.25,464.62,342.63,467.54,340.94Z" transform="translate(-316.02 -228.16)"/><path class="cls-2" d="M468.56,233l11.37,6.56c2.93,1.69,5.32.31,5.32-3.08v-8.35H467C465.79,229.77,466.3,231.72,468.56,233Z" transform="translate(-316.02 -228.16)"/><path class="cls-2" d="M442.47,239.59,453.84,233c2.26-1.31,2.77-3.26,1.52-4.87H437.15v8.35C437.15,239.9,439.54,241.28,442.47,239.59Z" transform="translate(-316.02 -228.16)"/><path class="cls-2" d="M454.86,234.79l-11.37,6.56c-2.93,1.69-2.93,4.46,0,6.15l11.36,6.56c2.93,1.69,5.33.31,5.33-3.07V237.87C460.18,234.49,457.78,233.1,454.86,234.79Z" transform="translate(-316.02 -228.16)"/><path class="cls-4" d="M467.54,254.06l11.37-6.56c2.93-1.69,2.93-4.46,0-6.15l-11.37-6.56c-2.92-1.69-5.32-.3-5.32,3.08V251C462.22,254.37,464.62,255.75,467.54,254.06Z" transform="translate(-316.02 -228.16)"/><path class="cls-5" d="M429.79,307.19l-11.36,6.56c-2.93,1.7-2.93,4.46,0,6.15l11.36,6.56c2.93,1.7,5.33.31,5.33-3.07V310.27C435.12,306.89,432.72,305.5,429.79,307.19Z" transform="translate(-316.02 -228.16)"/><path class="cls-2" d="M392.34,326.46l11.36-6.56c2.93-1.69,2.93-4.45,0-6.15l-11.36-6.56c-2.93-1.69-5.33-.3-5.33,3.08v13.12C387,326.77,389.41,328.16,392.34,326.46Z" transform="translate(-316.02 -228.16)"/><path class="cls-2" d="M404.72,321.67l-11.36,6.56c-2.93,1.69-2.93,4.46,0,6.15l11.37,6.56c2.93,1.69,5.32.31,5.32-3.07V324.75C410,321.36,407.65,320,404.72,321.67Z" transform="translate(-316.02 -228.16)"/><path class="cls-2" d="M417.41,340.94l11.36-6.56c2.93-1.69,2.93-4.46,0-6.15l-11.36-6.56c-2.93-1.69-5.33-.31-5.33,3.07v13.13C412.08,341.25,414.48,342.63,417.41,340.94Z" transform="translate(-316.02 -228.16)"/><path class="cls-2" d="M418.43,233l11.36,6.56c2.93,1.69,5.33.31,5.33-3.08v-8.35H416.9C415.66,229.77,416.16,231.72,418.43,233Z" transform="translate(-316.02 -228.16)"/><path class="cls-2" d="M392.34,239.59,403.7,233c2.27-1.31,2.77-3.26,1.53-4.87H387v8.35C387,239.9,389.41,241.28,392.34,239.59Z" transform="translate(-316.02 -228.16)"/><path class="cls-2" d="M404.72,234.79l-11.36,6.56c-2.93,1.69-2.93,4.46,0,6.15l11.37,6.56c2.93,1.69,5.32.31,5.32-3.07V237.87C410,234.49,407.65,233.1,404.72,234.79Z" transform="translate(-316.02 -228.16)"/><path class="cls-6" d="M417.41,254.06l11.36-6.56c2.93-1.69,2.93-4.46,0-6.15l-11.36-6.56c-2.93-1.69-5.33-.3-5.33,3.08V251C412.08,254.37,414.48,255.75,417.41,254.06Z" transform="translate(-316.02 -228.16)"/><path class="cls-7" d="M454.86,350.65l-11.37,6.56c-2.93,1.69-2.93,4.45,0,6.15l11.37,6.56c2.92,1.69,5.32.3,5.32-3.08V353.72C460.18,350.34,457.78,349,454.86,350.65Z" transform="translate(-316.02 -228.16)"/><path class="cls-2" d="M428.76,357.21l-11.36-6.56c-2.93-1.69-5.32-.31-5.32,3.07v13.12c0,3.38,2.39,4.77,5.32,3.08l11.36-6.56C431.69,361.66,431.69,358.9,428.76,357.21Z" transform="translate(-316.02 -228.16)"/><path class="cls-8" d="M453.84,348.88c2.92-1.69,2.92-4.46,0-6.15l-11.37-6.56c-2.93-1.69-5.32-.31-5.32,3.08v13.12c0,3.38,2.39,4.76,5.32,3.07Z" transform="translate(-316.02 -228.16)"/><path class="cls-9" d="M429.78,365.12l-11,6.34h16.3V368.2C435.11,364.81,432.71,363.43,429.78,365.12Z" transform="translate(-316.02 -228.16)"/><path class="cls-10" d="M429.78,336.17l-11.36,6.56c-2.93,1.69-2.93,4.46,0,6.15l11.36,6.56c2.93,1.69,5.33.31,5.33-3.07V339.25C435.11,335.86,432.71,334.48,429.78,336.17Z" transform="translate(-316.02 -228.16)"/><path class="cls-5" d="M437.15,368.2v3.26h16.3l-11-6.34C439.54,363.43,437.15,364.81,437.15,368.2Z" transform="translate(-316.02 -228.16)"/><path class="cls-2" d="M454.86,263.77l-11.37,6.56c-2.93,1.69-2.93,4.46,0,6.15L454.86,283c2.92,1.69,5.32.31,5.32-3.08V266.84C460.18,263.46,457.78,262.08,454.86,263.77Z" transform="translate(-316.02 -228.16)"/><path class="cls-5" d="M442.47,268.56,453.84,262c2.92-1.69,2.92-4.46,0-6.15l-11.37-6.56c-2.93-1.69-5.32-.3-5.32,3.08v13.12C437.15,268.87,439.54,270.25,442.47,268.56Z" transform="translate(-316.02 -228.16)"/><path class="cls-2" d="M418.42,255.85c-2.93,1.69-2.93,4.46,0,6.15l11.36,6.56c2.93,1.69,5.33.31,5.33-3.07V252.37c0-3.38-2.4-4.77-5.33-3.08Z" transform="translate(-316.02 -228.16)"/><path class="cls-2" d="M442.47,297.51,453.84,291c2.92-1.69,2.92-4.45,0-6.15l-11.37-6.56c-2.93-1.69-5.32-.3-5.32,3.08v13.12C437.15,297.82,439.54,299.2,442.47,297.51Z" transform="translate(-316.02 -228.16)"/><path class="cls-2" d="M505,350.65l-11.37,6.56c-2.92,1.69-2.92,4.45,0,6.15L505,369.92c2.93,1.69,5.32.3,5.32-3.08V353.72C510.33,350.34,507.94,349,505,350.65Z" transform="translate(-316.02 -228.16)"/><path class="cls-2" d="M478.92,357.21l-11.37-6.56c-2.93-1.69-5.32-.31-5.32,3.07v13.12c0,3.38,2.39,4.77,5.32,3.08l11.37-6.56C481.85,361.66,481.85,358.9,478.92,357.21Z" transform="translate(-316.02 -228.16)"/><path class="cls-2" d="M504,348.88c2.93-1.69,2.93-4.46,0-6.15l-11.36-6.56c-2.93-1.69-5.33-.31-5.33,3.08v13.12c0,3.38,2.4,4.76,5.33,3.07Z" transform="translate(-316.02 -228.16)"/><path class="cls-11" d="M479.94,365.12l-11,6.34h16.3V368.2C485.26,364.81,482.86,363.43,479.94,365.12Z" transform="translate(-316.02 -228.16)"/><path class="cls-8" d="M479.94,336.17l-11.37,6.56c-2.93,1.69-2.93,4.46,0,6.15l11.37,6.56c2.92,1.69,5.32.31,5.32-3.07V339.25C485.26,335.86,482.86,334.48,479.94,336.17Z" transform="translate(-316.02 -228.16)"/><path class="cls-4" d="M487.3,368.2v3.26h16.3l-11-6.34C489.7,363.43,487.3,364.81,487.3,368.2Z" transform="translate(-316.02 -228.16)"/><path class="cls-7" d="M493.64,270.33c-2.92,1.69-2.92,4.46,0,6.15L505,283c2.93,1.69,5.32.31,5.32-3.08V266.84c0-3.38-2.39-4.76-5.32-3.07Z" transform="translate(-316.02 -228.16)"/><path class="cls-12" d="M462.23,266.84V280c0,3.39,2.39,4.77,5.32,3.08l11.37-6.56c2.93-1.69,2.93-4.46,0-6.15l-11.37-6.56C464.62,262.08,462.23,263.46,462.23,266.84Z" transform="translate(-316.02 -228.16)"/><path class="cls-2" d="M492.63,268.56,504,262c2.93-1.69,2.93-4.46,0-6.15l-11.36-6.56c-2.93-1.69-5.33-.3-5.33,3.08v13.12C487.3,268.87,489.7,270.25,492.63,268.56Z" transform="translate(-316.02 -228.16)"/><path class="cls-2" d="M479.94,278.25l-11.37,6.55c-2.93,1.7-2.93,4.46,0,6.15l11.37,6.56c2.92,1.69,5.32.31,5.32-3.07V281.32C485.26,277.94,482.86,276.55,479.94,278.25Z" transform="translate(-316.02 -228.16)"/><path class="cls-2" d="M479.94,249.29l-11.37,6.56c-2.93,1.69-2.93,4.46,0,6.15l11.37,6.56c2.92,1.69,5.32.31,5.32-3.07V252.37C485.26,249,482.86,247.6,479.94,249.29Z" transform="translate(-316.02 -228.16)"/><path class="cls-2" d="M492.63,297.51,504,291c2.93-1.69,2.93-4.45,0-6.15l-11.36-6.56c-2.93-1.69-5.33-.3-5.33,3.08v13.12C487.3,297.82,489.7,299.2,492.63,297.51Z" transform="translate(-316.02 -228.16)"/><path class="cls-12" d="M568.85,319.9l9.57,5.53v-17.2l-9.57,5.52C565.92,315.45,565.92,318.21,568.85,319.9Z" transform="translate(-316.02 -228.16)"/><path class="cls-10" d="M542.76,326.46l11.36-6.56c2.93-1.69,2.93-4.45,0-6.15l-11.36-6.56c-2.93-1.69-5.32-.3-5.32,3.08v13.12C537.44,326.77,539.83,328.16,542.76,326.46Z" transform="translate(-316.02 -228.16)"/><path class="cls-8" d="M562.51,295.79v13.13c0,3.38,2.39,4.76,5.32,3.07l10.59-6.11v-7.05l-10.59-6.11C564.9,291,562.51,292.41,562.51,295.79Z" transform="translate(-316.02 -228.16)"/><path class="cls-8" d="M555.14,321.67l-11.36,6.56c-2.93,1.69-2.93,4.46,0,6.15l11.36,6.56c2.93,1.69,5.33.31,5.33-3.07V324.75C560.47,321.36,558.07,320,555.14,321.67Z" transform="translate(-316.02 -228.16)"/><path class="cls-13" d="M555.14,292.72l-11.36,6.56c-2.93,1.69-2.93,4.46,0,6.15L555.14,312c2.93,1.69,5.33.31,5.33-3.08V295.79C560.47,292.41,558.07,291,555.14,292.72Z" transform="translate(-316.02 -228.16)"/><path class="cls-2" d="M562.51,324.74v13.13c0,3.38,2.39,4.76,5.32,3.07l10.59-6.11v-7.05l-10.59-6.11C564.9,320,562.51,321.36,562.51,324.74Z" transform="translate(-316.02 -228.16)"/><path class="cls-9" d="M568.85,233l9.57,5.52V228.16h-11.1C566.08,229.77,566.58,231.72,568.85,233Z" transform="translate(-316.02 -228.16)"/><path class="cls-12" d="M542.76,239.59,554.12,233c2.27-1.31,2.78-3.26,1.53-4.87H537.44v8.35C537.44,239.9,539.83,241.28,542.76,239.59Z" transform="translate(-316.02 -228.16)"/><path class="cls-2" d="M555.14,234.79l-11.36,6.56c-2.93,1.69-2.93,4.46,0,6.15l11.36,6.56c2.93,1.69,5.33.31,5.33-3.07V237.87C560.47,234.49,558.07,233.1,555.14,234.79Z" transform="translate(-316.02 -228.16)"/><path class="cls-13" d="M562.51,237.87V251c0,3.38,2.39,4.76,5.32,3.07L578.42,248v-7l-10.59-6.11C564.9,233.1,562.51,234.49,562.51,237.87Z" transform="translate(-316.02 -228.16)"/><path class="cls-1" d="M530.08,307.19l-11.36,6.56c-2.93,1.7-2.93,4.46,0,6.15l11.36,6.56c2.93,1.7,5.33.31,5.33-3.07V310.27C535.41,306.89,533,305.5,530.08,307.19Z" transform="translate(-316.02 -228.16)"/><path class="cls-11" d="M492.63,326.46,504,319.9c2.93-1.69,2.93-4.45,0-6.15l-11.36-6.56c-2.93-1.69-5.33-.3-5.33,3.08v13.12C487.3,326.77,489.7,328.16,492.63,326.46Z" transform="translate(-316.02 -228.16)"/><path class="cls-2" d="M529.06,305.43c2.93-1.69,2.93-4.46,0-6.15l-11.36-6.56c-2.93-1.69-5.33-.31-5.33,3.07v13.13c0,3.38,2.4,4.76,5.33,3.07Z" transform="translate(-316.02 -228.16)"/><path class="cls-13" d="M505,321.67l-11.37,6.56c-2.92,1.69-2.92,4.46,0,6.15L505,340.94c2.93,1.69,5.32.31,5.32-3.07V324.75C510.33,321.36,507.94,320,505,321.67Z" transform="translate(-316.02 -228.16)"/><path class="cls-2" d="M505,292.72l-11.37,6.56c-2.92,1.69-2.92,4.46,0,6.15L505,312c2.93,1.69,5.32.31,5.32-3.08V295.79C510.33,292.41,507.94,291,505,292.72Z" transform="translate(-316.02 -228.16)"/><path class="cls-12" d="M512.37,324.74v13.13c0,3.38,2.4,4.76,5.33,3.07l11.36-6.56c2.93-1.69,2.93-4.46,0-6.15l-11.36-6.56C514.77,320,512.37,321.36,512.37,324.74Z" transform="translate(-316.02 -228.16)"/><path class="cls-2" d="M518.72,233l11.36,6.56c2.93,1.69,5.33.31,5.33-3.08v-8.35H517.19C516,229.77,516.45,231.72,518.72,233Z" transform="translate(-316.02 -228.16)"/><path class="cls-9" d="M492.63,239.59,504,233c2.27-1.31,2.77-3.26,1.53-4.87H487.3v8.35C487.3,239.9,489.7,241.28,492.63,239.59Z" transform="translate(-316.02 -228.16)"/><path class="cls-6" d="M505,234.79l-11.37,6.56c-2.92,1.69-2.92,4.46,0,6.15L505,254.06c2.93,1.69,5.32.31,5.32-3.07V237.87C510.33,234.49,507.94,233.1,505,234.79Z" transform="translate(-316.02 -228.16)"/><path class="cls-8" d="M517.7,254.06l11.36-6.56c2.93-1.69,2.93-4.46,0-6.15l-11.36-6.56c-2.93-1.69-5.33-.3-5.33,3.08V251C512.37,254.37,514.77,255.75,517.7,254.06Z" transform="translate(-316.02 -228.16)"/><path class="cls-6" d="M555.14,350.65l-11.36,6.56c-2.93,1.69-2.93,4.45,0,6.15l11.36,6.56c2.93,1.69,5.33.3,5.33-3.08V353.72C560.47,350.34,558.07,349,555.14,350.65Z" transform="translate(-316.02 -228.16)"/><path class="cls-9" d="M529.05,357.21l-11.36-6.56c-2.93-1.69-5.33-.31-5.33,3.07v13.12c0,3.38,2.4,4.77,5.33,3.08l11.36-6.56C532,361.66,532,358.9,529.05,357.21Z" transform="translate(-316.02 -228.16)"/><path class="cls-3" d="M554.12,348.88c2.93-1.69,2.93-4.46,0-6.15l-11.36-6.56c-2.93-1.69-5.32-.31-5.32,3.08v13.12c0,3.38,2.39,4.76,5.32,3.07Z" transform="translate(-316.02 -228.16)"/><path class="cls-2" d="M530.07,365.12l-11,6.34H535.4V368.2C535.4,364.81,533,363.43,530.07,365.12Z" transform="translate(-316.02 -228.16)"/><path class="cls-2" d="M530.07,336.17l-11.36,6.56c-2.93,1.69-2.93,4.46,0,6.15l11.36,6.56c2.93,1.69,5.33.31,5.33-3.07V339.25C535.4,335.86,533,334.48,530.07,336.17Z" transform="translate(-316.02 -228.16)"/><path class="cls-5" d="M537.44,368.2v3.26h16.3l-11-6.34C539.83,363.43,537.44,364.81,537.44,368.2Z" transform="translate(-316.02 -228.16)"/><path class="cls-4" d="M555.14,263.77l-11.36,6.56c-2.93,1.69-2.93,4.46,0,6.15L555.14,283c2.93,1.69,5.33.31,5.33-3.08V266.84C560.47,263.46,558.07,262.08,555.14,263.77Z" transform="translate(-316.02 -228.16)"/><path class="cls-10" d="M517.69,283l11.36-6.56c2.93-1.69,2.93-4.46,0-6.15l-11.36-6.56c-2.93-1.69-5.33-.31-5.33,3.07V280C512.36,283.35,514.76,284.73,517.69,283Z" transform="translate(-316.02 -228.16)"/><path class="cls-2" d="M542.76,268.56,554.12,262c2.93-1.69,2.93-4.46,0-6.15l-11.36-6.56c-2.93-1.69-5.32-.3-5.32,3.08v13.12C537.44,268.87,539.83,270.25,542.76,268.56Z" transform="translate(-316.02 -228.16)"/><path class="cls-7" d="M535.4,294.44V281.32c0-3.38-2.4-4.77-5.33-3.07l-11.36,6.55c-2.93,1.7-2.93,4.46,0,6.15l11.36,6.56C533,299.2,535.4,297.82,535.4,294.44Z" transform="translate(-316.02 -228.16)"/><path class="cls-5" d="M518.71,255.85c-2.93,1.69-2.93,4.46,0,6.15l11.36,6.56c2.93,1.69,5.33.31,5.33-3.07V252.37c0-3.38-2.4-4.77-5.33-3.08Z" transform="translate(-316.02 -228.16)"/><path class="cls-2" d="M542.76,297.51,554.12,291c2.93-1.69,2.93-4.45,0-6.15l-11.36-6.56c-2.93-1.69-5.32-.3-5.32,3.08v13.12C537.44,297.82,539.83,299.2,542.76,297.51Z" transform="translate(-316.02 -228.16)"/><path class="cls-4" d="M562.52,353.72v13.12c0,3.38,2.39,4.77,5.32,3.08l10.58-6.11v-7.06l-10.58-6.1C564.91,349,562.52,350.34,562.52,353.72Z" transform="translate(-316.02 -228.16)"/><polygon class="cls-1" points="262.4 143.29 262.4 138 253.23 143.29 262.4 143.29"/><path class="cls-3" d="M568.86,348.88l9.56,5.52V337.21l-9.56,5.52C565.93,344.42,565.93,347.19,568.86,348.88Z" transform="translate(-316.02 -228.16)"/><path class="cls-5" d="M562.52,266.84V280c0,3.39,2.39,4.77,5.32,3.08l10.58-6.11v-7.05l-10.58-6.11C564.91,262.08,562.52,263.46,562.52,266.84Z" transform="translate(-316.02 -228.16)"/><path class="cls-13" d="M568.86,291l9.56,5.52V279.29l-9.56,5.51C565.93,286.5,565.93,289.26,568.86,291Z" transform="translate(-316.02 -228.16)"/><path class="cls-2" d="M568.86,262l9.56,5.52V250.34l-9.56,5.51C565.93,257.54,565.93,260.31,568.86,262Z" transform="translate(-316.02 -228.16)"/><path class="cls-2" d="M329.58,307.2l-11.36,6.55c-2.93,1.7-2.93,4.46,0,6.15l11.36,6.57c2.93,1.69,5.33.3,5.33-3.08V310.27C334.91,306.89,332.51,305.5,329.58,307.2Z" transform="translate(-316.02 -228.16)"/><path class="cls-2" d="M353.64,342.73l-11.36-6.56c-2.93-1.69-5.33-.31-5.33,3.08v13.12c0,3.38,2.4,4.76,5.33,3.07l11.36-6.56C356.57,347.19,356.57,344.42,353.64,342.73Z" transform="translate(-316.02 -228.16)"/></svg>