<svg xmlns="http://www.w3.org/2000/svg" viewBox="0 0 3358.41 3358.41"><defs><style>.a{fill:#1e1a18;}</style></defs><path class="a" d="M3351.54,1643c-926.06,0-1679.32,753.27-1679.32,1679.32,0,925.83,753.26,1679.09,1679.32,1679.09,925.82,0,1679.09-753.26,1679.09-1679.09,0-926-753.27-1679.32-1679.09-1679.32Zm0,2991.37c-723.72,0-1312.28-588.56-1312.28-1312s588.56-1312.27,1312.28-1312.27c723.49,0,1312,588.74,1312,1312.27s-588.55,1312-1312,1312Zm0,0" transform="translate(-1672.22 -1643.03)"/><path class="a" d="M3496.89,3324.33V2620.52a142.33,142.33,0,0,0-284.65,0v749.14c0,2.34.55,4.45.74,6.6-2,38.73,11.47,78,41.06,107.55l529.74,529.78c55.56,55.56,145.71,55.56,201.09,0,55.56-55.56,55.75-145.72,0-201.28Zm0,0" transform="translate(-1672.22 -1643.03)"/></svg>