<svg xmlns="http://www.w3.org/2000/svg" viewBox="0 0 500 383.77"><defs><style>.a{fill:white;}</style></defs><path class="a" d="M420.38,308.12V691.88H580.63V308.12Zm93.4,220.35H499.32V474a49.85,49.85,0,0,1-18.69,11V471.79a41.77,41.77,0,0,0,12.3-7,26.71,26.71,0,0,0,9.12-12.07h11.73Z" transform="translate(-250 -308.12)"/><path class="a" d="M250,417.76V691.88H410.25V417.76ZM355,576.18v13.43h-50.7a34.93,34.93,0,0,1,4.94-14.44q4.11-6.81,16.27-18.09,9.78-9.11,12-12.36a15.89,15.89,0,0,0,3-8.85q0-4.85-2.6-7.44a9.73,9.73,0,0,0-7.18-2.6,9.62,9.62,0,0,0-7.21,2.73q-2.69,2.73-3.09,9.06L306,536.18q1.27-11.94,8.08-17.14t17-5.2q11.16,0,17.55,6a19.75,19.75,0,0,1,6.38,15,26.2,26.2,0,0,1-1.82,9.7,39.34,39.34,0,0,1-5.8,9.66,91.48,91.48,0,0,1-9.47,9.62q-6.84,6.28-8.67,8.34a24.65,24.65,0,0,0-3,4Z" transform="translate(-250 -308.12)"/><path class="a" d="M589.75,474.7V691.88H750V474.7ZM690.36,615.53a25,25,0,0,1-18.07,7q-10.24,0-17-5.89a23.18,23.18,0,0,1-7.82-15.42l14-1.7q.67,5.36,3.61,8.18a10.17,10.17,0,0,0,14.64-.56q3.06-3.4,3.06-9.16c0-3.64-1-6.53-2.93-8.65a9.35,9.35,0,0,0-7.15-3.19,24.91,24.91,0,0,0-6.65,1.08l1.6-11.79q5.87.15,9-2.55a9.07,9.07,0,0,0,3.09-7.18,8.22,8.22,0,0,0-2.27-6.08,8.14,8.14,0,0,0-6-2.26,8.73,8.73,0,0,0-6.33,2.57c-1.76,1.72-2.82,4.22-3.2,7.52l-13.33-2.27a29.91,29.91,0,0,1,4.2-10.94,18.86,18.86,0,0,1,7.82-6.43,26.33,26.33,0,0,1,11.25-2.34q10.65,0,17.09,6.79a17.77,17.77,0,0,1,5.3,12.56q0,9.95-10.86,15.86a17.49,17.49,0,0,1,10.37,6.23,18.06,18.06,0,0,1,3.89,11.68A22.67,22.67,0,0,1,690.36,615.53Z" transform="translate(-250 -308.12)"/></svg>