<svg xmlns="http://www.w3.org/2000/svg" viewBox="0 0 637.6 637.6"><defs><style>.a{fill:#0c9c49;}.b{fill:#fff;}</style></defs><circle class="a" cx="318.8" cy="318.8" r="318.8"/><path class="b" d="M389.41,684.89a34.82,34.82,0,0,1-23.14-8.77L269.71,590.7A35,35,0,0,1,316,538.34l96.56,85.41a35,35,0,0,1-23.18,61.14Z" transform="translate(-123.88 -191.53)"/><path class="b" d="M389.4,684.89a35,35,0,0,1-28.24-55.52l203.07-279.2a35,35,0,0,1,56.54,41.12L417.7,670.5A34.92,34.92,0,0,1,389.4,684.89Z" transform="translate(-123.88 -191.53)"/></svg>