<svg xmlns="http://www.w3.org/2000/svg" xmlns:xlink="http://www.w3.org/1999/xlink" viewBox="0 0 2366.74 876.8"><defs><style>.a{fill:none;}.b{isolation:isolate;}.c{clip-path:url(#a);}.d{mix-blend-mode:multiply;}.al,.e{fill:#fff;}.e{opacity:0;}.f{fill:#fcfcfc;opacity:0.03;}.g{fill:#fafafa;opacity:0.06;}.h{fill:#f7f7f7;opacity:0.1;}.i{fill:#f4f4f4;opacity:0.13;}.j{fill:#f1f1f1;opacity:0.16;}.k{fill:#efefef;opacity:0.19;}.l{fill:#ececec;opacity:0.23;}.m{fill:#e9e9e9;opacity:0.26;}.n{fill:#e7e7e7;opacity:0.29;}.o{fill:#e4e4e4;opacity:0.32;}.p{fill:#e1e1e1;opacity:0.35;}.q{fill:#dedede;opacity:0.39;}.r{fill:#dcdcdc;opacity:0.42;}.s{fill:#d9d9d9;opacity:0.45;}.t{fill:#d6d6d6;opacity:0.48;}.u{fill:#d4d4d4;opacity:0.52;}.v{fill:#d1d1d1;opacity:0.55;}.w{fill:#cecece;opacity:0.58;}.x{fill:#ccc;opacity:0.61;}.y{fill:#c9c9c9;opacity:0.65;}.z{fill:#c6c6c6;opacity:0.68;}.aa{fill:#c3c3c3;opacity:0.71;}.ab{fill:#c1c1c1;opacity:0.74;}.ac{fill:#bebebe;opacity:0.77;}.ad{fill:#bbb;opacity:0.81;}.ae{fill:#b9b9b9;opacity:0.84;}.af{fill:#b6b6b6;opacity:0.87;}.ag{fill:#b3b3b3;opacity:0.9;}.ah{fill:#b0b0b0;opacity:0.94;}.ai{fill:#aeaeae;opacity:0.97;}.aj{fill:#ababab;}.ak{fill:#c2c2c2;}.am{fill:url(#b);}.an{fill:url(#c);}.ao{fill:url(#d);}.ap{fill:url(#e);}.aq{fill:url(#f);}.ar{fill:url(#g);}.as{fill:url(#h);}.at{fill:url(#i);}.au{fill:url(#j);}.av{fill:url(#k);}.aw{fill:url(#l);}.ax{fill:url(#m);}</style><clipPath id="a" transform="translate(-259.74 -1199.79)"><rect class="a" width="2800" height="1900"/></clipPath><linearGradient id="b" x1="2320.82" y1="1396.22" x2="1663.29" y2="1265.02" gradientUnits="userSpaceOnUse"><stop offset="0" stop-color="#e6e6e1"/><stop offset="0.12" stop-color="#ebebe6"/><stop offset="0.27" stop-color="#f8f8f6"/><stop offset="0.33" stop-color="#fff"/><stop offset="0.4" stop-color="#f3f3f0"/><stop offset="0.49" stop-color="#ebebe7"/><stop offset="0.61" stop-color="#e8e8e4"/><stop offset="0.97" stop-color="#f6f6f2"/><stop offset="1" stop-color="#f7f7f3"/></linearGradient><linearGradient id="c" x1="1750.47" y1="395.82" x2="1750.47" y2="141.49" gradientUnits="userSpaceOnUse"><stop offset="0" stop-color="#690303"/><stop offset="0.02" stop-color="#8c0606"/><stop offset="0.26" stop-color="#a9150e"/><stop offset="0.55" stop-color="#c42215"/><stop offset="0.81" stop-color="#d52b19"/><stop offset="1" stop-color="#db2e1b"/></linearGradient><linearGradient id="d" x1="1995.44" y1="2049.36" x2="1995.44" y2="1605.04" gradientTransform="matrix(1, 0, 0.55, 0.93, -1070.52, -1096.56)" gradientUnits="userSpaceOnUse"><stop offset="0" stop-color="#fa3d23"/><stop offset="0.36" stop-color="#f83c22"/><stop offset="0.52" stop-color="#f03820"/><stop offset="0.65" stop-color="#e3321d"/><stop offset="0.77" stop-color="#d12918"/><stop offset="0.86" stop-color="#b91d12"/><stop offset="0.95" stop-color="#9c0e0a"/><stop offset="0.96" stop-color="#970c09"/><stop offset="1" stop-color="#730404"/></linearGradient><linearGradient id="e" x1="1991.17" y1="1316.31" x2="2391.25" y2="1316.31" gradientTransform="matrix(-1, 0.01, 0.66, 0.97, 3052.6, -1189.72)" gradientUnits="userSpaceOnUse"><stop offset="0" stop-color="#fa3d23"/><stop offset="1" stop-color="#fa3d23"/></linearGradient><linearGradient id="f" x1="1210.28" y1="1379.2" x2="529.74" y2="1243.41" xlink:href="#b"/><linearGradient id="g" x1="900.97" y1="2085.15" x2="900.97" y2="1641.94" gradientTransform="matrix(1, 0, -0.6, 0.85, 636.37, -975.04)" xlink:href="#d"/><linearGradient id="h" x1="538.92" y1="420.28" x2="538.92" y2="124.7" xlink:href="#c"/><linearGradient id="i" x1="717.04" y1="1297.47" x2="1126.29" y2="1297.47" gradientTransform="matrix(1, 0, -0.64, 0.98, 497.5, -1172.82)" xlink:href="#e"/><linearGradient id="j" x1="1760.36" y1="1323.14" x2="1066.64" y2="1184.72" xlink:href="#b"/><linearGradient id="k" x1="1144.32" y1="876.8" x2="1144.32" y2="432.68" gradientTransform="matrix(1, 0, 0, 1, 0, 0)" xlink:href="#d"/><linearGradient id="l" x1="1144.32" y1="432.68" x2="1144.32" y2="73.62" xlink:href="#c"/><linearGradient id="m" x1="1144.32" y1="73.62" x2="1144.32" y2="0" gradientTransform="matrix(1, 0, 0, 1, 0, 0)" xlink:href="#e"/></defs><g class="b"><g class="c"><g class="d"><polygon class="e" points="2173.34 417.77 1292.86 417.77 1382.99 302.69 2055.64 302.69 2173.34 417.77"/><polygon class="f" points="2170.08 417.12 1295.23 417.12 1383.92 304.06 2054.84 304.06 2170.08 417.12"/><polygon class="g" points="2166.82 416.47 1297.61 416.47 1384.84 305.43 2054.03 305.43 2166.82 416.47"/><polygon class="h" points="2163.55 415.81 1299.98 415.81 1385.76 306.79 2053.23 306.79 2163.55 415.81"/><polygon class="i" points="2160.29 415.16 1302.36 415.16 1386.69 308.16 2052.42 308.16 2160.29 415.16"/><polygon class="j" points="2157.02 414.51 1304.73 414.51 1387.61 309.53 2051.61 309.53 2157.02 414.51"/><polygon class="k" points="2153.76 413.85 1307.11 413.85 1388.53 310.9 2050.81 310.9 2153.76 413.85"/><polygon class="l" points="2150.49 413.2 1309.49 413.2 1389.46 312.26 2050.01 312.26 2150.49 413.2"/><polygon class="m" points="2147.23 412.54 1311.86 412.54 1390.38 313.63 2049.2 313.63 2147.23 412.54"/><polygon class="n" points="2143.97 411.89 1314.24 411.89 1391.3 315 2048.39 315 2143.97 411.89"/><polygon class="o" points="2140.7 411.24 1316.61 411.24 1392.23 316.37 2047.59 316.37 2140.7 411.24"/><polygon class="p" points="2137.44 410.58 1318.99 410.58 1393.15 317.73 2046.78 317.73 2137.44 410.58"/><polygon class="q" points="2134.17 409.93 1321.36 409.93 1394.07 319.1 2045.98 319.1 2134.17 409.93"/><polygon class="r" points="2130.91 409.28 1323.74 409.28 1395 320.47 2045.17 320.47 2130.91 409.28"/><polygon class="s" points="2127.64 408.62 1326.11 408.62 1395.92 321.83 2044.37 321.83 2127.64 408.62"/><polygon class="t" points="2124.38 407.97 1328.49 407.97 1396.84 323.2 2043.56 323.2 2124.38 407.97"/><polygon class="u" points="2121.11 407.31 1330.86 407.31 1397.77 324.57 2042.76 324.57 2121.11 407.31"/><polygon class="v" points="2117.85 406.66 1333.24 406.66 1398.69 325.94 2041.95 325.94 2117.85 406.66"/><polygon class="w" points="2114.59 406.01 1335.61 406.01 1399.61 327.3 2041.15 327.3 2114.59 406.01"/><polygon class="x" points="2111.32 405.35 1337.99 405.35 1400.54 328.67 2040.34 328.67 2111.32 405.35"/><polygon class="y" points="2108.06 404.7 1340.36 404.7 1401.46 330.04 2039.54 330.04 2108.06 404.7"/><polygon class="z" points="2104.79 404.05 1342.74 404.05 1402.38 331.41 2038.73 331.41 2104.79 404.05"/><polygon class="aa" points="2101.53 403.39 1345.11 403.39 1403.31 332.77 2037.93 332.77 2101.53 403.39"/><polygon class="ab" points="2098.26 402.74 1347.49 402.74 1404.23 334.14 2037.12 334.14 2098.26 402.74"/><polygon class="ac" points="2095 402.08 1349.86 402.08 1405.15 335.51 2036.32 335.51 2095 402.08"/><polygon class="ad" points="2091.74 401.43 1352.24 401.43 1406.08 336.88 2035.51 336.88 2091.74 401.43"/><polygon class="ae" points="2088.47 400.78 1354.61 400.78 1407 338.24 2034.71 338.24 2088.47 400.78"/><polygon class="af" points="2085.21 400.12 1356.99 400.12 1407.92 339.61 2033.9 339.61 2085.21 400.12"/><polygon class="ag" points="2081.94 399.47 1359.36 399.47 1408.85 340.98 2033.1 340.98 2081.94 399.47"/><polygon class="ah" points="2078.68 398.81 1361.74 398.81 1409.77 342.34 2032.29 342.34 2078.68 398.81"/><polygon class="ai" points="2075.41 398.16 1364.11 398.16 1410.69 343.71 2031.48 343.71 2075.41 398.16"/><polygon class="aj" points="2072.15 397.51 1366.49 397.51 1411.62 345.08 2030.68 345.08 2072.15 397.51"/></g><rect class="ak" x="1366.49" y="140.95" width="705.66" height="255.05"/><polygon class="al" points="2072.15 140.95 1366.36 140.95 1498.67 88.53 1939.71 88.53 2072.15 140.95"/><path class="am" d="M2331.89,1340.74l-707.78.15,134.3-52.58h441Zm-687.81-3.27,669.41-.23-114.08-45.94-440.1-.58Z" transform="translate(-259.74 -1199.79)"/><rect class="an" x="1553.6" y="141.49" width="393.74" height="254.33"/><polygon class="ao" points="2366.74 808.94 1743.13 808.94 1553.6 395.82 1947.34 395.82 2366.74 808.94"/><polygon class="ap" points="1553.6 141.49 1947.34 141.49 1833.57 88.53 1507.35 88.2 1553.6 141.49"/><g class="d"><polygon class="e" points="1064.13 445.29 152.67 445.29 245.97 312.09 942.29 312.09 1064.13 445.29"/><polygon class="f" points="1060.76 444.53 155.13 444.53 246.93 313.67 941.46 313.67 1060.76 444.53"/><polygon class="g" points="1057.38 443.77 157.59 443.77 247.89 315.26 940.62 315.26 1057.38 443.77"/><polygon class="h" points="1054 443.02 160.05 443.02 248.84 316.84 939.79 316.84 1054 443.02"/><polygon class="i" points="1050.62 442.26 162.5 442.26 249.8 318.42 938.96 318.42 1050.62 442.26"/><polygon class="j" points="1047.24 441.5 164.96 441.5 250.75 320 938.12 320 1047.24 441.5"/><polygon class="k" points="1043.86 440.75 167.42 440.75 251.71 321.59 937.29 321.59 1043.86 440.75"/><polygon class="l" points="1040.48 439.99 169.88 439.99 252.66 323.17 936.46 323.17 1040.48 439.99"/><polygon class="m" points="1037.1 439.23 172.34 439.23 253.62 324.75 935.62 324.75 1037.1 439.23"/><polygon class="n" points="1033.72 438.48 174.8 438.48 254.58 326.33 934.79 326.33 1033.72 438.48"/><polygon class="o" points="1030.34 437.72 177.26 437.72 255.53 327.92 933.95 327.92 1030.34 437.72"/><polygon class="p" points="1026.96 436.96 179.72 436.96 256.49 329.5 933.12 329.5 1026.96 436.96"/><polygon class="q" points="1023.58 436.21 182.17 436.21 257.44 331.08 932.29 331.08 1023.58 436.21"/><polygon class="r" points="1020.2 435.45 184.63 435.45 258.4 332.66 931.45 332.66 1020.2 435.45"/><polygon class="s" points="1016.83 434.69 187.09 434.69 259.36 334.25 930.62 334.25 1016.83 434.69"/><polygon class="t" points="1013.45 433.94 189.55 433.94 260.31 335.83 929.79 335.83 1013.45 433.94"/><polygon class="u" points="1010.07 433.18 192.01 433.18 261.27 337.41 928.95 337.41 1010.07 433.18"/><polygon class="v" points="1006.69 432.42 194.47 432.42 262.22 339 928.12 339 1006.69 432.42"/><polygon class="w" points="1003.31 431.67 196.93 431.67 263.18 340.58 927.29 340.58 1003.31 431.67"/><polygon class="x" points="999.93 430.91 199.38 430.91 264.13 342.16 926.45 342.16 999.93 430.91"/><polygon class="y" points="996.55 430.15 201.84 430.15 265.09 343.74 925.62 343.74 996.55 430.15"/><polygon class="z" points="993.17 429.4 204.3 429.4 266.05 345.32 924.78 345.32 993.17 429.4"/><polygon class="aa" points="989.79 428.64 206.76 428.64 267 346.91 923.95 346.91 989.79 428.64"/><polygon class="ab" points="986.41 427.88 209.22 427.88 267.96 348.49 923.12 348.49 986.41 427.88"/><polygon class="ac" points="983.03 427.13 211.68 427.13 268.91 350.07 922.28 350.07 983.03 427.13"/><polygon class="ad" points="979.65 426.37 214.13 426.37 269.87 351.65 921.45 351.65 979.65 426.37"/><polygon class="ae" points="976.27 425.61 216.59 425.61 270.82 353.24 920.62 353.24 976.27 425.61"/><polygon class="af" points="972.89 424.86 219.05 424.86 271.78 354.82 919.78 354.82 972.89 424.86"/><polygon class="ag" points="969.51 424.1 221.51 424.1 272.74 356.4 918.95 356.4 969.51 424.1"/><polygon class="ah" points="966.14 423.34 223.97 423.34 273.69 357.99 918.12 357.99 966.14 423.34"/><polygon class="ai" points="962.76 422.59 226.43 422.59 274.65 359.57 917.28 359.57 962.76 422.59"/><polygon class="aj" points="959.38 421.83 228.89 421.83 275.6 361.15 916.45 361.15 959.38 421.83"/></g><rect class="ak" x="228.89" y="124.9" width="730.49" height="295.19"/><polygon class="al" points="959.24 124.9 228.89 124.9 365.72 64.22 822.28 64.22 959.24 124.9"/><path class="aq" d="M1221.09,1325l-732.46-.32L625.46,1264h0l456.7.16Zm-717.48-4.19,690-.94-111.46-52.26-456-1.43Z" transform="translate(-259.74 -1199.79)"/><polygon class="ar" points="575.85 796.92 0 796.92 358.38 420.28 719.46 420.28 575.85 796.92"/><polygon class="as" points="719.46 124.7 358.38 125.23 358.38 420.28 719.46 420.28 719.46 124.7"/><polygon class="at" points="719.98 125.07 358.38 125.23 485.76 64.38 807.77 64.38 719.98 125.07"/><g class="d"><polygon class="e" points="1602.47 461.06 686.16 461.06 761.63 73.62 1510.54 73.62 1602.47 461.06"/><polygon class="f" points="1599.45 460.14 688.67 460.14 763.09 74.96 1508.91 74.96 1599.45 460.14"/><polygon class="g" points="1596.42 459.23 691.17 459.23 764.55 76.3 1507.29 76.3 1596.42 459.23"/><polygon class="h" points="1593.4 458.31 693.68 458.31 766.01 77.64 1505.67 77.64 1593.4 458.31"/><polygon class="i" points="1590.37 457.4 696.19 457.4 767.47 78.98 1504.05 78.98 1590.37 457.4"/><polygon class="j" points="1587.34 456.48 698.7 456.48 768.93 80.32 1502.43 80.32 1587.34 456.48"/><polygon class="k" points="1584.32 455.57 701.2 455.57 770.39 81.66 1500.81 81.66 1584.32 455.57"/><polygon class="l" points="1581.29 454.65 703.71 454.65 771.85 83 1499.18 83 1581.29 454.65"/><polygon class="m" points="1578.27 453.74 706.22 453.74 773.3 84.34 1497.56 84.34 1578.27 453.74"/><polygon class="n" points="1575.24 452.82 708.72 452.82 774.76 85.68 1495.94 85.68 1575.24 452.82"/><polygon class="o" points="1572.21 451.9 711.23 451.9 776.22 87.02 1494.32 87.02 1572.21 451.9"/><polygon class="p" points="1569.19 450.99 713.74 450.99 777.68 88.36 1492.7 88.36 1569.19 450.99"/><polygon class="q" points="1566.16 450.07 716.24 450.07 779.14 89.7 1491.08 89.7 1566.16 450.07"/><polygon class="r" points="1563.13 449.16 718.75 449.16 780.6 91.04 1489.45 91.04 1563.13 449.16"/><polygon class="s" points="1560.11 448.24 721.26 448.24 782.06 92.38 1487.83 92.38 1560.11 448.24"/><polygon class="t" points="1557.08 447.33 723.76 447.33 783.52 93.72 1486.21 93.72 1557.08 447.33"/><polygon class="u" points="1554.06 446.41 726.27 446.41 784.98 95.06 1484.59 95.06 1554.06 446.41"/><polygon class="v" points="1551.03 445.5 728.78 445.5 786.44 96.4 1482.97 96.4 1551.03 445.5"/><polygon class="w" points="1548.01 444.58 731.28 444.58 787.9 97.74 1481.34 97.74 1548.01 444.58"/><polygon class="x" points="1544.98 443.67 733.79 443.67 789.36 99.08 1479.72 99.08 1544.98 443.67"/><polygon class="y" points="1541.95 442.75 736.3 442.75 790.82 100.42 1478.1 100.42 1541.95 442.75"/><polygon class="z" points="1538.93 441.83 738.8 441.83 792.27 101.76 1476.48 101.76 1538.93 441.83"/><polygon class="aa" points="1535.9 440.92 741.31 440.92 793.73 103.1 1474.86 103.1 1535.9 440.92"/><polygon class="ab" points="1532.87 440 743.82 440 795.19 104.44 1473.24 104.44 1532.87 440"/><polygon class="ac" points="1529.85 439.09 746.32 439.09 796.65 105.78 1471.61 105.78 1529.85 439.09"/><polygon class="ad" points="1526.82 438.17 748.83 438.17 798.11 107.12 1469.99 107.12 1526.82 438.17"/><polygon class="ae" points="1523.8 437.26 751.34 437.26 799.57 108.46 1468.37 108.46 1523.8 437.26"/><polygon class="af" points="1520.77 436.34 753.84 436.34 801.03 109.8 1466.75 109.8 1520.77 436.34"/><polygon class="ag" points="1517.74 435.43 756.35 435.43 802.49 111.14 1465.13 111.14 1517.74 435.43"/><polygon class="ah" points="1514.72 434.51 758.86 434.51 803.95 112.48 1463.51 112.48 1514.72 434.51"/><polygon class="ai" points="1511.69 433.59 761.36 433.59 805.41 113.82 1461.88 113.82 1511.69 433.59"/><polygon class="aj" points="1508.66 432.68 763.87 432.68 806.87 115.16 1460.26 115.16 1508.66 432.68"/></g><rect class="ak" x="763.87" y="73.42" width="744.79" height="357.15"/><polygon class="al" points="1508.53 73.42 763.74 73.42 903.38 0 1368.88 0 1508.53 73.42"/><path class="au" d="M1770.28,1273.41l-746.67-.21,139.51-73.41h465.5Zm-726.08-5.76h702.08L1628.58,1204l-464.5-.82Z" transform="translate(-259.74 -1199.79)"/><polygon class="av" points="1561.6 876.8 727.03 876.8 883.51 432.68 1405.12 432.68 1561.6 876.8"/><rect class="aw" x="883.51" y="73.62" width="521.61" height="359.06"/><polygon class="ax" points="1405.13 73.62 883.51 73.62 1009.02 0 1285.01 0 1405.13 73.62"/><path class="al" d="M1318.61,1385.72c20-9.84,35.87-15.47,61.54-46.07h62.6v199h32.7v46.77H1334.79V1538.7H1370V1408.23l-35.16,16.53Z" transform="translate(-259.74 -1199.79)"/><path class="al" d="M741.74,1417.74c17.64-20.42,40.33-31.26,65.53-31.26,33.53,0,60,21.18,60,55.21,0,29-13.62,39.07-40.34,56.46-12.09,7.81-32,23.69-37.8,33.77h44.36v-20.16h42.35v53.69H739.72V1528.9c13.86-22.69,20.67-30,36.8-42.85,17.9-15.88,44.62-26.47,44.62-42.1,0-12.85-9.58-16.63-21.18-16.63-13.61,0-23.44,11.09-31,19.15Z" transform="translate(-259.74 -1199.79)"/><path class="al" d="M1935.7,1537.48l25.25-26.24c9.16,9.16,18.56,16.09,32.67,16.09,13.86,0,22.28-6.68,22.28-19.06,0-13.37-8.17-18.07-20.55-18.07h-18.56v-29.46h18.07c11.88,0,21-5.94,21-17.08,0-13.36-11.39-19.55-21.78-19.55-9.41,0-20.3,5.69-29,14.85l-24-29c8.92-9.66,30.45-23.52,53-23.52,40.35,0,63.12,20.8,63.12,52.48,0,16.83-11.88,26.49-18.32,31.44,7.92,5.69,23,18.31,23,40.59,0,36.64-35.15,54.46-68.57,54.46C1969.86,1565.45,1945.35,1551.83,1935.7,1537.48Z" transform="translate(-259.74 -1199.79)"/></g></g></svg>