<svg xmlns="http://www.w3.org/2000/svg" viewBox="0 0 14 11.99"><defs><style>.a{fill:#add4a1;}.b{fill:#472b29;}.c{fill:#fff;}</style></defs><path class="a" d="M29.5,19.5h-9A2.5,2.5,0,0,0,18,22v5a2.5,2.5,0,0,0,2.5,2.5h3.07l1,1.74a.49.49,0,0,0,.86,0l1-1.74H29.5A2.5,2.5,0,0,0,32,27V22A2.5,2.5,0,0,0,29.5,19.5Z" transform="translate(-18 -19.5)"/><path class="b" d="M29.5,20a2,2,0,0,1,2,2v5a2,2,0,0,1-2,2H26.43a.52.52,0,0,0-.44.25L25,31l-1-1.74a.52.52,0,0,0-.44-.25H20.5a2,2,0,0,1-2-2V22a2,2,0,0,1,2-2h9m0-.5h-9A2.5,2.5,0,0,0,18,22v5a2.5,2.5,0,0,0,2.5,2.5h3.07l1,1.74a.49.49,0,0,0,.86,0l1-1.74H29.5A2.5,2.5,0,0,0,32,27V22a2.5,2.5,0,0,0-2.5-2.5Z" transform="translate(-18 -19.5)"/><path class="c" d="M25.59,26a1.35,1.35,0,1,1,1.26-1.35A1.31,1.31,0,0,1,25.59,26Zm0-2a.61.61,0,0,0-.55.65.56.56,0,1,0,.55-.65Z" transform="translate(-18 -19.5)"/><path class="b" d="M25.59,26.1A1.48,1.48,0,1,1,27,24.63,1.43,1.43,0,0,1,25.59,26.1Zm0-2.7a1.23,1.23,0,1,0,1.14,1.22A1.18,1.18,0,0,0,25.59,23.4Zm0,2a.78.78,0,0,1,0-1.55.78.78,0,0,1,0,1.55Zm0-1.3a.54.54,0,0,0,0,1,.54.54,0,0,0,0-1Z" transform="translate(-18 -19.5)"/><path class="c" d="M21.47,23.34a1.07,1.07,0,0,0-.59.17v-.89h-.76v3.26h.76v-.14a1.07,1.07,0,0,0,.59.17,1.29,1.29,0,0,0,0-2.57Zm0,1.87a.59.59,0,1,1,.49-.59A.54.54,0,0,1,21.47,25.21Z" transform="translate(-18 -19.5)"/><path class="b" d="M21.47,26a1.13,1.13,0,0,1-.48-.11.15.15,0,0,1-.11.07h-.76a.13.13,0,0,1-.12-.12V22.62a.13.13,0,0,1,.12-.12h.76a.13.13,0,0,1,.12.12v.69a1.1,1.1,0,0,1,.47-.1,1.42,1.42,0,0,1,0,2.83Zm-.59-.43.06,0a1.05,1.05,0,0,0,.53.16,1.17,1.17,0,0,0,0-2.33,1.05,1.05,0,0,0-.53.16.11.11,0,0,1-.13,0,.11.11,0,0,1-.06-.11v-.76h-.5v3h.5a.11.11,0,0,1,.06-.11Zm.59-.27a.72.72,0,1,1,.62-.72A.68.68,0,0,1,21.47,25.34Zm0-1.18a.48.48,0,1,0,.37.47A.43.43,0,0,0,21.47,24.16Z" transform="translate(-18 -19.5)"/><path class="c" d="M22.94,22.62h-.25v.76h.25c.18,0,.18.31.18.31v2.19h.76V23.69C23.88,22.62,23.31,22.62,22.94,22.62Z" transform="translate(-18 -19.5)"/><path class="b" d="M23.88,26h-.76a.13.13,0,0,1-.12-.12V23.69c0-.08,0-.19-.06-.19h-.25a.13.13,0,0,1-.13-.12v-.76a.13.13,0,0,1,.13-.12h.25c.37,0,1.06,0,1.06,1.19v2.19A.13.13,0,0,1,23.88,26Zm-.63-.25h.5V23.69c0-.94-.43-.94-.81-.94h-.13v.5h.13c.21,0,.31.22.31.44Z" transform="translate(-18 -19.5)"/><path class="c" d="M29.12,23.38v.17a1.12,1.12,0,0,0-.65-.21,1.29,1.29,0,0,0,0,2.57,1.12,1.12,0,0,0,.65-.21v.18c0,.24-.12.37-.31.37h-.19v.63h.19c1.07,0,1.07-.69,1.07-1v-2.5Zm-.65,1.83a.59.59,0,1,1,.49-.59A.54.54,0,0,1,28.47,25.21Z" transform="translate(-18 -19.5)"/><path class="b" d="M28.81,27h-.19a.13.13,0,0,1-.12-.12v-.63a.13.13,0,0,1,.12-.13h.19c.05,0,.17,0,.19-.2a1.24,1.24,0,0,1-.53.12,1.42,1.42,0,0,1,0-2.83,1.13,1.13,0,0,1,.54.13.12.12,0,0,1,.11-.09h.76a.13.13,0,0,1,.12.13v2.5C30,26.18,30,27,28.81,27Zm-.06-.25h.06c.94,0,.94-.55.94-.87V23.5h-.5v.05a.13.13,0,0,1-.2.1,1,1,0,0,0-.58-.19,1.17,1.17,0,0,0,0,2.33,1,1,0,0,0,.58-.19.13.13,0,0,1,.2.1v.17a.44.44,0,0,1-.44.5h-.06Zm-.28-1.41a.72.72,0,1,1,.62-.72A.68.68,0,0,1,28.47,25.34Zm0-1.18a.48.48,0,1,0,.37.47A.43.43,0,0,0,28.47,24.16Z" transform="translate(-18 -19.5)"/></svg>