<svg xmlns="http://www.w3.org/2000/svg" viewBox="0 0 1155.09 1035.02"><defs><style>.a{fill:white;}.b{fill:rgb(247,90,90);}</style></defs><path class="a" d="M1099.28,542.11l461.58,788.62c46.85,80-10.52,180.79-103.26,181.34l-913.76,5.44c-92.75.55-151.31-99.51-105.42-180.1L890.59,543.35C936.49,462.75,1052.42,462.06,1099.28,542.11Z" transform="translate(-422.46 -482.49)"/><circle class="b" cx="1002.32" cy="1322.34" r="66.28" transform="translate(-591.91 -334.96) rotate(-7.76)"/><path class="b" d="M1067.42,1123.1c-3.3,37.1-29.28,66.46-65.89,66.68s-64-30.07-66.67-65.89L899.94,825.82c-2.81-54.87,43.92-99.69,98.83-100s101.56,44.13,100,98.83Z" transform="translate(-422.46 -482.49)"/></svg>