<svg xmlns="http://www.w3.org/2000/svg" viewBox="0 0 1200 1046.64" style=""><defs><style>.a{fill-rule:evenodd;fill:white;}.b{fill:yellow;}</style></defs><path class="a" d="M622.88,477.18h755.24c122.48,0,222.38,99.9,222.38,222.38v409.68c0,122.48-99.9,222.37-222.38,222.37H922.5L687.29,1516.75a32.5,32.5,0,0,1-52.6-25.54v-159.6H622.88c-122.48,0-222.38-99.89-222.38-222.37V699.56C400.5,577.08,500.4,477.18,622.88,477.18Z" transform="translate(-400.5 -477.18)"/><circle class="b" cx="728.58" cy="890.31" r="62.13" transform="translate(-624.18 -232.39) rotate(-16.57)"/><circle class="b" cx="1000.5" cy="890.31" r="62.13" transform="translate(-737.01 491.05) rotate(-45)"/><circle class="b" cx="1272.42" cy="890.31" r="62.13" transform="translate(-657.36 683.32) rotate(-45)"/></svg>