<svg xmlns="http://www.w3.org/2000/svg"  viewBox="0 0 32 32" width="32px" height="32px"><path fill="#98db7c" d="M20.87,15.5l-8-14A1,1,0,0,0,12,1H6a1,1,0,0,0-.86.5,1,1,0,0,0,0,1l8,14A1,1,0,0,0,14,17h6a1,1,0,0,0,.86-.5A1,1,0,0,0,20.87,15.5Z"/><path fill="#82d361" d="M15.13,16.5l-8-14a1,1,0,0,1,0-1A1,1,0,0,1,8,1H6a1,1,0,0,0-.86.5,1,1,0,0,0,0,1l8,14A1,1,0,0,0,14,17h2A1,1,0,0,1,15.13,16.5Z"/><path fill="#98db7c" d="M26.86,1.5A1,1,0,0,0,26,1H20a1,1,0,0,0-.87.5l-8,14a1,1,0,0,0,0,1A1,1,0,0,0,12,17h6a1,1,0,0,0,.87-.5l8-14A1,1,0,0,0,26.86,1.5Z"/><path fill="#82d361" d="M13.14,16.5a1,1,0,0,1,0-1l8-14A1,1,0,0,1,22,1H20a1,1,0,0,0-.87.5l-8,14a1,1,0,0,0,0,1A1,1,0,0,0,12,17h2A1,1,0,0,1,13.14,16.5Z"/><circle cx="16" cy="20" r="11" fill="#ff9838"/><path fill="#ff8709" d="M7,22a11,11,0,0,1,17.7-8.7A11,11,0,1,0,9.3,28.7,10.9,10.9,0,0,1,7,22Z"/><path fill="#fff5f5" d="M19,18a3,3,0,0,0-6,0v.05a1,1,0,0,0,1,1,1,1,0,0,0,1-1,1,1,0,1,1,1,1h-.38a1,1,0,1,0,0,2H16a1,1,0,1,1-1,1V22a1,1,0,0,0-1-1,1,1,0,0,0-1,1,3,3,0,0,0,6,0,3,3,0,0,0-.78-2A3,3,0,0,0,19,18Z"/></svg>