<svg xmlns="http://www.w3.org/2000/svg" viewBox="0 0 896.13 858.72"><defs><style>.a{fill:#f29199;}.b{fill:#88292d;}.c{fill:#f14950;}.d{fill:#594a42;}</style></defs><path class="a" d="M780,396.65c14.66-12.22,29.16-30.77,42.63-51.61a18.68,18.68,0,0,1-6.83-3.28c-14.32-10.74-7.16-43,10.74-53.7,7.16,0,14.32-7.16,21.48-3.58a23.46,23.46,0,0,1,5.77,5.71c23-45.18,38.38-85.66,38.38-85.66-75.18,68-306.67,88.3-306.67,88.3L448.27,347.72,512.7,473,459,544.61c300.7,64.43,511.9-85.92,511.9-85.92C910.06,469.43,780,396.65,780,396.65Z" transform="translate(-74.78 -64.32)"/><path class="b" d="M422,348.92s85.91,143.19,35.79,196.88c0,0,175.41-25.06,222-103.81C679.76,442,543.73,288.06,422,348.92Z" transform="translate(-74.78 -64.32)"/><path class="c" d="M124.9,154.41s96-175.93,358-31c0,0,123.82,57.23,164.67,14.32,0,0-31,159.9,29.83,306.67,0,0-65.63-84.73-319.79-23.87,0,0-113.36,26.25-152.74,112.17C204.84,532.68,271.67,338.18,124.9,154.41Z" transform="translate(-74.78 -64.32)"/><path class="d" d="M287.51,917.93,119.65,113.86a27.74,27.74,0,1,0-24.57,4.91L263,923Z" transform="translate(-74.78 -64.32)"/><path class="c" d="M104.31,168.59s14.32-31.78,47.43-15.67l-3.13,21S128,153.82,104.31,168.59Z" transform="translate(-74.78 -64.32)"/><path class="c" d="M180.68,531.78s-6.26-23.27,32.22-20l-6.57,16.41S191.12,513,180.68,531.78Z" transform="translate(-74.78 -64.32)"/></svg>