<svg xmlns="http://www.w3.org/2000/svg" xmlns:xlink="http://www.w3.org/1999/xlink" viewBox="0 0 672.36 921.78"><defs><style>.a{fill:#fff;}.b{fill:#efb530;}.c{fill:#f0a32f;}.d{fill:#ffdd4d;}.e{fill:#f8c22d;}.f{fill:#ffd22e;}.g{fill:#ffea4d;}.h{fill:#bf7e20;}</style><symbol id="a" viewBox="0 0 25.45 25.45"><path class="a" d="M11.36,25.46H14.1A11.39,11.39,0,0,1,25.46,14.1V11.36A11.39,11.39,0,0,1,14.1,0H11.36A11.39,11.39,0,0,1,0,11.36V14.1A11.39,11.39,0,0,1,11.36,25.46Z"/></symbol></defs><path class="b" d="M846.13,946.11v61.78h-.87c-2.9,27-21.62,51.14-55.54,70.74-21.5,12.42-46.88,21.42-73.9,26.65-66.16,12.76-142.05,4-194.72-26.45-35.07-20.26-53.52-45.94-55.45-72.94h-.43l.56-62.16,27.91.21a149.24,149.24,0,0,1,27.48-20.06c71.56-41.3,186-42.77,260.62-4.39,2.75,1.4,5.46,2.87,8.1,4.4a148.14,148.14,0,0,1,29.66,22Z" transform="translate(-313.82 -189.17)"/><path class="c" d="M846.13,946.11v61.78h-.87c-2.9,27-21.62,51.14-55.54,70.74-21.5,12.42-46.88,21.42-73.9,26.65,22.75-23.09,38.85-53.11,48.69-84.27,10.35-32.85,14.57-67.12,17.28-101.55,2.75,1.39,5.46,2.88,8.1,4.41a148.55,148.55,0,0,1,29.66,22Z" transform="translate(-313.82 -189.17)"/><path class="c" d="M494.49,548.63l20-11.64c-77.93-53.75-140-161.21-147.34-255.28l-20,11.64C354.53,387.41,416.56,494.88,494.49,548.63Z" transform="translate(-313.82 -189.17)"/><polygon class="d" points="181.25 152.09 201.29 140.45 20.09 35.83 0.05 47.48 181.25 152.09"/><path class="e" d="M313.87,236.64l-.05,18.87c-.33,118.75,79.32,262.5,180.56,330.56l.11-37.44c-77.93-53.75-140-161.22-147.33-255.28L495,378.69l.1-37.44Z" transform="translate(-313.82 -189.17)"/><ellipse class="d" cx="341.59" cy="756.94" rx="189.95" ry="109.67"/><ellipse class="f" cx="341.59" cy="716.45" rx="126.39" ry="72.97"/><path class="c" d="M719.35,747.69l-.73.14-1.51.32a284.77,284.77,0,0,1-51.53,6.38c-4.19.17-8,.23-11.61.24-1.47,0-2.87,0-4.37,0-4.71-.06-8.65-.22-11.59-.43-1.87-.14-4.11-.31-6.54-.52s-4.63-.4-7-.64c-5.53-.55-12-1.36-19-2.5-1-.17-2-.32-3.06-.5-4.4-.75-9-1.65-13.81-2.72v3.88l.1,34.63.1,34.84L589,880a23.19,23.19,0,0,0,.61,3.73,25.84,25.84,0,0,0,.51,3.09,27.42,27.42,0,0,0,2,4.26,26.48,26.48,0,0,0,1.41,2.82,37.45,37.45,0,0,0,3.82,4.42c.7.74,1.2,1.53,2,2.25a54.12,54.12,0,0,0,8.2,6c25.49,15.33,67.68,15.77,94.23.94a53.88,53.88,0,0,0,8.86-6.06c.85-.71,1.38-1.5,2.14-2.26a38.21,38.21,0,0,0,4.21-4.5,29,29,0,0,0,1.61-2.91,29.29,29.29,0,0,0,2.26-4.32,23.84,23.84,0,0,0,.64-3.2,23.53,23.53,0,0,0,.72-4.27c0-.15.07-.29.07-.43h0l-.17-59.24L722,795.61l0-9.91-.1-34.77v-3.84Z" transform="translate(-313.82 -189.17)"/><path class="f" d="M905.71,333.47l-24.4,274.64a226.31,226.31,0,0,1-72.22,149c-2,1.76-3.9,3.52-5.91,5.22A226.23,226.23,0,0,1,655,817.45c-5.34,0-10.62-.19-15.91-.57A227.11,227.11,0,0,1,428.46,607.17L405.07,329.32Z" transform="translate(-313.82 -189.17)"/><path class="d" d="M483.19,607.18,459.82,329.77l-54.74-.45,23.4,277.86A227.06,227.06,0,0,0,654.92,817.45h0a228.89,228.89,0,0,0,27.36-1.7C575.93,802.94,491.3,716.51,483.19,607.18Z" transform="translate(-313.82 -189.17)"/><path class="b" d="M885.59,353.08,861.2,627.66a226.06,226.06,0,0,1-58,134.66A226.23,226.23,0,0,1,655,817.45c-5.34,0-10.62-.19-15.91-.57A226.84,226.84,0,0,0,757.35,635l24.46-274.65Z" transform="translate(-313.82 -189.17)"/><ellipse class="g" cx="341.59" cy="144.53" rx="250.33" ry="144.53"/><path class="c" d="M856.77,333.7c0,14-7.11,28.44-20.21,41.86-8.15,8.38-18.67,16.37-31.21,23.6-38.9,22.46-93.55,35.36-150,35.36s-111-12.9-149.95-35.36c-12.54-7.23-23-15.22-31.18-23.6-13.11-13.42-20.21-27.86-20.21-41.86,0-22.74,18.72-46.61,51.39-65.46,38.9-22.48,93.55-35.36,150-35.36s111.06,12.88,150,35.36C838,287.09,856.77,311,856.77,333.7Z" transform="translate(-313.82 -189.17)"/><path class="h" d="M836.56,375.56c-8.15,8.38-18.67,16.37-31.21,23.6-38.9,22.46-93.55,35.36-150,35.36s-111-12.9-149.95-35.36c-12.54-7.23-23-15.22-31.18-23.6A143.2,143.2,0,0,1,505.44,352c38.9-22.45,93.55-35.35,150-35.35s111.06,12.9,150,35.35C817.89,359.18,828.41,367.18,836.56,375.56Z" transform="translate(-313.82 -189.17)"/><path class="c" d="M879.56,716.24c-1.61.77-3.15,1.64-4.81,2.3-1.92.77-4,1.29-6,1.92-1.7.52-3.34,1.17-5.08,1.6-2.09.5-4.29.75-6.44,1.11-1.79.3-3.52.71-5.35.9-2.22.23-4.56.2-6.85.28-1.86.06-3.67.25-5.58.21-2.41-.06-4.92-.38-7.4-.61-1.87-.17-3.71-.2-5.63-.46-2.68-.38-5.45-1-8.19-1.62-1.8-.37-3.55-.6-5.37-1-3.12-.78-6.32-1.88-9.51-2.91-1.53-.49-3-.84-4.55-1.39q-7.12-2.57-14.47-5.95l20-11.64c34.23,15.85,65.46,17.89,90.4,8a79.07,79.07,0,0,1-9.74,6.66C883.28,714.57,881.4,715.36,879.56,716.24Z" transform="translate(-313.82 -189.17)"/><path class="c" d="M910.62,751.5c2.3-1.43,4.49-3,6.67-4.63,1.86-1.39,3.74-2.75,5.51-4.29,2.08-1.8,4-3.79,6-5.78,1.65-1.69,3.33-3.33,4.88-5.16,1.86-2.18,3.55-4.57,5.27-6.95,1.42-2,2.87-3.85,4.18-5.94,1.63-2.59,3-5.39,4.52-8.17,1.16-2.21,2.38-4.32,3.44-6.64,1.37-3,2.52-6.26,3.71-9.47.89-2.41,1.88-4.7,2.66-7.22,1.1-3.51,2-7.3,2.86-11,.6-2.51,1.32-4.87,1.83-7.46.84-4.31,1.4-8.9,2-13.47.29-2.29.73-4.43.95-6.78.66-7,1-14.35,1-21.95l.06-18.88,20-11.63,0,18.87C986,677,964,720.74,928.55,741.33l-20,11.64C909.25,752.54,909.89,752,910.62,751.5Z" transform="translate(-313.82 -189.17)"/><polygon class="d" points="471.13 313.92 491.16 302.27 672.36 406.89 652.33 418.53 471.13 313.92"/><path class="f" d="M784.25,747.89l.11-37.32q7.33,3.39,14.47,5.95c1.55.55,3,.9,4.55,1.39,3.19,1,6.39,2.13,9.51,2.91,1.82.45,3.57.68,5.37,1,2.74.58,5.51,1.24,8.19,1.62,1.92.26,3.76.29,5.63.46,2.48.23,5,.55,7.4.61,1.91,0,3.72-.15,5.58-.21,2.29-.08,4.63-.05,6.85-.28,1.83-.19,3.56-.6,5.35-.9,2.15-.36,4.35-.61,6.44-1.11,1.74-.43,3.38-1.08,5.08-1.6,2-.63,4.05-1.15,6-1.92,1.66-.66,3.2-1.53,4.81-2.3,1.84-.88,3.72-1.67,5.49-2.68a79.07,79.07,0,0,0,9.74-6.66c20.75-16.5,34.45-44.09,37.86-81L784.84,540.51l.11-37.43,181.2,104.61-.06,18.88c0,7.6-.38,14.91-1,21.95-.22,2.35-.66,4.49-.95,6.78-.57,4.57-1.13,9.16-2,13.47-.51,2.59-1.23,5-1.83,7.46-.9,3.72-1.76,7.51-2.86,11-.78,2.52-1.77,4.81-2.66,7.22-1.19,3.21-2.34,6.46-3.71,9.47-1.06,2.32-2.28,4.43-3.44,6.64-1.47,2.78-2.89,5.58-4.52,8.17-1.31,2.09-2.77,4-4.18,5.94-1.72,2.38-3.41,4.77-5.27,6.95-1.55,1.83-3.23,3.47-4.88,5.16-1.95,2-3.9,4-6,5.78-1.77,1.53-3.65,2.9-5.51,4.29-2.18,1.62-4.37,3.21-6.67,4.63C878.06,771.63,833.71,771.81,784.25,747.89Z" transform="translate(-313.82 -189.17)"/><use width="25.46" height="25.46" transform="translate(151.64 459.68) scale(2.44)" xlink:href="#a"/><path class="a" d="M704.74,527.94H718.1a55.6,55.6,0,0,1,55.44-55.44V459.14A55.61,55.61,0,0,1,718.1,403.7H704.74a55.61,55.61,0,0,1-55.44,55.44V472.5A55.6,55.6,0,0,1,704.74,527.94Z" transform="translate(-313.82 -189.17)"/></svg>