<svg id="Layer_1" data-name="Layer 1" xmlns="http://www.w3.org/2000/svg" viewBox="0 0 463.06 205.96"><defs><style>.cls-1{fill:#658db5;}.cls-2{fill:#36454f;}.cls-3{fill:#80a7ce;}.cls-4{fill:#fff;}.cls-5{fill:#818b9c;}.cls-6{fill:#343b47;}</style></defs><rect class="cls-1" x="273.19" y="223.38" width="63.64" height="13.54" transform="translate(-139.85 84.09) rotate(-28)"/><path class="cls-2" d="M279.27,253.77,271,238.29l59.73-31.76L339,222Zm-2.83-13.83,4.48,8.43,52.66-28-4.47-8.42Z" transform="translate(-67.5 -86.04)"/><rect class="cls-3" x="332.16" y="200.57" width="16.25" height="21.67" transform="translate(-126.91 98.46) rotate(-28)"/><path class="cls-2" d="M337.37,227.48l-12.05-22.66,17.88-9.5L355.25,218Zm-6.64-21L339,222.07l10.82-5.75-8.29-15.59Z" transform="translate(-67.5 -86.04)"/><rect class="cls-3" x="239.95" y="250.25" width="39.27" height="8.12" transform="translate(-156.51 65.59) rotate(-28)"/><path class="cls-2" d="M243.33,269.82l-5.7-10.71,38.21-20.31,5.69,10.71Zm-.29-9.05,1.94,3.64,31.14-16.56-1.94-3.64Z" transform="translate(-67.5 -86.04)"/><rect class="cls-2" x="291.67" y="221.3" width="4" height="6.77" transform="translate(-138.61 78.13) rotate(-28)"/><rect class="cls-2" x="279.72" y="227.65" width="4" height="6.77" transform="translate(-142.99 73.27) rotate(-28)"/><rect class="cls-3" x="274.24" y="215.32" width="32.5" height="6.77" transform="translate(-136.17 75.94) rotate(-28)"/><path class="cls-2" d="M276.91,232l-5.06-9.51,32.23-17.14,5.05,9.51Zm.35-7.86,1.3,2.45,25.16-13.38-1.3-2.45Z" transform="translate(-67.5 -86.04)"/><polygon class="cls-2" points="176.79 174.06 174.75 170.22 170.96 169.85 171.36 165.87 177.28 166.46 180.33 172.18 176.79 174.06"/><rect class="cls-2" x="283.12" y="244.07" width="4" height="4.06" transform="translate(-149.65 76.58) rotate(-27.99)"/><rect class="cls-2" x="292.69" y="238.98" width="4" height="4.06" transform="translate(-146.16 80.54) rotate(-28)"/><rect class="cls-2" x="302.25" y="233.9" width="4" height="4.06" transform="translate(-142.65 84.41) rotate(-28)"/><rect class="cls-2" x="311.82" y="228.81" width="4" height="4.06" transform="translate(-139.14 88.33) rotate(-28)"/><rect class="cls-2" x="321.38" y="223.72" width="4" height="4.06" transform="translate(-135.63 92.21) rotate(-28)"/><rect class="cls-2" x="330.95" y="218.64" width="4" height="4.06" transform="translate(-132.13 96.1) rotate(-28)"/><polygon class="cls-2" points="222.12 169.9 218 162.16 221.54 160.28 223.78 164.49 244.27 153.59 251.73 142.24 255.07 144.43 247.06 156.64 222.12 169.9"/><rect class="cls-2" x="269.28" y="265.98" width="47.68" height="4" transform="translate(-140.26 336.41) rotate(-65.32)"/><rect class="cls-2" x="311.85" y="244.14" width="4" height="47.68" transform="translate(-150.71 69.42) rotate(-24.67)"/><rect class="cls-2" x="233.99" y="160.27" width="4" height="44.69"/><rect class="cls-2" x="330.93" y="208.6" width="4.06" height="4" transform="translate(-127.39 94.82) rotate(-27.98)"/><rect class="cls-2" x="334.78" y="215.85" width="4.06" height="4" transform="translate(-130.34 97.48) rotate(-27.98)"/><rect class="cls-2" x="345.3" y="196.82" width="6.71" height="20.25" transform="translate(-123.85 101.86) rotate(-28)"/><circle class="cls-4" cx="235.98" cy="160.27" r="5.42"/><path class="cls-2" d="M303.49,253.73a7.42,7.42,0,1,1,7.41-7.42A7.43,7.43,0,0,1,303.49,253.73Zm0-10.83a3.42,3.42,0,1,0,3.41,3.41A3.42,3.42,0,0,0,303.49,242.9Z" transform="translate(-67.5 -86.04)"/><rect class="cls-2" x="295.89" y="211.38" width="4" height="6.77" transform="translate(-133.46 78.96) rotate(-28)"/><rect class="cls-2" x="247.17" y="255.79" width="4" height="8.12" transform="translate(-160.32 61.35) rotate(-28)"/><path class="cls-5" d="M354.64,134a24,24,0,1,1,17-41h0a24,24,0,0,1-17,41Zm0-44a20,20,0,1,0,14.14,5.85h0A19.93,19.93,0,0,0,354.64,90Z" transform="translate(-67.5 -86.04)"/><circle class="cls-5" cx="285.72" cy="33.89" r="4"/><path class="cls-5" d="M337.67,124.17,340.5,127l6.74-6.75a6,6,0,0,1,6.31-6.3l18.06-18.06-2.83-2.83Z" transform="translate(-67.5 -86.04)"/><path class="cls-5" d="M362.46,115,359,118.46a6,6,0,0,1-7.28,7.28l-4.14,4.14a2,2,0,1,0,2.83,2.83l14.85-14.85a2,2,0,1,0-2.83-2.83Z" transform="translate(-67.5 -86.04)"/><path class="cls-5" d="M360,87.69,352.5,95.2a5,5,0,0,1-5.62,5.62l-.73.72a2,2,0,1,0,2.83,2.83l13.86-13.85A2,2,0,0,0,360,87.69Z" transform="translate(-67.5 -86.04)"/><path class="cls-5" d="M349.69,93.77a3,3,0,1,1-4.25,0A3,3,0,0,1,349.69,93.77Z" transform="translate(-67.5 -86.04)"/><path class="cls-5" d="M345.24,113.36l-7,7a2,2,0,0,1-2.83-2.83l7-7a2,2,0,1,1,2.83,2.83Z" transform="translate(-67.5 -86.04)"/><path class="cls-5" d="M321,177.67H300a2,2,0,0,1,0-4h21a2,2,0,0,1,0,4Z" transform="translate(-67.5 -86.04)"/><path class="cls-5" d="M291,177.67h-7a2,2,0,0,1,0-4h7a2,2,0,0,1,0,4Z" transform="translate(-67.5 -86.04)"/><path class="cls-5" d="M480,151.67h-9a2,2,0,0,1,0-4h9a2,2,0,0,1,0,4Z" transform="translate(-67.5 -86.04)"/><path class="cls-5" d="M493,151.67h-5a2,2,0,0,1,0-4h5a2,2,0,0,1,0,4Z" transform="translate(-67.5 -86.04)"/><path class="cls-5" d="M498,167.67H477a2,2,0,0,1,0-4h21a2,2,0,0,1,0,4Z" transform="translate(-67.5 -86.04)"/><path class="cls-5" d="M511,167.67h-4a2,2,0,0,1,0-4h4a2,2,0,0,1,0,4Z" transform="translate(-67.5 -86.04)"/><path class="cls-5" d="M404.68,176a8,8,0,1,1,5.65-13.66h0A8,8,0,0,1,404.68,176Zm0-12a4,4,0,0,0-2.83,6.83,4.1,4.1,0,0,0,5.66,0,4,4,0,0,0,0-5.66h0A4,4,0,0,0,404.68,164Z" transform="translate(-67.5 -86.04)"/><path class="cls-5" d="M400.43,174.25a2,2,0,0,1-1.41-.58l-11.31-11.32a2,2,0,0,1,2.82-2.83l11.32,11.32a2,2,0,0,1-1.42,3.41Z" transform="translate(-67.5 -86.04)"/><path class="cls-5" d="M408.92,165.77a2,2,0,0,1-1.41-.59l-11.32-11.31A2,2,0,0,1,399,151l11.31,11.31a2,2,0,0,1-1.41,3.42Z" transform="translate(-67.5 -86.04)"/><path class="cls-5" d="M400.43,165.77a2,2,0,0,1-1.41-.59l-11.31-11.31a2,2,0,0,1,2.82-2.83l11.32,11.31a2,2,0,0,1-1.42,3.42Z" transform="translate(-67.5 -86.04)"/><path class="cls-5" d="M339,170.5a1,1,0,0,1-1-1v-3a1,1,0,0,1,2,0v3A1,1,0,0,1,339,170.5Z" transform="translate(-67.5 -86.04)"/><path class="cls-5" d="M337,172.5h-3a1,1,0,0,1,0-2h3a1,1,0,0,1,0,2Z" transform="translate(-67.5 -86.04)"/><path class="cls-5" d="M339,177.5a1,1,0,0,1-1-1v-3a1,1,0,0,1,2,0v3A1,1,0,0,1,339,177.5Z" transform="translate(-67.5 -86.04)"/><path class="cls-5" d="M344,172.5h-3a1,1,0,0,1,0-2h3a1,1,0,0,1,0,2Z" transform="translate(-67.5 -86.04)"/><path class="cls-5" d="M240.92,242a2,2,0,0,1-1.92-1.43,12,12,0,0,0-10.63-8.52,2,2,0,0,1-1.77-1.4,19.49,19.49,0,0,0-32.48-7.84,2,2,0,0,1-1.93.53,2,2,0,0,1-1.42-1.42,21.5,21.5,0,0,0-41.69.65,2,2,0,0,1-2.2,1.53,10.4,10.4,0,0,0-1.38-.1,11,11,0,0,0-7.44,2.92,2,2,0,0,1-1.89.45,9.83,9.83,0,0,0-8.59,1.59,2,2,0,0,1-1.73.31,1.94,1.94,0,0,1-1.31-1.17,13,13,0,1,0-23.53,11A2,2,0,0,1,99.25,242H69.5a2,2,0,0,1,0-4H96.26a17,17,0,0,1,31-13.5,13.77,13.77,0,0,1,9-1.23,14.91,14.91,0,0,1,9.45-3.27,25.5,25.5,0,0,1,48-2.09A23.5,23.5,0,0,1,230,228.21a16.08,16.08,0,0,1,12.85,11.22,2,2,0,0,1-1.35,2.49A2.24,2.24,0,0,1,240.92,242Z" transform="translate(-67.5 -86.04)"/><path class="cls-5" d="M88.91,224.59a1,1,0,0,1-.7-.3,1,1,0,0,1,0-1.41l1.41-1.42A1,1,0,0,1,91,222.88l-1.42,1.41A1,1,0,0,1,88.91,224.59Z" transform="translate(-67.5 -86.04)"/><path class="cls-5" d="M86.09,224.59a1,1,0,0,1-.71-.3L84,222.88a1,1,0,0,1,1.42-1.42l1.41,1.42a1,1,0,0,1,0,1.41A1,1,0,0,1,86.09,224.59Z" transform="translate(-67.5 -86.04)"/><path class="cls-5" d="M84.67,228.83a1,1,0,0,1-.71-.29,1,1,0,0,1,0-1.42l1.42-1.41a1,1,0,0,1,1.41,1.41l-1.41,1.42A1,1,0,0,1,84.67,228.83Z" transform="translate(-67.5 -86.04)"/><path class="cls-5" d="M90.33,228.83a1,1,0,0,1-.71-.29l-1.41-1.42a1,1,0,0,1,1.41-1.41L91,227.12a1,1,0,0,1,0,1.42A1,1,0,0,1,90.33,228.83Z" transform="translate(-67.5 -86.04)"/><path class="cls-5" d="M388.67,196h-1a1,1,0,0,1,0-2h1a1,1,0,1,1,0,2Z" transform="translate(-67.5 -86.04)"/><path class="cls-5" d="M385.67,194a1,1,0,0,1-1-1v-1a1,1,0,0,1,2,0v1A1,1,0,0,1,385.67,194Z" transform="translate(-67.5 -86.04)"/><path class="cls-5" d="M383.67,196h-1a1,1,0,0,1,0-2h1a1,1,0,1,1,0,2Z" transform="translate(-67.5 -86.04)"/><path class="cls-5" d="M385.67,199a1,1,0,0,1-1-1v-1a1,1,0,0,1,2,0v1A1,1,0,0,1,385.67,199Z" transform="translate(-67.5 -86.04)"/><rect class="cls-5" x="401.5" y="108.96" width="2" height="2"/><rect class="cls-5" x="399.5" y="110.96" width="2" height="2"/><rect class="cls-5" x="401.5" y="112.96" width="2" height="2"/><rect class="cls-5" x="403.5" y="110.96" width="2" height="2"/><rect class="cls-5" x="124.5" y="73.96" width="2" height="2"/><rect class="cls-5" x="122.5" y="75.96" width="2" height="2"/><rect class="cls-5" x="124.5" y="77.96" width="2" height="2"/><rect class="cls-5" x="126.5" y="75.96" width="2" height="2"/><path class="cls-5" d="M252,190.67a12,12,0,1,1,12-12A12,12,0,0,1,252,190.67Zm0-20a8,8,0,1,0,8,8A8,8,0,0,0,252,170.67Z" transform="translate(-67.5 -86.04)"/><circle class="cls-5" cx="181.5" cy="88.63" r="2"/><circle class="cls-5" cx="191.5" cy="95.63" r="2"/><path class="cls-5" d="M251.06,182.14a3.53,3.53,0,1,1-3.53-3.54A3.53,3.53,0,0,1,251.06,182.14Z" transform="translate(-67.5 -86.04)"/><path class="cls-5" d="M215.5,188.5h-19a2,2,0,0,1,0-4h19a2,2,0,0,1,0,4Z" transform="translate(-67.5 -86.04)"/><path class="cls-5" d="M188.5,188.5h-4a2,2,0,0,1,0-4h4a2,2,0,0,1,0,4Z" transform="translate(-67.5 -86.04)"/><path class="cls-5" d="M202.24,255a2.3,2.3,0,0,1-.45-.05,2,2,0,0,1-1.5-2.4,6.57,6.57,0,0,0,.19-1.55,7,7,0,0,0-13.73-1.93,2,2,0,0,1-1.31,1.36,2,2,0,0,1-1.86-.34,4.94,4.94,0,0,0-3.1-1.09,5,5,0,0,0-4.94,4.28,2,2,0,0,1-2,1.72H158.48a2,2,0,0,1,0-4H172a9,9,0,0,1,8.48-6,8.9,8.9,0,0,1,3.38.67,11,11,0,0,1,20.33,7.78A2,2,0,0,1,202.24,255Z" transform="translate(-67.5 -86.04)"/><path class="cls-5" d="M478.16,256.24a2.3,2.3,0,0,1-.45-.05,2,2,0,0,1-1.5-2.4A13.45,13.45,0,0,0,466,237.55l-3-.31a13.5,13.5,0,0,0-11.81,7.14,2,2,0,0,1-3.26.39A10.47,10.47,0,0,0,430.7,247a2,2,0,0,1-3.23.47,4,4,0,0,0-4.21-1,2,2,0,0,1-2-.41,7,7,0,0,0-4.5-1.82l-3.08.62a7.05,7.05,0,0,0-3.69,4,2,2,0,0,1-1.21,1.21,2,2,0,0,1-1.69-.16,5,5,0,0,0-7.52,4.31,2,2,0,0,1-2,2h-25a2,2,0,1,1,0-4h23.22a9,9,0,0,1,8.78-7,9.21,9.21,0,0,1,2.56.37,11,11,0,0,1,5.17-4.51,2.4,2.4,0,0,1,.38-.12l3.49-.7a1.81,1.81,0,0,1,.4,0,11,11,0,0,1,6.51,2.14,8,8,0,0,1,5.28.81A14.48,14.48,0,0,1,449,240.33a17.46,17.46,0,0,1,14.07-7.09h.2l3.2.33.2,0a17.42,17.42,0,0,1,13.43,21.08A2,2,0,0,1,478.16,256.24Z" transform="translate(-67.5 -86.04)"/><circle class="cls-5" cx="251.5" cy="56.29" r="2"/><path class="cls-5" d="M420.67,145.33a1,1,0,0,1,0-2c6.88,0,7-6.71,7-7a1,1,0,0,1,1-1h0a1,1,0,0,1,1,1C429.67,139.45,427.79,145.33,420.67,145.33Z" transform="translate(-67.5 -86.04)"/><path class="cls-5" d="M436.67,145.33c-7.12,0-9-5.88-9-9a1,1,0,0,1,1-1,1,1,0,0,1,1,1h0c0,.29.11,7,7,7a1,1,0,0,1,0,2Zm-7-9h0Z" transform="translate(-67.5 -86.04)"/><path class="cls-5" d="M428.67,153.33h0a1,1,0,0,1-1-1c0-3.11,1.88-9,9-9a1,1,0,0,1,0,2c-6.89,0-7,6.72-7,7A1,1,0,0,1,428.67,153.33Z" transform="translate(-67.5 -86.04)"/><path class="cls-5" d="M428.67,153.33a1,1,0,0,1-1-1h0c0-.29-.12-7-7-7a1,1,0,0,1,0-2c7.12,0,9,5.89,9,9A1,1,0,0,1,428.67,153.33Z" transform="translate(-67.5 -86.04)"/><path class="cls-5" d="M303,97a1,1,0,0,1,0-2c6.88,0,7-6.72,7-7a1,1,0,0,1,1-1h0a1,1,0,0,1,1,1C312,91.11,310.12,97,303,97Z" transform="translate(-67.5 -86.04)"/><path class="cls-5" d="M319,97c-7.12,0-9-5.89-9-9a1,1,0,0,1,2,0h0c0,.28.12,7,7,7a1,1,0,0,1,0,2Zm-7-9h0Z" transform="translate(-67.5 -86.04)"/><path class="cls-5" d="M311,105h0a1,1,0,0,1-1-1c0-3.11,1.88-9,9-9a1,1,0,0,1,0,2c-6.88,0-7,6.72-7,7A1,1,0,0,1,311,105Z" transform="translate(-67.5 -86.04)"/><path class="cls-5" d="M311,105a1,1,0,0,1-1-1h0c0-.28-.12-7-7-7a1,1,0,0,1,0-2c7.12,0,9,5.89,9,9A1,1,0,0,1,311,105Z" transform="translate(-67.5 -86.04)"/><path class="cls-5" d="M136.33,197a1,1,0,0,1,0-2c6.89,0,7-6.72,7-7a1,1,0,0,1,1-1h0a1,1,0,0,1,1,1C145.33,191.11,143.45,197,136.33,197Z" transform="translate(-67.5 -86.04)"/><path class="cls-5" d="M152.33,197c-7.12,0-9-5.89-9-9a1,1,0,0,1,2,0h0c0,.28.12,7,7,7a1,1,0,1,1,0,2Zm-7-9h0Z" transform="translate(-67.5 -86.04)"/><path class="cls-5" d="M144.33,205h0a1,1,0,0,1-1-1c0-3.11,1.88-9,9-9a1,1,0,1,1,0,2c-6.88,0-7,6.72-7,7A1,1,0,0,1,144.33,205Z" transform="translate(-67.5 -86.04)"/><path class="cls-5" d="M144.33,205a1,1,0,0,1-1-1h0c0-.28-.11-7-7-7a1,1,0,0,1,0-2c7.12,0,9,5.89,9,9A1,1,0,0,1,144.33,205Z" transform="translate(-67.5 -86.04)"/><path class="cls-5" d="M456,167.67a1,1,0,0,1-1-1v-5a1,1,0,1,1,2,0v5A1,1,0,0,1,456,167.67Z" transform="translate(-67.5 -86.04)"/><path class="cls-5" d="M456,176.67a1,1,0,0,1-1-1v-5a1,1,0,1,1,2,0v5A1,1,0,0,1,456,176.67Z" transform="translate(-67.5 -86.04)"/><path class="cls-5" d="M454,169.67h-3a1,1,0,0,1,0-2h3a1,1,0,0,1,0,2Z" transform="translate(-67.5 -86.04)"/><path class="cls-5" d="M461,169.67h-3a1,1,0,0,1,0-2h3a1,1,0,0,1,0,2Z" transform="translate(-67.5 -86.04)"/><path class="cls-5" d="M259,137.33a13,13,0,1,1,13-13A13,13,0,0,1,259,137.33Zm0-22a9,9,0,1,0,9,9A9,9,0,0,0,259,115.33Z" transform="translate(-67.5 -86.04)"/><path class="cls-5" d="M259,148.33a24,24,0,1,1,24-24A24,24,0,0,1,259,148.33Zm0-44a20,20,0,1,0,20,20A20,20,0,0,0,259,104.33Z" transform="translate(-67.5 -86.04)"/><circle class="cls-5" cx="213.5" cy="38.29" r="6"/><path class="cls-5" d="M259.5,120.37c-2.57,0-4.5-1.29-4.5-3s1.93-3,4.5-3,4.5,1.3,4.5,3S262.07,120.37,259.5,120.37Zm0-4c-1.53,0-2.5.67-2.5,1s1,1,2.5,1,2.5-.67,2.5-1S261,116.33,259.5,116.33Z" transform="translate(-67.5 -86.04)"/><path class="cls-5" d="M251.53,127.78a1.5,1.5,0,0,1-.37,0c-1.42-.3-2.09-2.17-1.6-4.43a5.82,5.82,0,0,1,1.07-2.4,2.28,2.28,0,0,1,2.21-1h0c1.42.31,2.09,2.18,1.6,4.44a6,6,0,0,1-1.07,2.4A2.43,2.43,0,0,1,251.53,127.78Zm.88-5.84a3.21,3.21,0,0,0-.9,1.79,3.25,3.25,0,0,0,.08,2,4,4,0,0,0,.82-3.79Z" transform="translate(-67.5 -86.04)"/><path class="cls-5" d="M211,131H188a2,2,0,0,1,0-4h23a2,2,0,0,1,0,4Z" transform="translate(-67.5 -86.04)"/><path class="cls-5" d="M180,131h-5a2,2,0,0,1,0-4h5a2,2,0,0,1,0,4Z" transform="translate(-67.5 -86.04)"/><rect class="cls-6" x="169.5" y="198.96" width="2" height="5"/><rect class="cls-6" x="173.5" y="195.96" width="2" height="8"/><rect class="cls-6" x="177.5" y="197.96" width="2" height="6"/><rect class="cls-6" x="181.5" y="199.96" width="2" height="4"/><rect class="cls-6" x="185.5" y="196.96" width="2" height="7"/><rect class="cls-6" x="189.5" y="191.96" width="2" height="12"/><rect class="cls-6" x="193.5" y="189.96" width="2" height="14"/><rect class="cls-6" x="197.5" y="196.96" width="2" height="7"/><rect class="cls-6" x="229.5" y="197.96" width="2" height="6"/><rect class="cls-6" x="225.5" y="193.96" width="2" height="10"/><rect class="cls-6" x="221.5" y="199.96" width="2" height="4"/><rect class="cls-6" x="217.5" y="195.96" width="2" height="8"/><rect class="cls-6" x="213.5" y="191.96" width="2" height="12"/><rect class="cls-6" x="209.5" y="194.96" width="2" height="9"/><rect class="cls-6" x="205.5" y="192.96" width="2" height="11"/><rect class="cls-6" x="201.5" y="193.96" width="2" height="10"/><rect class="cls-6" x="293.5" y="197.96" width="2" height="6"/><rect class="cls-6" x="289.5" y="194.96" width="2" height="9"/><rect class="cls-6" x="285.5" y="200.96" width="2" height="3"/><rect class="cls-6" x="281.5" y="198.96" width="2" height="5"/><rect class="cls-6" x="277.5" y="193.96" width="2" height="10"/><rect class="cls-6" x="273.5" y="194.96" width="2" height="9"/><rect class="cls-6" x="269.5" y="192.96" width="2" height="11"/><rect class="cls-6" x="265.5" y="196.96" width="2" height="7"/><rect class="cls-6" x="233.5" y="197.96" width="2" height="6"/><rect class="cls-6" x="237.5" y="193.96" width="2" height="10"/><rect class="cls-6" x="241.5" y="197.96" width="2" height="6"/><rect class="cls-6" x="245.5" y="192.96" width="2" height="11"/><rect class="cls-6" x="249.5" y="194.96" width="2" height="9"/><rect class="cls-6" x="253.5" y="190.96" width="2" height="13"/><rect class="cls-6" x="257.5" y="195.96" width="2" height="8"/><rect class="cls-6" x="261.5" y="193.96" width="2" height="10"/><rect class="cls-6" x="295.5" y="198.96" width="2" height="5"/><rect class="cls-6" x="291.5" y="195.96" width="2" height="8"/><rect class="cls-6" x="287.5" y="197.96" width="2" height="6"/><rect class="cls-6" x="283.5" y="199.96" width="2" height="4"/><rect class="cls-6" x="279.5" y="196.96" width="2" height="7"/><rect class="cls-6" x="275.5" y="191.96" width="2" height="12"/><rect class="cls-6" x="271.5" y="189.96" width="2" height="14"/><rect class="cls-6" x="267.5" y="196.96" width="2" height="7"/><rect class="cls-6" x="235.5" y="197.96" width="2" height="6"/><rect class="cls-6" x="239.5" y="193.96" width="2" height="10"/><rect class="cls-6" x="243.5" y="199.96" width="2" height="4"/><rect class="cls-6" x="247.5" y="195.96" width="2" height="8"/><rect class="cls-6" x="251.5" y="191.96" width="2" height="12"/><rect class="cls-6" x="255.5" y="194.96" width="2" height="9"/><rect class="cls-6" x="259.5" y="192.96" width="2" height="11"/><rect class="cls-6" x="263.5" y="193.96" width="2" height="10"/><rect class="cls-6" x="171.5" y="197.96" width="2" height="6"/><rect class="cls-6" x="175.5" y="194.96" width="2" height="9"/><rect class="cls-6" x="179.5" y="200.96" width="2" height="3"/><rect class="cls-6" x="183.5" y="198.96" width="2" height="5"/><rect class="cls-6" x="187.5" y="193.96" width="2" height="10"/><rect class="cls-6" x="191.5" y="194.96" width="2" height="9"/><rect class="cls-6" x="195.5" y="192.96" width="2" height="11"/><rect class="cls-6" x="199.5" y="196.96" width="2" height="7"/><rect class="cls-6" x="231.5" y="197.96" width="2" height="6"/><rect class="cls-6" x="227.5" y="193.96" width="2" height="10"/><rect class="cls-6" x="223.5" y="197.96" width="2" height="6"/><rect class="cls-6" x="219.5" y="192.96" width="2" height="11"/><rect class="cls-6" x="215.5" y="194.96" width="2" height="9"/><rect class="cls-6" x="211.5" y="190.96" width="2" height="13"/><rect class="cls-6" x="207.5" y="195.96" width="2" height="8"/><rect class="cls-6" x="203.5" y="193.96" width="2" height="10"/><path class="cls-6" d="M389,292H212a2,2,0,0,1,0-4H389a2,2,0,0,1,0,4Z" transform="translate(-67.5 -86.04)"/><path class="cls-6" d="M203,292h-6a2,2,0,0,1,0-4h6a2,2,0,0,1,0,4Z" transform="translate(-67.5 -86.04)"/><path class="cls-6" d="M189,292h-6a2,2,0,0,1,0-4h6a2,2,0,0,1,0,4Z" transform="translate(-67.5 -86.04)"/><path class="cls-6" d="M417,292h-6a2,2,0,0,1,0-4h6a2,2,0,0,1,0,4Z" transform="translate(-67.5 -86.04)"/><path class="cls-6" d="M403,292h-6a2,2,0,0,1,0-4h6a2,2,0,0,1,0,4Z" transform="translate(-67.5 -86.04)"/><path class="cls-5" d="M435.56,214.81h39a2,2,0,0,0,2-2,8.52,8.52,0,0,1,8.5-8.5c.19,0,.38,0,.56,0a2.08,2.08,0,0,0,2.17-1.56,9.49,9.49,0,0,1,18.77,2,2,2,0,0,0,2,2h20a2,2,0,0,0,0-4H510.42a13.5,13.5,0,0,0-26.09-2.48,12.53,12.53,0,0,0-11.61,10.48H435.56a2,2,0,0,0,0,4Z" transform="translate(-67.5 -86.04)"/><path class="cls-5" d="M416.56,214.81h11a2,2,0,0,0,0-4h-11a2,2,0,0,0,0,4Z" transform="translate(-67.5 -86.04)"/></svg>