<svg xmlns="http://www.w3.org/2000/svg" viewBox="0 0 282.86 282.86"><defs><style>.a{fill:rgb(130,130,130);}</style></defs><path class="a" d="M384,228.23c-5-1.59-12.15-3.69-20.25-5.51a10.52,10.52,0,0,1-3.57-1.5l-.77-.52a10.25,10.25,0,0,1-3.77-5.17A111.39,111.39,0,0,0,349.24,200a10.17,10.17,0,0,1-1-6.3c.13-.77.3-1.54.5-2.31a10.81,10.81,0,0,1,1.33-3.06c4.27-6.79,7.71-13.09,10-17.63a10.66,10.66,0,0,0-1.92-12.43l-2.74-2.74-11-11-2.73-2.73a10.65,10.65,0,0,0-12.41-1.95c-4.66,2.41-11.2,6-18.21,10.43a10.91,10.91,0,0,1-3.59,1.46l-.91.17a10.27,10.27,0,0,1-6.33-1,109.69,109.69,0,0,0-15.56-6.48,10.17,10.17,0,0,1-5.14-3.77c-.45-.64-.88-1.3-1.28-2a10.78,10.78,0,0,1-1.22-3.1c-1.78-7.82-3.81-14.72-5.36-19.58a10.66,10.66,0,0,0-10.15-7.43H238.38a10.66,10.66,0,0,0-10.15,7.4c-1.59,5-3.69,12.15-5.51,20.25a10.52,10.52,0,0,1-1.5,3.57l-.52.77a10.25,10.25,0,0,1-5.17,3.77A111.39,111.39,0,0,0,200,150.76a10.17,10.17,0,0,1-6.3,1c-.77-.13-1.54-.3-2.31-.5a10.81,10.81,0,0,1-3.06-1.33c-6.79-4.27-13.09-7.71-17.63-10.05a10.66,10.66,0,0,0-12.43,1.92l-2.74,2.74-11,11-2.73,2.73a10.65,10.65,0,0,0-1.95,12.41c2.41,4.66,6,11.2,10.43,18.21a10.91,10.91,0,0,1,1.46,3.59c.06.31.12.61.17.91a10.27,10.27,0,0,1-1,6.33,109.33,109.33,0,0,0-6.48,15.57,10.19,10.19,0,0,1-3.77,5.13c-.64.45-1.3.88-2,1.28a10.78,10.78,0,0,1-3.1,1.22c-7.82,1.78-14.72,3.81-19.58,5.36a10.66,10.66,0,0,0-7.43,10.15v23.25a10.66,10.66,0,0,0,7.4,10.15c5,1.59,12.15,3.69,20.25,5.51a10.52,10.52,0,0,1,3.57,1.5l.77.52a10.25,10.25,0,0,1,3.77,5.17,111.39,111.39,0,0,0,6.43,15.58,10.17,10.17,0,0,1,1,6.3c-.13.77-.3,1.54-.5,2.31a10.81,10.81,0,0,1-1.33,3.06c-4.27,6.79-7.71,13.09-10.05,17.63a10.66,10.66,0,0,0,1.92,12.43l2.74,2.74,11,11,2.73,2.73a10.65,10.65,0,0,0,12.41,1.95c4.66-2.41,11.2-6,18.21-10.43a10.91,10.91,0,0,1,3.59-1.46l.91-.17a10.27,10.27,0,0,1,6.33,1,109.33,109.33,0,0,0,15.57,6.48,10.19,10.19,0,0,1,5.13,3.77c.45.64.88,1.3,1.28,2a10.78,10.78,0,0,1,1.22,3.1c1.78,7.82,3.81,14.72,5.36,19.58a10.66,10.66,0,0,0,10.15,7.43h23.25a10.66,10.66,0,0,0,10.15-7.4c1.59-5,3.69-12.15,5.51-20.25a10.52,10.52,0,0,1,1.5-3.57l.52-.77a10.25,10.25,0,0,1,5.17-3.77,111.39,111.39,0,0,0,15.58-6.43,10.17,10.17,0,0,1,6.3-1c.77.13,1.54.3,2.31.5a10.81,10.81,0,0,1,3.06,1.33c6.79,4.27,13.09,7.71,17.63,10a10.66,10.66,0,0,0,12.43-1.92l2.74-2.74,11-11,2.73-2.73a10.65,10.65,0,0,0,1.95-12.41c-2.41-4.66-6-11.2-10.43-18.21a10.91,10.91,0,0,1-1.46-3.59c-.06-.31-.12-.61-.17-.91a10.27,10.27,0,0,1,1-6.33,109.33,109.33,0,0,0,6.48-15.57,10.19,10.19,0,0,1,3.77-5.13c.64-.45,1.3-.88,2-1.28a10.78,10.78,0,0,1,3.1-1.22c7.82-1.78,14.72-3.81,19.58-5.36a10.66,10.66,0,0,0,7.43-10.15V238.38A10.66,10.66,0,0,0,384,228.23Zm-134,86A64.25,64.25,0,1,1,314.25,250,64.26,64.26,0,0,1,250,314.25Z" transform="translate(-108.57 -108.57)"/></svg>