<svg xmlns="http://www.w3.org/2000/svg" viewBox="0 0 383.76 575.03"><path d="M776.79,502.15A191.71,191.71,0,0,0,600,385a193.59,193.59,0,0,0-38.19,3.78A191.91,191.91,0,0,0,461.05,709.16c30.71,32.24,47.63,74.15,47.63,118a14,14,0,0,0,14,14H677.3a14,14,0,0,0,14-14c0-43.87,16.92-85.78,47.63-118a192,192,0,0,0,37.84-207ZM600,463a110.52,110.52,0,0,0-110.4,110.4,13.56,13.56,0,1,1-27.12,0c0-75.83,61.69-137.52,137.52-137.52A13.56,13.56,0,0,1,600,463Z" transform="translate(-408.12 -384.97)"/><path d="M667.32,895.21H532.68a12.69,12.69,0,0,0,0,25.37H667.32a12.69,12.69,0,0,0,0-25.37Z" transform="translate(-408.12 -384.97)"/><path d="M676,855.35H524a12.69,12.69,0,1,0,0,25.37H676a12.69,12.69,0,1,0,0-25.37Z" transform="translate(-408.12 -384.97)"/><path d="M650.26,934.63H549.74a3.53,3.53,0,0,0-2.6,5.91l9.79,10.69A27.06,27.06,0,0,0,576.87,960h46.26a27.06,27.06,0,0,0,19.94-8.77l9.79-10.69A3.53,3.53,0,0,0,650.26,934.63Z" transform="translate(-408.12 -384.97)"/></svg>