<svg xmlns="http://www.w3.org/2000/svg" viewBox="0 0 1078.05 1074.21"><defs><style>.a{fill:#366b88;}</style></defs><path class="a" d="M1000,652.06a43.58,43.58,0,0,1-43.58-43.58v-102a43.58,43.58,0,1,1,87.16,0v102A43.58,43.58,0,0,1,1000,652.06Z" transform="translate(-460.98 -462.89)"/><path class="a" d="M1495.45,1045.5h-106a43.58,43.58,0,0,1,0-87.16h106a43.58,43.58,0,0,1,0,87.16Z" transform="translate(-460.98 -462.89)"/><path class="a" d="M610.57,1045.5h-106a43.58,43.58,0,0,1,0-87.16h106a43.58,43.58,0,0,1,0,87.16Z" transform="translate(-460.98 -462.89)"/><path class="a" d="M1350.33,1395.83a43.44,43.44,0,0,1-30.81-12.77l-71.4-71.39a43.58,43.58,0,0,1,61.63-61.63l71.4,71.39a43.59,43.59,0,0,1-30.82,74.4Z" transform="translate(-460.98 -462.89)"/><path class="a" d="M722.23,767.72A43.44,43.44,0,0,1,691.41,755L618.85,682.4a43.58,43.58,0,0,1,61.63-61.63L753,693.33a43.58,43.58,0,0,1-30.81,74.39Z" transform="translate(-460.98 -462.89)"/><path class="a" d="M1277.77,767.72A43.58,43.58,0,0,1,1247,693.33l72.56-72.56a43.58,43.58,0,0,1,61.63,61.63L1308.59,755A43.44,43.44,0,0,1,1277.77,767.72Z" transform="translate(-460.98 -462.89)"/><path class="a" d="M649.67,1395.83a43.59,43.59,0,0,1-30.82-74.4l71.4-71.39a43.58,43.58,0,1,1,61.63,61.63l-71.4,71.39A43.44,43.44,0,0,1,649.67,1395.83Z" transform="translate(-460.98 -462.89)"/><path class="a" d="M1267.66,953.51C1249.93,845.26,1165.78,755,1062.17,733.22a302.39,302.39,0,0,0-124.34,0C834.22,755,750.07,845.26,732.34,953.51c-13.84,84.5,13.78,156.22,61.94,224.86,30.09,42.87,51,75.09,74.27,122.38,3.89,7.89,7.94,21.65,10.77,46.8,2.5,22.16,17.88,36.1,44.85,36.3,25.27.18,50.55.67,75.83,1.09,25.28-.42,50.56-.91,75.83-1.09,27-.2,42.35-14.14,44.85-36.3,2.83-25.15,6.88-38.91,10.77-46.8,23.32-47.29,44.18-79.51,74.27-122.38C1253.88,1109.73,1281.5,1038,1267.66,953.51Z" transform="translate(-460.98 -462.89)"/><path class="a" d="M1105.08,1451.14a21.6,21.6,0,0,0-21.53-21.53H916.46a21.6,21.6,0,0,0-21.54,21.53v39.42a21.6,21.6,0,0,0,21.54,21.53h20.36v1.38a23.71,23.71,0,0,0,23.64,23.64h79.08a23.71,23.71,0,0,0,23.64-23.64v-1.38h20.37a21.6,21.6,0,0,0,21.53-21.53Z" transform="translate(-460.98 -462.89)"/></svg>