<svg xmlns="http://www.w3.org/2000/svg" viewBox="0 0 455.85 435.5"><defs><style>.a{fill:#ffce00;}</style></defs><path class="a" d="M1150.59,287.14a166.28,166.28,0,0,1,19.82,27.37l37.83-27.35a16.9,16.9,0,1,0-19.81-27.39Z" transform="translate(-799.41 -179.37)"/><path class="a" d="M1192.62,397.12a167.09,167.09,0,0,1-.9,17.27l46.6.11a16.91,16.91,0,0,0,16.94-16.87v0a16.9,16.9,0,0,0-16.87-16.9l-46.59-.1C1192.34,386,1192.62,391.54,1192.62,397.12Z" transform="translate(-799.41 -179.37)"/><path class="a" d="M1150.1,507.66l37.71,27.53a16.9,16.9,0,1,0,19.93-27.3L1170,480.36A166,166,0,0,1,1150.1,507.66Z" transform="translate(-799.41 -179.37)"/><path class="a" d="M1061.7,558.79l14.3,44.35a16.9,16.9,0,1,0,32.18-10.37l-14.32-44.39A164.45,164.45,0,0,1,1061.7,558.79Z" transform="translate(-799.41 -179.37)"/><circle class="a" cx="227.92" cy="217.75" r="135.71"/><path class="a" d="M1076.93,191.31l-14.5,44.3a163.48,163.48,0,0,1,32.11,10.56l14.52-44.34a16.9,16.9,0,0,0-32.13-10.52Z" transform="translate(-799.41 -179.37)"/><path class="a" d="M977.74,602.92l14.5-44.3a163.76,163.76,0,0,1-32.12-10.55L945.61,592.4a16.9,16.9,0,1,0,32.13,10.52Z" transform="translate(-799.41 -179.37)"/><path class="a" d="M993,235.45l-14.3-44.36a16.9,16.9,0,1,0-32.18,10.37l14.32,44.4A163.12,163.12,0,0,1,993,235.45Z" transform="translate(-799.41 -179.37)"/><path class="a" d="M904.08,507.1a166.36,166.36,0,0,1-19.82-27.38l-37.83,27.35a16.9,16.9,0,0,0,19.81,27.39Z" transform="translate(-799.41 -179.37)"/><path class="a" d="M862.05,397.12a167.13,167.13,0,0,1,.9-17.28l-46.6-.1a16.9,16.9,0,0,0-16.94,16.86v0a16.9,16.9,0,0,0,16.87,16.9l46.59.11Q862.06,405.49,862.05,397.12Z" transform="translate(-799.41 -179.37)"/><path class="a" d="M904.57,286.57,866.86,259a16.9,16.9,0,1,0-19.93,27.31l37.7,27.52A166,166,0,0,1,904.57,286.57Z" transform="translate(-799.41 -179.37)"/></svg>