<svg xmlns="http://www.w3.org/2000/svg" viewBox="0 0 308.49 324.37"><defs><style>.a{fill:#fcc800;}</style></defs><path class="a" d="M343.1,239.34l24.32-20.05L336,217.37a39,39,0,0,1-35.35-48.65l7.89-30.52-26.58,16.94a39,39,0,0,1-57.19-18.58l-11.56-29.33-11.55,29.33a39,39,0,0,1-57.19,18.58L117.85,138.2l7.89,30.52a39,39,0,0,1-35.35,48.65l-31.46,1.92,24.32,20.05a39,39,0,0,1,0,60.14l-24.32,20,31.46,1.93a39,39,0,0,1,35.35,48.65l-7.89,30.51,26.58-16.93a39,39,0,0,1,57.19,18.58l11.55,29.33,11.56-29.33a39,39,0,0,1,57.19-18.58l26.58,16.93-7.89-30.51A39,39,0,0,1,336,321.46l31.46-1.93-24.32-20A39,39,0,0,1,343.1,239.34ZM213.17,367.07a97.66,97.66,0,1,1,97.66-97.66A97.65,97.65,0,0,1,213.17,367.07Z" transform="translate(-58.93 -107.23)"/><circle class="a" cx="213.17" cy="269.41" r="83.7" transform="translate(-75.26 -93.46) rotate(-3.56)"/></svg>