<svg xmlns="http://www.w3.org/2000/svg"  viewBox="0 0 32 32" width="32px" height="32px"><path fill="#ff4755" d="M20.87,15.5l-8-14A1,1,0,0,0,12,1H6a1,1,0,0,0-.86.5,1,1,0,0,0,0,1l8,14A1,1,0,0,0,14,17h6a1,1,0,0,0,.86-.5A1,1,0,0,0,20.87,15.5Z"/><path fill="#fc2b3a" d="M15.13,16.5l-8-14a1,1,0,0,1,0-1A1,1,0,0,1,8,1H6a1,1,0,0,0-.86.5,1,1,0,0,0,0,1l8,14A1,1,0,0,0,14,17h2A1,1,0,0,1,15.13,16.5Z"/><path fill="#ff4755" d="M26.86,1.5A1,1,0,0,0,26,1H20a1,1,0,0,0-.87.5l-8,14a1,1,0,0,0,0,1A1,1,0,0,0,12,17h6a1,1,0,0,0,.87-.5l8-14A1,1,0,0,0,26.86,1.5Z"/><path fill="#fc2b3a" d="M13.14,16.5a1,1,0,0,1,0-1l8-14A1,1,0,0,1,22,1H20a1,1,0,0,0-.87.5l-8,14a1,1,0,0,0,0,1A1,1,0,0,0,12,17h2A1,1,0,0,1,13.14,16.5Z"/><circle cx="16" cy="20" r="11" fill="#ffcb5b"/><path fill="#f7b737" d="M7,22a11,11,0,0,1,17.7-8.7A11,11,0,1,0,9.3,28.7,10.9,10.9,0,0,1,7,22Z"/><path fill="#fff5f5" d="M17.5,23H17V16a1,1,0,0,0-.5-.87,1,1,0,0,0-1,0L14,16a1,1,0,0,0-.37,1.36,1,1,0,0,0,1.37.37h0V23h-.5a1,1,0,0,0,0,2h3a1,1,0,0,0,0-2Z"/></svg>