<svg xmlns="http://www.w3.org/2000/svg"  viewBox="0 0 32 32" width="32px" height="32px"><path fill="#0083fd" d="M20.87,15.5l-8-14A1,1,0,0,0,12,1H6a1,1,0,0,0-.86.5,1,1,0,0,0,0,1l8,14A1,1,0,0,0,14,17h6a1,1,0,0,0,.86-.5A1,1,0,0,0,20.87,15.5Z"/><path fill="#0072fc" d="M15.13,16.5l-8-14a1,1,0,0,1,0-1A1,1,0,0,1,8,1H6a1,1,0,0,0-.86.5,1,1,0,0,0,0,1l8,14A1,1,0,0,0,14,17h2A1,1,0,0,1,15.13,16.5Z"/><path fill="#0083fd" d="M26.86,1.5A1,1,0,0,0,26,1H20a1,1,0,0,0-.87.5l-8,14a1,1,0,0,0,0,1A1,1,0,0,0,12,17h6a1,1,0,0,0,.87-.5l8-14A1,1,0,0,0,26.86,1.5Z"/><path fill="#0072fc" d="M13.14,16.5a1,1,0,0,1,0-1l8-14A1,1,0,0,1,22,1H20a1,1,0,0,0-.87.5l-8,14a1,1,0,0,0,0,1A1,1,0,0,0,12,17h2A1,1,0,0,1,13.14,16.5Z"/><circle cx="16" cy="20" r="11" fill="#e0e0e0"/><path fill="#cecece" d="M7,22a11,11,0,0,1,17.7-8.7A11,11,0,1,0,9.3,28.7,10.9,10.9,0,0,1,7,22Z"/><path fill="#fff5f5" d="M18.5,25H13.74a1,1,0,0,1-.93-.61A1,1,0,0,1,13,23.3l3-3a3.07,3.07,0,0,0,.88-2.16A1.15,1.15,0,0,0,15.72,17a1.17,1.17,0,0,0-1.22,1.15,1,1,0,0,1-2,0,3.18,3.18,0,0,1,6.35,0,5,5,0,0,1-1.46,3.56L16.12,23H18.5a1,1,0,0,1,0,2Z"/></svg>