<svg id="Layer_1" data-name="Layer 1" xmlns="http://www.w3.org/2000/svg" xmlns:xlink="http://www.w3.org/1999/xlink" viewBox="0 0 5000 2791.71"><defs><style>.cls-1{mask:url(#mask);filter:url(#luminosity-noclip-2);}.cls-2{mix-blend-mode:multiply;fill:url(#linear-gradient);}.cls-3{mask:url(#mask-2);}.cls-4{opacity:0.2;fill:url(#linear-gradient-2);}.cls-5{filter:url(#luminosity-noclip);}</style><filter id="luminosity-noclip" x="0" y="-9692" width="5000" height="32766" filterUnits="userSpaceOnUse" color-interpolation-filters="sRGB"><feFlood flood-color="#fff" result="bg"/><feBlend in="SourceGraphic" in2="bg"/></filter><mask id="mask" x="0" y="-9692" width="5000" height="32766" maskUnits="userSpaceOnUse"><g class="cls-5"/></mask><linearGradient id="linear-gradient" x1="1630.52" y1="3138.36" x2="2953.75" y2="-704.58" gradientUnits="userSpaceOnUse"><stop offset="0" stop-color="#fff"/><stop offset="0.03" stop-color="#f4f4f4"/><stop offset="0.16" stop-color="#d1d1d1"/><stop offset="0.29" stop-color="#b4b4b4"/><stop offset="0.43" stop-color="#9e9e9e"/><stop offset="0.58" stop-color="#8e8e8e"/><stop offset="0.76" stop-color="#858585"/><stop offset="1" stop-color="#828282"/></linearGradient><filter id="luminosity-noclip-2" x="0" y="0" width="5000" height="2791.71" filterUnits="userSpaceOnUse" color-interpolation-filters="sRGB"><feFlood flood-color="#fff" result="bg"/><feBlend in="SourceGraphic" in2="bg"/></filter><mask id="mask-2" x="0" y="0" width="5000" height="2791.71" maskUnits="userSpaceOnUse"><g class="cls-1"><path class="cls-2" d="M0,2563.87s949,478.36,1821,48.81,974.85-543.17,1712-423.49c1152,187,982-884.68,1467-962.78V0H0Z"/></g></mask><linearGradient id="linear-gradient-2" x1="1630.52" y1="3138.36" x2="2953.75" y2="-704.58" gradientUnits="userSpaceOnUse"><stop offset="0" stop-color="#27aae1"/><stop offset="0.02" stop-color="#26a7df"/><stop offset="0.21" stop-color="#2291d0"/><stop offset="0.43" stop-color="#1f81c5"/><stop offset="0.67" stop-color="#1d78be"/><stop offset="1" stop-color="#1c75bc"/></linearGradient></defs><g class="cls-3"><path class="cls-4" d="M0,2563.87s949,478.36,1821,48.81,974.85-543.17,1712-423.49c1152,187,982-884.68,1467-962.78V0H0Z"/></g></svg>