<svg id="Layer_1" data-name="Layer 1" xmlns="http://www.w3.org/2000/svg" viewBox="0 0 3263.67 2510.28" fill="white"><path d="M2050.35,3891.52c-25.12-25.1-37.35-62.46-37.35-87.56,0-25.26,12.23-63.24,37.35-88.34l175.89-175.27c50.37-50.22,125.69-50.22,175.91,0l12.39,12.23,690.74,741.11c25.1,25.11,62.45,25.11,87.71,0l1681.82-1745h12.87c50.36-50.38,125.68-50.38,175.89,0L5239,2724.54c50.21,49.59,50.21,125.07,0,175.28l-2008,2084c-25.11,25.11-50.37,37.35-88.34,37.35-37.35,0-62.46-12.24-87.57-37.35L2075.45,3929.49Zm0,0" transform="translate(-2013 -2510.87)"/></svg>