<svg id="Layer_1" data-name="Layer 1" xmlns="http://www.w3.org/2000/svg" xmlns:xlink="http://www.w3.org/1999/xlink" viewBox="0 0 2970.62 1146.43"><defs><style>.cls-1{mask:url(#mask);filter:url(#luminosity-noclip-2);}.cls-2{mix-blend-mode:multiply;fill:url(#linear-gradient);}.cls-3{mask:url(#mask-2);}.cls-4{opacity:0.3;fill:url(#linear-gradient-2);}.cls-5{filter:url(#luminosity-noclip);}</style><filter id="luminosity-noclip" x="0" y="-9692" width="2970.62" height="32766" filterUnits="userSpaceOnUse" color-interpolation-filters="sRGB"><feFlood flood-color="#fff" result="bg"/><feBlend in="SourceGraphic" in2="bg"/></filter><mask id="mask" x="0" y="-9692" width="2970.62" height="32766" maskUnits="userSpaceOnUse"><g class="cls-5"/></mask><linearGradient id="linear-gradient" x1="5285.03" y1="1340.54" x2="4666.01" y2="-457.22" gradientTransform="matrix(-1, 0, 0, 1, 6308.75, 0)" gradientUnits="userSpaceOnUse"><stop offset="0" stop-color="#fff"/><stop offset="0.05" stop-color="#f7f7f7"/><stop offset="0.35" stop-color="#cacaca"/><stop offset="0.62" stop-color="#aaa"/><stop offset="0.85" stop-color="#969696"/><stop offset="1" stop-color="#8f8f8f"/></linearGradient><filter id="luminosity-noclip-2" x="0" y="0" width="2970.62" height="1146.43" filterUnits="userSpaceOnUse" color-interpolation-filters="sRGB"><feFlood flood-color="#fff" result="bg"/><feBlend in="SourceGraphic" in2="bg"/></filter><mask id="mask-2" x="0" y="0" width="2970.62" height="1146.43" maskUnits="userSpaceOnUse"><g class="cls-1"><path class="cls-2" d="M0,643.87s3.71,569.65,730.9,496C1193.5,1093,1059,738.73,1947.47,722.73,2653.65,710,2690.23,75,2970.62,0H0Z"/></g></mask><linearGradient id="linear-gradient-2" x1="5285.03" y1="1340.54" x2="4666.01" y2="-457.22" gradientTransform="matrix(-1, 0, 0, 1, 6308.75, 0)" gradientUnits="userSpaceOnUse"><stop offset="0" stop-color="#27aae1"/><stop offset="0.37" stop-color="#2290cf"/><stop offset="0.75" stop-color="#1d7cc1"/><stop offset="1" stop-color="#1c75bc"/></linearGradient></defs><g class="cls-3"><path class="cls-4" d="M0,643.87s3.71,569.65,730.9,496C1193.5,1093,1059,738.73,1947.47,722.73,2653.65,710,2690.23,75,2970.62,0H0Z"/></g></svg>