<svg xmlns="http://www.w3.org/2000/svg" viewBox="0 0 5910.59 245.25"><defs><style>.a{fill:#ab8e96;}</style></defs><rect class="a" x="1009.93" y="3.86" width="63.32" height="5.56"/><rect class="a" x="1620.19" y="30.72" width="162.81" height="5.56"/><rect class="a" x="4492.38" y="30.77" width="93.75" height="5.56"/><rect class="a" x="548.45" y="123.54" width="63.32" height="5.56"/><rect class="a" x="307.67" y="152.19" width="262.3" height="5.56"/><rect class="a" x="4202.45" y="70.97" width="151.05" height="5.56"/><rect class="a" x="3694.4" y="45.94" width="444.27" height="5.56"/><rect class="a" x="2784.36" y="67.82" width="667.99" height="5.56"/><rect class="a" x="5162.72" y="2.96" width="384.66" height="5.56"/><rect class="a" x="1001.16" y="95.73" width="259.78" height="5.56"/><rect class="a" x="5140.23" y="104.33" width="619.73" height="5.56"/><rect class="a" x="2364.99" y="234.33" width="983.85" height="5.56"/><rect class="a" x="4724.56" y="33.55" width="675.57" height="5.56"/><rect class="a" x="705.25" y="126.32" width="456.25" height="5.56"/><rect class="a" x="1317.61" y="204.03" width="2670.44" height="5.56"/><rect class="a" x="4580.51" y="68.19" width="1330.09" height="5.56"/><rect class="a" x="3801.23" y="239.69" width="865.04" height="5.56"/><rect class="a" x="4616.28" y="198.02" width="400" height="5.56"/><rect class="a" x="1727.56" y="8.94" width="304.47" height="5.56"/><rect class="a" x="0.85" width="976.83" height="5.56"/><rect class="a" x="2095.25" y="38.01" width="1173.17" height="5.56"/><rect class="a" x="2197.66" y="11.58" width="483.83" height="5.56"/><rect class="a" x="2172.37" y="131.21" width="269" height="5.56"/><rect class="a" y="190.05" width="426.17" height="5.56"/></svg>