<svg xmlns="http://www.w3.org/2000/svg" xmlns:xlink="http://www.w3.org/1999/xlink" viewBox="0 0 677.12 1825.51"><defs><style>.a,.b{fill-rule:evenodd;}.a{fill:url(#a);}.b{fill:#3a2f6d;}</style><linearGradient id="a" x1="4264.32" y1="1596.44" x2="3766.2" y2="1193.14" gradientUnits="userSpaceOnUse"><stop offset="0" stop-color="#5b598b"/><stop offset="1" stop-color="#9386ba"/></linearGradient></defs><path class="a" d="M4314.59,2151.81c-50.59,30.26-96.39,49.16-203.21,52.33-263.1-28.8-445.13-318.06-317.58-526.88,90.35-129.59,177.31-205.22,109.51-311.5-98.33-165.36-151.86-232.28-3.65-334.63,48.63-36.11,98.52-18.67,79.09-115.59-33.07-148.24-19.69-257.75,131.42-233.63C4221.12,704,4211.38,779.47,4188,913.1c-19.43,96.93,48.71,165.88,97.35,202,148.21,102.34,188.36,255.65,90,421-67.8,106.28-105,135.67-60.84,209.29C4436.23,1902.3,4448.32,2060.2,4314.59,2151.81Z" transform="translate(-3752.12 -678.57)"/><polygon class="b" points="342.57 589.24 342.57 1825.51 364.29 1825.51 364.29 601.69 342.57 589.24"/></svg>