<svg xmlns="http://www.w3.org/2000/svg" viewBox="0 0 4246.03 2121.21"><defs><style>.a{fill:#3a2f6d;}.a,.b{fill-rule:evenodd;}.b{fill:#433873;}</style></defs><path class="a" d="M3933,2505.81l313-.29L2747.65,1361.12c-149.58-132.33-351.56-78.44-419.44,4.13L1342.94,488.6c-224.54-158.46-488.47-102.93-614.54,31L1.19,1330.32,0,2503.87v3.5Z" transform="translate(0 -386.17)"/><path class="b" d="M2936.15,1503.3c-116.91-95.32-209.5-220.22-370.17-251.14-177-14.93-319.73,160.44-494.67,268.78,85.79,3,374.62,40.3,455.69-151.76,24.43-53.25,96.84-82.24,139.45-13.78C2755,1497.7,2899.63,1492.08,2936.15,1503.3Z" transform="translate(0 -386.17)"/><path class="b" d="M1342.94,488.55,1422.13,559q-151.29,34-234.53-71.12c-38.19-36.8-107.2-50.34-143.75-3.13Q879.45,759.84,623.57,744c-27.6-1.71-36.43,98.37-198.44,113.46C558.6,709.37,738.59,509.14,738.59,509.14,880.61,354,1156.28,344,1342.94,488.55Z" transform="translate(0 -386.17)"/></svg>