<svg xmlns="http://www.w3.org/2000/svg" xmlns:xlink="http://www.w3.org/1999/xlink" viewBox="0 0 420.29 1133.11"><defs><style>.a,.b{fill-rule:evenodd;}.a{fill:url(#a);}.b{fill:#3a2f6d;}</style><linearGradient id="a" x1="4662.83" y1="2028.37" x2="4191.12" y2="1704.47" gradientUnits="userSpaceOnUse"><stop offset="0" stop-color="#585788"/><stop offset="1" stop-color="#8f81b6"/></linearGradient></defs><path class="a" d="M4541.93,2285.75c-31.4,18.78-59.83,30.51-126.13,32.48-163.31-17.88-276.3-197.43-197.13-327,56.08-80.44,110.06-127.38,68-193.35-61-102.64-94.26-144.18-2.27-207.7,30.19-22.42,61.16-11.59,49.1-71.75-20.53-92-12.23-160,81.57-145,68.86,13.73,62.82,60.56,48.33,143.5-12.06,60.17,30.24,103,60.43,125.38,92,63.52,116.92,158.69,55.89,261.33-42.09,66-65.15,84.21-37.77,129.91C4617.44,2130.87,4624.94,2228.88,4541.93,2285.75Z" transform="translate(-4192.8 -1371.3)"/><polygon class="b" points="210.52 365.74 210.52 1133.11 228.23 1133.11 228.23 374.34 210.52 365.74"/></svg>