<svg xmlns="http://www.w3.org/2000/svg" xmlns:xlink="http://www.w3.org/1999/xlink" viewBox="0 0 2505.98 2019.56"><defs><style>.a{fill:url(#a);}.b{fill:url(#b);}.c,.e{fill:#190436;}.aa,.ab,.ac,.ad,.ae,.af,.ag,.ah,.ai,.aj,.ak,.al,.am,.an,.ao,.ap,.aq,.ar,.as,.at,.au,.av,.aw,.c,.f,.g,.h,.j,.n,.s,.t,.u,.v,.w,.x,.y,.z{fill-rule:evenodd;}.d{fill:url(#c);}.f,.p{fill:#080808;}.g,.q{fill:#2a0941;}.h,.i{fill:#601860;}.j{fill:#55155a;}.k{fill:#260345;}.l{fill:url(#d);}.m{fill:url(#e);}.n{fill:#470e55;}.o{fill:url(#f);}.r{fill:url(#g);}.s{fill:#ca866c;}.t{fill:url(#h);}.u{fill:#cb8f00;}.v{fill:url(#i);}.w{fill:#cd896a;}.x{fill:#270a1a;}.y{fill:url(#j);}.z{fill:url(#k);}.aa{fill:#c67259;}.ab{fill:#fff;}.ac{fill:#3d1e1e;}.ad{fill:#4b251d;}.ae{fill:url(#l);}.af{fill:url(#m);}.ag{fill:#bf6b52;}.ah{fill:#8a524e;}.ai{fill:#00001b;}.aj{fill:#ffe8b9;}.ak{fill:url(#n);}.al{fill:#6e7ead;}.am{fill:#50689f;}.an{fill:#7b88b4;}.ao{fill:#e08f80;}.ap{fill:url(#o);}.aq{fill:#e18075;}.ar{fill:#73413a;}.as{fill:#cc5c55;}.at{fill:url(#p);}.au{fill:#bec7d9;}.av{fill:url(#q);}.aw{fill:#f4b49a;}</style><linearGradient id="a" x1="2499.76" y1="1687.26" x2="2426.45" y2="1546.41" gradientTransform="translate(1136.78 -1004.78) rotate(29.24)" gradientUnits="userSpaceOnUse"><stop offset="0" stop-color="#190436"/><stop offset="1" stop-color="#641764"/></linearGradient><linearGradient id="b" x1="3000.09" y1="1390.46" x2="2916.27" y2="1244" gradientTransform="translate(1062.16 -1288.57) rotate(29.24)" xlink:href="#a"/><linearGradient id="c" x1="2098.3" y1="1910.66" x2="2034.88" y2="1796.3" gradientTransform="translate(1197.33 -780.66) rotate(29.24)" xlink:href="#a"/><linearGradient id="d" x1="2349.73" y1="1499.13" x2="2338.8" y2="1480.08" gradientTransform="translate(1028.93 -956.06) rotate(29.24)" xlink:href="#a"/><linearGradient id="e" x1="2499.54" y1="1408.88" x2="2470.83" y2="1356.84" gradientTransform="translate(1005.82 -1041.29) rotate(29.24)" xlink:href="#a"/><linearGradient id="f" x1="2363.94" y1="1505.69" x2="2325.59" y2="1432.18" gradientTransform="translate(1025.56 -960.37) rotate(29.25)" xlink:href="#a"/><linearGradient id="g" x1="3282.03" y1="1275.26" x2="3214.02" y2="1150.23" gradientTransform="translate(1022.92 -1436.3) rotate(29.24)" xlink:href="#a"/><linearGradient id="h" x1="2302.17" y1="1380.36" x2="2155.49" y2="1266.37" gradientUnits="userSpaceOnUse"><stop offset="0" stop-color="#ac6e5f"/><stop offset="1" stop-color="#684141"/></linearGradient><linearGradient id="i" x1="1921.57" y1="1718.41" x2="1649.82" y2="1408.46" gradientUnits="userSpaceOnUse"><stop offset="0" stop-color="#c08100"/><stop offset="1" stop-color="#8c4f0e"/></linearGradient><linearGradient id="j" x1="1392.42" y1="1111.51" x2="1531.43" y2="1029.37" gradientUnits="userSpaceOnUse"><stop offset="0" stop-color="#ae2c2f"/><stop offset="1" stop-color="#e34242"/></linearGradient><linearGradient id="k" x1="1309.21" y1="1156.56" x2="1627.73" y2="1051.6" xlink:href="#j"/><linearGradient id="l" x1="1685.26" y1="1879.48" x2="1128.44" y2="1792.54" xlink:href="#i"/><linearGradient id="m" x1="1024.22" y1="1397.77" x2="1470.96" y2="1438.6" gradientUnits="userSpaceOnUse"><stop offset="0" stop-color="#8c4f0e"/><stop offset="0.36" stop-color="#9b5e0a"/><stop offset="1" stop-color="#c08100"/></linearGradient><linearGradient id="n" x1="852.94" y1="1853.28" x2="1220.48" y2="1813.56" xlink:href="#i"/><linearGradient id="o" x1="1230.11" y1="2341.45" x2="1470.63" y2="2273.95" gradientUnits="userSpaceOnUse"><stop offset="0" stop-color="#7282af"/><stop offset="1" stop-color="#adbcd2"/></linearGradient><linearGradient id="p" x1="1436.35" y1="2004.83" x2="1638.27" y2="2107.99" gradientUnits="userSpaceOnUse"><stop offset="0" stop-color="#adbcd2"/><stop offset="1" stop-color="#7282af"/></linearGradient><linearGradient id="q" x1="1140.45" y1="2358.87" x2="1681.84" y2="1928.7" gradientUnits="userSpaceOnUse"><stop offset="0" stop-color="#8597b9"/><stop offset="1" stop-color="#a2aec7"/></linearGradient></defs><rect class="a" x="2212.82" y="1577.78" width="562.37" height="196.83" transform="translate(-1356.03 451.64) rotate(-29.24)"/><rect class="b" x="2728.3" y="1270.06" width="544.53" height="242.45" transform="translate(-1152.27 662.8) rotate(-29.24)"/><path class="c" d="M2822.23,1630.08c-13.39,7.49-29,5.39-34.6-4.68l-97.94-174.93c-5.64-10.07.7-24.45,14.09-31.94Z" transform="translate(-855.02 -980.44)"/><path class="c" d="M2296.74,1899.44c-10.86,6.08-23.49,4.37-28.06-3.8l-79.45-141.89c-4.57-8.17.57-19.83,11.43-25.91Z" transform="translate(-855.02 -980.44)"/><rect class="d" x="1938.8" y="1819.08" width="311.95" height="170.45" transform="translate(-1518.36 285.66) rotate(-29.24)"/><polygon class="c" points="1131.38 1049.13 1078.05 954.34 1044.16 973.32 1024.52 1086.05 1131.38 1049.13"/><rect class="e" x="1805.84" y="1944.71" width="77.44" height="94.58" transform="translate(-1292.28 2482.54) rotate(-80.01)"/><polygon class="c" points="946.3 984.42 902.29 976.67 895.41 1015.71 939.38 1023.74 946.3 984.42"/><polygon class="c" points="1730.47 877.59 1829.66 820.89 1809.43 713.11 1648.17 803.4 1730.47 877.59"/><polygon class="c" points="1718.58 851.08 1832.82 849.68 1870.02 952.85 1685.24 956.75 1718.58 851.08"/><rect class="e" x="2608.09" y="1941.89" width="56.31" height="389.51" transform="translate(-899.56 -924.29) rotate(-1.21)"/><polygon class="c" points="1861.55 959.71 1805.26 960.9 1939.69 1347.65 1995.99 1346.46 1861.55 959.71"/><polygon class="f" points="1989.71 1346.65 1960.58 1347.26 2201.78 2019.56 2230.91 2018.94 1989.71 1346.65"/><polygon class="f" points="1583.38 1347.1 1612.56 1347.71 1374.12 2019.56 1344.72 2019.56 1583.38 1347.1"/><polygon class="c" points="1692.66 963.28 1748.96 962.09 1633.18 1348.26 1577.22 1346.97 1692.66 963.28"/><path class="g" d="M2600.57,1767.93a58.29,58.29,0,1,0,79.35,22.38A58.29,58.29,0,0,0,2600.57,1767.93Z" transform="translate(-855.02 -980.44)"/><path class="h" d="M2600.06,1765.93l-.47.25a60.31,60.31,0,0,0-23.4,81.6l.26.47a60.29,60.29,0,1,0,23.61-82.32Zm-25.19,37.57a56.11,56.11,0,0,1,26.6-33.79l.08,0a56.3,56.3,0,1,1-21.57,76.71l-.05-.09A56.15,56.15,0,0,1,2574.87,1803.5Z" transform="translate(-855.02 -980.44)"/><path class="h" d="M2630,1794.08a25.32,25.32,0,1,0,18.05,7,25.27,25.27,0,0,0-18.05-7Zm-14.86,10.55a21.32,21.32,0,1,1-5.93,15.21A21.23,21.23,0,0,1,2615.14,1804.63Z" transform="translate(-855.02 -980.44)"/><rect class="i" x="2629.36" y="1796.05" width="2.36" height="46.65" transform="translate(-1247.83 1882.59) rotate(-53.71)"/><path class="j" d="M3191.83,1175.32l-344.28,192.77,14.77,26.39,344.29-192.77-14.78-26.39Zm-352.37,197.3,14.77,26.39-13.29,7.44-14.78-26.39,13.3-7.44Zm-19.66,11-103.21,57.79,14.78,26.39L2834.58,1410Z" transform="translate(-855.02 -980.44)"/><path class="j" d="M2698.93,1467l-377.62,210.87,14.78,26.39,377.62-210.87L2698.93,1467Zm-387.86,217,14.77,26.38-103.21,57.79-14.77-26.39Z" transform="translate(-855.02 -980.44)"/><path class="j" d="M2196,1765.77,1984.8,1884l13.91,24.85,211.17-118.23L2196,1765.77Zm-218.68,122.44,13.92,24.86-53.49,30-13.91-24.86Z" transform="translate(-855.02 -980.44)"/><rect class="k" x="2313.4" y="1576.34" width="201.38" height="29.65" transform="translate(-1324.67 401.76) rotate(-29.24)"/><rect class="e" x="2368.11" y="1531.3" width="47.03" height="51.67" transform="translate(-1310.91 386.4) rotate(-29.24)"/><rect class="l" x="2214.88" y="1461.72" width="263.65" height="64.26" transform="translate(-1285.72 356.43) rotate(-29.24)"/><rect class="e" x="2206.72" y="1540.25" width="26.83" height="49.68" transform="translate(-1336.65 303.63) rotate(-29.24)"/><rect class="m" x="2455.42" y="1358.27" width="86.12" height="97.38" transform="translate(-1223.93 419.51) rotate(-29.24)"/><path class="n" d="M2450.72,1409.79l-166.65,93.31,7.15,12.78,166.65-93.32-7.15-12.77Zm-170.57,95.5,7.15,12.78-6.43,3.6-7.16-12.77,6.44-3.61Zm-9.51,5.33-50,28,7.16,12.77,50-28Z" transform="translate(-855.02 -980.44)"/><rect class="o" x="2313.52" y="1429.59" width="79.49" height="111.29" transform="translate(-1280.68 358.55) rotate(-29.25)"/><rect class="p" x="1771.42" y="1350.94" width="29.68" height="668.62"/><rect class="q" x="2530.07" y="1906.15" width="205.35" height="35.77" transform="translate(-895.07 -924.41) rotate(-1.21)"/><path class="h" d="M2735,1902l-207.3,4.38.84,39.75q104.64-2.17,209.29-4.43L2737,1902l-2,0Zm-203.23,8.28,201.32-4.25.67,31.77-201.32,4.26Z" transform="translate(-855.02 -980.44)"/><rect class="r" x="3233.59" y="1103.78" width="60.94" height="276.9" transform="translate(-1045.87 772.52) rotate(-29.24)"/><path class="h" d="M3172.56,1137.08l49.69-27.82,133.32,238.12-49.69,27.82-133.32-238.12ZM3222,1104.8l-54.92,30.75q68.64,122.52,137.23,245.09l56.66-31.72q-68.55-122.58-137.23-245.09Z" transform="translate(-855.02 -980.44)"/><path class="s" d="M2338.63,1318.47c-41.11,27-64.62,69.13-88.06,96-60,60-181.18,145.12-253,165.25,16.26-50.56,65.21-126.4,50.68-182.85,65-54.51,144.78-57.23,220.73-127,43.16-49.67,15.05-185.59,85-174.76,7.12-8,30.58-21.37,58.21-34.85,43.2-6.47,95.44-38.37,111.12-44.05,7.74,17.38-19.18,42.27-49.35,63.14-12.59,8.72-18.76,23.6-20.8,37.19,17.54,34.38-12.11,48.5-9.65,62.67C2448.2,1220.73,2400,1274.59,2338.63,1318.47Z" transform="translate(-855.02 -980.44)"/><path class="t" d="M2338.78,1318.23c-41.11,27-64.62,69.14-88.06,96-60,60-172.9,144.77-253.11,165.48,62.49-16.34,102.2-104.15,87.67-160.59,29.81,93.91,110.45-59.57,184-111.87.28-.18,39.3,5.92,50.31-19.21,24.61-56.21,165.41-112.81,76.88-153.19-12-5.49,62-57,77.65-56.57,5.38.12-20.92,31.57-21,38.26,17.38,29.84-12,51.15-9.54,65.32C2448.31,1223.39,2400.11,1274.35,2338.78,1318.23Z" transform="translate(-855.02 -980.44)"/><path class="u" d="M1422,1754c99.65-12.71,257.63-5.2,577.07-141.79,31.07-15.86,233.07-140.89,274.38-228l-108.84-72.68c-207.23,132.41-495,186.86-775,136.22-96.63-17.46-146,29.61-171.39,72.94C1155.12,1628.27,1270.29,1773.38,1422,1754Z" transform="translate(-855.02 -980.44)"/><path class="v" d="M1344.17,1754.57c-131.21-24.28-235.56-282.9,1.33-310.49-17.45,114.9,161,145.44,288.21,93.5,93-42.29,184.75-101.9,211.17-83.95,30.51,20.74-9.57,109.5-98,164.07,52.35-8.35,149-123.61,159.37-179.76,17.8,64.6,4.14,108.87-6.64,124.22-11.89,36.12,67.9,10,48.33-102.63l-1.13-3.61c17.17,34.33,29.78,61.15,56.07,49.46,27.54-12.26,4.21-20.51-22.57-60.05,21,23,114.29,14.26,227.7-105.51,7.47,6.53,70,49.11,79.87,55.7-130.63,141.68-317.28,245.4-427.57,278.34C1623.84,1743.82,1459,1763.3,1344.17,1754.57Z" transform="translate(-855.02 -980.44)"/><path class="s" d="M1272,1388.09c81-53.12,104.06-123,103.5-137.56,47.2-18.93,159.48,117,159.48,117l-67.32,158.42C1286.77,1603.33,1297.64,1492.72,1272,1388.09Z" transform="translate(-855.02 -980.44)"/><path class="w" d="M1456.37,995.75c-55.64,13.23-96.48,64.39-88.85,124.81,31.15,246.56,87.57,288.16,168.57,272,55.91-11.18,81.72-31.12,82.1-84.86l-37-223.08C1571.44,1025.81,1519.42,983.47,1456.37,995.75Z" transform="translate(-855.02 -980.44)"/><path class="x" d="M1330.73,1142.65,1364,1080.5c-5.27-51.35,78.38-97.15,143.55-83.57,42.46,8.85,69.74,51,75.5,100.6l-120.44,19.72L1472,1197c2.46,21-35.74,61.35-96.47,53.54C1363.13,1199,1343.37,1212.49,1330.73,1142.65Z" transform="translate(-855.02 -980.44)"/><path class="y" d="M1582.33,1072.36l5.85,40.65-257.94,37.11-5.85-40.65C1303.55,964.62,1561.46,927.34,1582.33,1072.36Z" transform="translate(-855.02 -980.44)"/><path class="z" d="M1198.11,1144.94l386.19-55.51,3.41,23.71-414.44,59.57C1173.41,1162.42,1178.13,1150.11,1198.11,1144.94Z" transform="translate(-855.02 -980.44)"/><path class="w" d="M1573.42,1041.83c7.31,14,8.11,24.59,10.27,40-31.59,3.38-52.75,7.85-52.75,7.85C1521.18,1051.2,1536.81,1047.28,1573.42,1041.83Z" transform="translate(-855.02 -980.44)"/><path class="w" d="M1449.47,1152.83l-11,1.57c-9.63,1.39-16.73,8-15.78,14.63l8.49,59c1,6.66,9.63,11,19.26,9.58l11-1.57Z" transform="translate(-855.02 -980.44)"/><path class="x" d="M1552.94,1131.5c-5,.6-8.16,8.72-7,18.15s6.1,16.59,11.11,16,8.15-8.73,7-18.16S1557.94,1130.9,1552.94,1131.5Z" transform="translate(-855.02 -980.44)"/><path class="x" d="M1571.84,1127.6a4.66,4.66,0,1,0,6.87-6.31,32.24,32.24,0,0,0-32.75-9.63,31.71,31.71,0,0,0-13,7.11,28.48,28.48,0,0,0-8.77,15.36,4.67,4.67,0,1,0,9.15,1.85,19.16,19.16,0,0,1,5.93-10.33,22.41,22.41,0,0,1,9.15-5,23,23,0,0,1,23.4,7Z" transform="translate(-855.02 -980.44)"/><path class="x" d="M1440,1255.17c9.24,56.51-5.17,188.2,89.06,183.5,72.12-3.59,102.74-44.05,93.94-100.64-7.6-47.19-12.69-81.65-19.51-125.49-98.14,12.13-113.56,46.91-107.94,92.28C1476.76,1306.62,1463.32,1296.57,1440,1255.17Z" transform="translate(-855.02 -980.44)"/><path class="aa" d="M1520.15,1176.52c-21.47,3.62-36.13,22.9-32.73,43.06s23.55,33.58,45,30,36.13-22.89,32.73-43.06S1541.62,1172.91,1520.15,1176.52Z" transform="translate(-855.02 -980.44)"/><path class="ab" d="M1549.3,1240c7.52,17.87,27.13,33.28,63,26.55l-3.48-23.19C1588.47,1248,1570.47,1251,1549.3,1240Z" transform="translate(-855.02 -980.44)"/><path class="w" d="M1584.5,1145.42c-5.74,3.38,7.69,70.58,19,66.66l20.36-7.08c10.46-5.7,7.28-18.6-2.26-25.85C1617.26,1175.85,1592.07,1155,1584.5,1145.42Z" transform="translate(-855.02 -980.44)"/><path class="ac" d="M1062.71,2400.3c-160.64-54.45-76.92-270.81-65.67-273.11,129.32-26.49,284.34,14.93,342.46,61,139.88,255.85,215.71,620.35,195.08,680C1524,2895.27,1520,2943.62,1520,3000H1296.41c-4-53.08,7.79-89.2,16.78-149.6C1328.8,2745.43,1233.86,2579.09,1062.71,2400.3Z" transform="translate(-855.02 -980.44)"/><path class="ad" d="M1177.54,2127.18c69.57,12.07,130.22,35.84,162,61,139.88,255.85,215.71,620.35,195.08,680C1524,2895.27,1520,2943.62,1520,3000H1357.72q-7.12-61.7,21.89-127.25,16.31-25.58,47.53-26.14-4.35-5.87-12.53-5.77-31.78,3.43-26.37-6.1,26.41-5.31,47.47,5.61,16.27-7.77,5.77-10.38-25.87-2.88-49.94-5.28,16.35-2.66,23.4-14.18Q1372.8,2572,1181.55,2232.33q-28.82-20.57-24.72-31.64.45-6.11-14.17-11.21,6.31-1.49,15.82-4.62-7.47-10.72,1.35-15.16,12.3-.67,3.86-13.42Q1170.68,2141.11,1177.54,2127.18Z" transform="translate(-855.02 -980.44)"/><path class="ac" d="M993.26,2358.92c-135.59-101.93,11.55-281.29,23-280,131.11,15.24,265.43,103,306.25,164.92,52.94,286.74,11.07,656.68-27.16,706.92-9.34,11.31-18.78,28.3-28.09,49.2h-239c12.84-50.71,35.16-81.26,62.28-135.26C1138.18,2769.9,1100,2582.23,993.26,2358.92Z" transform="translate(-855.02 -980.44)"/><path class="ad" d="M1187.68,2135.34c62.31,33.22,112.5,74.74,134.79,108.54,52.94,286.74,11.07,656.68-27.16,706.92-9.34,11.31-18.78,28.3-28.09,49.2H1091.48q15.43-49.24,55.18-93.27,23.49-19.2,53.32-10-2.3-6.95-10.1-9.4-31.26-6.66-23.14-14,26.76,3.21,43.34,20.15,17.88-2.28,8.72-8-23.67-10.82-45.79-20.62,16.37,2.58,26.66-6.15,34.5-239.71-41-622.16-21-28.54-13.59-37.78,2.32-5.67-10-15.08,6.47.57,16.48.56-3.75-12.54,6-14,11.91,3.2,7.87-11.54Q1176.8,2146.44,1187.68,2135.34Z" transform="translate(-855.02 -980.44)"/><path class="ae" d="M1368.79,2245.14c63-70.39-13-121,121.24-326.41,23.63-59.37,43.1-148.51,8-351.16-102.16-279.93-352.5-147.58-442.12,90.59-40.21,96,0,265.07-43.66,321C983,2031.49,975,2166.12,975,2166.12,1199.86,2050.85,1233.87,2207.25,1368.79,2245.14Z" transform="translate(-855.02 -980.44)"/><path class="af" d="M1125.9,1523.18c84.61-50.1,205.7-129,350.66-5.13,9.62-16.75,32.89-15,23.82-31.77C1466,1422.72,1376.17,1347,1292,1306.12,1080.38,1355.06,1050.07,1456.88,1125.9,1523.18Z" transform="translate(-855.02 -980.44)"/><path class="ag" d="M950.43,2246.88c-5.93-48.81-25.36-108.37-39-141.28-27.12-80.33-20.84-139.34,4.08-226.82,38.1,37,63,68.64,120,80.66,20,82.46-24.64,160.8,4.18,259.81,19.07,28.18,19.41,22.49,71.08,11.27,18.12-3.93,85.46,14.79,119.9-12.81-23.38,75.56-102.6,29.51-97.46,80.31,2,19.67,21.31,42.5,42,47.6,36.08,8.91,118.81-18.28,111.68,10.26-22.49,1.62-35.84,18.23-88.45,31,17.06,9.54,66.26-11.22,71.95,13.23-24.24,6.3-77.69,25-110.07,8.19,18.69,18.13,65.13,3.3,69.13,28-25.94,1.77-56.34,16.62-105.55-23.45,7.4,14.93,47.86,25.42,46,41.8C1056.79,2431.83,1000,2347.93,950.43,2246.88Z" transform="translate(-855.02 -980.44)"/><path class="ah" d="M950.43,2246.88c-5.93-48.81-25.36-108.37-39-141.28-27.12-80.33-20.84-139.34,4.08-226.82,19.32,18.76,35.24,36.15,53.68,50.29h0c.11,0,14.06,9.78,15.69,10.77.24,5.58-1,13.83-1,25.87,0,57.19-6.27,112.3-4.77,170.43,1.12,43.14,8.42,135.68,73.26,99.08,11.86,8.43,28,1.89,58.36-4.7,46.2,31.59-33.79,68.65.87,97.69,23.49,19.68,65.84,50.78,2,49.46-24.8-.51,8.91,27.23-28.13,28.26-5.88.17-7.71,5.3-9.21,9C1020.88,2375.83,984,2315.29,950.43,2246.88Z" transform="translate(-855.02 -980.44)"/><path class="ai" d="M951.25,2255c-1.56,21.86,8.86,38.68,24.77,44.35,22.1-1,80.78-29.64,88.1-60.94-.6-18.27-17.18-35.79-28.44-36.23C1023.39,2225.9,972.84,2250.93,951.25,2255Z" transform="translate(-855.02 -980.44)"/><path class="ai" d="M1020.36,2245.27c-11.05-16.95-31.61-23.12-45.9-13.79s-16.92,30.63-5.86,47.57,31.61,23.11,45.91,13.78S1031.42,2262.2,1020.36,2245.27Z" transform="translate(-855.02 -980.44)"/><path class="aj" d="M1008.94,2253.39c-7.51-11.89-21.72-16.39-31.75-10s-12.06,21.11-4.55,33,21.72,16.38,31.74,10S1016.45,2265.27,1008.94,2253.39Z" transform="translate(-855.02 -980.44)"/><path class="u" d="M1105.36,1548.68c-60,91-183.65,218.66-237.07,313.66-27,26,2.13,236.38,38.87,321.21l122.61-17.82c7.57-44.76,17.08-170.41,34.89-210.94,42.92,15.33,123.53-141.76,264.31-231.93,74.69-47.84,69.89-109.67,57-155.58C1353.12,1449.6,1169.24,1451.74,1105.36,1548.68Z" transform="translate(-855.02 -980.44)"/><path class="ak" d="M1237.27,1475.26c64.26-5.72,134.33,15.69,152.39,104.26-72.2-89-139.28-9.82-183.25,104.19-29,86.26-44.6,183.56-74.59,187.67-34.63,4.75-73.34-80.44-56.22-172.22-27.54,38-5.89,176.23,28.2,220.86-58.31-33-81.69-71.54-85.9-88.64-18.59-31.94-50.86,35.14,43.47,99.72l3.35,1.76c-35.94-12.76-63.5-23.21-71.88,1-8.78,25.36,12.18,16.56,58.07,26.91-30.15-2.69-83.7,61-69.55,212.57-9.53.17-62.1,9-73.22,10.63-31.78-58.66-48.07-204.31-48.5-222.75-13.33-73.21,3.18-106.62,37.06-146.08,1.2-.14,89.34-132.28,103.54-151.33C1072.18,1579.32,1121.43,1483,1237.27,1475.26Z" transform="translate(-855.02 -980.44)"/><path class="al" d="M1179.26,2574.24h345.42c21.87,104,22.9,188.24,32.64,250.43,7.75,49.43-.44,80.95-15.16,99.24q-8.15,44.15-12,76.09H1373.61c6.13-66.43,21.66-105.19,36-126.95-41.17-102.27-34.78-177.29-34.78-177.29-3.41,140.71-15.08,184-15.08,184-3.09,24.76-19.24,51.24-37.52,71.34-11.84,13-16.27,32.31-25.4,48.9H1138.78c13.06-56.47,38.79-96.18,61.68-123.64C1174,2739.38,1167.91,2628.35,1179.26,2574.24Z" transform="translate(-855.02 -980.44)"/><path class="am" d="M1373.61,3000c6.13-66.43,21.66-105.19,36-126.95-21.14-52.51-29.74-97.83-33.1-129.51-.33-13.12-2.31-25.65-1.88-40,13,51.43,18.51,116.23,63.84,132.05,11.51,4-11.67,3.9-11.79,3.9-8.89,0-4.66,8.68.13,11.59,8.75,10.5,70.79,24.17,12.82,22.79-37.63-.9,70.56,28.91,8.21,25-12.58-.79-13.21,7-13.28,7-10.78,39.07-27.34,34.61-27.34,93,0,.27,0,.65.06,1.11Z" transform="translate(-855.02 -980.44)"/><path class="am" d="M1179.26,2574.24h100c-6.4,77.37-49.83,218.36,13.19,268.8,14.66,11.74-62.73,3.69-27,25,33.91,20.2-58.26,22.66-20,30.44,5.37,1.09,55.21,15.29,23.57,25.4-7.79,2.5-51,.58-33.21,43.75,2.87,7-9.69,27.29-14.2,32.36h-82.79c13.06-56.47,38.79-96.18,61.68-123.64C1178.31,2761.85,1165.24,2645.32,1179.26,2574.24Z" transform="translate(-855.02 -980.44)"/><path class="an" d="M1508.57,2104.28c50.45,169.09,140.83,130.62,262.1,29.61l45.89,38.66c8.47,67-94.29,202.93-217.07,203.56-116.78,3.62-256.58-156.15-245.55-286.16C1398.33,1980.87,1502.29,2040.49,1508.57,2104.28Z" transform="translate(-855.02 -980.44)"/><path class="ao" d="M1816.56,2172.55c-34.54-19.72-48.93-35.76-48.93-35.76,38.82-33.92,48.12-44.75,35.26-66.24-20.73-34.64,2.84-58.47-3.18-90.2,0,0,22.56,3.22,15.84,46.14l69.1,12.11-4.94,27.74,15.76-5.52c-4.64,17.69-28.19,41.2-44.83,53.57Z" transform="translate(-855.02 -980.44)"/><path class="ao" d="M1444,1956s50.78-1.63,54.64-61.56c103.47,37.34,92.31,107.83,92.31,107.83-60.86,36.35-36.47,97.34-36.47,97.34C1482.53,2082.43,1442.9,2028.8,1444,1956Z" transform="translate(-855.02 -980.44)"/><path class="ap" d="M1444,1956c-54.11,8.27-134.58,39.69-173.61,81.78-135.28,145.86-217.47,511.41-96.45,593.74,120.07-3.22,245.24-73.11,353.14-45.72,112.68-38.15-27.11-232.1,28.07-456.55C1515.67,2085.29,1444.43,2007.48,1444,1956Z" transform="translate(-855.02 -980.44)"/><path class="ao" d="M1680,1790.1h0c-48.26-27.73-134.21-5.68-150.37,44l-19.19,59c-9.58,29.45,37.73,80.59,50.54,117.42,9.75,22.08,67.86,51.67,89.47,39,39.2-22.88,62-92.43,70.44-109.68C1742.48,1892.28,1766.67,1833.85,1680,1790.1Z" transform="translate(-855.02 -980.44)"/><path class="ao" d="M1720.92,1939.88c-5.87-1.18-30,40.8-19.15,41.37C1754.24,1984,1722.36,1961.85,1720.92,1939.88Z" transform="translate(-855.02 -980.44)"/><path class="x" d="M1603.79,1914.17c17.35-99.44,110.39-97.9,137.48-41.5,4.67-15.24,36.54-23.71,49.06,8.92,23.22-34.27-15.17-77.65-34.1-73.42,21.08-5.7,35.36,15.27,39.85,27.21,25.12-54.35-50.36-86.65-68.5-79.57,4.32-3.88,27-2.72,34.43,3.59-8.2-35-64.14-39.25-70.62-31.21-25.67-18.86-59.53-33.93-92.5-32.81-126.13,4.27-131,115.11-107.83,198.82,10.67,33.29-28.66,50.31-28.66,50.31,55.19-2.47,93.91-22,94.79-56.77-3.66-33.59,13.52-45.27,26.79-30.64C1598.91,1873.55,1603.79,1914.17,1603.79,1914.17Z" transform="translate(-855.02 -980.44)"/><path class="aq" d="M1671.44,1921.41c-15-14.9-35.28-18.78-45.36-8.65s-6.11,30.41,8.87,45.32,35.28,18.78,45.36,8.66S1686.42,1936.32,1671.44,1921.41Z" transform="translate(-855.02 -980.44)"/><path class="ar" d="M1652,1925.13a1.46,1.46,0,1,1-1.59,1.45A1.53,1.53,0,0,1,1652,1925.13Z" transform="translate(-855.02 -980.44)"/><path class="ar" d="M1643.43,1932.23a1.46,1.46,0,1,1-1.59,1.45A1.53,1.53,0,0,1,1643.43,1932.23Z" transform="translate(-855.02 -980.44)"/><path class="ar" d="M1655.9,1934.4a1.46,1.46,0,1,1-1.6,1.45A1.52,1.52,0,0,1,1655.9,1934.4Z" transform="translate(-855.02 -980.44)"/><path class="ar" d="M1653.43,1943.82a1.46,1.46,0,1,1-1.59,1.45A1.53,1.53,0,0,1,1653.43,1943.82Z" transform="translate(-855.02 -980.44)"/><path class="ar" d="M1665,1944.26a1.46,1.46,0,1,1-1.59,1.45A1.53,1.53,0,0,1,1665,1944.26Z" transform="translate(-855.02 -980.44)"/><path class="ar" d="M1667.05,1953.68a1.46,1.46,0,1,1-1.59,1.45A1.53,1.53,0,0,1,1667.05,1953.68Z" transform="translate(-855.02 -980.44)"/><path class="ar" d="M1686.94,1954.5a1.46,1.46,0,1,1-1.6,1.45A1.52,1.52,0,0,1,1686.94,1954.5Z" transform="translate(-855.02 -980.44)"/><path class="ar" d="M1642.27,1919.19a1.46,1.46,0,1,1-1.59,1.45A1.53,1.53,0,0,1,1642.27,1919.19Z" transform="translate(-855.02 -980.44)"/><path class="ar" d="M1676.62,1953.32a1.45,1.45,0,1,1-1.6,1.44A1.52,1.52,0,0,1,1676.62,1953.32Z" transform="translate(-855.02 -980.44)"/><path class="x" d="M1715.13,1908.72c-14.52-23.09-38-21.73-55.59-21.34,27.1,2.11,37.92,10,46.32,27.45C1710.22,1921.59,1717.83,1915.13,1715.13,1908.72Z" transform="translate(-855.02 -980.44)"/><path class="as" d="M1684.83,2016.2c-14.39-5-24.6-18.09-22.32-36.88-1.5,18,22.45,15.13,32.17,22.8,2.52,2.52-2.32,7-4.72,6.85C1691.71,2011.86,1687.32,2016.8,1684.83,2016.2Z" transform="translate(-855.02 -980.44)"/><path class="x" d="M1663,1911c4.11,7.65,7.21,9.5,14.81,13.16,8.09,3,16.33,8.11,16.33,17.27,1.73-4.78,2.36-9.24-2.35-13.53,8.66,1.69,14.42-2.53,18.07-8.3C1699.1,1925.67,1680.12,1924.63,1663,1911Z" transform="translate(-855.02 -980.44)"/><path class="at" d="M1473.72,1906.17c-2.44,112.25,155,208.18,74.16,258.65-20-120.77-204.29-155.34-277.53-127.05C1251.22,1928.93,1357.94,1878.19,1473.72,1906.17Z" transform="translate(-855.02 -980.44)"/><path class="au" d="M1368.79,2245.14c-76.89,37.07-146.18,42.66-152.76,68.11-7.8,30.17,54,144.95,22.56,173.3l-54.15,39.28c-79.78.65-147.94-136.92-113.18-286.6,24.73-49.81,105.54-132.15,240.08-193.17C1414.19,2009.76,1494.58,2198.49,1368.79,2245.14Z" transform="translate(-855.02 -980.44)"/><path class="av" d="M1226.94,2495l-42.5,30.83c-79.78.65-147.94-136.92-113.18-286.6,24.73-49.81,105.54-132.15,240.08-193.17,44.34-15.65,82,9,101.85,44.63-97.24-61.78-106.51,85.37-140.58,98.47-49.72,19.12,23.93,70.53-77.86,20.85-55.51-27.09,27.91,46.18-1.83,44.91-25.9-1.11-36.42-3.25-38.19-4-2.48-1-5.14,7.3,25.55,11.66,50.17,7.13-104.38,2.22-82.81,56.38,14.17,9.23,66.94-18.36,75-7.81,0,20.11-48.84,27.22-30.22,45.85,8.41,8.41,63.35-34.23,29.06,13.93-12.43,17.46,30-19.79,20,38.79-1.66,9.8-50.9,61.26-6.39,84C1186.54,2494.52,1207.71,2500.56,1226.94,2495Z" transform="translate(-855.02 -980.44)"/><path class="ao" d="M1242.09,2484.13c13.09,27.95,28.18,51.64,43.44,63.43,36.79,5.26,76.07,45.39,87.44,54.58-23.77,14.6-47.14-25.34-67.23-5.93-7.44,7.2-.39,30.91,1.45,39.42,24.21,63.32,15.42,79.63,11.69,78.91-6.26-1.2-33.78-57.11-35.62-50.66,1.55,25.18,18.93,51.16,14.59,52.29-18.21,4.74-37.8-35.12-39.57-54.06-13.91,10.75,12.31,33.77-.07,37.3-8.57,2.45-31.83-24.11-25.92-46.47-16.07,5,3.69,27.78-1.64,30.34-17.14-1.62-28.76-29.86-13.54-47.67-1.47-21.35,7.69-59.16,6.82-68.37,4-6.21-22.65-25.06-41.93-41.74Z" transform="translate(-855.02 -980.44)"/><path class="aw" d="M1361.09,2591.2a126,126,0,0,0,10.32,9.35C1366.16,2606.5,1354.55,2601.14,1361.09,2591.2Z" transform="translate(-855.02 -980.44)"/></svg>