<svg xmlns="http://www.w3.org/2000/svg" xmlns:xlink="http://www.w3.org/1999/xlink" viewBox="0 0 420.29 1133.11"><defs><style>.a,.b{fill-rule:evenodd;}.a{fill:url(#a);}.b{fill:#32276a;}</style><linearGradient id="a" x1="799.63" y1="2014.75" x2="-514.75" y2="913.55" gradientUnits="userSpaceOnUse"><stop offset="0" stop-color="#494c82"/><stop offset="1" stop-color="#ad93b3"/></linearGradient></defs><path class="a" d="M751,2288.55c-31.41,18.78-59.83,30.51-126.13,32.48-163.31-17.87-276.3-197.42-197.13-327,56.08-80.44,110.06-127.39,68-193.36-61-102.63-94.26-144.18-2.26-207.7,30.19-22.41,61.15-11.59,49.09-71.75-20.53-92-12.22-160,81.57-145,68.87,13.73,62.83,60.55,48.34,143.5-12.06,60.16,30.23,103,60.42,125.38,92,63.52,116.92,158.69,55.89,261.32-42.08,66-65.14,84.21-37.76,129.91C826.49,2133.68,834,2231.69,751,2288.55Z" transform="translate(-401.86 -1374.1)"/><polygon class="b" points="210.52 365.74 210.52 1133.11 228.23 1133.11 228.23 374.34 210.52 365.74"/></svg>