<svg xmlns="http://www.w3.org/2000/svg" xmlns:xlink="http://www.w3.org/1999/xlink" viewBox="0 0 534.29 1455.46"><defs><style>.a,.b{fill-rule:evenodd;}.a{fill:url(#a);}.b{fill:#32276a;}</style><linearGradient id="a" x1="560.73" y1="1813.75" x2="-642.56" y2="850.48" gradientUnits="userSpaceOnUse"><stop offset="0" stop-color="#44497f"/><stop offset="1" stop-color="#a48bb0"/></linearGradient></defs><path class="a" d="M547.83,2211.54c-39.92,23.87-76.06,38.78-160.35,41.28-207.6-22.72-351.24-251-250.59-415.74,71.29-102.25,139.91-161.93,86.41-245.79-77.58-130.48-119.83-183.29-2.88-264,38.38-28.5,77.74-14.74,62.41-91.22-26.1-117-15.54-203.37,103.69-184.34,87.55,17.45,79.87,77,61.45,182.42-15.33,76.48,38.44,130.89,76.81,159.39,117,80.75,148.64,201.73,71.06,332.21-53.5,83.86-82.82,107-48,165.14C643.81,2014.65,653.35,2139.24,547.83,2211.54Z" transform="translate(-104 -1049.05)"/><polygon class="b" points="261.38 439.94 260.75 1455.46 278.47 1455.46 279.09 450.09 261.38 439.94"/></svg>