<svg xmlns="http://www.w3.org/2000/svg" xmlns:xlink="http://www.w3.org/1999/xlink" viewBox="0 0 2191.01 984.26"><defs><style>.a{mask:url(#a);}.b,.d,.e,.f{fill-rule:evenodd;}.b{mix-blend-mode:multiply;fill:url(#c);}.c{mask:url(#d);}.d{fill:url(#f);}.e,.f,.g{fill:#e8f4f9;}.e{opacity:0.42;}.f{opacity:0.48;}.h{filter:url(#e);}.i{filter:url(#b);}</style><filter id="b" x="3357.51" y="-9692" width="2131.66" height="32766" filterUnits="userSpaceOnUse" color-interpolation-filters="sRGB"><feFlood flood-color="#fff" result="bg"/><feBlend in="SourceGraphic" in2="bg"/></filter><mask id="a" x="3357.51" y="-9692" width="2131.66" height="32766" maskUnits="userSpaceOnUse"><g class="i"/></mask><linearGradient id="c" x1="3496.02" y1="179.81" x2="7665.94" y2="1795.66" gradientUnits="userSpaceOnUse"><stop offset="0"/><stop offset="1" stop-color="#fff"/></linearGradient><filter id="e" x="3357.51" y="49.12" width="2131.66" height="976.29" filterUnits="userSpaceOnUse" color-interpolation-filters="sRGB"><feFlood flood-color="#fff" result="bg"/><feBlend in="SourceGraphic" in2="bg"/></filter><mask id="d" x="0" y="0" width="2131.66" height="976.29" maskUnits="userSpaceOnUse"><g class="h"><g transform="translate(-3357.51 -49.12)"><g class="a"><path class="b" d="M5435.28,1025.41q53.88-146.3,53.89-146.3l-444.3-187.64L5070,713.88,4653.49,534.2,4683,566.63,3357.51,49.12Z"/></g></g></g></mask><linearGradient id="f" x1="3496.02" y1="179.81" x2="7665.94" y2="1795.66" gradientUnits="userSpaceOnUse"><stop offset="0" stop-color="#fff"/><stop offset="1" stop-color="#fff"/></linearGradient></defs><g class="c"><path class="d" d="M5435.28,1025.41q53.88-146.3,53.89-146.3l-444.3-187.64L5070,713.88,4653.49,534.2,4683,566.63,3357.51,49.12Z" transform="translate(-3357.51 -49.12)"/></g><path class="e" d="M5451.2,1032.2l58.5-144-754.37-243Z" transform="translate(-3357.51 -49.12)"/><path class="f" d="M5426.86,1020.58l62.46-142.1L5093.93,790.7Z" transform="translate(-3357.51 -49.12)"/><circle class="g" cx="5469.85" cy="954.7" r="78.66" transform="translate(-2430.5 4098.27) rotate(-45)"/></svg>