<svg xmlns="http://www.w3.org/2000/svg" xmlns:xlink="http://www.w3.org/1999/xlink" viewBox="0 0 2158.54 1834.8"><defs><style>.a{fill:#181f61;}.a,.b,.c,.d,.e,.f,.g,.h,.i,.j,.k{fill-rule:evenodd;}.a,.e{opacity:0.48;}.b,.d{fill:#1c105c;}.b{opacity:0.38;}.c{fill:#2d2466;}.d{opacity:0.44;}.e,.f,.g,.h{fill:#1a1358;}.g{opacity:0.91;}.h{opacity:0.92;}.i{fill:url(#a);}.j{fill:#3a2f6d;}.k{fill:url(#b);}</style><linearGradient id="a" x1="4264.32" y1="1596.44" x2="3766.2" y2="1193.14" gradientUnits="userSpaceOnUse"><stop offset="0" stop-color="#5b598b"/><stop offset="1" stop-color="#9386ba"/></linearGradient><linearGradient id="b" x1="4662.83" y1="2028.37" x2="4191.12" y2="1704.47" gradientUnits="userSpaceOnUse"><stop offset="0" stop-color="#585788"/><stop offset="1" stop-color="#8f81b6"/></linearGradient></defs><polygon class="a" points="840.52 653.35 751.61 1097.1 662.7 1540.86 840.52 1540.86 1018.34 1540.86 929.43 1097.1 840.52 653.35"/><polygon class="b" points="692.29 217.53 565.89 848.4 439.49 1479.28 692.29 1479.28 945.09 1479.28 818.69 848.4 692.29 217.53"/><path class="c" d="M4125.88,2169.66a336.34,336.34,0,0,1,259.05,121.43c86.45-217.93,299.15-372,547.87-372,325.4,0,589.19,263.79,589.19,589.19H4343.6l0-1.54h-554.8C3788.82,2320.56,3939.72,2169.66,4125.88,2169.66Z" transform="translate(-3752.12 -678.57)"/><path class="d" d="M4584.45,2160.34c-186.95,0-338.49,151.55-338.49,338.49,0,1.85,0,3.7.07,5.55h676.83c0-1.85.07-3.7.07-5.55C4922.93,2311.89,4771.39,2160.34,4584.45,2160.34Z" transform="translate(-3752.12 -678.57)"/><path class="e" d="M5597.7,2189.27c-172.84,0-313,140.11-313,313,0,1.71,0,3.42.07,5.13H5910.6c0-1.71.06-3.42.06-5.13C5910.66,2329.38,5770.54,2189.27,5597.7,2189.27Z" transform="translate(-3752.12 -678.57)"/><polygon class="f" points="1053.69 1321.52 1002.27 1578.16 950.85 1834.8 1053.69 1834.8 1156.53 1834.8 1105.11 1578.16 1053.69 1321.52"/><polygon class="g" points="1161.85 1498.49 1128.74 1663.71 1095.64 1828.93 1161.85 1828.93 1228.05 1828.93 1194.95 1663.71 1161.85 1498.49"/><polygon class="h" points="277.15 1601.43 254.22 1715.88 231.29 1830.33 277.15 1830.33 323.01 1830.33 300.08 1715.88 277.15 1601.43"/><path class="i" d="M4314.59,2151.81c-50.59,30.26-96.39,49.16-203.21,52.33-263.1-28.8-445.13-318.06-317.58-526.88,90.35-129.59,177.31-205.22,109.51-311.5-98.33-165.36-151.86-232.28-3.65-334.63,48.63-36.11,98.52-18.67,79.09-115.59-33.07-148.24-19.69-257.75,131.42-233.63C4221.12,704,4211.38,779.47,4188,913.1c-19.43,96.93,48.71,165.88,97.35,202,148.21,102.34,188.36,255.65,90,421-67.8,106.28-105,135.67-60.84,209.29C4436.23,1902.3,4448.32,2060.2,4314.59,2151.81Z" transform="translate(-3752.12 -678.57)"/><polygon class="j" points="342.57 589.24 342.57 1825.51 364.29 1825.51 364.29 601.69 342.57 589.24"/><path class="k" d="M4541.93,2285.75c-31.4,18.78-59.83,30.51-126.13,32.48-163.31-17.88-276.3-197.43-197.13-327,56.08-80.44,110.06-127.38,68-193.35-61-102.64-94.26-144.18-2.27-207.7,30.19-22.42,61.16-11.59,49.1-71.75-20.53-92-12.23-160,81.57-145,68.86,13.73,62.82,60.56,48.33,143.5-12.06,60.17,30.24,103,60.43,125.38,92,63.52,116.92,158.69,55.89,261.33-42.09,66-65.15,84.21-37.77,129.91C4617.44,2130.87,4624.94,2228.88,4541.93,2285.75Z" transform="translate(-3752.12 -678.57)"/><polygon class="j" points="651.2 1058.47 651.2 1825.83 668.92 1825.83 668.92 1067.06 651.2 1058.47"/></svg>