<svg xmlns="http://www.w3.org/2000/svg" xmlns:xlink="http://www.w3.org/1999/xlink" viewBox="0 0 2127.62 1734.41"><defs><style>.a{fill:#2d2165;}.a,.b,.c,.d,.e,.f,.g,.h,.i,.j,.k{fill-rule:evenodd;}.b,.c,.h{fill:#251b62;}.b{opacity:0.62;}.c{opacity:0.53;}.d,.e{fill:#1a1358;}.e{opacity:0.89;}.f{fill:#1b1f5d;opacity:0.37;}.g{fill:#1a215b;opacity:0.67;}.h{opacity:0.92;}.i{fill:url(#a);}.j{fill:#32276a;}.k{fill:url(#b);}</style><linearGradient id="a" x1="560.73" y1="1813.75" x2="-642.56" y2="850.48" gradientUnits="userSpaceOnUse"><stop offset="0" stop-color="#44497f"/><stop offset="1" stop-color="#a48bb0"/></linearGradient><linearGradient id="b" x1="799.63" y1="2014.75" x2="-514.75" y2="913.55" gradientUnits="userSpaceOnUse"><stop offset="0" stop-color="#494c82"/><stop offset="1" stop-color="#ad93b3"/></linearGradient></defs><polygon class="a" points="243.61 1426.67 0 1732.55 0.78 1217.85 98.35 806.97 243.61 1426.67"/><polygon class="b" points="801.66 568.17 712.75 1011.93 623.84 1455.69 801.66 1455.69 979.48 1455.69 890.57 1011.93 801.66 568.17"/><polygon class="c" points="627.55 0 501.15 630.87 374.75 1261.74 627.55 1261.74 880.36 1261.74 753.96 630.87 627.55 0"/><path class="d" d="M340,2162.81c145.14,0,197.23,47.23,259,121.43,86.46-217.92,260.81-372,547.87-372s589.51,267.93,589.51,593.34L0,2505.35C0,2319.19,194.83,2162.81,340,2162.81Z" transform="translate(-0.04 -772.8)"/><path class="b" d="M921.28,2286.72c-118.09,0-213.83,97.45-213.83,215.55,0,1.17,0,2.33,0,3.5h427.58c0-1.17,0-2.33,0-3.5C1135.11,2384.17,1039.38,2286.72,921.28,2286.72Z" transform="translate(-0.04 -772.8)"/><path class="e" d="M1814.7,2188.4c-172.85,0-313,140.12-313,313,0,1.72,0,3.42.06,5.13h625.79c0-1.71.07-3.41.07-5.13C2127.66,2328.52,1987.54,2188.4,1814.7,2188.4Z" transform="translate(-0.04 -772.8)"/><polygon class="f" points="1016.39 1220.72 964.97 1477.37 913.55 1734.01 1016.39 1734.01 1119.22 1734.01 1067.81 1477.37 1016.39 1220.72"/><polygon class="g" points="1119.86 1400.82 1086.75 1566.04 1053.65 1731.26 1119.86 1731.26 1186.06 1731.26 1152.96 1566.04 1119.86 1400.82"/><polygon class="h" points="257.13 1495.08 233.17 1615.09 209.46 1732.07 257.5 1731.86 304.51 1732.54 280.43 1612.74 257.13 1495.08"/><path class="i" d="M547.83,2211.54c-39.92,23.87-76.06,38.78-160.35,41.28-207.6-22.72-351.24-251-250.59-415.74,71.29-102.25,139.91-161.93,86.41-245.79-77.58-130.48-119.83-183.29-2.88-264,38.38-28.5,77.74-14.74,62.41-91.22-26.1-117-15.54-203.37,103.69-184.34,87.55,17.45,79.87,77,61.45,182.42-15.33,76.48,38.44,130.89,76.81,159.39,117,80.75,148.64,201.73,71.06,332.21-53.5,83.86-82.82,107-48,165.14C643.81,2014.65,653.35,2139.24,547.83,2211.54Z" transform="translate(-0.04 -772.8)"/><polygon class="j" points="365.34 716.19 364.72 1731.71 382.44 1731.71 383.06 726.35 365.34 716.19"/><path class="k" d="M751,2288.55c-31.41,18.78-59.83,30.51-126.13,32.48-163.31-17.87-276.3-197.42-197.13-327,56.08-80.44,110.06-127.39,68-193.36-61-102.63-94.26-144.18-2.26-207.7,30.19-22.41,61.15-11.59,49.09-71.75-20.53-92-12.22-160,81.57-145,68.87,13.73,62.83,60.55,48.34,143.5-12.06,60.16,30.23,103,60.42,125.38,92,63.52,116.92,158.69,55.89,261.32-42.08,66-65.14,84.21-37.76,129.91C826.49,2133.68,834,2231.69,751,2288.55Z" transform="translate(-0.04 -772.8)"/><polygon class="j" points="612.34 967.05 612.34 1734.41 630.05 1734.41 630.05 975.64 612.34 967.05"/></svg>