<svg id="Layer_1" data-name="Layer 1" xmlns="http://www.w3.org/2000/svg" xmlns:xlink="http://www.w3.org/1999/xlink" viewBox="0 0 1091.89 839.89"><defs><style>.cls-1{fill:url(#linear-gradient);}.cls-2{fill:url(#linear-gradient-2);}</style><linearGradient id="linear-gradient" x1="441.09" y1="587.21" x2="1528.4" y2="846.73" gradientUnits="userSpaceOnUse"><stop offset="0" stop-color="#4c89a6"/><stop offset="1" stop-color="#3e7188"/></linearGradient><linearGradient id="linear-gradient-2" x1="963.89" y1="679.59" x2="1033.92" y2="1463.85" gradientUnits="userSpaceOnUse"><stop offset="0" stop-color="#5ab2db"/><stop offset="1" stop-color="#5ca6c7"/></linearGradient></defs><path class="cls-1" d="M1545.94,709.88v60.81a49.81,49.81,0,0,0-49.81-49.82H503.88a49.83,49.83,0,0,0-49.83,49.82V629.88a49.84,49.84,0,0,1,49.83-49.83H791.05a24.14,24.14,0,0,1,19.34,9.68l45.46,60.65a24.16,24.16,0,0,0,19.34,9.67h620.94A49.83,49.83,0,0,1,1545.94,709.88Z" transform="translate(-454.05 -580.05)"/><path class="cls-2" d="M1546,1384.45V770.69a49.83,49.83,0,0,0-49.82-49.82H503.88a49.83,49.83,0,0,0-49.82,49.82v613.76l0,15a21.26,21.26,0,0,0,21.25,20.5H1524.69a21.26,21.26,0,0,0,21.24-20.5Z" transform="translate(-454.05 -580.05)"/></svg>