<svg xmlns="http://www.w3.org/2000/svg" viewBox="0 0 244.31 191.06"><defs><style>.a{fill:white;}</style></defs><path class="a" d="M360.8,201l-.45-.45c-8.43-8.42-20.67-16.2-34.56-22-2.57-1.05-5.13-2-7.63-2.91v-.15a20.54,20.54,0,0,0-20.27-20.27l-54.43-.75a26.5,26.5,0,0,0-19.22,7.82l-90.9,90.86a18.76,18.76,0,0,0,0,26.54L193.74,340a18.78,18.78,0,0,0,26.54,0l90.85-90.86a26.35,26.35,0,0,0,5.92-9A95.5,95.5,0,0,0,342.89,244c19.37-.11,25.79-8.58,27.9-13.65S374.4,214.82,360.8,201Zm-4.72,23.28c-1.7,4.06-20,7.68-47.81-3.91a107.36,107.36,0,0,1-21.92-12.19c-.2.25-.45.5-.66.75a15.44,15.44,0,1,1,4.42-8.68,108.11,108.11,0,0,0,20.72,11.29c2.71,1.11,5.32,2.11,7.83,3l-.31-21.87c.46.2.86.35,1.31.55,11.89,5,22.58,11.68,29.45,18.56l.3.3C355.93,218.69,356.64,223,356.08,224.25Z" transform="translate(-127.84 -154.47)"/></svg>