<?xml version="1.0" encoding="UTF-8" standalone="no"?>
<svg
   xmlns:dc="http://purl.org/dc/elements/1.1/"
   xmlns:cc="http://creativecommons.org/ns#"
   xmlns:rdf="http://www.w3.org/1999/02/22-rdf-syntax-ns#"
   xmlns:svg="http://www.w3.org/2000/svg"
   xmlns="http://www.w3.org/2000/svg"
   xmlns:sodipodi="http://sodipodi.sourceforge.net/DTD/sodipodi-0.dtd"
   xmlns:inkscape="http://www.inkscape.org/namespaces/inkscape"
   version="1.1"
   id="svg2"
   xml:space="preserve"
   width="2666.6667"
   height="2666.6667"
   viewBox="0 0 2666.6667 2666.6667"
   sodipodi:docname="shutterstock_1501848521.eps"><metadata
     id="metadata8"><rdf:RDF><cc:Work
         rdf:about=""><dc:format>image/svg+xml</dc:format><dc:type
           rdf:resource="http://purl.org/dc/dcmitype/StillImage" /></cc:Work></rdf:RDF></metadata><defs
     id="defs6"><clipPath
       clipPathUnits="userSpaceOnUse"
       id="clipPath20"><path
         d="m 15459.4,12901.3 v -608.2 c 0,275.2 -223.1,498.3 -498.1,498.3 H 5038.75 c -275.1,0 -498.2,-223.1 -498.2,-498.3 v 1408.2 c 0,275.1 223.1,498.1 498.2,498.1 h 2871.7 c 76.1,0 147.8,-35.7 193.4,-96.7 l 454.69,-606.5 c 45.61,-61 117.31,-96.8 193.4,-96.8 h 6209.36 c 275,0 498.1,-223 498.1,-498.1 z"
         id="path18" /></clipPath><linearGradient
       x1="0"
       y1="0"
       x2="1"
       y2="0"
       gradientUnits="userSpaceOnUse"
       gradientTransform="matrix(10873.2,-2595.24,-2595.24,-10873.2,4410.86,14127.9)"
       spreadMethod="pad"
       id="linearGradient26"><stop
         style="stop-opacity:1;stop-color:#5088aa"
         offset="0"
         id="stop22" /><stop
         style="stop-opacity:1;stop-color:#406e8a"
         offset="1"
         id="stop24" /></linearGradient><clipPath
       clipPathUnits="userSpaceOnUse"
       id="clipPath36"><path
         d="m 15459.5,6155.5 v 6137.6 c 0,275.2 -223.2,498.3 -498.2,498.3 H 5038.75 c -275.1,0 -498.2,-223.1 -498.2,-498.3 v -5529.4 -150 -154.1 -150 -154.1 l 0.2,-150 c 4,-113.8 97.6,-205 212.5,-205 H 15246.8 c 114.9,0 208.5,91.2 212.4,205 z"
         id="path34" /></clipPath><linearGradient
       x1="0"
       y1="0"
       x2="1"
       y2="0"
       gradientUnits="userSpaceOnUse"
       gradientTransform="matrix(700.231,-7842.59,-7842.59,-700.231,9638.92,13204.1)"
       spreadMethod="pad"
       id="linearGradient42"><stop
         style="stop-opacity:1;stop-color:#68b6df"
         offset="0"
         id="stop38" /><stop
         style="stop-opacity:1;stop-color:#63a8ca"
         offset="1"
         id="stop40" /></linearGradient><clipPath
       clipPathUnits="userSpaceOnUse"
       id="clipPath52"><path
         d="M 15459.5,6459.6 H 4540.55 v -150 H 15459.5 Z"
         id="path50" /></clipPath><linearGradient
       x1="0"
       y1="0"
       x2="1"
       y2="0"
       gradientUnits="userSpaceOnUse"
       gradientTransform="matrix(0,-213.717,-213.717,0,10000,6503.3)"
       spreadMethod="pad"
       id="linearGradient60"><stop
         style="stop-opacity:1;stop-color:#6db1cf"
         offset="0"
         id="stop54" /><stop
         style="stop-opacity:1;stop-color:#6db1cf"
         offset="0.309224"
         id="stop56" /><stop
         style="stop-opacity:1;stop-color:#569abe"
         offset="1"
         id="stop58" /></linearGradient><clipPath
       clipPathUnits="userSpaceOnUse"
       id="clipPath70"><path
         d="M 15459.5,6763.7 H 4540.55 v -150 H 15459.5 Z"
         id="path68" /></clipPath><linearGradient
       x1="0"
       y1="0"
       x2="1"
       y2="0"
       gradientUnits="userSpaceOnUse"
       gradientTransform="matrix(0,-213.717,-213.717,0,10000,6807.3)"
       spreadMethod="pad"
       id="linearGradient78"><stop
         style="stop-opacity:1;stop-color:#6db1cf"
         offset="0"
         id="stop72" /><stop
         style="stop-opacity:1;stop-color:#6db1cf"
         offset="0.309224"
         id="stop74" /><stop
         style="stop-opacity:1;stop-color:#569abe"
         offset="1"
         id="stop76" /></linearGradient><clipPath
       clipPathUnits="userSpaceOnUse"
       id="clipPath88"><path
         d="M 15459.2,6005.5 H 4540.75 l -0.2,150 H 15459.5 Z"
         id="path86" /></clipPath><linearGradient
       x1="0"
       y1="0"
       x2="1"
       y2="0"
       gradientUnits="userSpaceOnUse"
       gradientTransform="matrix(0,-213.717,-213.717,0,10000,6199.2)"
       spreadMethod="pad"
       id="linearGradient96"><stop
         style="stop-opacity:1;stop-color:#6db1cf"
         offset="0"
         id="stop90" /><stop
         style="stop-opacity:1;stop-color:#6db1cf"
         offset="0.309224"
         id="stop92" /><stop
         style="stop-opacity:1;stop-color:#569abe"
         offset="1"
         id="stop94" /></linearGradient></defs><sodipodi:namedview
     pagecolor="#ffffff"
     bordercolor="#666666"
     borderopacity="1"
     objecttolerance="10"
     gridtolerance="10"
     guidetolerance="10"
     inkscape:pageopacity="0"
     inkscape:pageshadow="2"
     inkscape:window-width="640"
     inkscape:window-height="480"
     id="namedview4" /><g
     id="g10"
     inkscape:groupmode="layer"
     inkscape:label="ink_ext_XXXXXX"
     transform="matrix(1.3333333,0,0,-1.3333333,0,2666.6667)"><g
       id="g12"
       transform="scale(0.1)"><g
         id="g14"><g
           id="g16"
           clip-path="url(#clipPath20)"><path
             d="m 15459.4,12901.3 v -608.2 c 0,275.2 -223.1,498.3 -498.1,498.3 H 5038.75 c -275.1,0 -498.2,-223.1 -498.2,-498.3 v 1408.2 c 0,275.1 223.1,498.1 498.2,498.1 h 2871.7 c 76.1,0 147.8,-35.7 193.4,-96.7 l 454.69,-606.5 c 45.61,-61 117.31,-96.8 193.4,-96.8 h 6209.36 c 275,0 498.1,-223 498.1,-498.1"
             style="fill:url(#linearGradient26);fill-opacity:1;fill-rule:nonzero;stroke:none"
             id="path28" /></g></g><g
         id="g30"><g
           id="g32"
           clip-path="url(#clipPath36)"><path
             d="m 15459.5,6155.5 v 6137.6 c 0,275.2 -223.2,498.3 -498.2,498.3 H 5038.75 c -275.1,0 -498.2,-223.1 -498.2,-498.3 v -5529.4 -150 -154.1 -150 -154.1 l 0.2,-150 c 4,-113.8 97.6,-205 212.5,-205 H 15246.8 c 114.9,0 208.5,91.2 212.4,205 l 0.3,150"
             style="fill:url(#linearGradient42);fill-opacity:1;fill-rule:nonzero;stroke:none"
             id="path44" /></g></g><g
         id="g46"><g
           id="g48"
           clip-path="url(#clipPath52)"><path
             d="M 15459.5,6459.6 H 4540.55 v -150 H 15459.5 v 150"
             style="fill:url(#linearGradient60);fill-opacity:1;fill-rule:nonzero;stroke:none"
             id="path62" /></g></g><g
         id="g64"><g
           id="g66"
           clip-path="url(#clipPath70)"><path
             d="M 15459.5,6763.7 H 4540.55 v -150 H 15459.5 v 150"
             style="fill:url(#linearGradient78);fill-opacity:1;fill-rule:nonzero;stroke:none"
             id="path80" /></g></g><g
         id="g82"><g
           id="g84"
           clip-path="url(#clipPath88)"><path
             d="M 15459.2,6005.5 H 4540.75 l -0.2,150 H 15459.5 l -0.3,-150"
             style="fill:url(#linearGradient96);fill-opacity:1;fill-rule:nonzero;stroke:none"
             id="path98" /></g></g></g></g></svg>
