<svg xmlns="http://www.w3.org/2000/svg"  viewBox="0 0 64 64" width="100px" height="100px"><path fill="#9e919d" d="M32,3C15.984,3,3,14.641,3,29c0,14.359,12.984,26,29,26s29-11.641,29-26C61,14.641,48.016,3,32,3z M34.5,49C22.074,49,12,40.717,12,30.5C12,20.283,22.074,12,34.5,12S57,20.283,57,30.5C57,40.717,46.926,49,34.5,49z"/><path fill="#68607c" d="M34,54.932V48.99c-4.435-0.08-8.554-1.21-12-3.107v7.529C25.117,54.439,28.485,55,32,55	C32.673,55,33.338,54.972,34,54.932z"/><path fill="#68607c" d="M47.572,45.553c-3.275,1.926-7.202,3.147-11.459,3.395l3.251,5.204	c3.944-0.926,7.557-2.581,10.658-4.79C48.854,47.523,47.966,46.139,47.572,45.553z"/><path fill="#4e9bb9" d="M55,61h-9l-8.82-14.12c-0.74-1.17-2.02-1.88-3.4-1.88H32v15c0,0.55-0.45,1-1,1h-6c-0.55,0-1-0.45-1-1	V20c0-0.55,0.45-1,1-1h17c6.08,0,11,4.92,11,11v2c0,3.04-1.23,5.79-3.22,7.78C47.79,41.77,45.04,43,42,43	c1.45,0.97,2.73,2.15,3.8,3.5C46.2,47,55,61,55,61z M45,32c0-1.38-0.56-2.63-1.46-3.54C42.63,27.56,41.38,27,40,27h-8v10h8	C42.76,37,45,34.76,45,32z"/></svg>