<svg id="_迹_1" data-name="卵迹_1" xmlns="http://www.w3.org/2000/svg" viewBox="0 0 369.44 158.48"><defs><style>.cls-1{fill:#fff;}.cls-2{fill:#cae0ff;}.cls-3{fill:#eaf3ff;}.cls-4{fill:#7f91d7;}.cls-5{fill:#aecaf6;}.cls-6{fill:#91beff;}.cls-7{fill:#6197ed;}</style></defs><path class="cls-1" d="M1507.16,647.31v118.3c0,6.47-6.32,11.94-14.11,12.2q-171.22,5.78-341.33,15.85c-7.74.47-14-5.06-14-12.35V648.38c0-7.29,6.27-13.19,14-13.17q170,.22,341.33.35C1500.84,635.57,1507.16,640.83,1507.16,647.31Z" transform="translate(-1137.71 -635.21)"/><path class="cls-2" d="M1507.16,647.31v14.5q-185.37,1-369.45,2.86V648.38c0-7.29,6.27-13.19,14-13.17q170,.22,341.33.35C1500.84,635.57,1507.16,640.83,1507.16,647.31Z" transform="translate(-1137.71 -635.21)"/><path class="cls-3" d="M1162.7,650.08a5.89,5.89,0,0,1-6,5.67,5.8,5.8,0,0,1-6-5.62,6.05,6.05,0,0,1,12.08,0Z" transform="translate(-1137.71 -635.21)"/><path class="cls-4" d="M1183.86,650a5.88,5.88,0,0,1-6,5.63,5.81,5.81,0,0,1-6-5.58,6.06,6.06,0,0,1,12.09,0Z" transform="translate(-1137.71 -635.21)"/><path class="cls-5" d="M1205,649.9a5.86,5.86,0,0,1-6,5.58,5.77,5.77,0,0,1-6-5.53,6.07,6.07,0,0,1,12.1-.05Z" transform="translate(-1137.71 -635.21)"/><path class="cls-6" d="M1160.91,688.4l-10.29.19V679l10.29-.15Z" transform="translate(-1137.71 -635.21)"/><path class="cls-7" d="M1210.54,687.49l-39.2.71v-9.56l39.2-.58Z" transform="translate(-1137.71 -635.21)"/><path class="cls-6" d="M1210.54,706.35q-19.61.48-39.2,1v-9.57l39.2-.85Z" transform="translate(-1137.71 -635.21)"/><path class="cls-6" d="M1249.78,742.61q-19.63.71-39.24,1.46v-9.43q19.62-.69,39.24-1.33Z" transform="translate(-1137.71 -635.21)"/><path class="cls-6" d="M1235.17,761.84l-24.63,1.08v-9.43l24.63-1Z" transform="translate(-1137.71 -635.21)"/><path class="cls-6" d="M1269,760.4l-24.64,1v-9.32l24.64-1Z" transform="translate(-1137.71 -635.21)"/><path class="cls-6" d="M1302.82,759q-12.33.48-24.67,1v-9.21l24.67-.91Z" transform="translate(-1137.71 -635.21)"/><path class="cls-6" d="M1336.68,757.75q-12.35.45-24.68.93v-9.1q12.35-.45,24.68-.87Z" transform="translate(-1137.71 -635.21)"/><path class="cls-6" d="M1420.87,754.84q-37.53,1.2-75,2.57v-9q37.47-1.27,75-2.38Z" transform="translate(-1137.71 -635.21)"/><path class="cls-6" d="M1470.34,753.33q-22.44.64-44.87,1.36v-8.8q22.42-.66,44.87-1.26Z" transform="translate(-1137.71 -635.21)"/><path class="cls-6" d="M1334.39,739.75q-33.17,1.05-66.27,2.21v-9.24q33.11-1.07,66.27-2Z" transform="translate(-1137.71 -635.21)"/><path class="cls-6" d="M1420.87,737.21q-33.22.9-66.39,1.91v-9q33.18-.93,66.39-1.75Z" transform="translate(-1137.71 -635.21)"/><path class="cls-6" d="M1447.9,736.49l-18.41.48v-8.79l18.41-.44Z" transform="translate(-1137.71 -635.21)"/><path class="cls-6" d="M1224,724.79l-13.46.42v-9.43l13.46-.37Z" transform="translate(-1137.71 -635.21)"/><path class="cls-6" d="M1271,723.4q-17.64.5-35.25,1v-9.34q17.63-.48,35.25-.93Z" transform="translate(-1137.71 -635.21)"/><path class="cls-6" d="M1317.17,722.12q-17.65.46-35.29,1v-9.2q17.64-.45,35.29-.87Z" transform="translate(-1137.71 -635.21)"/><path class="cls-6" d="M1381.49,720.49q-26.73.63-53.42,1.34v-9.06q26.7-.63,53.42-1.2Z" transform="translate(-1137.71 -635.21)"/><path class="cls-6" d="M1492.22,718.09q-48.79.95-97.51,2.08v-8.88q48.7-1,97.51-1.85Z" transform="translate(-1137.71 -635.21)"/><path class="cls-6" d="M1160.91,707.61l-10.29.27v-9.64l10.29-.24Z" transform="translate(-1137.71 -635.21)"/><path class="cls-6" d="M1160.91,726.81l-10.29.35v-9.64l10.29-.31Z" transform="translate(-1137.71 -635.21)"/><path class="cls-6" d="M1160.91,746l-10.29.42V736.8l10.29-.38Z" transform="translate(-1137.71 -635.21)"/><path class="cls-6" d="M1160.91,765.23l-10.29.5v-9.64l10.29-.46Z" transform="translate(-1137.71 -635.21)"/></svg>