<svg id="_迹_1" data-name="卵迹_1" xmlns="http://www.w3.org/2000/svg" viewBox="0 0 668.7 303.49"><defs><style>.cls-1{fill:#fff;}.cls-2{fill:#cae0ff;}.cls-3{fill:#eaf3ff;}.cls-4{fill:#7f91d7;}.cls-5{fill:#aecaf6;}.cls-6{fill:#91beff;}.cls-7{fill:#6197ed;}</style></defs><path class="cls-1" d="M2916.1,454.29v255.9a24.07,24.07,0,0,1-25.25,24.35c-204.4-8.36-410.79-13.95-617.86-16.8-14.13-.2-25.59-9.58-25.59-21V488.86c0-11.39,11.46-20.94,25.59-21.36,207.07-6.15,413.46-18.26,617.86-36.33C2904.8,429.91,2916.1,440.25,2916.1,454.29Z" transform="translate(-2247.4 -431.06)"/><path class="cls-2" d="M2916.1,454.29v31.37c-221.06,14.66-444.51,24.22-668.7,28.68V488.86c0-11.39,11.46-20.94,25.59-21.36,207.07-6.15,413.46-18.26,617.86-36.33C2904.8,429.91,2916.1,440.25,2916.1,454.29Z" transform="translate(-2247.4 -431.06)"/><path class="cls-3" d="M2293.06,490.53c0,5-4.94,9.1-11,9.25s-11-3.74-11-8.67,4.94-9.07,11-9.24S2293.06,485.57,2293.06,490.53Z" transform="translate(-2247.4 -431.06)"/><path class="cls-4" d="M2331.68,489.42c0,5-4.93,9.18-11,9.34s-11-3.73-11-8.69,4.94-9.15,11-9.34S2331.68,484.42,2331.68,489.42Z" transform="translate(-2247.4 -431.06)"/><path class="cls-5" d="M2370.28,488.19c0,5-4.93,9.27-11,9.45s-11-3.73-11-8.73,4.94-9.23,11-9.45S2370.28,483.15,2370.28,488.19Z" transform="translate(-2247.4 -431.06)"/><path class="cls-6" d="M2289.79,551.52l-18.8.29V536.59l18.8-.34Z" transform="translate(-2247.4 -431.06)"/><path class="cls-7" d="M2380.33,549.89q-35.73.72-71.49,1.32V535.89q35.76-.71,71.49-1.55Z" transform="translate(-2247.4 -431.06)"/><path class="cls-6" d="M2380.33,581q-35.73.46-71.49.86V566.53q35.76-.49,71.49-1.09Z" transform="translate(-2247.4 -431.06)"/><path class="cls-6" d="M2451.74,643.28l-71.41-.08V627.65l71.41-.2Z" transform="translate(-2247.4 -431.06)"/><path class="cls-6" d="M2425.16,674.69q-22.41-.21-44.83-.39V658.75l44.83.22Z" transform="translate(-2247.4 -431.06)"/><path class="cls-6" d="M2486.63,675.27l-44.79-.43V659.05l44.79.25Z" transform="translate(-2247.4 -431.06)"/><path class="cls-6" d="M2548,675.93l-44.74-.49V659.39l44.74.28Z" transform="translate(-2247.4 -431.06)"/><path class="cls-6" d="M2609.36,676.66q-22.34-.28-44.69-.54V659.78q22.36.13,44.69.3Z" transform="translate(-2247.4 -431.06)"/><path class="cls-6" d="M2761.27,678.78q-67.53-1-135.29-1.91V660.2q67.76.49,135.29,1.08Z" transform="translate(-2247.4 -431.06)"/><path class="cls-6" d="M2850.16,680.24q-40.26-.71-80.61-1.33V661.35q40.35.36,80.61.75Z" transform="translate(-2247.4 -431.06)"/><path class="cls-6" d="M2605.21,643.49l-120.14-.17v-16q60.13-.18,120.14-.41Z" transform="translate(-2247.4 -431.06)"/><path class="cls-6" d="M2761.27,643.77l-119.72-.22V626.79q60-.24,119.72-.52Z" transform="translate(-2247.4 -431.06)"/><path class="cls-6" d="M2809.88,643.87l-33.09-.07V626.19l33.09-.16Z" transform="translate(-2247.4 -431.06)"/><path class="cls-6" d="M2404.83,611.94l-24.5.16V596.54q12.26-.1,24.5-.24Z" transform="translate(-2247.4 -431.06)"/><path class="cls-6" d="M2490.28,611.35q-32,.24-64.08.45V596.08q32.06-.33,64.08-.72Z" transform="translate(-2247.4 -431.06)"/><path class="cls-6" d="M2574,610.66q-32,.29-64,.54V595.12q32-.4,64-.85Z" transform="translate(-2247.4 -431.06)"/><path class="cls-6" d="M2690.31,609.54q-48.21.51-96.53,1V594q48.31-.69,96.53-1.5Z" transform="translate(-2247.4 -431.06)"/><path class="cls-6" d="M2889.37,607.17q-87.39,1.17-175.22,2.12v-17.2q87.82-1.5,175.22-3.36Z" transform="translate(-2247.4 -431.06)"/><path class="cls-6" d="M2289.79,582.05l-18.8.19V567l18.8-.24Z" transform="translate(-2247.4 -431.06)"/><path class="cls-6" d="M2289.79,612.58l-18.8.09V597.45l18.8-.13Z" transform="translate(-2247.4 -431.06)"/><path class="cls-6" d="M2289.79,643.12l-18.8,0V627.89l18.8,0Z" transform="translate(-2247.4 -431.06)"/><path class="cls-6" d="M2289.79,673.65l-18.8-.12V658.32l18.8.06Z" transform="translate(-2247.4 -431.06)"/></svg>