<svg id="_迹_1" data-name="卵迹_1" xmlns="http://www.w3.org/2000/svg" viewBox="0 0 409.03 201.92"><defs><style>.cls-1{fill:#fff;}.cls-2{fill:#cae0ff;}.cls-3{fill:#eaf3ff;}.cls-4{fill:#7f91d7;}.cls-5{fill:#aecaf6;}.cls-6{fill:#91beff;}.cls-7{fill:#6197ed;}</style></defs><path class="cls-1" d="M1388,395.7V531.29c0,7.42-7,13.26-15.64,13Q1182.59,539,994.48,530.2A16.47,16.47,0,0,1,979,513.83V356.17a13.37,13.37,0,0,1,15.48-13.64q188,24,377.91,38.54C1381,381.73,1388,388.28,1388,395.7Z" transform="translate(-979 -342.4)"/><path class="cls-2" d="M1388,395.7v16.62q-205.5-13.49-409-36.82V356.17a13.37,13.37,0,0,1,15.48-13.64q188,24,377.91,38.54C1381,381.73,1388,388.28,1388,395.7Z" transform="translate(-979 -342.4)"/><path class="cls-3" d="M1006.63,361.65a5.82,5.82,0,0,1-6.68,5.89,7.73,7.73,0,0,1-6.68-7.49,5.79,5.79,0,0,1,6.68-5.88A7.76,7.76,0,0,1,1006.63,361.65Z" transform="translate(-979 -342.4)"/><path class="cls-4" d="M1030,364.39a5.82,5.82,0,0,1-6.69,5.84,7.65,7.65,0,0,1-6.68-7.4,5.79,5.79,0,0,1,6.68-5.84A7.71,7.71,0,0,1,1030,364.39Z" transform="translate(-979 -342.4)"/><path class="cls-5" d="M1053.45,367.06a5.82,5.82,0,0,1-6.7,5.8,7.6,7.6,0,0,1-6.69-7.32,5.79,5.79,0,0,1,6.69-5.79A7.63,7.63,0,0,1,1053.45,367.06Z" transform="translate(-979 -342.4)"/><path class="cls-6" d="M1004.65,406.75l-11.38-1.14V394.19l11.38,1.2Z" transform="translate(-979 -342.4)"/><path class="cls-7" d="M1059.54,412.05q-21.69-2-43.35-4.16V396.58q21.66,2.24,43.35,4.36Z" transform="translate(-979 -342.4)"/><path class="cls-6" d="M1059.54,434.26q-21.69-1.83-43.35-3.75V419.2q21.66,2,43.35,3.95Z" transform="translate(-979 -342.4)"/><path class="cls-6" d="M1103,481.47q-21.72-1.37-43.41-2.79V467.57q21.69,1.53,43.41,3Z" transform="translate(-979 -342.4)"/><path class="cls-6" d="M1086.79,502.41q-13.63-.75-27.25-1.52V489.78q13.62.84,27.25,1.65Z" transform="translate(-979 -342.4)"/><path class="cls-6" d="M1124.2,504.43,1096.93,503V492l27.27,1.58Z" transform="translate(-979 -342.4)"/><path class="cls-6" d="M1161.66,506.35l-27.3-1.39V494.18l27.3,1.51Z" transform="translate(-979 -342.4)"/><path class="cls-6" d="M1199.15,508.18l-27.33-1.32V496.23l27.33,1.44Z" transform="translate(-979 -342.4)"/><path class="cls-6" d="M1292.4,512.35q-41.58-1.73-83.08-3.68V498.19q41.51,2.1,83.08,4Z" transform="translate(-979 -342.4)"/><path class="cls-6" d="M1347.23,514.54q-24.88-.94-49.73-2V502.4q24.84,1.11,49.73,2.13Z" transform="translate(-979 -342.4)"/><path class="cls-6" d="M1196.61,487q-36.72-2-73.36-4.28V471.9q36.64,2.4,73.36,4.58Z" transform="translate(-979 -342.4)"/><path class="cls-6" d="M1292.4,492q-36.8-1.78-73.54-3.76V477.79q36.73,2.11,73.54,4Z" transform="translate(-979 -342.4)"/><path class="cls-6" d="M1322.35,493.4l-20.39-.95V482.3q10.18.52,20.39,1Z" transform="translate(-979 -342.4)"/><path class="cls-6" d="M1074.43,457.58l-14.89-1.11V445.36l14.89,1.18Z" transform="translate(-979 -342.4)"/><path class="cls-6" d="M1126.42,461.3q-19.51-1.35-39-2.77v-11q19.49,1.5,39,2.94Z" transform="translate(-979 -342.4)"/><path class="cls-6" d="M1177.54,464.73q-19.55-1.26-39.06-2.6V451.37q19.51,1.41,39.06,2.76Z" transform="translate(-979 -342.4)"/><path class="cls-6" d="M1248.77,469.14q-29.6-1.74-59.15-3.63V455q29.55,2,59.15,3.85Z" transform="translate(-979 -342.4)"/><path class="cls-6" d="M1371.47,475.72q-54.09-2.62-108-5.73V459.71q54,3.3,108,6.08Z" transform="translate(-979 -342.4)"/><path class="cls-6" d="M1004.65,429.48l-11.38-1V417l11.38,1.09Z" transform="translate(-979 -342.4)"/><path class="cls-6" d="M1004.65,452.21l-11.38-.91V439.87l11.38,1Z" transform="translate(-979 -342.4)"/><path class="cls-6" d="M1004.65,474.94l-11.38-.8V462.72l11.38.86Z" transform="translate(-979 -342.4)"/><path class="cls-6" d="M1004.65,497.67,993.27,497V485.56l11.38.75Z" transform="translate(-979 -342.4)"/></svg>