<svg id="_迹_1" data-name="卵迹_1" xmlns="http://www.w3.org/2000/svg" viewBox="0 0 412.75 164.46"><defs><style>.cls-1{fill:#fff;}.cls-2{fill:#cae0ff;}.cls-3{fill:#eaf3ff;}.cls-4{fill:#7f91d7;}.cls-5{fill:#aecaf6;}.cls-6{fill:#91beff;}.cls-7{fill:#6197ed;}</style></defs><path class="cls-1" d="M2372.79,301.78V432.43c0,7.17-7,13.28-15.68,13.63q-190.34,7.9-381.35,8.36c-8.68,0-15.72-5.51-15.72-12.33V317.55c0-6.82,7-12.36,15.72-12.4q190.86-.82,381.35-15.14C2365.77,289.36,2372.79,294.61,2372.79,301.78Z" transform="translate(-1960.04 -289.96)"/><path class="cls-2" d="M2372.79,301.78v16q-206,14.76-412.75,15V317.55c0-6.82,7-12.36,15.72-12.4q190.86-.82,381.35-15.14C2365.77,289.36,2372.79,294.61,2372.79,301.78Z" transform="translate(-1960.04 -289.96)"/><path class="cls-3" d="M1988.1,319.14c0,2.94-3,5.35-6.79,5.37s-6.78-2.36-6.78-5.3,3-5.34,6.78-5.36S1988.1,316.19,1988.1,319.14Z" transform="translate(-1960.04 -289.96)"/><path class="cls-4" d="M2011.84,318.94c0,2.95-3,5.37-6.79,5.4s-6.78-2.33-6.78-5.27,3-5.36,6.78-5.4S2011.84,316,2011.84,318.94Z" transform="translate(-1960.04 -289.96)"/><path class="cls-5" d="M2035.58,318.64c0,2.95-3,5.38-6.79,5.43s-6.78-2.3-6.78-5.25,3-5.37,6.78-5.42S2035.58,315.69,2035.58,318.64Z" transform="translate(-1960.04 -289.96)"/><path class="cls-6" d="M1986.08,355.38l-11.55.05v-9.08l11.55-.05Z" transform="translate(-1960.04 -289.96)"/><path class="cls-7" d="M2041.75,354.84q-22,.32-44,.46v-9.08q22-.17,44-.48Z" transform="translate(-1960.04 -289.96)"/><path class="cls-6" d="M2041.75,373q-22,.3-44,.44v-9.08q22-.15,44-.45Z" transform="translate(-1960.04 -289.96)"/><path class="cls-6" d="M2085.71,408.8q-22,.38-44,.63v-9.1q22-.25,44-.65Z" transform="translate(-1960.04 -289.96)"/><path class="cls-6" d="M2069.34,427.29q-13.78.18-27.59.33v-9.1q13.8-.15,27.59-.34Z" transform="translate(-1960.04 -289.96)"/><path class="cls-6" d="M2107.2,426.69q-13.8.24-27.59.45V418q13.8-.21,27.59-.47Z" transform="translate(-1960.04 -289.96)"/><path class="cls-6" d="M2145,425.92q-13.78.31-27.58.58v-9.15q13.8-.28,27.58-.6Z" transform="translate(-1960.04 -289.96)"/><path class="cls-6" d="M2182.88,425q-13.78.38-27.57.7V416.5q13.79-.35,27.57-.73Z" transform="translate(-1960.04 -289.96)"/><path class="cls-6" d="M2276.78,421.93q-41.81,1.59-83.64,2.77v-9.22q41.84-1.23,83.64-2.89Z" transform="translate(-1960.04 -289.96)"/><path class="cls-6" d="M2331.86,419.66q-25,1.11-50,2.08v-9.36q25-1,50-2.16Z" transform="translate(-1960.04 -289.96)"/><path class="cls-6" d="M2180.32,406.63q-37,1.08-74.08,1.8v-9.14q37-.75,74.08-1.86Z" transform="translate(-1960.04 -289.96)"/><path class="cls-6" d="M2276.78,403.25q-37,1.51-74,2.7v-9.23q37-1.23,74-2.82Z" transform="translate(-1960.04 -289.96)"/><path class="cls-6" d="M2306.89,402l-20.5.89v-9.36q10.24-.45,20.5-.93Z" transform="translate(-1960.04 -289.96)"/><path class="cls-6" d="M2056.83,391l-15.08.2v-9.1l15.08-.2Z" transform="translate(-1960.04 -289.96)"/><path class="cls-6" d="M2109.44,390.09q-19.72.42-39.45.74v-9.11q19.73-.33,39.45-.77Z" transform="translate(-1960.04 -289.96)"/><path class="cls-6" d="M2161.08,388.79q-19.73.57-39.45,1v-9.15q19.73-.48,39.45-1.06Z" transform="translate(-1960.04 -289.96)"/><path class="cls-6" d="M2232.89,386.38q-29.8,1.15-59.63,2.05v-9.2q29.82-.93,59.63-2.12Q2232.88,381.75,2232.89,386.38Z" transform="translate(-1960.04 -289.96)"/><path class="cls-6" d="M2356.19,380.59q-54.26,3-108.56,5.21v-9.3q54.3-2.28,108.56-5.4Z" transform="translate(-1960.04 -289.96)"/><path class="cls-6" d="M1986.08,373.54l-11.55,0v-9.08l11.55-.05Z" transform="translate(-1960.04 -289.96)"/><path class="cls-6" d="M1986.08,391.7l-11.55,0v-9.08l11.55,0Z" transform="translate(-1960.04 -289.96)"/><path class="cls-6" d="M1986.08,409.86l-11.55,0v-9.08l11.55,0Z" transform="translate(-1960.04 -289.96)"/><path class="cls-6" d="M1986.08,428l-11.55,0V419l11.55,0Z" transform="translate(-1960.04 -289.96)"/></svg>