<svg id="_迹_1" data-name="卵迹_1" xmlns="http://www.w3.org/2000/svg" viewBox="0 0 406.56 155.48"><defs><style>.cls-1{fill:#fff;}.cls-2{fill:#cae0ff;}.cls-3{fill:#eaf3ff;}.cls-4{fill:#7f91d7;}.cls-5{fill:#aecaf6;}</style></defs><path class="cls-1" d="M1890.68,544.29V667.14c0,6.72-6.94,12.19-15.5,12.21q-188,.33-375.63,2.25c-8.52.1-15.44-5.62-15.44-12.76V538.63c0-7.14,6.92-12.73,15.44-12.5q187.44,5.05,375.63,5.9C1883.74,532.07,1890.68,537.56,1890.68,544.29Z" transform="translate(-1484.11 -526.13)"/><path class="cls-2" d="M1890.68,544.29v15.05q-203.55-.54-406.57-4.75v-16c0-7.14,6.92-12.73,15.44-12.5q187.44,5.05,375.63,5.9C1883.74,532.07,1890.68,537.56,1890.68,544.29Z" transform="translate(-1484.11 -526.13)"/><path class="cls-3" d="M1511.67,541.05c0,3.06-3,5.47-6.66,5.4s-6.67-2.64-6.67-5.71,3-5.48,6.67-5.39S1511.67,538,1511.67,541.05Z" transform="translate(-1484.11 -526.13)"/><path class="cls-4" d="M1535,541.57c0,3-3,5.44-6.66,5.37s-6.67-2.61-6.67-5.66,3-5.46,6.67-5.37S1535,538.53,1535,541.57Z" transform="translate(-1484.11 -526.13)"/><path class="cls-5" d="M1558.32,542.06c0,3-3,5.42-6.66,5.35s-6.67-2.59-6.67-5.63,3-5.43,6.67-5.35S1558.32,539,1558.32,542.06Z" transform="translate(-1484.11 -526.13)"/><path class="cls-2" d="M1580.85,582.18a189.88,189.88,0,0,1,25.73-1.14c11.75.13,20.12,2,25.74,5.73a18.88,18.88,0,0,1,9,15.84,19.68,19.68,0,0,1-7.75,16.13c-6.5,4.94-16.12,7.15-27.36,7.12a56.87,56.87,0,0,1-6.5-.32v24.53l-18.86,0Zm18.86,31.35a35.5,35.5,0,0,0,6.37.44c10.12,0,16.37-4.09,16.37-11.08,0-6.28-5.37-10.07-14.87-10.15a39.34,39.34,0,0,0-7.87.54Z" transform="translate(-1484.11 -526.13)"/><path class="cls-2" d="M1672.57,582.18v26l31.39.14V582.44l19,.14v67.27l-19,0V621.66l-31.39-.08v28.35l-19.12,0V582Z" transform="translate(-1484.11 -526.13)"/><path class="cls-2" d="M1739.6,583.59a195.42,195.42,0,0,1,25.77-1.24c11.76.07,20.15,1.9,25.78,5.49,5.38,3.39,9,8.95,9,15.48a19.19,19.19,0,0,1-7.76,15.83c-6.51,4.84-16.14,7-27.4,7a60,60,0,0,1-6.51-.3V649.8l-18.89,0Zm18.89,30.53a37.16,37.16,0,0,0,6.38.41c10.14,0,16.39-4,16.39-10.87,0-6.15-5.38-9.84-14.89-9.88a40.59,40.59,0,0,0-7.88.56Z" transform="translate(-1484.11 -526.13)"/></svg>