<svg id="_迹_1" data-name="卵迹_1" xmlns="http://www.w3.org/2000/svg" viewBox="0 0 409.98 213"><defs><style>.cls-1{fill:#fff;}.cls-2{fill:#cae0ff;}.cls-3{fill:#eaf3ff;}.cls-4{fill:#7f91d7;}.cls-5{fill:#aecaf6;}.cls-6{fill:#91beff;}.cls-7{fill:#6197ed;}</style></defs><path class="cls-1" d="M2830.86,928.3v151.44c0,8.31-7,13.74-15.52,12.16q-188.52-34.44-378.79-53.71c-8.65-.88-15.66-7.44-15.66-14.67V891.38c0-7.24,7-12.7,15.66-12.17q190.13,11.6,378.79,32.34C2823.91,912.48,2830.86,920,2830.86,928.3Z" transform="translate(-2420.89 -879.17)"/><path class="cls-2" d="M2830.86,928.3v18.56q-203.94-25.65-410-39.29V891.38c0-7.24,7-12.7,15.66-12.17q190.13,11.6,378.79,32.34C2823.91,912.48,2830.86,920,2830.86,928.3Z" transform="translate(-2420.89 -879.17)"/><path class="cls-3" d="M2448.84,895c0,3.15-3,5.49-6.76,5.24s-6.76-3-6.76-6.12,3-5.49,6.76-5.25S2448.84,891.84,2448.84,895Z" transform="translate(-2420.89 -879.17)"/><path class="cls-4" d="M2472.48,896.59c0,3.17-3,5.52-6.76,5.26s-6.75-3-6.75-6.19,3-5.51,6.75-5.26S2472.48,893.43,2472.48,896.59Z" transform="translate(-2420.89 -879.17)"/><path class="cls-5" d="M2496.11,898.28c0,3.18-3,5.54-6.75,5.27s-6.75-3.07-6.75-6.24,3-5.54,6.75-5.28S2496.11,895.09,2496.11,898.28Z" transform="translate(-2420.89 -879.17)"/><path class="cls-6" d="M2446.83,933.53l-11.51-.87V923l11.51.84Z" transform="translate(-2420.89 -879.17)"/><path class="cls-7" d="M2502.26,938q-21.89-1.86-43.77-3.56V924.7q21.9,1.65,43.77,3.45Z" transform="translate(-2420.89 -879.17)"/><path class="cls-6" d="M2502.26,957.67q-21.89-2-43.77-3.79v-9.73q21.9,1.77,43.77,3.68Z" transform="translate(-2420.89 -879.17)"/><path class="cls-6" d="M2546,1001.66q-21.86-2.4-43.72-4.62V987.2q21.87,2.16,43.72,4.5Z" transform="translate(-2420.89 -879.17)"/><path class="cls-6" d="M2529.71,1019.74q-13.73-1.54-27.45-3v-9.85q13.72,1.44,27.45,2.94Z" transform="translate(-2420.89 -879.17)"/><path class="cls-6" d="M2567.35,1024.12q-13.71-1.63-27.43-3.22V1011q13.73,1.53,27.43,3.14Z" transform="translate(-2420.89 -879.17)"/><path class="cls-6" d="M2605,1028.78q-13.71-1.76-27.41-3.42v-10.07q13.7,1.63,27.41,3.33Z" transform="translate(-2420.89 -879.17)"/><path class="cls-6" d="M2642.55,1033.71q-13.7-1.85-27.39-3.62V1019.9q13.7,1.73,27.39,3.53Z" transform="translate(-2420.89 -879.17)"/><path class="cls-6" d="M2735.73,1047.17q-41.46-6.37-83-12.07v-10.32q41.53,5.55,83,11.75Z" transform="translate(-2420.89 -879.17)"/><path class="cls-6" d="M2790.32,1055.86q-24.74-4.08-49.51-7.91V1037.3q24.78,3.73,49.51,7.7Z" transform="translate(-2420.89 -879.17)"/><path class="cls-6" d="M2640,1012.82q-36.77-4.7-73.6-8.88v-10q36.82,4.08,73.6,8.64Z" transform="translate(-2420.89 -879.17)"/><path class="cls-6" d="M2735.73,1025.9q-36.69-5.36-73.44-10.19v-10.36q36.75,4.71,73.44,9.91Z" transform="translate(-2420.89 -879.17)"/><path class="cls-6" d="M2765.58,1030.33q-10.15-1.53-20.32-3v-10.68q10.15,1.47,20.32,3Z" transform="translate(-2420.89 -879.17)"/><path class="cls-6" d="M2517.26,978.82l-15-1.46v-9.84q7.5.69,15,1.42Z" transform="translate(-2420.89 -879.17)"/><path class="cls-6" d="M2569.58,984.23q-19.6-2.13-39.23-4.1V970.2q19.62,1.93,39.23,4Z" transform="translate(-2420.89 -879.17)"/><path class="cls-6" d="M2620.9,990q-19.59-2.29-39.2-4.45V975.47q19.61,2.09,39.2,4.32Z" transform="translate(-2420.89 -879.17)"/><path class="cls-6" d="M2692.19,998.8q-29.58-3.84-59.19-7.37V981.18q29.61,3.44,59.19,7.16Z" transform="translate(-2420.89 -879.17)"/><path class="cls-6" d="M2814.42,1016q-53.72-8.16-107.61-15.31V990.2q53.88,6.93,107.61,14.86Z" transform="translate(-2420.89 -879.17)"/><path class="cls-6" d="M2446.83,952.92l-11.51-.93v-9.66l11.51.89Z" transform="translate(-2420.89 -879.17)"/><path class="cls-6" d="M2446.83,972.31l-11.51-1v-9.67l11.51,1Z" transform="translate(-2420.89 -879.17)"/><path class="cls-6" d="M2446.83,991.7l-11.51-1V981l11.51,1Z" transform="translate(-2420.89 -879.17)"/><path class="cls-6" d="M2446.83,1011.09l-11.51-1.09v-9.67l11.51,1.06Z" transform="translate(-2420.89 -879.17)"/></svg>