<svg id="_迹_1" data-name="卵迹_1" xmlns="http://www.w3.org/2000/svg" viewBox="0 0 386.3 161.6"><defs><style>.cls-1{fill:#fff;}.cls-2{fill:#cae0ff;}.cls-3{fill:#eaf3ff;}.cls-4{fill:#7f91d7;}.cls-5{fill:#aecaf6;}</style></defs><path class="cls-1" d="M1653.66,466.69V586.52c0,6.57-6.61,11.85-14.74,11.79Q1460,597.1,1282,594.46c-8.09-.11-14.66-6.09-14.66-13.34V448.87c0-7.25,6.57-12.67,14.66-12.12q177.87,12,356.91,17.6C1647.05,454.61,1653.66,460.13,1653.66,466.69Z" transform="translate(-1267.35 -436.71)"/><path class="cls-2" d="M1653.66,466.69v14.69q-193.68-5-386.31-16.3V448.87c0-7.25,6.57-12.67,14.66-12.12q177.87,12,356.91,17.6C1647.05,454.61,1653.66,460.13,1653.66,466.69Z" transform="translate(-1267.35 -436.71)"/><path class="cls-3" d="M1293.5,452.31c0,3.1-2.83,5.44-6.32,5.23s-6.32-2.9-6.32-6,2.83-5.46,6.32-5.23S1293.5,449.21,1293.5,452.31Z" transform="translate(-1267.35 -436.71)"/><path class="cls-4" d="M1315.64,453.65c0,3.07-2.83,5.41-6.33,5.2s-6.32-2.87-6.32-6,2.83-5.42,6.32-5.2S1315.64,450.57,1315.64,453.65Z" transform="translate(-1267.35 -436.71)"/><path class="cls-5" d="M1337.79,454.94c0,3.05-2.84,5.37-6.33,5.18s-6.33-2.84-6.33-5.91,2.83-5.39,6.33-5.18S1337.79,451.88,1337.79,454.94Z" transform="translate(-1267.35 -436.71)"/><path class="cls-2" d="M1410.72,559.6c-3.35,1.36-10.91,2.73-20.74,2.52-27.93-.58-42.3-16.07-42.3-36.14,0-24.05,19.64-36.48,44.1-35.4,9.47.41,16.67,2.34,19.9,3.91q-1.86,6.12-3.71,12.25a46.52,46.52,0,0,0-15.35-3.15c-14.51-.58-25.77,6.53-25.77,22.11,0,14,9.58,23.1,25.89,23.51a52.46,52.46,0,0,0,15.23-1.87Q1409.35,553.47,1410.72,559.6Z" transform="translate(-1267.35 -436.71)"/><path class="cls-2" d="M1456.43,508.66v22.06l25.09.68v9.45l-25.09-.62v22.26l-11.76-.24V539.92q-12.54-.31-25.07-.67v-9.6l25.07.73V508.26Z" transform="translate(-1267.35 -436.71)"/><path class="cls-2" d="M1528,510.9v21.67l25.11.59v9.29l-25.11-.53V563.8l-11.77-.2V541.66l-25.11-.58v-9.43l25.11.64V510.55Z" transform="translate(-1267.35 -436.71)"/></svg>