<svg id="_迹_1" data-name="卵迹_1" xmlns="http://www.w3.org/2000/svg" viewBox="0 0 420.03 202.04"><defs><style>.cls-1{fill:#fff;}.cls-2{fill:#cae0ff;}.cls-3{fill:#eaf3ff;}.cls-4{fill:#7f91d7;}.cls-5{fill:#aecaf6;}</style></defs><path class="cls-1" d="M2975,725.06V886.94a14,14,0,0,1-15.9,14.24q-193-21.87-388.07-34.84c-8.87-.6-16.06-7.23-16.06-14.82V712.74c0-7.6,7.19-13.64,16.06-13.49q194.91,3.45,388.07,9.27A16.56,16.56,0,0,1,2975,725.06Z" transform="translate(-2554.97 -699.24)"/><path class="cls-2" d="M2975,725.06V744.9q-208.78-9.67-420-15.15v-17c0-7.6,7.19-13.64,16.06-13.49q194.91,3.45,388.07,9.27A16.56,16.56,0,0,1,2975,725.06Z" transform="translate(-2554.97 -699.24)"/><path class="cls-3" d="M2583.62,715.26c0,3.31-3.1,5.92-6.92,5.82s-6.93-2.84-6.93-6.13,3.1-5.9,6.93-5.82S2583.62,712,2583.62,715.26Z" transform="translate(-2554.97 -699.24)"/><path class="cls-4" d="M2607.86,715.83c0,3.33-3.1,5.95-6.93,5.85s-6.92-2.86-6.92-6.18,3.1-5.94,6.92-5.86S2607.86,712.49,2607.86,715.83Z" transform="translate(-2554.97 -699.24)"/><path class="cls-5" d="M2632.08,716.41c0,3.36-3.1,6-6.92,5.9s-6.92-2.89-6.92-6.23,3.1-6,6.92-5.9S2632.08,713.06,2632.08,716.41Z" transform="translate(-2554.97 -699.24)"/><path class="cls-2" d="M2590.56,772.07l10.69.43v26c0,11.75-6.47,15.49-16.87,14.94a33.18,33.18,0,0,1-7.81-1.37l1.2-7.41a20.72,20.72,0,0,0,5.48,1c4.5.22,7.31-1.4,7.31-7.8Z" transform="translate(-2554.97 -699.24)"/><path class="cls-2" d="M2621.21,804.15q-1.68,5.24-3.37,10.46l-11.1-.6q7.23-20.25,14.47-40.68l14.06.6q7.33,21.14,14.68,42.49l-11.52-.66q-1.83-5.46-3.65-10.9Zm12-6.41c-1-3-2-6-2.95-9-.84-2.51-1.69-5.63-2.39-8.13h-.14c-.7,2.44-1.41,5.55-2.18,7.92-.94,2.89-1.87,5.78-2.81,8.67Z" transform="translate(-2554.97 -699.24)"/><path class="cls-2" d="M2663.29,817.2q-7.58-21.47-15.17-42.71l11.73.52q2.88,9,5.76,18a156.27,156.27,0,0,1,4.21,15.28h.21c1.19-5,2.67-9.92,4.28-14.66q3-8.85,6-17.74l11.37.53q-8,20.84-15.93,41.46Z" transform="translate(-2554.97 -699.24)"/><path class="cls-2" d="M2704,808.74q-1.68,5.37-3.37,10.73l-11.09-.69q7.23-20.76,14.46-41.72l14,.68q7.33,21.78,14.66,43.78l-11.5-.75q-1.83-5.62-3.65-11.22Zm12-6.53-2.94-9.23c-.85-2.59-1.69-5.8-2.39-8.37h-.14c-.7,2.5-1.4,5.69-2.17,8.12-.94,3-1.87,5.94-2.81,8.9Z" transform="translate(-2554.97 -699.24)"/><path class="cls-2" d="M2739.34,811.9a31,31,0,0,0,11.84,3.45c4.9.31,7.5-1.39,7.5-4.23s-2.24-4.39-7.92-6.6c-7.85-3-13-7.24-13-13.51,0-7.35,6.72-12.65,17.86-12.08a31.85,31.85,0,0,1,12.05,2.82c-.79,2.61-1.59,5.22-2.38,7.82a24.93,24.93,0,0,0-9.88-2.6c-4.62-.25-6.86,1.55-6.86,3.8,0,2.76,2.66,4.13,8.76,6.61,8.33,3.32,12.25,7.58,12.25,13.73,0,7.32-6.09,13.11-19,12.23a35.17,35.17,0,0,1-13.39-3.51C2737.89,817.19,2738.61,814.55,2739.34,811.9Z" transform="translate(-2554.97 -699.24)"/><path class="cls-2" d="M2811.46,825.7c-2,.78-6.36,1.45-12.1,1-16.31-1.18-24.71-11.16-24.71-23.6,0-14.89,11.48-22.6,25.76-21.84A30.37,30.37,0,0,1,2812,783.9q-1.08,3.93-2.17,7.84a25,25,0,0,0-8.95-2.17c-8.47-.48-15.05,3.91-15.05,13.67,0,8.78,5.6,14.7,15.12,15.36a27.27,27.27,0,0,0,8.88-.84C2810.39,820.41,2810.92,823.05,2811.46,825.7Z" transform="translate(-2554.97 -699.24)"/><path class="cls-2" d="M2818.46,783.61a97.4,97.4,0,0,1,14.19-.13c7,.4,11.89,1.68,15.24,4.41a12,12,0,0,1,4.33,9.69,11,11,0,0,1-8.31,10.53v.2c3.28,1.48,5.1,4.61,6.29,8.84,1.46,5.18,2.93,11.17,3.84,13l-10.9-.83c-.77-1.33-1.89-5.07-3.29-10.69s-3.28-7.34-7.62-7.7l-3.21-.22v17.55l-10.56-.78Zm10.56,19.8,4.19.27c5.31.35,8.46-2,8.46-5.9,0-4.13-2.93-6.37-7.83-6.73a26.94,26.94,0,0,0-4.82,0Z" transform="translate(-2554.97 -699.24)"/><path class="cls-2" d="M2870.6,786v45.38l-10.69-.83V785.4Z" transform="translate(-2554.97 -699.24)"/><path class="cls-2" d="M2879.81,787.19a88.84,88.84,0,0,1,14.38-.07c6.56.4,11.24,1.92,14.38,4.58a14.35,14.35,0,0,1,5,11c0,4.52-1.53,8.25-4.32,10.65-3.63,3.09-9,4.18-15.28,3.72a27,27,0,0,1-3.63-.47V833l-10.55-.84Zm10.55,21.41a16.33,16.33,0,0,0,3.56.52c5.65.4,9.14-2.14,9.14-6.86,0-4.23-3-7-8.31-7.29a17.85,17.85,0,0,0-4.39.13Z" transform="translate(-2554.97 -699.24)"/><path class="cls-2" d="M2929.42,798.5l-12.62-.85v-8.79q18.06,1.14,36.11,2.33v8.91l-12.82-.88v37.84l-10.67-.9Z" transform="translate(-2554.97 -699.24)"/></svg>