<svg version="1.1" xmlns="http://www.w3.org/2000/svg" xmlns:xlink="http://www.w3.org/1999/xlink" preserveAspectRatio="xMidYMid meet" viewBox="0 0 640 640"><defs><path d="M640 413.79C639.73 427.55 629.44 439.05 615.79 440.83C321.81 473.43 83.61 486.24 24.48 491.28C10.97 492.08 0 483.45 0 472.05C0 451.22 0 284.58 0 263.74C0 252.34 10.97 241.94 24.48 240.45C321.51 208.16 556.66 158.3 615.79 149.18C629.17 146.48 640 155.14 640 168.61C640 217.64 640 389.27 640 413.79Z" id="beD5W4kTq"></path><path d="M640 198.64C428 238.41 214.66 268.62 0 289.26C0 273.95 0 265.45 0 263.74C0 252.34 10.97 241.94 24.48 240.45C321.51 208.16 556.66 158.3 615.79 149.18C629.17 146.48 640 155.14 640 168.61C640 174.61 640 195.64 640 198.64Z" id="baJ2vNYZg"></path><path d="M33.11 272.13C27.29 272.73 22.56 269.21 22.56 264.27C22.56 259.34 27.29 254.82 33.11 254.19C38.94 253.56 43.67 257.07 43.67 262.05C43.67 267.01 38.94 271.53 33.11 272.13Z" id="b5pE36MRR"></path><path d="M70.05 268.18C64.22 268.82 59.51 265.29 59.51 260.3C59.51 255.3 64.22 250.76 70.05 250.1C75.88 249.45 80.61 252.98 80.61 257.96C80.61 262.97 75.88 267.54 70.05 268.18Z" id="a1YGmrP8t0"></path><path d="M106.97 264.13C101.15 264.75 96.43 261.26 96.43 256.24C96.43 251.21 101.15 246.6 106.97 245.92C112.8 245.23 117.52 248.7 117.52 253.79C117.52 258.84 112.8 263.52 106.97 264.13Z" id="b15kg5YRWV"></path><path d="M119.02 338.46C126.29 336.83 133.67 335.69 141.09 335.06C151.16 334.08 158.34 335.06 163.15 337.84C168.02 340.68 170.97 345.94 170.86 351.58C170.96 357.45 168.54 363.08 164.22 367.06C158.66 372.12 150.41 374.9 140.77 375.76C138.93 375.94 137.07 376.01 135.21 375.97C135.21 377.46 135.21 384.87 135.21 398.22L119.04 399.55C119.03 366.97 119.03 346.61 119.02 338.46ZM135.2 365.13C137.02 365.25 138.85 365.21 140.66 365C149.34 364.21 154.7 359.91 154.7 353.51C154.7 347.77 150.09 344.79 141.96 345.57C139.67 345.74 137.4 346.14 135.2 346.77C135.2 350.44 135.2 361.45 135.2 365.13Z" id="b3O07vNl8z"></path><path d="M195.81 393.01C195.81 377.53 195.81 368.93 195.81 367.21C188.2 355.55 180.6 343.93 173.01 332.36L191.63 330.45C196.06 339.08 198.53 343.88 199.02 344.83C201.26 349.2 202.76 352.41 204.58 356.35C204.6 356.35 204.77 356.35 204.79 356.35C206.39 352.26 208.11 348.42 210.24 343.71C212.68 338.4 215.11 333.07 217.53 327.74C228.5 326.57 234.6 325.91 235.82 325.78C227.91 339.03 219.99 352.14 212.06 365.13L212.06 391.55L195.81 393.01Z" id="bOPvZXMTq"></path><path d="M257.53 335.5L238.17 337.59C238.17 330.34 238.17 326.31 238.17 325.5C256.64 323.49 275.1 321.41 293.55 319.27L293.55 331.51L273.88 333.71L273.88 385.67L257.53 387.25L257.53 335.5Z" id="bGHzDrNKJ"></path><path d="M318.61 316.32C318.61 331.28 318.61 339.58 318.61 341.25C327.55 340.24 336.49 339.21 345.41 338.17C345.41 323.15 345.41 314.81 345.41 313.14C350.82 312.49 356.23 311.82 361.64 311.14L361.64 376.68L345.41 378.42C345.41 362 345.41 352.88 345.41 351.05C336.43 352.09 327.5 353.07 318.61 354L318.61 381.13L302.27 382.8L302.27 318.26L318.61 316.32Z" id="b1kF2xICo"></path><path d="M406.26 372.79C384.94 375.15 372.46 361.77 372.46 343.07C372.46 323.4 386.22 306.91 407.45 304.13C429.52 301.23 441.56 315.06 441.56 333.5C441.56 355.47 427.28 370.45 406.26 372.79ZM407.13 360.79C418 359.53 424.4 349.09 424.4 336.13C424.4 324.15 418.21 314.68 407.02 316.12C395.82 317.55 389.63 327.92 389.63 340.75C389.63 353.67 396.25 362.04 407.13 360.79Z" id="ceBgPbHMq"></path><path d="M451.31 367.12L451.31 298.24C462.67 296.57 468.98 295.64 470.24 295.45C477.7 307.02 483.63 316.37 485.12 318.69C489.58 325.8 493.49 333.24 496.82 340.94C496.85 340.94 497.11 340.94 497.14 340.94C496.11 331.35 495.64 321.7 495.75 312.05C495.75 310.68 495.75 303.85 495.75 291.56L510.63 289.26L510.63 359.36C500.43 360.68 494.77 361.41 493.63 361.56C485.97 349.12 479.86 339.26 478.34 336.79C473.74 329.47 469.59 321.89 465.9 314.08C465.87 314.09 465.61 314.21 465.58 314.23C466 323.3 466.22 333.02 466.22 344.31C466.22 345.7 466.22 352.65 466.22 365.17L451.31 367.12Z" id="a1kydQjVYA"></path></defs><g><g><g><use xlink:href="#beD5W4kTq" opacity="1" fill="#ffffff" fill-opacity="1"></use><g><use xlink:href="#beD5W4kTq" opacity="1" fill-opacity="0" stroke="#000000" stroke-width="1" stroke-opacity="0"></use></g></g><g><use xlink:href="#baJ2vNYZg" opacity="1" fill="#cae0ff" fill-opacity="1"></use><g><use xlink:href="#baJ2vNYZg" opacity="1" fill-opacity="0" stroke="#000000" stroke-width="1" stroke-opacity="0"></use></g></g><g><use xlink:href="#b5pE36MRR" opacity="1" fill="#eaf3ff" fill-opacity="1"></use><g><use xlink:href="#b5pE36MRR" opacity="1" fill-opacity="0" stroke="#000000" stroke-width="1" stroke-opacity="0"></use></g></g><g><use xlink:href="#a1YGmrP8t0" opacity="1" fill="#7f91d7" fill-opacity="1"></use><g><use xlink:href="#a1YGmrP8t0" opacity="1" fill-opacity="0" stroke="#000000" stroke-width="1" stroke-opacity="0"></use></g></g><g><use xlink:href="#b15kg5YRWV" opacity="1" fill="#aecaf6" fill-opacity="1"></use><g><use xlink:href="#b15kg5YRWV" opacity="1" fill-opacity="0" stroke="#000000" stroke-width="1" stroke-opacity="0"></use></g></g><g><use xlink:href="#b3O07vNl8z" opacity="1" fill="#cae0ff" fill-opacity="1"></use><g><use xlink:href="#b3O07vNl8z" opacity="1" fill-opacity="0" stroke="#000000" stroke-width="1" stroke-opacity="0"></use></g></g><g><use xlink:href="#bOPvZXMTq" opacity="1" fill="#cae0ff" fill-opacity="1"></use><g><use xlink:href="#bOPvZXMTq" opacity="1" fill-opacity="0" stroke="#000000" stroke-width="1" stroke-opacity="0"></use></g></g><g><use xlink:href="#bGHzDrNKJ" opacity="1" fill="#cae0ff" fill-opacity="1"></use><g><use xlink:href="#bGHzDrNKJ" opacity="1" fill-opacity="0" stroke="#000000" stroke-width="1" stroke-opacity="0"></use></g></g><g><use xlink:href="#b1kF2xICo" opacity="1" fill="#cae0ff" fill-opacity="1"></use><g><use xlink:href="#b1kF2xICo" opacity="1" fill-opacity="0" stroke="#000000" stroke-width="1" stroke-opacity="0"></use></g></g><g><use xlink:href="#ceBgPbHMq" opacity="1" fill="#cae0ff" fill-opacity="1"></use><g><use xlink:href="#ceBgPbHMq" opacity="1" fill-opacity="0" stroke="#000000" stroke-width="1" stroke-opacity="0"></use></g></g><g><use xlink:href="#a1kydQjVYA" opacity="1" fill="#cae0ff" fill-opacity="1"></use><g><use xlink:href="#a1kydQjVYA" opacity="1" fill-opacity="0" stroke="#000000" stroke-width="1" stroke-opacity="0"></use></g></g></g></g></svg>