<svg id="_迹_1" data-name="卵迹_1" xmlns="http://www.w3.org/2000/svg" viewBox="0 0 460.19 246.38"><defs><style>.cls-1{fill:#fff;}.cls-2{fill:#cae0ff;}.cls-3{fill:#eaf3ff;}.cls-4{fill:#7f91d7;}.cls-5{fill:#aecaf6;}</style></defs><path class="cls-1" d="M2914.12,183.75v176.3a20,20,0,0,1-17.41,19.44q-211.38,23.44-425.18,36.28c-9.71.57-17.6-5.63-17.6-13.83V252.16c0-8.2,7.89-15.68,17.6-16.75q213.58-23.22,425.18-65.63C2906.33,167.84,2914.12,174.07,2914.12,183.75Z" transform="translate(-2453.93 -169.42)"/><path class="cls-2" d="M2914.12,183.75v21.6q-228.66,42.89-460.19,65.16V252.16c0-8.2,7.89-15.68,17.6-16.75q213.58-23.22,425.18-65.63C2906.33,167.84,2914.12,174.07,2914.12,183.75Z" transform="translate(-2453.93 -169.42)"/><path class="cls-3" d="M2485.33,250.94c0,3.57-3.4,6.82-7.59,7.25s-7.59-2.1-7.59-5.65,3.4-6.8,7.59-7.25S2485.33,247.36,2485.33,250.94Z" transform="translate(-2453.93 -169.42)"/><path class="cls-4" d="M2511.89,248c0,3.6-3.4,6.89-7.59,7.35s-7.58-2.08-7.58-5.67,3.39-6.86,7.58-7.33S2511.89,244.42,2511.89,248Z" transform="translate(-2453.93 -169.42)"/><path class="cls-5" d="M2538.43,245c0,3.63-3.39,7-7.58,7.44s-7.58-2.07-7.58-5.68,3.39-6.93,7.58-7.42S2538.43,241.34,2538.43,245Z" transform="translate(-2453.93 -169.42)"/><path class="cls-2" d="M2509.49,309.83a118.6,118.6,0,0,1,15.87-2.45c7.24-.7,12.4,0,15.86,2a11.19,11.19,0,0,1,5.54,9.88,14.78,14.78,0,0,1-4.77,11.13c-4,3.64-9.93,5.64-16.86,6.26a34.92,34.92,0,0,1-4,.15v16l-11.63.95ZM2521.12,329a21.65,21.65,0,0,0,3.93-.09c6.24-.57,10.09-3.66,10.09-8.26,0-4.13-3.31-6.27-9.16-5.71a24.29,24.29,0,0,0-4.86.86Z" transform="translate(-2453.93 -169.42)"/><path class="cls-2" d="M2564.7,349.05V330.5q-8.2-12.58-16.39-25.06l13.39-1.37,5.31,10.34c1.61,3.14,2.69,5.45,4,8.28h.15c1.15-2.94,2.39-5.7,3.92-9.09q2.63-5.73,5.24-11.48l13.15-1.41Q2584.94,315,2576.39,329V348Z" transform="translate(-2453.93 -169.42)"/><path class="cls-2" d="M2609.08,307.7l-13.92,1.5v-8.69q19.92-2.17,39.82-4.48v8.8l-14.14,1.58v37.36l-11.76,1.14Z" transform="translate(-2453.93 -169.42)"/><path class="cls-2" d="M2653,293.91v17.92q9.65-1.09,19.27-2.21v-18q5.84-.7,11.67-1.44v47.13l-11.67,1.25V318.88Q2662.59,320,2653,321v19.51l-11.75,1.2V295.3Z" transform="translate(-2453.93 -169.42)"/><path class="cls-2" d="M2741.41,306.26c0,15.8-10.27,26.57-25.38,28.25-15.33,1.7-24.31-7.92-24.31-21.37,0-14.14,9.9-26,25.16-28C2732.75,283.06,2741.41,293,2741.41,306.26Zm-37.34,5.21c0,9.29,4.76,15.31,12.58,14.41s12.42-8.41,12.42-17.73c0-8.61-4.45-15.42-12.5-14.39S2704.07,302.25,2704.07,311.47Z" transform="translate(-2453.93 -169.42)"/><path class="cls-2" d="M2792.72,305.85c-.23-5.87-.46-13-.46-20.11l-.23,0c-1.61,6.49-3.75,13.76-5.74,19.76q-3.14,10-6.28,19.89l-9.11,1.11q-2.76-9.09-5.51-18.15c-1.69-5.48-3.45-12.16-4.67-18.33l-.16,0c-.3,6.59-.53,14.1-.92,20.19s-.61,12.36-.92,18.53l-10.8,1.27q1.65-24.31,3.3-48.71,7.77-1.05,15.55-2.14l5.05,15.56c1.61,5.42,3.21,11.29,4.36,16.86l.23,0c1.46-5.83,3.22-12.51,4.9-18.18q2.76-8.51,5.51-17l15.23-2.2q1.41,24.45,2.83,48.94l-11.4,1.43Q2793.11,315.2,2792.72,305.85Z" transform="translate(-2453.93 -169.42)"/><path class="cls-2" d="M2813.83,322V272.47l13.61-2q5.36,8.32,10.7,16.71a118,118,0,0,1,8.41,16l.23,0a176.49,176.49,0,0,1-1-20.78V267.67l10.7-1.65v50.4L2844.26,318q-5.51-8.94-11-17.81a155.71,155.71,0,0,1-8.94-16.33l-.23.11c.3,6.52.46,13.51.46,21.63v15Z" transform="translate(-2453.93 -169.42)"/></svg>