<svg id="_迹_1" data-name="卵迹_1" xmlns="http://www.w3.org/2000/svg" viewBox="0 0 1820 976.74"><defs><style>.cls-1{fill:#2948bd;}.cls-2{fill:#fff;}.cls-3{fill:#91beff;}.cls-4{fill:#df4640;}.cls-5{fill:#6197ed;}</style></defs><path class="cls-1" d="M2870.76,1170.85a4470.18,4470.18,0,0,0-1762.52,0c-13.94,2.83-25.24-6.24-25.24-20.35v-928c0-14.11,11.3-23.18,25.24-20.35a4470.18,4470.18,0,0,0,1762.52,0c13.94-2.83,25.24,6.24,25.24,20.35v928C2896,1164.61,2884.7,1173.68,2870.76,1170.85Z" transform="translate(-1079.5 -198.13)"/><path class="cls-2" d="M1103.17,1174.87a23.5,23.5,0,0,1-15.1-5.22c-5.53-4.52-8.57-11.32-8.57-19.15v-928c0-7.83,3-14.63,8.57-19.15s13-6.22,20.87-4.63c292.11,58.74,586.39,88.12,880.56,88.12s588.38-29.36,880.57-88.12c7.85-1.59,15.26.05,20.86,4.63s8.57,11.32,8.57,19.15v928c0,7.83-3,14.63-8.57,19.15s-13,6.22-20.87,4.63h0c-584.29-117.49-1176.83-117.5-1761.13,0A28.66,28.66,0,0,1,1103.17,1174.87Zm886.33-95.25a4483.35,4483.35,0,0,1,881.95,87.8h0c5.77,1.17,11.11,0,15.05-3.19s6-8,6-13.73v-928c0-5.69-2.13-10.57-6-13.73s-9.29-4.36-15.05-3.19a4483.35,4483.35,0,0,1-881.95,87.8,4483.35,4483.35,0,0,1-881.95-87.8c-5.76-1.17-11.11,0-15,3.19s-6,8-6,13.73v928c0,5.69,2.13,10.57,6,13.73s9.29,4.35,15,3.19A4483.35,4483.35,0,0,1,1989.5,1079.62Z" transform="translate(-1079.5 -198.13)"/><path class="cls-3" d="M1175.67,286.42q-17.88-2.81-35.72-5.74V245.52q17.85,3.19,35.72,6.24Z" transform="translate(-1079.5 -198.13)"/><path class="cls-4" d="M1348.31,310.6Q1280,302.2,1211.91,292V257.81Q1280,268.9,1348.31,278Z" transform="translate(-1079.5 -198.13)"/><path class="cls-5" d="M1348.31,375.74q-68.31-6.94-136.4-15.39V326.17q68.07,9.33,136.4,17Z" transform="translate(-1079.5 -198.13)"/><path class="cls-4" d="M1348.31,636.29q-68.31-1.12-136.4-2.49V599.62q68.07,2.25,136.4,4.1Z" transform="translate(-1079.5 -198.13)"/><path class="cls-5" d="M1348.31,701.43q-68.31.33-136.4.74V668q68.07.46,136.4.87Z" transform="translate(-1079.5 -198.13)"/><path class="cls-4" d="M1348.31,1027.12q-68.31,7.61-136.4,16.86V1009.8q68.07-8.37,136.4-15.25Z" transform="translate(-1079.5 -198.13)"/><path class="cls-5" d="M1348.31,1092.25q-68.31,9.07-136.4,20.09v-34.18q68.07-10.12,136.4-18.48Z" transform="translate(-1079.5 -198.13)"/><path class="cls-5" d="M1481.17,763.45q-135,2.79-269.26,7.08V736.35q134.16-2.55,269.26-4.2Z" transform="translate(-1079.5 -198.13)"/><path class="cls-3" d="M1497.18,825.46q-80.06,2.91-159.84,6.77V799.54q79.77-3,159.84-5.25Z" transform="translate(-1079.5 -198.13)"/><path class="cls-3" d="M1716.7,819.28q-80.31,1.61-160.45,4.17V792.73q80.13-2,160.45-3.23Z" transform="translate(-1079.5 -198.13)"/><path class="cls-3" d="M1936.73,816.65q-80.43.32-160.78,1.57V788.68q80.34-1,160.78-1.22Z" transform="translate(-1079.5 -198.13)"/><path class="cls-3" d="M2156.84,817.57q-80.37-1-160.81-1V787.38q80.43,0,160.81.79Z" transform="translate(-1079.5 -198.13)"/><path class="cls-3" d="M2376.66,822.05q-80.19-2.28-160.55-3.62V788.84q80.34,1,160.55,2.81Z" transform="translate(-1079.5 -198.13)"/><path class="cls-3" d="M2781,839.7q-171.82-10.12-345.22-15.83V793.06Q2609,797.47,2781,805.34Z" transform="translate(-1079.5 -198.13)"/><path class="cls-3" d="M1485.17,513.22q-68.52-3.17-136.86-7.21V473.45q68.32,4.76,136.86,8.5Z" transform="translate(-1079.5 -198.13)"/><path class="cls-3" d="M1434.18,574.17q-43-1.39-85.87-3V538.58q42.9,2.08,85.87,3.88Z" transform="translate(-1079.5 -198.13)"/><path class="cls-3" d="M1552.24,577.61q-43.07-1.11-86.07-2.42V543.76q43,1.68,86.07,3.1Z" transform="translate(-1079.5 -198.13)"/><path class="cls-3" d="M1670.54,580.22q-43.14-.79-86.24-1.82V547.88q43.1,1.3,86.24,2.34Z" transform="translate(-1079.5 -198.13)"/><path class="cls-3" d="M1789,582q-43.18-.51-86.35-1.23V551q43.15.91,86.35,1.57Z" transform="translate(-1079.5 -198.13)"/><path class="cls-3" d="M2083.49,582.93q-131.17.72-262.34-.56V553q131.11,1.65,262.34.73Z" transform="translate(-1079.5 -198.13)"/><path class="cls-3" d="M2256.27,581.12q-78.3,1.21-156.7,1.72V553.57q78.39-.65,156.7-2.21Z" transform="translate(-1079.5 -198.13)"/><path class="cls-3" d="M1781,522.87q-116-2.21-231.73-6.87V485.23q115.68,5.5,231.73,8.11Z" transform="translate(-1079.5 -198.13)"/><path class="cls-3" d="M2083.49,524.45q-116.1,1-232.2-.47V494.66q116.07,1.72,232.2.55Z" transform="translate(-1079.5 -198.13)"/><path class="cls-3" d="M2177.94,523.23q-32.14.56-64.3.92v-29.3q32.16-.42,64.3-1.08Z" transform="translate(-1079.5 -198.13)"/><path class="cls-3" d="M1474.17,889q-68.52,3.78-136.83,8.56V864.92q68.31-4,136.83-7.24Z" transform="translate(-1079.5 -198.13)"/><path class="cls-3" d="M1423.19,955.63q-43,3.4-85.85,7.35V930.29q42.89-3.46,85.85-6.48Z" transform="translate(-1079.5 -198.13)"/><path class="cls-3" d="M1541.23,947.24q-43.07,2.7-86.06,5.92V921.63q43-2.83,86.06-5.22Z" transform="translate(-1079.5 -198.13)"/><path class="cls-3" d="M1659.5,940.81q-43.14,2-86.22,4.49V914.71q43.08-2.22,86.22-4Z" transform="translate(-1079.5 -198.13)"/><path class="cls-3" d="M1778,936.34q-43.18,1.27-86.34,3.07v-29.9q43.16-1.59,86.34-2.71Z" transform="translate(-1079.5 -198.13)"/><path class="cls-3" d="M1971.91,933.25q-80.92.19-161.81,2.21V906q80.88-1.78,161.81-2Z" transform="translate(-1079.5 -198.13)"/><path class="cls-3" d="M2161.87,935.29q-78.37-1.87-156.79-2V904.07q78.4.15,156.79,1.81Z" transform="translate(-1079.5 -198.13)"/><path class="cls-3" d="M1769.92,877.45q-116,2.7-231.7,8.28V854.88q115.66-4.71,231.7-7Z" transform="translate(-1079.5 -198.13)"/><path class="cls-3" d="M1971.91,874.9q-65.85.12-131.67,1.17V846.72q65.82-.88,131.67-1Z" transform="translate(-1079.5 -198.13)"/><path class="cls-3" d="M2166.89,876.56q-32.14-.62-64.31-1V846.29q32.16.33,64.31.84Z" transform="translate(-1079.5 -198.13)"/><path class="cls-3" d="M1395.22,444.51q-23.46-1.75-46.91-3.63V408.31q23.45,2.13,46.91,4.11Z" transform="translate(-1079.5 -198.13)"/><path class="cls-3" d="M1559.25,455q-61.61-3.3-123.07-7.55v-31.7q61.46,4.81,123.07,8.56Z" transform="translate(-1079.5 -198.13)"/><path class="cls-3" d="M1720.72,462Q1659,460,1597.33,457V426.52q61.65,3.41,123.39,5.74Z" transform="translate(-1079.5 -198.13)"/><path class="cls-3" d="M1945.77,466.4q-93.48-.51-186.9-3.19v-29.6q93.41,3,186.9,3.6Z" transform="translate(-1079.5 -198.13)"/><path class="cls-3" d="M2332.54,459.2q-170,7.26-340.53,7.31V437.35q170.4-.08,340.53-8.28Z" transform="translate(-1079.5 -198.13)"/><path class="cls-3" d="M1175.67,355.75q-17.88-2.33-35.72-4.74V315.85q17.85,2.67,35.72,5.24Z" transform="translate(-1079.5 -198.13)"/><path class="cls-3" d="M1175.67,425.08q-17.88-1.83-35.72-3.75V386.17q17.85,2.16,35.72,4.25Z" transform="translate(-1079.5 -198.13)"/><path class="cls-3" d="M1175.67,494.41q-17.88-1.35-35.72-2.76V456.49q17.85,1.67,35.72,3.25Z" transform="translate(-1079.5 -198.13)"/><path class="cls-3" d="M1175.67,563.73q-17.88-.86-35.72-1.76V526.81q17.85,1.16,35.72,2.26Z" transform="translate(-1079.5 -198.13)"/><path class="cls-3" d="M1175.67,633.06l-35.72-.77V597.13l35.72,1.27Z" transform="translate(-1079.5 -198.13)"/><path class="cls-3" d="M1175.67,702.39l-35.72.23V667.45q17.85.15,35.72.27Z" transform="translate(-1079.5 -198.13)"/><path class="cls-3" d="M1175.67,771.71q-17.88.6-35.72,1.23V737.78l35.72-.73Z" transform="translate(-1079.5 -198.13)"/><path class="cls-3" d="M1175.67,841q-17.88,1.1-35.72,2.22V808.1q17.85-.89,35.72-1.72Z" transform="translate(-1079.5 -198.13)"/><path class="cls-3" d="M1175.67,910.37q-17.88,1.57-35.72,3.21V878.42q17.85-1.38,35.72-2.71Z" transform="translate(-1079.5 -198.13)"/><path class="cls-3" d="M1175.67,979.7q-17.88,2.06-35.72,4.2V948.74q17.85-1.89,35.72-3.71Z" transform="translate(-1079.5 -198.13)"/><path class="cls-3" d="M1175.67,1049q-17.88,2.55-35.72,5.2v-35.16q17.85-2.4,35.72-4.7Z" transform="translate(-1079.5 -198.13)"/><path class="cls-3" d="M1175.67,1118.35q-17.88,3-35.72,6.2v-35.16q17.85-2.91,35.72-5.7Z" transform="translate(-1079.5 -198.13)"/></svg>