<svg xmlns="http://www.w3.org/2000/svg" xmlns:xlink="http://www.w3.org/1999/xlink" viewBox="0 0 930.91 500"><defs><style>.a{fill:#142945;}.b{fill:none;}.c{clip-path:url(#a);}.d{fill:#0e1e33;}.e{fill:#091624;}.f{fill:#356394;}.g{fill:#184c80;}.h{fill:#fff;}.i{fill:#a8cfe3;}.j{fill:#366991;}.k{fill:#295478;}.l{fill:#245680;}.m{fill:#264469;}.n{fill:#4d7cab;}.o{fill:#193c66;}.p{fill:#547699;}.q{fill:#1b3c66;}.r{fill:#6b92b2;}.s{fill:#f7f8fa;}.t{fill:#517b9c;}.u{clip-path:url(#b);}.v{fill:#fcfdff;}.w{fill:#f0f1f3;}.x{fill:#122947;}</style><clipPath id="a"><rect class="a" x="0.27" y="0.21" width="930.91" height="500"/></clipPath><clipPath id="b"><rect class="b" x="0.27" y="0.21" width="930.91" height="500"/></clipPath></defs><rect class="a" x="0.27" y="0.21" width="930.91" height="500"/><g class="c"><path class="d" d="M895.6,388.55C826,326.11,771.25,348.73,727,296.92c-70.44-82.42,23.26-189-42.12-271.91-64.92-82.35-239.79-55.88-258.3-52.88C365-17.9,358.15.55,255.49,22c-83.85,17.55-126.64,26-169.2,7.75C33.82,7.37,40.57-33-20.74-73.9-63.3-102.29-108-110.34-138.61-112.77c7.85,6.72,19.42,18.42,26.61,35.94a92.93,92.93,0,0,1,6.65,34c.44,13.57,3,108.82,52.59,146.75,14.58,11.15,29.64,14.85,40.83,17.6,55.86,13.74,82.61-17.27,124.26-14.23,54.78,4,108.39,64.75,122.38,121.79C253.18,304.4,194.74,341,221.17,411c19,50.28,65.2,74.15,71.62,77.35,52.19,26,107.26,11.46,207-14.9C592.33,449,605,431.18,642.05,442.32c49.31,14.83,78.94,23.34,103,31.35,52.92,17.66,61.1.31,121.93,12.88,27.5,5.68,67,17.74,112.66,46.66C969,493.34,947,434.58,895.6,388.55Z"/><path class="d" d="M1166.65,269.48c-21.76-10.65-32.64-16-36.79-20.52-26.6-29.1,41.22-87.71,21.59-139.75-19-50.42-108.81-64.61-118.34-66-31.68-4.67-37.92,3.3-91.55-2.11-43.8-4.42-66.07-7-84.1-22.47C835.24-.52,844.82-19.25,821.13-48.8c-16.45-20.52-37.08-31.4-51.71-37.35a49,49,0,0,1,7.45,21.74,47.74,47.74,0,0,1-2,17.71C773-40,759.4,7.07,777.82,33.36c5.42,7.73,12.22,11.88,17.27,15,25.24,15.4,43.16,4.36,63.09,12.32,26.22,10.47,43.05,48.55,41.05,78.67-2.64,39.74-37,48.58-34.88,87,1.49,27.57,20.43,46.44,23.08,49,21.53,20.85,50.77,22.27,103.72,24.84,49.14,2.39,58.1-4.38,74.53,6.83,11.2,7.65,21.11,20.39,45.58,31.35,4.43,2,9.74,4.91,17.17,6.39,28,5.55,41.82-8.92,72.14-1,20.37,5.34,34.88,17.31,44.14,26.91-.76-14.1-4.3-36-18.61-57.53a107.74,107.74,0,0,0-17.89-20.71C1196,281.67,1186.11,279,1166.65,269.48Z"/><path class="d" d="M98.8,465.92c-23.75-11.62-35.62-17.44-40.15-22.39-29-31.77,45-95.73,23.56-152.52C61.45,236-36.54,220.49-46.94,219c-34.57-5.09-41.39,3.61-99.92-2.3-47.8-4.82-72.11-7.58-91.78-24.52-24.25-20.89-13.8-41.33-39.65-73.58-17.95-22.39-40.47-34.27-56.44-40.76a53.37,53.37,0,0,1,8.13,23.73,51.8,51.8,0,0,1-2.21,19.33c-2.06,7.32-16.85,58.68,3.25,87.37,5.91,8.43,13.34,13,18.85,16.33,27.54,16.81,47.1,4.77,68.85,13.45,28.62,11.42,47,53,44.8,85.85-2.88,43.39-40.32,53-38.06,95,1.62,30.09,22.29,50.69,25.18,53.49,23.5,22.75,55.41,24.3,113.21,27.11,53.62,2.61,63.4-4.79,81.34,7.46,12.22,8.34,23,22.25,49.74,34.21,4.83,2.16,10.63,5.36,18.74,7,30.57,6.06,45.64-9.74,78.73-1.07,22.23,5.83,38.06,18.89,48.17,29.37-.82-15.38-4.69-39.33-20.31-62.79A117.43,117.43,0,0,0,144.16,491C130.85,479.23,120,476.32,98.8,465.92Z"/><path class="e" d="M-105.61-36.95C-108-30-128.27,31.76-94.43,70.31c19.59,22.31,47.85,26.06,74.56,29.6C36,107.31,56.86,89.26,119.87,85c46.18-3.16,81.11-5.58,117.06,11.78,53,25.6,99.39,89.88,92.67,149.82-7.48,66.78-76.65,90.79-65,130.89,9.05,31.15,59.11,45.41,89.72,48.53,92.14,9.38,124.13-70.3,209.29-59.42,48.29,6.16,41.3,32.2,110.67,50,60.48,15.51,94.27-12,154.67,12.66,22.51,9.21,43,22.61,45.33,19.34,2.4-3.46-17.58-22.57-34.48-35.37-52.35-39.65-91.38-24.8-119.52-48-79.72-65.63-18.24-212-76-238.85-41.35-19.25-93.11,46.43-180.69,22.85a197.1,197.1,0,0,1-31.21-11.59C371,109,371.33,74.63,321.84,53.89c-25-10.5-46.39-10.67-69.7-10.86-55.95-.46-71.2,18.71-121.58,27.67C114.46,73.56,21.48,88.4-49.35,34.3-80.41,10.58-97.08-18.67-105.61-36.95Z"/></g><path class="f" d="M223.38,205.85a.81.81,0,0,1,.81.81.82.82,0,1,1-.81-.81Z"/><path class="f" d="M179.57,277.5a1,1,0,1,1-1,1A1,1,0,0,1,179.57,277.5Z"/><path class="f" d="M254.21,294a1.3,1.3,0,1,1-1.3,1.3A1.3,1.3,0,0,1,254.21,294Z"/><path class="f" d="M316.92,195.68a1.25,1.25,0,1,1-1.25,1.25A1.25,1.25,0,0,1,316.92,195.68Z"/><path class="f" d="M301.59,195.26a1.31,1.31,0,1,1-1.3,1.31A1.31,1.31,0,0,1,301.59,195.26Z"/><path class="f" d="M256.41,172.25A1.72,1.72,0,1,1,254.7,174,1.71,1.71,0,0,1,256.41,172.25Z"/><path class="f" d="M287.57,171.52a1,1,0,1,1-1,1A1,1,0,0,1,287.57,171.52Z"/><path class="f" d="M300.09,150.31a.42.42,0,1,1-.42.42A.42.42,0,0,1,300.09,150.31Z"/><path class="f" d="M346,142.29a1.65,1.65,0,1,1-1.64,1.64A1.64,1.64,0,0,1,346,142.29Z"/><path class="f" d="M339.32,101.3a1,1,0,1,1-.95,1A1,1,0,0,1,339.32,101.3Z"/><path class="f" d="M362.4,44.4a1,1,0,1,1-1,1A1,1,0,0,1,362.4,44.4Z"/><path class="f" d="M270.07,50.84A1.19,1.19,0,1,1,268.89,52,1.19,1.19,0,0,1,270.07,50.84Z"/><path class="f" d="M226.13,63.29a.84.84,0,1,1-.84.84A.84.84,0,0,1,226.13,63.29Z"/><path class="f" d="M190.36,16.5A1.36,1.36,0,1,1,189,17.86,1.36,1.36,0,0,1,190.36,16.5Z"/><path class="f" d="M211.17,48a.78.78,0,0,1,.77.77.77.77,0,0,1-1.54,0A.78.78,0,0,1,211.17,48Z"/><circle class="f" cx="171.48" cy="34.01" r="0.46"/><path class="f" d="M132.74,41.43a1.35,1.35,0,1,1-1.35,1.34A1.35,1.35,0,0,1,132.74,41.43Z"/><path class="f" d="M105.64,35.6a1,1,0,0,1,0,1.91,1,1,0,1,1,0-1.91Z"/><path class="f" d="M86.29,68.3a1.14,1.14,0,1,1-1.14,1.14A1.13,1.13,0,0,1,86.29,68.3Z"/><path class="f" d="M19.22,96.59a1.76,1.76,0,1,1-1.75,1.76A1.76,1.76,0,0,1,19.22,96.59Z"/><path class="f" d="M113.88,90.57a.74.74,0,0,1,.74.74.75.75,0,1,1-.74-.74Z"/><path class="f" d="M27.14,136.38a1.31,1.31,0,1,1-1.31,1.3A1.3,1.3,0,0,1,27.14,136.38Z"/><path class="f" d="M75.36,168.88a.49.49,0,1,1-.49.49A.49.49,0,0,1,75.36,168.88Z"/><path class="f" d="M58.79,200.81a1.39,1.39,0,1,1-1.39,1.39A1.38,1.38,0,0,1,58.79,200.81Z"/><path class="f" d="M92.59,270.27a1.07,1.07,0,1,1-1.07,1.07A1.07,1.07,0,0,1,92.59,270.27Z"/><path class="f" d="M22.75,274.23a.9.9,0,1,1-.9.9A.9.9,0,0,1,22.75,274.23Z"/><path class="f" d="M38.86,215.26a1.13,1.13,0,1,1-1.12,1.12A1.13,1.13,0,0,1,38.86,215.26Z"/><path class="f" d="M71.1,178.56a1.6,1.6,0,1,1-1.6,1.6A1.6,1.6,0,0,1,71.1,178.56Z"/><path class="f" d="M96.82,208.15a1.09,1.09,0,1,1-1.09,1.09A1.09,1.09,0,0,1,96.82,208.15Z"/><path class="f" d="M145.4,231.27a.39.39,0,1,1-.39.39A.39.39,0,0,1,145.4,231.27Z"/><circle class="f" cx="102.28" cy="288.9" r="0.68"/><path class="f" d="M122.83,262.36a1.37,1.37,0,1,1-1.37,1.37A1.37,1.37,0,0,1,122.83,262.36Z"/><circle class="f" cx="104.35" cy="245.97" r="1.38"/><path class="f" d="M142.25,275.65a1.08,1.08,0,1,1-1.08,1.08A1.08,1.08,0,0,1,142.25,275.65Z"/><path class="f" d="M169.18,278.52a.76.76,0,0,1,0,1.52.76.76,0,0,1,0-1.52Z"/><path class="f" d="M202.45,282.61a1.63,1.63,0,1,1-1.62,1.63A1.63,1.63,0,0,1,202.45,282.61Z"/><path class="g" d="M463,481a.73.73,0,0,1-.73.73A.73.73,0,1,1,463,481Z"/><path class="g" d="M461.28,472.78a.92.92,0,1,1-.91-.92A.92.92,0,0,1,461.28,472.78Z"/><path class="g" d="M433.72,479.84a.94.94,0,1,1-.94-.94A.94.94,0,0,1,433.72,479.84Z"/><path class="g" d="M422.58,455.12a.71.71,0,1,1-.71-.7A.71.71,0,0,1,422.58,455.12Z"/><path class="g" d="M428,429.54a.75.75,0,1,1-.74-.74A.74.74,0,0,1,428,429.54Z"/><path class="g" d="M395.25,418.3a.77.77,0,1,1-.77-.77A.76.76,0,0,1,395.25,418.3Z"/><path class="g" d="M402.91,384.72a.91.91,0,1,1-.91-.91A.91.91,0,0,1,402.91,384.72Z"/><path class="g" d="M422.68,394.68a.83.83,0,1,1-.83-.82A.82.82,0,0,1,422.68,394.68Z"/><path class="g" d="M405.74,379.79a.83.83,0,1,1-.83-.82A.83.83,0,0,1,405.74,379.79Z"/><path class="g" d="M409.87,380.18a.74.74,0,1,1-.74-.74A.74.74,0,0,1,409.87,380.18Z"/><path class="g" d="M410,379.91a.77.77,0,0,1-.77.76.77.77,0,0,1,0-1.53A.77.77,0,0,1,410,379.91Z"/><path class="g" d="M428.62,356.86a.7.7,0,1,1-.69-.7A.7.7,0,0,1,428.62,356.86Z"/><path class="g" d="M407.18,364a.67.67,0,1,1-.67-.67A.67.67,0,0,1,407.18,364Z"/><circle class="g" cx="403.14" cy="335.36" r="0.83"/><path class="g" d="M381.94,340.3a.88.88,0,1,1-.87-.88A.87.87,0,0,1,381.94,340.3Z"/><path class="g" d="M376.4,347.49a.63.63,0,1,1-.63-.63A.63.63,0,0,1,376.4,347.49Z"/><path class="g" d="M371,356.63a.77.77,0,1,1-.77-.77A.76.76,0,0,1,371,356.63Z"/><path class="g" d="M355.06,352.2a.93.93,0,1,1-.93-.93A.93.93,0,0,1,355.06,352.2Z"/><path class="g" d="M355.85,362.21a.78.78,0,0,1-.78.78.78.78,0,0,1,0-1.56A.78.78,0,0,1,355.85,362.21Z"/><path class="g" d="M328.76,338a.67.67,0,1,1-.67-.67A.67.67,0,0,1,328.76,338Z"/><path class="h" d="M495.06,2.13a1,1,0,0,1,.78,1.08A.94.94,0,0,1,494,2.92,1,1,0,0,1,495.06,2.13Z"/><path class="h" d="M495.46,34.79a1.1,1.1,0,1,1-.34,2.18,1.1,1.1,0,0,1,.34-2.18Z"/><path class="h" d="M480.08,25.22a.85.85,0,1,1-1,.71A.85.85,0,0,1,480.08,25.22Z"/><path class="h" d="M463.41,12.88a.88.88,0,1,1-.27,1.74.9.9,0,0,1-.74-1A.88.88,0,0,1,463.41,12.88Z"/><path class="h" d="M469.2,14.24a1,1,0,1,1-1.2.88A1.05,1.05,0,0,1,469.2,14.24Z"/><path class="h" d="M466.94,13.29a.86.86,0,0,1,.71,1A.86.86,0,0,1,466,14,.86.86,0,0,1,466.94,13.29Z"/><path class="h" d="M392.31,7.71a.94.94,0,1,1-1.07.78A.94.94,0,0,1,392.31,7.71Z"/><path class="h" d="M387.73,10.4a1.11,1.11,0,0,1,.93,1.27,1.11,1.11,0,1,1-2.2-.35A1.1,1.1,0,0,1,387.73,10.4Z"/><path class="h" d="M378.91,29.47a.8.8,0,1,1-.92.67A.8.8,0,0,1,378.91,29.47Z"/><path class="h" d="M349.07,29.68a.9.9,0,1,1-.28,1.77.9.9,0,0,1,.28-1.77Z"/><path class="h" d="M341.4,28.64a.82.82,0,0,1-.25,1.62.82.82,0,1,1,.25-1.62Z"/><path class="h" d="M356,44a1,1,0,0,1-.29,1.9A1,1,0,0,1,356,44Z"/><path class="h" d="M152.21,275a1.09,1.09,0,1,1-1.25.91A1.09,1.09,0,0,1,152.21,275Z"/><path class="h" d="M156,308.05a1,1,0,1,1-1.16.84A1,1,0,0,1,156,308.05Z"/><path class="h" d="M160.51,313.86a.86.86,0,0,1,.71,1,.85.85,0,0,1-1,.71.85.85,0,1,1,.27-1.68Z"/><path class="h" d="M138.88,322.87a.94.94,0,1,1-1.08.78A.94.94,0,0,1,138.88,322.87Z"/><path class="h" d="M139.28,355.52a1.1,1.1,0,0,1-.34,2.18,1.1,1.1,0,0,1,.34-2.18Z"/><path class="h" d="M123.9,346a.85.85,0,0,1-.26,1.69.85.85,0,0,1,.26-1.69Z"/><path class="h" d="M107.23,333.61a.88.88,0,1,1-1,.73A.88.88,0,0,1,107.23,333.61Z"/><path class="h" d="M113,335a1,1,0,1,1-1.2.87A1.05,1.05,0,0,1,113,335Z"/><path class="h" d="M110.76,334a.85.85,0,0,1,.71,1,.86.86,0,0,1-1,.72.87.87,0,0,1-.72-1A.86.86,0,0,1,110.76,334Z"/><path class="h" d="M86.5,305.41a.84.84,0,1,1-1,.7A.84.84,0,0,1,86.5,305.41Z"/><path class="h" d="M53.65,302.94a1.09,1.09,0,1,1-1.24.91A1.08,1.08,0,0,1,53.65,302.94Z"/><path class="h" d="M36.13,328.44a.94.94,0,1,1-1.07.78A.93.93,0,0,1,36.13,328.44Z"/><path class="h" d="M31.55,331.13a1.11,1.11,0,0,1,.93,1.27,1.13,1.13,0,0,1-1.28.93,1.11,1.11,0,0,1,.35-2.2Z"/><path class="h" d="M22.73,350.2a.8.8,0,1,1-.92.67A.8.8,0,0,1,22.73,350.2Z"/><path class="h" d="M915.16,22a1.09,1.09,0,1,1-1.24.9A1.08,1.08,0,0,1,915.16,22Z"/><path class="h" d="M919,55.09a1,1,0,0,1,.84,1.15,1,1,0,1,1-.84-1.15Z"/><path class="h" d="M923.46,60.9a.85.85,0,1,1-1,.71A.85.85,0,0,1,923.46,60.9Z"/><path class="h" d="M901.83,69.91a.94.94,0,0,1-.29,1.86.94.94,0,1,1,.29-1.86Z"/><path class="h" d="M902.23,102.56a1.1,1.1,0,1,1-.34,2.18,1.1,1.1,0,0,1,.34-2.18Z"/><path class="h" d="M886.85,93a.85.85,0,0,1,.71,1,.85.85,0,1,1-.71-1Z"/><path class="h" d="M870.18,80.65a.88.88,0,1,1-.27,1.74.89.89,0,0,1-.74-1A.88.88,0,0,1,870.18,80.65Z"/><path class="h" d="M876,82a1,1,0,1,1-1.2.88A1.05,1.05,0,0,1,876,82Z"/><path class="h" d="M873.71,81.07a.86.86,0,1,1-1,.71A.85.85,0,0,1,873.71,81.07Z"/><path class="h" d="M849.45,52.45a.84.84,0,1,1-1,.7A.84.84,0,0,1,849.45,52.45Z"/><path class="h" d="M816.6,50a1.09,1.09,0,1,1-1.24.91A1.08,1.08,0,0,1,816.6,50Z"/><path class="h" d="M799.08,75.48a.94.94,0,1,1-1.07.78A.94.94,0,0,1,799.08,75.48Z"/><path class="h" d="M794.5,78.17a1.11,1.11,0,1,1-1.27.93A1.11,1.11,0,0,1,794.5,78.17Z"/><path class="h" d="M785.68,97.24a.8.8,0,1,1-.92.67A.8.8,0,0,1,785.68,97.24Z"/><path class="h" d="M755.84,97.45a.9.9,0,1,1-.28,1.77.9.9,0,0,1,.28-1.77Z"/><path class="h" d="M748.17,96.41a.82.82,0,1,1-.94.68A.82.82,0,0,1,748.17,96.41Z"/><path class="h" d="M762.73,111.74a1,1,0,1,1-1.09.8A1,1,0,0,1,762.73,111.74Z"/><path class="i" d="M71,197.81a2.47,2.47,0,1,1-2.46,2.46A2.47,2.47,0,0,1,71,197.81Z"/><path class="i" d="M138.68,210.42a.69.69,0,1,1-.68.69A.68.68,0,0,1,138.68,210.42Z"/><path class="i" d="M189.27,333.67a1.17,1.17,0,1,1-1.16,1.17A1.17,1.17,0,0,1,189.27,333.67Z"/><path class="i" d="M204.74,386.1a3.13,3.13,0,1,1-3.12,3.12A3.12,3.12,0,0,1,204.74,386.1Z"/><path class="j" d="M664.77,452.34a.9.9,0,1,1-.9.9A.9.9,0,0,1,664.77,452.34Z"/><path class="j" d="M708,413.61a.9.9,0,1,1-.9.9A.9.9,0,0,1,708,413.61Z"/><path class="j" d="M644.54,426.64a.95.95,0,1,1,0,1.89.95.95,0,0,1,0-1.89Z"/><path class="j" d="M682.13,358.94a.86.86,0,1,1-.85.85A.85.85,0,0,1,682.13,358.94Z"/><path class="j" d="M630,362.22a.92.92,0,1,1-.92.92A.92.92,0,0,1,630,362.22Z"/><path class="j" d="M569,325.54a1.1,1.1,0,1,1-1.09,1.1A1.1,1.1,0,0,1,569,325.54Z"/><path class="j" d="M528.21,350.37a1,1,0,1,1-1,1A1,1,0,0,1,528.21,350.37Z"/><path class="j" d="M508.79,397.28a.71.71,0,1,1,0,1.42.71.71,0,0,1,0-1.42Z"/><path class="j" d="M530.09,403.73a.42.42,0,0,1,.43.42.43.43,0,1,1-.43-.42Z"/><path class="j" d="M567.79,395.23a1.34,1.34,0,1,1-1.34,1.34A1.34,1.34,0,0,1,567.79,395.23Z"/><circle class="j" cx="607.05" cy="405.45" r="0.84"/><path class="j" d="M619.16,430.88a.74.74,0,1,1-.74.74A.74.74,0,0,1,619.16,430.88Z"/><circle class="j" cx="618.85" cy="476.83" r="1.64"/><path class="j" d="M654.94,494.41a1.78,1.78,0,1,1-1.78,1.78A1.78,1.78,0,0,1,654.94,494.41Z"/><path class="j" d="M705.38,443.63a1.78,1.78,0,1,1-1.78,1.78A1.78,1.78,0,0,1,705.38,443.63Z"/><path class="j" d="M578.43,479a1.16,1.16,0,1,1-1.16,1.16A1.16,1.16,0,0,1,578.43,479Z"/><circle class="j" cx="533.55" cy="499.23" r="0.46"/><path class="j" d="M519.58,495.23a1.26,1.26,0,0,1,0,2.52,1.26,1.26,0,0,1,0-2.52Z"/><path class="j" d="M500.34,479.49a.92.92,0,1,1-.91.91A.91.91,0,0,1,500.34,479.49Z"/><path class="j" d="M547.31,487.26a1.16,1.16,0,1,1-1.15,1.16A1.16,1.16,0,0,1,547.31,487.26Z"/><path class="j" d="M620.59,491.72a.91.91,0,0,1,0,1.81.91.91,0,1,1,0-1.81Z"/><path class="j" d="M610.52,461.27a1.12,1.12,0,1,1-1.12,1.12A1.12,1.12,0,0,1,610.52,461.27Z"/><path class="j" d="M601.19,442.74a.9.9,0,1,1-.91.9A.9.9,0,0,1,601.19,442.74Z"/><path class="j" d="M604.18,398.24a.83.83,0,1,1-.83.83A.83.83,0,0,1,604.18,398.24Z"/><path class="j" d="M635.91,471.22a1.69,1.69,0,1,1-1.69,1.69A1.69,1.69,0,0,1,635.91,471.22Z"/><path class="j" d="M664.79,433.58a.66.66,0,1,1-.65.66A.65.65,0,0,1,664.79,433.58Z"/><path class="j" d="M640.2,360a.53.53,0,1,1-.53.53A.53.53,0,0,1,640.2,360Z"/><path class="j" d="M630.07,442.25a1.28,1.28,0,1,1-1.28,1.28A1.28,1.28,0,0,1,630.07,442.25Z"/><path class="j" d="M541.45,455.78a1.48,1.48,0,1,1-1.47,1.47A1.47,1.47,0,0,1,541.45,455.78Z"/><path class="j" d="M529.65,413.09a1.41,1.41,0,1,1-1.4,1.41A1.41,1.41,0,0,1,529.65,413.09Z"/><path class="j" d="M503.16,413.21a1.31,1.31,0,1,1-1.3,1.3A1.31,1.31,0,0,1,503.16,413.21Z"/><path class="j" d="M463.13,374.58a.86.86,0,1,1-.87.86A.86.86,0,0,1,463.13,374.58Z"/><path class="j" d="M442.84,412.12a1.54,1.54,0,1,1-1.55,1.54A1.54,1.54,0,0,1,442.84,412.12Z"/><path class="j" d="M430.12,484.27a.61.61,0,1,1-.6.61A.6.6,0,0,1,430.12,484.27Z"/><path class="j" d="M453.28,490.58a1.21,1.21,0,1,1-1.21,1.21A1.21,1.21,0,0,1,453.28,490.58Z"/><path class="j" d="M537.87,480.13a.59.59,0,1,1-.59.58A.58.58,0,0,1,537.87,480.13Z"/><path class="j" d="M577.27,494.74a.85.85,0,1,1-.84.85A.85.85,0,0,1,577.27,494.74Z"/><circle class="j" cx="17.7" cy="184.12" r="0.9"/><path class="j" d="M37.93,210.73a.95.95,0,1,1,0-1.89.95.95,0,0,1,0,1.89Z"/><path class="j" d="M52.46,275.15a.92.92,0,1,1,.92-.92A.92.92,0,0,1,52.46,275.15Z"/><path class="j" d="M113.45,311.82a1.1,1.1,0,1,1,1.1-1.09A1.09,1.09,0,0,1,113.45,311.82Z"/><path class="j" d="M154.25,287a1,1,0,1,1,1-1A1,1,0,0,1,154.25,287Z"/><path class="j" d="M173.68,240.08a.7.7,0,0,1-.71-.7.71.71,0,1,1,1.41,0A.7.7,0,0,1,173.68,240.08Z"/><path class="j" d="M152.37,233.64a.43.43,0,0,1,0-.85.43.43,0,0,1,0,.85Z"/><path class="j" d="M114.67,242.14A1.35,1.35,0,1,1,116,240.8,1.34,1.34,0,0,1,114.67,242.14Z"/><path class="j" d="M75.42,232.76a.85.85,0,0,1,0-1.69.85.85,0,1,1,0,1.69Z"/><path class="j" d="M63.31,206.49a.74.74,0,0,1-.73-.74.74.74,0,0,1,1.47,0A.74.74,0,0,1,63.31,206.49Z"/><path class="j" d="M63.61,162.18a1.64,1.64,0,1,1,1.64-1.64A1.63,1.63,0,0,1,63.61,162.18Z"/><path class="j" d="M27.53,143a1.78,1.78,0,1,1,1.78-1.78A1.78,1.78,0,0,1,27.53,143Z"/><path class="j" d="M17,114.05a.56.56,0,1,1,.56-.56A.56.56,0,0,1,17,114.05Z"/><path class="j" d="M60.85,83.5a1.61,1.61,0,1,1,1.61-1.61A1.61,1.61,0,0,1,60.85,83.5Z"/><path class="j" d="M90.27,81a.79.79,0,1,1,.78-.79A.79.79,0,0,1,90.27,81Z"/><path class="j" d="M134.17,76.62a.35.35,0,1,1,.35-.35A.35.35,0,0,1,134.17,76.62Z"/><path class="j" d="M213.09,56.61a1.4,1.4,0,1,1,1.39-1.39A1.39,1.39,0,0,1,213.09,56.61Z"/><path class="j" d="M128,82.11a1.25,1.25,0,1,1,1.25-1.25A1.25,1.25,0,0,1,128,82.11Z"/><path class="j" d="M67.17,44.06a.64.64,0,0,1-.64-.63.64.64,0,0,1,1.28,0A.64.64,0,0,1,67.17,44.06Z"/><path class="j" d="M61.93,66.68a.36.36,0,1,1,.36-.35A.36.36,0,0,1,61.93,66.68Z"/><path class="j" d="M104,158.4a1.16,1.16,0,1,1,1.15-1.16A1.16,1.16,0,0,1,104,158.4Z"/><path class="j" d="M113.76,126.83a.76.76,0,0,1-.77-.76.77.77,0,1,1,1.53,0A.76.76,0,0,1,113.76,126.83Z"/><circle class="j" cx="148.92" cy="138.13" r="0.46"/><path class="j" d="M218.82,109.69a1.69,1.69,0,1,1,1.69-1.69A1.68,1.68,0,0,1,218.82,109.69Z"/><path class="j" d="M162.89,142.14a1.26,1.26,0,1,1,1.25-1.26A1.26,1.26,0,0,1,162.89,142.14Z"/><path class="j" d="M182.13,157.88A.92.92,0,1,1,183,157,.91.91,0,0,1,182.13,157.88Z"/><path class="j" d="M135.16,150.1a1.15,1.15,0,1,1,1.15-1.15A1.14,1.14,0,0,1,135.16,150.1Z"/><path class="j" d="M152.39,76.14a.74.74,0,1,1,.74-.74A.74.74,0,0,1,152.39,76.14Z"/><path class="j" d="M97.39,118.43a.6.6,0,0,1-.6-.6.6.6,0,0,1,1.2,0A.6.6,0,0,1,97.39,118.43Z"/><path class="j" d="M61.88,145.65a.91.91,0,1,1,.9-.9A.9.9,0,0,1,61.88,145.65Z"/><path class="j" d="M41.82,93.56a.9.9,0,1,1,.89-.89A.89.89,0,0,1,41.82,93.56Z"/><path class="j" d="M111,114a1.16,1.16,0,1,1,1.16-1.16A1.16,1.16,0,0,1,111,114Z"/><path class="j" d="M72,176.1A1.12,1.12,0,1,1,73.07,175,1.12,1.12,0,0,1,72,176.1Z"/><path class="j" d="M81.28,194.63a.9.9,0,1,1,.9-.9A.9.9,0,0,1,81.28,194.63Z"/><path class="j" d="M78.29,239.13a.83.83,0,1,1,.83-.83A.83.83,0,0,1,78.29,239.13Z"/><path class="j" d="M46.55,166.15a1.69,1.69,0,1,1,1.7-1.69A1.69,1.69,0,0,1,46.55,166.15Z"/><path class="j" d="M17.67,203.79a.66.66,0,0,1,0-1.32.66.66,0,1,1,0,1.32Z"/><circle class="j" cx="42.27" cy="276.85" r="0.53"/><path class="j" d="M52.4,195.11a1.28,1.28,0,1,1,1.28-1.27A1.27,1.27,0,0,1,52.4,195.11Z"/><path class="j" d="M141,181.59a1.48,1.48,0,1,1,1.47-1.47A1.47,1.47,0,0,1,141,181.59Z"/><path class="j" d="M152.81,224.28a1.41,1.41,0,1,1,1.41-1.41A1.41,1.41,0,0,1,152.81,224.28Z"/><path class="j" d="M179.3,224.16a1.31,1.31,0,1,1,1.31-1.31A1.31,1.31,0,0,1,179.3,224.16Z"/><path class="j" d="M219.34,262.79a.86.86,0,1,1,.86-.86A.85.85,0,0,1,219.34,262.79Z"/><path class="j" d="M247.87,216.59a1.55,1.55,0,1,1,1.54-1.55A1.54,1.54,0,0,1,247.87,216.59Z"/><path class="j" d="M252.35,153.09a.6.6,0,1,1,.6-.6A.6.6,0,0,1,252.35,153.09Z"/><circle class="j" cx="229.19" cy="145.58" r="1.21"/><path class="j" d="M202.11,129.78a1.65,1.65,0,1,1,1.65-1.65A1.65,1.65,0,0,1,202.11,129.78Z"/><path class="j" d="M144.6,157.24a.59.59,0,1,1,.59-.59A.59.59,0,0,1,144.6,157.24Z"/><path class="j" d="M105.19,142.62a.83.83,0,0,1-.84-.84.84.84,0,0,1,.84-.85.85.85,0,0,1,.85.85A.84.84,0,0,1,105.19,142.62Z"/><circle class="j" cx="94.14" cy="95.09" r="0.98" transform="translate(-5.07 184.89) rotate(-87.44)"/><path class="j" d="M108.36,33.84a.42.42,0,1,1,.43-.42A.42.42,0,0,1,108.36,33.84Z"/><path class="j" d="M725.39,267.61a.9.9,0,1,1,.9-.9A.9.9,0,0,1,725.39,267.61Z"/><path class="j" d="M682.18,306.34a.9.9,0,1,1,.9-.9A.9.9,0,0,1,682.18,306.34Z"/><path class="j" d="M745.62,293.31a.95.95,0,1,1,.94-.95A.94.94,0,0,1,745.62,293.31Z"/><path class="j" d="M708,361a.85.85,0,1,1,.85-.85A.85.85,0,0,1,708,361Z"/><path class="j" d="M760.15,357.73a.92.92,0,1,1,.92-.92A.92.92,0,0,1,760.15,357.73Z"/><path class="j" d="M821.15,394.41a1.1,1.1,0,1,1,1.09-1.1A1.1,1.1,0,0,1,821.15,394.41Z"/><path class="j" d="M861.94,369.58a1,1,0,1,1,1-1A1,1,0,0,1,861.94,369.58Z"/><path class="j" d="M881.37,322.67a.71.71,0,0,1-.71-.71.7.7,0,0,1,.71-.7.7.7,0,0,1,.7.7A.7.7,0,0,1,881.37,322.67Z"/><path class="j" d="M860.06,316.22a.42.42,0,1,1,.43-.42A.42.42,0,0,1,860.06,316.22Z"/><path class="j" d="M822.36,324.73a1.35,1.35,0,1,1,1.35-1.35A1.35,1.35,0,0,1,822.36,324.73Z"/><path class="j" d="M783.11,315.34a.84.84,0,1,1,.85-.84A.84.84,0,0,1,783.11,315.34Z"/><path class="j" d="M771,289.07a.74.74,0,1,1,.74-.74A.74.74,0,0,1,771,289.07Z"/><circle class="j" cx="771.3" cy="243.12" r="1.64"/><path class="j" d="M735.22,225.54a1.78,1.78,0,1,1,1.78-1.78A1.78,1.78,0,0,1,735.22,225.54Z"/><path class="j" d="M684.78,276.32a1.78,1.78,0,1,1,1.78-1.78A1.78,1.78,0,0,1,684.78,276.32Z"/><circle class="j" cx="724.69" cy="196.07" r="0.56"/><path class="j" d="M683.48,159.22a1.31,1.31,0,1,1,1.3-1.3A1.3,1.3,0,0,1,683.48,159.22Z"/><path class="j" d="M768.54,166.08a1.61,1.61,0,1,1,1.61-1.61A1.62,1.62,0,0,1,768.54,166.08Z"/><path class="j" d="M798,163.55a.79.79,0,1,1,.78-.78A.78.78,0,0,1,798,163.55Z"/><path class="j" d="M798.53,80a1.66,1.66,0,1,1,1.66-1.65A1.65,1.65,0,0,1,798.53,80Z"/><path class="j" d="M841.87,159.2a.35.35,0,1,1,.34-.34A.34.34,0,0,1,841.87,159.2Z"/><path class="j" d="M920.78,139.19a1.39,1.39,0,1,1,1.39-1.39A1.39,1.39,0,0,1,920.78,139.19Z"/><path class="j" d="M835.67,164.7a1.25,1.25,0,1,1,1.25-1.25A1.25,1.25,0,0,1,835.67,164.7Z"/><path class="j" d="M817.1,80.35a1.25,1.25,0,1,1,1.25-1.25A1.25,1.25,0,0,1,817.1,80.35Z"/><path class="j" d="M774.86,126.65a.64.64,0,0,1-.64-.64.64.64,0,0,1,1.28,0A.64.64,0,0,1,774.86,126.65Z"/><path class="j" d="M769.62,149.27a.36.36,0,0,1-.35-.36.36.36,0,0,1,.71,0A.36.36,0,0,1,769.62,149.27Z"/><path class="j" d="M811.73,241a1.16,1.16,0,1,1,1.15-1.16A1.16,1.16,0,0,1,811.73,241Z"/><path class="j" d="M821.45,209.42a.78.78,0,0,1-.77-.77.77.77,0,0,1,.77-.76.76.76,0,0,1,.76.76A.77.77,0,0,1,821.45,209.42Z"/><circle class="j" cx="856.61" cy="220.72" r="0.46"/><path class="j" d="M926.51,192.28a1.7,1.7,0,1,1,1.7-1.7A1.7,1.7,0,0,1,926.51,192.28Z"/><path class="j" d="M870.58,224.72a1.26,1.26,0,1,1,0-2.52,1.26,1.26,0,0,1,0,2.52Z"/><path class="j" d="M889.82,240.46a.91.91,0,1,1,.91-.91A.91.91,0,0,1,889.82,240.46Z"/><path class="j" d="M842.85,232.69a1.16,1.16,0,1,1,1.15-1.15A1.15,1.15,0,0,1,842.85,232.69Z"/><path class="j" d="M860.08,158.72a.74.74,0,1,1,.74-.74A.74.74,0,0,1,860.08,158.72Z"/><path class="j" d="M805.08,201a.61.61,0,1,1,.6-.6A.6.6,0,0,1,805.08,201Z"/><path class="j" d="M769.57,228.23a.9.9,0,1,1,.91-.9A.9.9,0,0,1,769.57,228.23Z"/><path class="j" d="M749.51,176.15a.9.9,0,1,1,.89-.9A.9.9,0,0,1,749.51,176.15Z"/><path class="j" d="M818.64,196.58a1.16,1.16,0,1,1,1.16-1.15A1.16,1.16,0,0,1,818.64,196.58Z"/><path class="j" d="M779.64,258.68a1.12,1.12,0,1,1,1.12-1.12A1.12,1.12,0,0,1,779.64,258.68Z"/><path class="j" d="M789,277.22a.91.91,0,1,1,.9-.91A.91.91,0,0,1,789,277.22Z"/><path class="j" d="M786,321.71a.83.83,0,1,1,.83-.83A.83.83,0,0,1,786,321.71Z"/><path class="j" d="M754.25,248.74a1.7,1.7,0,1,1,1.69-1.7A1.7,1.7,0,0,1,754.25,248.74Z"/><path class="j" d="M725.36,286.37a.66.66,0,1,1,.66-.65A.65.65,0,0,1,725.36,286.37Z"/><path class="j" d="M750,360a.53.53,0,1,1,.53-.53A.53.53,0,0,1,750,360Z"/><circle class="j" cx="760.09" cy="276.42" r="1.28"/><path class="j" d="M848.71,264.18a1.48,1.48,0,1,1,1.47-1.48A1.48,1.48,0,0,1,848.71,264.18Z"/><path class="j" d="M860.5,306.86a1.41,1.41,0,1,1,1.41-1.4A1.4,1.4,0,0,1,860.5,306.86Z"/><path class="j" d="M887,306.74a1.31,1.31,0,1,1,1.3-1.3A1.31,1.31,0,0,1,887,306.74Z"/><path class="j" d="M927,345.38a.87.87,0,1,1,.86-.87A.87.87,0,0,1,927,345.38Z"/><circle class="j" cx="909.81" cy="210.71" r="1.65"/><path class="j" d="M852.29,239.82a.59.59,0,1,1,0-1.17.59.59,0,1,1,0,1.17Z"/><path class="j" d="M812.88,225.21a.85.85,0,1,1,.85-.85A.85.85,0,0,1,812.88,225.21Z"/><path class="j" d="M801.83,178.66a1,1,0,1,1,1-1A1,1,0,0,1,801.83,178.66Z"/><circle class="j" cx="816.06" cy="116" r="0.42"/><path class="j" d="M466.88,29.49a.9.9,0,1,1,.9-.9A.9.9,0,0,1,466.88,29.49Z"/><path class="j" d="M423.67,68.22a.9.9,0,1,1,.9-.9A.9.9,0,0,1,423.67,68.22Z"/><path class="j" d="M487.11,55.19a.95.95,0,0,1,0-1.89.95.95,0,1,1,0,1.89Z"/><path class="j" d="M449.52,122.89a.85.85,0,1,1,.85-.85A.85.85,0,0,1,449.52,122.89Z"/><path class="j" d="M501.64,119.62a.93.93,0,1,1,.92-.93A.93.93,0,0,1,501.64,119.62Z"/><path class="j" d="M562.64,156.29a1.1,1.1,0,1,1,1.1-1.1A1.1,1.1,0,0,1,562.64,156.29Z"/><path class="j" d="M603.44,131.46a1,1,0,1,1,1-1A1,1,0,0,1,603.44,131.46Z"/><path class="j" d="M622.86,84.55a.7.7,0,0,1-.7-.71.7.7,0,0,1,.7-.7.7.7,0,0,1,.71.7A.71.71,0,0,1,622.86,84.55Z"/><path class="j" d="M601.56,78.1a.42.42,0,1,1,.42-.42A.42.42,0,0,1,601.56,78.1Z"/><path class="j" d="M563.86,86.61a1.35,1.35,0,1,1,1.34-1.35A1.34,1.34,0,0,1,563.86,86.61Z"/><path class="j" d="M524.61,77.23a.85.85,0,1,1,.84-.85A.85.85,0,0,1,524.61,77.23Z"/><path class="j" d="M512.5,51a.74.74,0,1,1,.73-.73A.74.74,0,0,1,512.5,51Z"/><path class="j" d="M426.27,38.2a1.78,1.78,0,1,1,1.79-1.78A1.78,1.78,0,0,1,426.27,38.2Z"/><path class="j" d="M521.13,20.56a1.12,1.12,0,1,1,1.12-1.12A1.12,1.12,0,0,1,521.13,20.56Z"/><path class="j" d="M530.47,39.1a.91.91,0,1,1,.9-.9A.9.9,0,0,1,530.47,39.1Z"/><path class="j" d="M527.47,83.59a.83.83,0,1,1,.83-.83A.83.83,0,0,1,527.47,83.59Z"/><path class="j" d="M495.74,10.62a1.7,1.7,0,1,1,1.69-1.69A1.69,1.69,0,0,1,495.74,10.62Z"/><path class="j" d="M466.86,48.26a.66.66,0,1,1,.66-.66A.67.67,0,0,1,466.86,48.26Z"/><path class="j" d="M491.45,121.84a.53.53,0,0,1,0-1.06.53.53,0,1,1,0,1.06Z"/><circle class="j" cx="501.58" cy="38.3" r="1.28"/><path class="j" d="M590.2,26.06a1.48,1.48,0,1,1,1.48-1.48A1.47,1.47,0,0,1,590.2,26.06Z"/><path class="j" d="M602,68.74a1.41,1.41,0,1,1,1.41-1.4A1.41,1.41,0,0,1,602,68.74Z"/><path class="j" d="M628.49,68.62a1.3,1.3,0,1,1,1.3-1.3A1.3,1.3,0,0,1,628.49,68.62Z"/><path class="j" d="M668.53,107.26a.87.87,0,1,1,.86-.87A.87.87,0,0,1,668.53,107.26Z"/><path class="j" d="M697.05,61.05a1.54,1.54,0,1,1,1.55-1.54A1.54,1.54,0,0,1,697.05,61.05Z"/><path class="j" d="M823.72,358.68a.9.9,0,1,1,.9-.9A.9.9,0,0,1,823.72,358.68Z"/><path class="j" d="M780.51,397.41a.9.9,0,1,1,0-1.8.9.9,0,0,1,0,1.8Z"/><circle class="j" cx="843.95" cy="383.43" r="0.95"/><path class="j" d="M806.36,452.08a.85.85,0,0,1-.85-.85.85.85,0,1,1,1.7,0A.85.85,0,0,1,806.36,452.08Z"/><path class="j" d="M858.48,448.8a.92.92,0,1,1,.92-.92A.92.92,0,0,1,858.48,448.8Z"/><path class="j" d="M919.48,485.48a1.1,1.1,0,1,1,1.1-1.1A1.1,1.1,0,0,1,919.48,485.48Z"/><path class="j" d="M920.7,415.8a1.35,1.35,0,1,1,1.34-1.35A1.35,1.35,0,0,1,920.7,415.8Z"/><path class="j" d="M881.45,406.41a.84.84,0,1,1,.84-.84A.84.84,0,0,1,881.45,406.41Z"/><path class="j" d="M869.34,380.14a.74.74,0,1,1,.73-.74A.74.74,0,0,1,869.34,380.14Z"/><path class="j" d="M869.64,335.83a1.64,1.64,0,1,1,1.64-1.64A1.63,1.63,0,0,1,869.64,335.83Z"/><path class="j" d="M833.56,316.61a1.78,1.78,0,1,1,1.78-1.78A1.78,1.78,0,0,1,833.56,316.61Z"/><path class="j" d="M783.11,367.39a1.78,1.78,0,1,1,1.79-1.78A1.78,1.78,0,0,1,783.11,367.39Z"/><path class="j" d="M823,287.7a.56.56,0,1,1,.55-.56A.56.56,0,0,1,823,287.7Z"/><path class="j" d="M781.81,250.28a1.3,1.3,0,1,1,1.3-1.3A1.3,1.3,0,0,1,781.81,250.28Z"/><path class="j" d="M866.88,257.15a1.61,1.61,0,1,1,1.61-1.61A1.61,1.61,0,0,1,866.88,257.15Z"/><circle class="j" cx="896.29" cy="253.83" r="0.79"/><path class="j" d="M896.87,171.11a1.66,1.66,0,1,1,1.65-1.66A1.65,1.65,0,0,1,896.87,171.11Z"/><path class="j" d="M915.44,171.42a1.25,1.25,0,1,1,1.24-1.25A1.25,1.25,0,0,1,915.44,171.42Z"/><path class="j" d="M873.2,217.72a.64.64,0,1,1,.63-.64A.64.64,0,0,1,873.2,217.72Z"/><path class="j" d="M868,240.34a.36.36,0,1,1,.35-.36A.36.36,0,0,1,868,240.34Z"/><path class="j" d="M910.06,332.05a1.16,1.16,0,1,1,1.16-1.16A1.16,1.16,0,0,1,910.06,332.05Z"/><path class="j" d="M919.78,300.49a.77.77,0,0,1-.76-.77.77.77,0,0,1,1.53,0A.77.77,0,0,1,919.78,300.49Z"/><path class="j" d="M903.42,292.09a.61.61,0,1,1,.6-.61A.61.61,0,0,1,903.42,292.09Z"/><path class="j" d="M867.91,319.3a.91.91,0,1,1,.9-.9A.9.9,0,0,1,867.91,319.3Z"/><path class="j" d="M847.84,267.21a.9.9,0,1,1,.9-.89A.89.89,0,0,1,847.84,267.21Z"/><circle class="j" cx="916.98" cy="286.5" r="1.15"/><circle class="j" cx="877.97" cy="348.63" r="1.12"/><path class="j" d="M887.31,368.28a.9.9,0,1,1,.9-.9A.9.9,0,0,1,887.31,368.28Z"/><path class="j" d="M884.31,412.78a.83.83,0,1,1,.83-.83A.83.83,0,0,1,884.31,412.78Z"/><circle class="j" cx="852.58" cy="338.11" r="1.69"/><path class="j" d="M823.7,377.44a.66.66,0,1,1,.66-.66A.66.66,0,0,1,823.7,377.44Z"/><path class="j" d="M848.29,451a.53.53,0,0,1,0-1.06.53.53,0,0,1,0,1.06Z"/><path class="j" d="M858.42,368.77a1.28,1.28,0,1,1,1.28-1.28A1.28,1.28,0,0,1,858.42,368.77Z"/><path class="j" d="M911.22,316.28a.85.85,0,1,1,.85-.85A.85.85,0,0,1,911.22,316.28Z"/><path class="j" d="M900.17,269.73a1,1,0,1,1,1-1A1,1,0,0,1,900.17,269.73Z"/><circle class="j" cx="914.39" cy="207.07" r="0.42"/><path class="h" d="M845.84,435.13a.77.77,0,1,1-1.53,0,.77.77,0,1,1,1.53,0Z"/><path class="h" d="M827.37,417.38a1.2,1.2,0,1,1-1.19-1.2A1.19,1.19,0,0,1,827.37,417.38Z"/><path class="h" d="M768.73,406.87a.88.88,0,0,1-1.75,0,.88.88,0,1,1,1.75,0Z"/><path class="h" d="M812.71,371.2a1.2,1.2,0,1,1-1.2-1.2A1.2,1.2,0,0,1,812.71,371.2Z"/><path class="h" d="M761.87,380.25a.86.86,0,1,1-1.71,0,.85.85,0,0,1,.85-.85A.86.86,0,0,1,761.87,380.25Z"/><path class="h" d="M745.3,368.56a1.11,1.11,0,1,1-1.11-1.1A1.11,1.11,0,0,1,745.3,368.56Z"/><path class="h" d="M743.19,335a1.2,1.2,0,1,1-1.2-1.2A1.2,1.2,0,0,1,743.19,335Z"/><path class="h" d="M747.81,290a.82.82,0,1,1-.82-.82A.82.82,0,0,1,747.81,290Z"/><path class="k" d="M732,427.36a1.26,1.26,0,1,1-1.25-1.26A1.25,1.25,0,0,1,732,427.36Z"/><path class="k" d="M709.46,469.54a.78.78,0,0,1-1.55,0,.78.78,0,0,1,1.55,0Z"/><path class="k" d="M687.69,401.94a1.23,1.23,0,1,1-1.23-1.23A1.24,1.24,0,0,1,687.69,401.94Z"/><path class="k" d="M665.08,419.66a.91.91,0,0,1-1.82,0,.91.91,0,0,1,1.82,0Z"/><path class="k" d="M651.54,445.26a1.22,1.22,0,1,1-1.22-1.22A1.22,1.22,0,0,1,651.54,445.26Z"/><path class="k" d="M685.3,441.19a1.21,1.21,0,1,1-1.21-1.21A1.21,1.21,0,0,1,685.3,441.19Z"/><path class="k" d="M698.7,407.77a1.21,1.21,0,1,1-1.21-1.21A1.21,1.21,0,0,1,698.7,407.77Z"/><path class="k" d="M643.86,380.65a1.19,1.19,0,1,1-1.18-1.19A1.19,1.19,0,0,1,643.86,380.65Z"/><path class="k" d="M633.08,357.84a1.25,1.25,0,1,1-1.24-1.25A1.25,1.25,0,0,1,633.08,357.84Z"/><path class="k" d="M639.86,332.47a1.22,1.22,0,1,1-1.22-1.22A1.22,1.22,0,0,1,639.86,332.47Z"/><circle class="k" cx="691.22" cy="307.94" r="0.8"/><path class="k" d="M682.84,293.41a.83.83,0,0,1-.83.83.83.83,0,1,1,0-1.66A.83.83,0,0,1,682.84,293.41Z"/><path class="k" d="M703.06,283a.94.94,0,1,1-.93-.94A.93.93,0,0,1,703.06,283Z"/><path class="k" d="M727.24,270.23a1,1,0,1,1-1-1A1,1,0,0,1,727.24,270.23Z"/><path class="k" d="M716,289.75a1.23,1.23,0,1,1-1.22-1.22A1.23,1.23,0,0,1,716,289.75Z"/><path class="k" d="M761.49,328.88a1,1,0,1,1-1-1A1,1,0,0,1,761.49,328.88Z"/><circle class="k" cx="738.25" cy="335.79" r="0.9"/><path class="k" d="M680.23,361.16a.83.83,0,1,1-.82-.82A.83.83,0,0,1,680.23,361.16Z"/><path class="k" d="M738.13,368.23a1.13,1.13,0,1,1-1.12-1.12A1.12,1.12,0,0,1,738.13,368.23Z"/><path class="k" d="M759,364.48a.93.93,0,1,1-.93-.93A.93.93,0,0,1,759,364.48Z"/><path class="k" d="M755.79,414.76a1,1,0,1,1-1-1A1,1,0,0,1,755.79,414.76Z"/><path class="k" d="M784.08,448.24a1,1,0,0,1-2,0,1,1,0,1,1,2,0Z"/><path class="k" d="M801.57,369.77a.83.83,0,1,1-.82-.82A.83.83,0,0,1,801.57,369.77Z"/><path class="l" d="M817.18,371.58a.89.89,0,1,1-.89-.89A.89.89,0,0,1,817.18,371.58Z"/><path class="l" d="M884.29,340.35a1.15,1.15,0,1,1-1.14-1.14A1.14,1.14,0,0,1,884.29,340.35Z"/><path class="l" d="M880.52,377.48a.84.84,0,1,1-.84-.84A.84.84,0,0,1,880.52,377.48Z"/><circle class="l" cx="905.97" cy="387.79" r="0.84"/><path class="l" d="M879.46,428.77a1.16,1.16,0,1,1-1.16-1.16A1.16,1.16,0,0,1,879.46,428.77Z"/><path class="m" d="M457.83,158.85A.87.87,0,1,1,457,158,.87.87,0,0,1,457.83,158.85Z"/><path class="m" d="M413.38,97a.93.93,0,1,1-.92-.92A.93.93,0,0,1,413.38,97Z"/><path class="m" d="M417.55,86.66a1.1,1.1,0,1,1-1.1-1.09A1.1,1.1,0,0,1,417.55,86.66Z"/><path class="m" d="M460.58,87a1.14,1.14,0,1,1-1.14-1.14A1.14,1.14,0,0,1,460.58,87Z"/><circle class="m" cx="464.52" cy="103.64" r="0.74"/><path class="m" d="M440.92,109.52a.75.75,0,1,1-.75-.75A.75.75,0,0,1,440.92,109.52Z"/><path class="m" d="M443.71,44a1,1,0,1,1-1-1A1,1,0,0,1,443.71,44Z"/><path class="m" d="M409.85,71.13a1,1,0,1,1-1-1A1,1,0,0,1,409.85,71.13Z"/><path class="m" d="M388.92,60.36a.73.73,0,1,1-.72-.73A.73.73,0,0,1,388.92,60.36Z"/><path class="m" d="M367.36,81.7a.92.92,0,1,1-.92-.91A.92.92,0,0,1,367.36,81.7Z"/><path class="m" d="M354.39,34.09a.72.72,0,1,1-.72-.72A.72.72,0,0,1,354.39,34.09Z"/><path class="m" d="M329.32,43.46a.86.86,0,1,1-.86-.86A.86.86,0,0,1,329.32,43.46Z"/><path class="m" d="M309.74,56.62a1.12,1.12,0,1,1-1.12-1.12A1.12,1.12,0,0,1,309.74,56.62Z"/><path class="m" d="M290,47.69a.73.73,0,1,1-1.46,0,.73.73,0,0,1,1.46,0Z"/><path class="m" d="M268.53,53.87a1,1,0,1,1-1-1A1,1,0,0,1,268.53,53.87Z"/><path class="m" d="M269.22,51.75a.87.87,0,1,1-.87-.87A.86.86,0,0,1,269.22,51.75Z"/><path class="m" d="M292,50.12a.78.78,0,1,1-.77-.78A.78.78,0,0,1,292,50.12Z"/><path class="m" d="M317.84,56.22a1.15,1.15,0,1,1-1.15-1.14A1.15,1.15,0,0,1,317.84,56.22Z"/><path class="m" d="M316.5,98.45a.9.9,0,1,1-.9-.89A.9.9,0,0,1,316.5,98.45Z"/><path class="m" d="M354.35,77.19a1,1,0,1,1-1-1A1,1,0,0,1,354.35,77.19Z"/><path class="m" d="M365.88,96.28a.69.69,0,1,1-.69-.69A.69.69,0,0,1,365.88,96.28Z"/><path class="n" d="M863.09,157.23a1.12,1.12,0,1,1-1.12-1.12A1.12,1.12,0,0,1,863.09,157.23Z"/><path class="n" d="M897,172.52a1.27,1.27,0,1,1-1.26-1.27A1.26,1.26,0,0,1,897,172.52Z"/><circle class="n" cx="890.87" cy="221.34" r="1.25"/><path class="n" d="M881.23,247a.75.75,0,0,1-1.5,0,.75.75,0,0,1,1.5,0Z"/><path class="n" d="M898.07,259.3a1.14,1.14,0,1,1-1.14-1.13A1.14,1.14,0,0,1,898.07,259.3Z"/><path class="n" d="M870.13,262.28a.88.88,0,1,1-.88-.88A.88.88,0,0,1,870.13,262.28Z"/><path class="n" d="M866.65,297.61a.94.94,0,1,1-.94-.94A.94.94,0,0,1,866.65,297.61Z"/><path class="o" d="M650.66,110.37a.76.76,0,1,1-.76-.76A.76.76,0,0,1,650.66,110.37Z"/><path class="o" d="M626.79,79.75a1.15,1.15,0,1,1-2.29,0,1.15,1.15,0,0,1,2.29,0Z"/><circle class="o" cx="649.44" cy="57.06" r="1.16"/><circle class="o" cx="678.08" cy="73.35" r="0.97"/><path class="o" d="M699.48,46.2a1.27,1.27,0,0,1-2.53,0,1.27,1.27,0,1,1,2.53,0Z"/><path class="o" d="M727,75.19a1,1,0,1,1-1-1A1,1,0,0,1,727,75.19Z"/><path class="o" d="M746.19,27.08A1.18,1.18,0,1,1,745,25.9,1.17,1.17,0,0,1,746.19,27.08Z"/><path class="o" d="M770.1,43.54a.79.79,0,1,1-.78-.79A.79.79,0,0,1,770.1,43.54Z"/><path class="o" d="M792.78,35.25a1.18,1.18,0,1,1-1.17-1.18A1.17,1.17,0,0,1,792.78,35.25Z"/><path class="o" d="M805.4,110.37a1.14,1.14,0,1,1-1.13-1.13A1.14,1.14,0,0,1,805.4,110.37Z"/><path class="o" d="M806.7,95a1.22,1.22,0,1,1-2.43,0,1.22,1.22,0,0,1,2.43,0Z"/><path class="o" d="M853.56,101.42a.95.95,0,1,1-.95-1A.95.95,0,0,1,853.56,101.42Z"/><path class="o" d="M880.2,107.3a1.19,1.19,0,1,1-1.19-1.19A1.18,1.18,0,0,1,880.2,107.3Z"/><path class="o" d="M883.21,167.69a.76.76,0,1,1-.76-.76A.76.76,0,0,1,883.21,167.69Z"/><path class="o" d="M837.75,156a.85.85,0,1,1-.85-.85A.85.85,0,0,1,837.75,156Z"/><circle class="o" cx="828.29" cy="177.94" r="1.25"/><path class="o" d="M824.57,206.77a.78.78,0,1,1-.78-.78A.78.78,0,0,1,824.57,206.77Z"/><path class="o" d="M789.16,173.08a1,1,0,1,1-1-1.05A1,1,0,0,1,789.16,173.08Z"/><circle class="o" cx="768.65" cy="206.98" r="0.76"/><path class="o" d="M749.49,215a1.21,1.21,0,1,1-1.21-1.21A1.21,1.21,0,0,1,749.49,215Z"/><path class="o" d="M728.35,181.47a1.3,1.3,0,1,1-1.3-1.3A1.3,1.3,0,0,1,728.35,181.47Z"/><circle class="o" cx="705.46" cy="164.25" r="0.76"/><path class="o" d="M683.26,237.9a1,1,0,1,1-1-1A1,1,0,0,1,683.26,237.9Z"/><path class="p" d="M187.46,466.15a.5.5,0,1,1-.5-.49A.5.5,0,0,1,187.46,466.15Z"/><path class="p" d="M199,457.09a.58.58,0,1,1-.57-.58A.58.58,0,0,1,199,457.09Z"/><path class="p" d="M215.42,457.59a.68.68,0,1,1-.68-.68A.68.68,0,0,1,215.42,457.59Z"/><path class="p" d="M215.78,455.37a.49.49,0,1,1-.49-.48A.49.49,0,0,1,215.78,455.37Z"/><path class="p" d="M226.7,459.44a.57.57,0,1,1-.56-.57A.56.56,0,0,1,226.7,459.44Z"/><path class="p" d="M244.91,435a.68.68,0,1,1-.68-.68A.68.68,0,0,1,244.91,435Z"/><path class="p" d="M258.52,432.16a.51.51,0,0,1-1,0,.51.51,0,1,1,1,0Z"/><path class="p" d="M269.07,443.21a.42.42,0,1,1-.83,0,.42.42,0,0,1,.83,0Z"/><path class="p" d="M272.61,469.8a.7.7,0,1,1-.7-.7A.7.7,0,0,1,272.61,469.8Z"/><path class="p" d="M287.13,462.34a.5.5,0,1,1-.49-.5A.49.49,0,0,1,287.13,462.34Z"/><path class="p" d="M298.25,474.18a.7.7,0,1,1-.7-.7A.69.69,0,0,1,298.25,474.18Z"/><path class="p" d="M307.67,486.63a.66.66,0,0,1-.67.66.65.65,0,0,1-.66-.66A.66.66,0,0,1,307,486,.67.67,0,0,1,307.67,486.63Z"/><path class="p" d="M324.94,450.05a.69.69,0,1,1-.69-.69A.69.69,0,0,1,324.94,450.05Z"/><path class="p" d="M336,476.25a.46.46,0,1,1-.45-.46A.45.45,0,0,1,336,476.25Z"/><path class="p" d="M348,464.51a.59.59,0,1,1-.59-.59A.59.59,0,0,1,348,464.51Z"/><circle class="p" cx="367.14" cy="480.23" r="0.43"/><path class="p" d="M384.23,470.67a.61.61,0,1,1-.6-.61A.6.6,0,0,1,384.23,470.67Z"/><circle class="p" cx="371.62" cy="444.72" r="0.58"/><path class="p" d="M367.52,433a.59.59,0,0,1-.59.59.59.59,0,1,1,0-1.18A.59.59,0,0,1,367.52,433Z"/><path class="p" d="M385.39,421.54a.43.43,0,1,1-.42-.42A.42.42,0,0,1,385.39,421.54Z"/><path class="p" d="M374.72,411.93a.43.43,0,0,1-.43.43.43.43,0,0,1,0-.86A.43.43,0,0,1,374.72,411.93Z"/><path class="p" d="M363.31,418.52a.61.61,0,0,1-.61.61.61.61,0,0,1-.61-.61.62.62,0,0,1,.61-.61A.61.61,0,0,1,363.31,418.52Z"/><path class="p" d="M352.33,384.7a.42.42,0,1,1-.42-.42A.42.42,0,0,1,352.33,384.7Z"/><path class="p" d="M340.64,387.65a.5.5,0,1,1-.5-.5A.5.5,0,0,1,340.64,387.65Z"/><path class="p" d="M325.22,385.8a.56.56,0,1,1-.56-.55A.56.56,0,0,1,325.22,385.8Z"/><path class="p" d="M318.77,411.76a.55.55,0,0,1-.55.56.56.56,0,0,1,0-1.11A.55.55,0,0,1,318.77,411.76Z"/><path class="p" d="M305.25,398.6a.48.48,0,1,1-.95,0,.48.48,0,1,1,.95,0Z"/><path class="p" d="M294.76,413.6a.63.63,0,1,1-.63-.62A.63.63,0,0,1,294.76,413.6Z"/><path class="p" d="M281.2,394.87a.57.57,0,1,1-.57-.57A.57.57,0,0,1,281.2,394.87Z"/><path class="p" d="M270.32,400.06a.61.61,0,0,1-.61.6.61.61,0,0,1,0-1.21A.61.61,0,0,1,270.32,400.06Z"/><path class="p" d="M256.76,414.28a.59.59,0,0,1-.59.59.6.6,0,1,1,.59-.59Z"/><path class="p" d="M245,393.79a.45.45,0,1,1-.44-.45A.44.44,0,0,1,245,393.79Z"/><path class="p" d="M232.93,428.34a.54.54,0,0,1-.54.54.54.54,0,1,1,0-1.07A.54.54,0,0,1,232.93,428.34Z"/><path class="p" d="M221.53,425.08a.52.52,0,0,1-.52.52.52.52,0,0,1-.53-.52.53.53,0,0,1,.53-.53A.52.52,0,0,1,221.53,425.08Z"/><path class="p" d="M210.35,397a.46.46,0,0,1-.46.46.46.46,0,0,1,0-.91A.46.46,0,0,1,210.35,397Z"/><path class="p" d="M196.35,414.43a.42.42,0,1,1-.84,0,.42.42,0,0,1,.84,0Z"/><path class="p" d="M179.58,414.67a.53.53,0,1,1-.53-.53A.53.53,0,0,1,179.58,414.67Z"/><path class="p" d="M161.87,407.88a.57.57,0,0,1-1.13,0,.57.57,0,1,1,1.13,0Z"/><path class="p" d="M162.86,388.87a.6.6,0,0,1-.6.61.61.61,0,1,1,0-1.21A.6.6,0,0,1,162.86,388.87Z"/><path class="p" d="M156.86,376a.59.59,0,1,1-.58-.58A.58.58,0,0,1,156.86,376Z"/><path class="p" d="M170.75,360.49a.55.55,0,0,1-.55.55.54.54,0,0,1-.55-.55.55.55,0,0,1,.55-.55A.55.55,0,0,1,170.75,360.49Z"/><circle class="p" cx="172.89" cy="349.14" r="0.46"/><path class="p" d="M184.13,336.56a.61.61,0,1,1-.61-.61A.6.6,0,0,1,184.13,336.56Z"/><path class="p" d="M158,311.34a.62.62,0,0,1-1.24,0,.62.62,0,1,1,1.24,0Z"/><path class="p" d="M178.53,313.91a.7.7,0,1,1-.7-.7A.7.7,0,0,1,178.53,313.91Z"/><path class="p" d="M192.2,337.55a.63.63,0,1,1-.63-.62A.63.63,0,0,1,192.2,337.55Z"/><path class="p" d="M204.31,310.16a.57.57,0,0,1-.56.56.56.56,0,0,1,0-1.12A.57.57,0,0,1,204.31,310.16Z"/><path class="p" d="M216.57,306a.47.47,0,1,1-.93,0,.47.47,0,0,1,.93,0Z"/><path class="p" d="M229.06,342.94a.5.5,0,1,1-.49-.49A.49.49,0,0,1,229.06,342.94Z"/><path class="p" d="M240.48,323.46a.57.57,0,0,1-.57.57.56.56,0,0,1-.57-.57.57.57,0,0,1,.57-.57A.58.58,0,0,1,240.48,323.46Z"/><path class="p" d="M252.13,313.91a.66.66,0,1,1-.66-.65A.66.66,0,0,1,252.13,313.91Z"/><path class="p" d="M263.58,329a.45.45,0,1,1-.45-.45A.45.45,0,0,1,263.58,329Z"/><circle class="p" cx="275.81" cy="305.73" r="0.51"/><circle class="p" cx="287.28" cy="311.24" r="0.52"/><path class="p" d="M309.55,317.8a.46.46,0,1,1-.46-.46A.46.46,0,0,1,309.55,317.8Z"/><path class="p" d="M278.19,310.91a.47.47,0,1,1-.47-.47A.47.47,0,0,1,278.19,310.91Z"/><path class="p" d="M280.35,299.15a.5.5,0,0,1-.5.5.5.5,0,0,1-.5-.5.5.5,0,0,1,.5-.5A.51.51,0,0,1,280.35,299.15Z"/><path class="p" d="M283,271.72a.67.67,0,1,1-.67-.68A.67.67,0,0,1,283,271.72Z"/><circle class="p" cx="253.75" cy="297.28" r="0.47"/><path class="p" d="M258.09,259.33a.44.44,0,0,1-.44.44.44.44,0,1,1,0-.88A.44.44,0,0,1,258.09,259.33Z"/><path class="p" d="M244.67,261.41a.61.61,0,1,1-.6-.6A.6.6,0,0,1,244.67,261.41Z"/><path class="p" d="M226.21,276.15a.52.52,0,0,1-.53.52.52.52,0,0,1-.52-.52.52.52,0,0,1,.52-.53A.53.53,0,0,1,226.21,276.15Z"/><circle class="p" cx="218.56" cy="258" r="0.41"/><path class="p" d="M206.62,254.81a.45.45,0,1,1-.9,0,.45.45,0,1,1,.9,0Z"/><path class="p" d="M186.12,274.24a.67.67,0,1,1-.67-.67A.67.67,0,0,1,186.12,274.24Z"/><path class="p" d="M181.93,248.72a.49.49,0,1,1-.49-.49A.49.49,0,0,1,181.93,248.72Z"/><path class="p" d="M171.32,244.19a.6.6,0,0,1-.61.6.61.61,0,1,1,.61-.6Z"/><path class="p" d="M152.17,249.11a.48.48,0,0,1-.48.48.49.49,0,1,1,0-1A.48.48,0,0,1,152.17,249.11Z"/><path class="p" d="M165.39,219.64a.49.49,0,1,1-.49-.49A.49.49,0,0,1,165.39,219.64Z"/><path class="p" d="M166.35,214.43a.61.61,0,0,1-.61.61.61.61,0,0,1-.61-.61.62.62,0,0,1,.61-.61A.61.61,0,0,1,166.35,214.43Z"/><path class="p" d="M143.46,203.63a.5.5,0,1,1-.49-.5A.49.49,0,0,1,143.46,203.63Z"/><circle class="p" cx="166.67" cy="214.52" r="0.49"/><path class="p" d="M170.41,210.68a.43.43,0,1,1-.43-.43A.43.43,0,0,1,170.41,210.68Z"/><path class="p" d="M178,204.84a.58.58,0,1,1-.58-.58A.58.58,0,0,1,178,204.84Z"/><path class="p" d="M189.31,185.42a.57.57,0,0,1-.57.57.56.56,0,0,1-.57-.57.57.57,0,0,1,.57-.57A.58.58,0,0,1,189.31,185.42Z"/><path class="p" d="M202.45,168.89a.48.48,0,1,1-.47-.47A.47.47,0,0,1,202.45,168.89Z"/><path class="p" d="M215.07,180.71a.41.41,0,0,1-.42.41.41.41,0,0,1-.41-.41.41.41,0,0,1,.41-.42A.42.42,0,0,1,215.07,180.71Z"/><circle class="p" cx="226.16" cy="186.63" r="0.59"/><path class="p" d="M350.38,170.16a.49.49,0,1,1-.66.21A.48.48,0,0,1,350.38,170.16Z"/><path class="p" d="M347.64,155.74a.57.57,0,1,1-.78.24A.58.58,0,0,1,347.64,155.74Z"/><path class="p" d="M355.62,141.39a.66.66,0,0,1,.29.91.68.68,0,0,1-1.2-.62A.66.66,0,0,1,355.62,141.39Z"/><path class="p" d="M353.82,140.05a.48.48,0,0,1,.21.65.49.49,0,1,1-.86-.45A.48.48,0,0,1,353.82,140.05Z"/><path class="p" d="M362.45,132.21a.56.56,0,0,1,.24.76.56.56,0,1,1-.24-.76Z"/><path class="p" d="M349.07,104.79a.68.68,0,1,1-.92.29A.69.69,0,0,1,349.07,104.79Z"/><path class="p" d="M352.84,91.42a.5.5,0,0,1,.22.68.51.51,0,0,1-.69.22.51.51,0,0,1,.47-.9Z"/><path class="p" d="M367.51,87.13a.41.41,0,0,1,.17.56.4.4,0,0,1-.55.17.4.4,0,0,1-.18-.56A.41.41,0,0,1,367.51,87.13Z"/><path class="p" d="M392.75,96.19a.7.7,0,1,1-.95.3A.72.72,0,0,1,392.75,96.19Z"/><path class="p" d="M392.79,79.87a.49.49,0,1,1-.45.88.5.5,0,0,1-.22-.67A.51.51,0,0,1,392.79,79.87Z"/><path class="p" d="M408.42,75.44a.69.69,0,1,1-.64,1.23.69.69,0,1,1,.64-1.23Z"/><path class="p" d="M423.8,72.79a.67.67,0,1,1-.89.29A.67.67,0,0,1,423.8,72.79Z"/><path class="p" d="M399.25,40.64a.69.69,0,1,1-.93.3A.7.7,0,0,1,399.25,40.64Z"/><path class="p" d="M427.6,42.87a.46.46,0,0,1-.42.81.45.45,0,0,1-.2-.62A.46.46,0,0,1,427.6,42.87Z"/><path class="p" d="M422.67,26.85a.58.58,0,0,1,.25.78.59.59,0,0,1-.79.26.59.59,0,0,1,.54-1Z"/><path class="p" d="M445.64,16.65a.42.42,0,1,1-.57.18A.42.42,0,0,1,445.64,16.65Z"/><path class="p" d="M342.32,10.88a.56.56,0,0,1,.24.75.57.57,0,0,1-.76.24.56.56,0,0,1-.23-.76A.55.55,0,0,1,342.32,10.88Z"/><path class="p" d="M362.41,28.53a.55.55,0,1,1-.74.24A.55.55,0,0,1,362.41,28.53Z"/><path class="p" d="M344.51,34.49a.48.48,0,1,1-.65.21A.48.48,0,0,1,344.51,34.49Z"/><path class="p" d="M353,50.7a.63.63,0,0,1,.27.85.62.62,0,0,1-.84.27.63.63,0,0,1-.27-.85A.62.62,0,0,1,353,50.7Z"/><path class="p" d="M330.15,54.14a.56.56,0,0,1,.24.77.58.58,0,0,1-.77.25.59.59,0,0,1-.25-.78A.58.58,0,0,1,330.15,54.14Z"/><path class="p" d="M329.75,66.19a.61.61,0,1,1-.82.26A.62.62,0,0,1,329.75,66.19Z"/><path class="p" d="M336.15,84.76a.59.59,0,0,1,.25.8.58.58,0,0,1-.79.25.59.59,0,1,1,.54-1Z"/><path class="p" d="M312.53,85.84a.44.44,0,0,1,.19.6.45.45,0,1,1-.19-.6Z"/><path class="p" d="M337.7,112.39a.55.55,0,0,1,.23.73.54.54,0,0,1-1-.5A.55.55,0,0,1,337.7,112.39Z"/><path class="p" d="M329.56,121a.53.53,0,1,1-.71.22A.53.53,0,0,1,329.56,121Z"/><path class="p" d="M299.46,118a.46.46,0,0,1,.2.62.46.46,0,1,1-.2-.62Z"/><path class="p" d="M308.53,138.49a.42.42,0,1,1-.38.74.4.4,0,0,1-.18-.56A.42.42,0,0,1,308.53,138.49Z"/><path class="p" d="M301,153.49a.54.54,0,0,1,.23.72.53.53,0,0,1-.72.22.52.52,0,0,1-.22-.71A.53.53,0,0,1,301,153.49Z"/><path class="p" d="M286.87,166.1a.58.58,0,0,1,.24.76.56.56,0,1,1-.24-.76Z"/><path class="p" d="M270.44,156.49a.6.6,0,1,1-.81.26A.59.59,0,0,1,270.44,156.49Z"/><path class="p" d="M256.23,155.9a.58.58,0,1,1-.78.25A.57.57,0,0,1,256.23,155.9Z"/><path class="p" d="M248.86,136.45a.55.55,0,1,1-.74.23A.55.55,0,0,1,248.86,136.45Z"/><path class="p" d="M240,128.91a.47.47,0,0,1,.2.62.47.47,0,0,1-.63.2.46.46,0,0,1,.43-.82Z"/><path class="p" d="M233.75,113.56a.61.61,0,0,1,.25.82.6.6,0,0,1-.81.26.61.61,0,0,1-.26-.82A.62.62,0,0,1,233.75,113.56Z"/><path class="p" d="M199.33,125.21a.62.62,0,1,1-.56,1.1.61.61,0,0,1-.27-.83A.62.62,0,0,1,199.33,125.21Z"/><path class="p" d="M211.06,108.13a.7.7,0,1,1-.95.3A.71.71,0,0,1,211.06,108.13Z"/><path class="p" d="M238.34,106.86a.62.62,0,0,1-.57,1.1.62.62,0,1,1,.57-1.1Z"/><path class="p" d="M219.57,83.52a.54.54,0,0,1,.24.75.56.56,0,0,1-1-.51A.54.54,0,0,1,219.57,83.52Z"/><path class="p" d="M221.49,70.7a.47.47,0,0,1,.2.63.48.48,0,0,1-.63.2.47.47,0,1,1,.43-.83Z"/><path class="p" d="M260.06,76.59a.5.5,0,0,1,.22.67.5.5,0,1,1-.88-.46A.5.5,0,0,1,260.06,76.59Z"/><path class="p" d="M248,57.5a.56.56,0,0,1,.24.77.57.57,0,0,1-.76.24.58.58,0,0,1-.25-.77A.57.57,0,0,1,248,57.5Z"/><path class="p" d="M244.88,42.76a.66.66,0,0,1,.28.89.66.66,0,0,1-1.17-.6A.67.67,0,0,1,244.88,42.76Z"/><path class="p" d="M263.55,39.53a.45.45,0,0,1-.41.79.45.45,0,1,1,.41-.79Z"/><path class="p" d="M248.73,17.51a.51.51,0,0,1-.47.91.51.51,0,0,1,.47-.91Z"/><path class="p" d="M258.89,9.85a.52.52,0,0,1,.23.7.53.53,0,0,1-.7.22.51.51,0,0,1-.22-.7A.51.51,0,0,1,258.89,9.85Z"/><path class="p" d="M254.19,18.23a.48.48,0,0,1,.2.64.47.47,0,0,1-.63.2.47.47,0,0,1-.2-.64A.47.47,0,0,1,254.19,18.23Z"/><path class="p" d="M244.74,10.92a.5.5,0,1,1-.68.21A.5.5,0,0,1,244.74,10.92Z"/><path class="p" d="M231.07,33.26a.48.48,0,0,1,.2.64.47.47,0,0,1-.63.2.47.47,0,0,1-.2-.64A.47.47,0,0,1,231.07,33.26Z"/><path class="p" d="M199.14,12.38a.44.44,0,1,1-.59.19A.44.44,0,0,1,199.14,12.38Z"/><path class="p" d="M194.83,25.26a.61.61,0,1,1-.82.26A.62.62,0,0,1,194.83,25.26Z"/><path class="p" d="M199.43,48.43a.54.54,0,0,1,.22.71.53.53,0,0,1-.71.23.54.54,0,0,1-.22-.71A.53.53,0,0,1,199.43,48.43Z"/><path class="p" d="M180,46.52a.42.42,0,0,1-.38.74.42.42,0,0,1,.38-.74Z"/><path class="p" d="M171.47,56a.45.45,0,1,1-.61.2A.45.45,0,0,1,171.47,56Z"/><path class="p" d="M179.32,83.16a.68.68,0,0,1,.29.91.68.68,0,0,1-1.2-.62A.68.68,0,0,1,179.32,83.16Z"/><path class="p" d="M154.72,75.15a.5.5,0,0,1,.21.67.49.49,0,0,1-.66.21.49.49,0,0,1,.45-.88Z"/><path class="p" d="M145.82,82.5a.61.61,0,1,1-.82.26A.61.61,0,0,1,145.82,82.5Z"/><path class="p" d="M141.39,101.76a.5.5,0,0,1,.21.66.49.49,0,1,1-.21-.66Z"/><path class="p" d="M121.29,76.48a.49.49,0,0,1-.45.87.49.49,0,0,1,.45-.87Z"/><path class="p" d="M117.11,73.24a.61.61,0,1,1-.82.26A.6.6,0,0,1,117.11,73.24Z"/><path class="p" d="M97,88.6a.49.49,0,0,1,.22.67.5.5,0,1,1-.89-.45A.49.49,0,0,1,97,88.6Z"/><path class="p" d="M117.56,72.56a.48.48,0,0,1,.21.66.49.49,0,0,1-.66.22.5.5,0,0,1-.21-.67A.48.48,0,0,1,117.56,72.56Z"/><path class="p" d="M115.64,67.91a.43.43,0,0,1,.18.58.42.42,0,0,1-.57.18.43.43,0,1,1,.39-.76Z"/><path class="p" d="M113.94,58.49a.59.59,0,1,1-.79.25A.6.6,0,0,1,113.94,58.49Z"/><path class="p" d="M101.89,39.52a.58.58,0,0,1,.25.77.57.57,0,0,1-1-.52A.58.58,0,0,1,101.89,39.52Z"/><path class="p" d="M93.25,20.25a.48.48,0,0,1,.21.64.48.48,0,1,1-.85-.44A.48.48,0,0,1,93.25,20.25Z"/><path class="p" d="M109.54,14.48a.41.41,0,1,1-.38.73.42.42,0,0,1-.18-.56A.41.41,0,0,1,109.54,14.48Z"/><path class="p" d="M120.17,6.82a.59.59,0,0,1,.25.8.59.59,0,0,1-1-.54A.6.6,0,0,1,120.17,6.82Z"/><path class="p" d="M569.77,358.68a.5.5,0,0,1,.21.67.5.5,0,1,1-.21-.67Z"/><path class="p" d="M567,344.26a.57.57,0,0,1,.25.78.59.59,0,0,1-.78.25.58.58,0,0,1,.53-1Z"/><path class="p" d="M575,329.91a.68.68,0,0,1,.29.91.66.66,0,0,1-.91.29.68.68,0,0,1,.62-1.2Z"/><path class="p" d="M573.21,328.57a.49.49,0,1,1-.66.21A.5.5,0,0,1,573.21,328.57Z"/><path class="p" d="M581.84,320.74a.57.57,0,0,1,.24.76.56.56,0,0,1-.76.24.56.56,0,1,1,.52-1Z"/><path class="p" d="M568.45,293.32a.67.67,0,0,1,.29.91.66.66,0,0,1-.91.29.68.68,0,0,1,.62-1.2Z"/><path class="p" d="M572.23,279.94a.52.52,0,0,1,.21.69.51.51,0,1,1-.9-.47A.52.52,0,0,1,572.23,279.94Z"/><path class="p" d="M586.89,275.65a.41.41,0,0,1,.18.56.4.4,0,0,1-.56.18.42.42,0,0,1-.18-.56A.43.43,0,0,1,586.89,275.65Z"/><path class="p" d="M612.13,284.72a.7.7,0,1,1-.94.3A.7.7,0,0,1,612.13,284.72Z"/><path class="p" d="M612.18,268.4a.5.5,0,0,1-.46.88.5.5,0,0,1,.46-.88Z"/><path class="p" d="M627.8,264a.7.7,0,0,1-.64,1.24.7.7,0,0,1,.64-1.24Z"/><path class="p" d="M643.19,261.32a.66.66,0,1,1-.9.29A.66.66,0,0,1,643.19,261.32Z"/><path class="p" d="M618.64,229.17a.69.69,0,1,1-.64,1.22.69.69,0,0,1,.64-1.22Z"/><path class="p" d="M647,231.39a.46.46,0,1,1-.42.81.46.46,0,0,1,.42-.81Z"/><path class="p" d="M642.05,215.37a.58.58,0,0,1,.25.79.57.57,0,0,1-.78.25.58.58,0,1,1,.53-1Z"/><path class="p" d="M665,205.17a.43.43,0,0,1,.18.58.43.43,0,0,1-.76-.39A.44.44,0,0,1,665,205.17Z"/><path class="p" d="M664.19,186a.61.61,0,1,1-.81.26A.6.6,0,0,1,664.19,186Z"/><path class="p" d="M635.61,184.75a.57.57,0,0,1,.25.78.59.59,0,0,1-.78.25.58.58,0,0,1-.24-.78A.56.56,0,0,1,635.61,184.75Z"/><path class="p" d="M623.08,183.53a.59.59,0,0,1,.25.8.6.6,0,0,1-.8.25.59.59,0,1,1,.55-1.05Z"/><path class="p" d="M621.09,162.38a.42.42,0,0,1-.39.75.43.43,0,0,1-.18-.57A.42.42,0,0,1,621.09,162.38Z"/><path class="p" d="M607.65,167.44a.44.44,0,0,1,.19.58.42.42,0,0,1-.58.19.43.43,0,0,1-.19-.58A.44.44,0,0,1,607.65,167.44Z"/><path class="p" d="M608.26,180.61a.6.6,0,0,1,.26.82.61.61,0,0,1-1.08-.56A.61.61,0,0,1,608.26,180.61Z"/><path class="p" d="M573.18,174.82a.42.42,0,0,1,.18.57.44.44,0,0,1-.57.18.42.42,0,1,1,.39-.75Z"/><path class="p" d="M570.43,186.55a.51.51,0,0,1,.21.68.49.49,0,0,1-.67.21.5.5,0,0,1-.22-.67A.51.51,0,0,1,570.43,186.55Z"/><path class="p" d="M561.7,199.4a.56.56,0,1,1-.51,1,.56.56,0,0,1,.51-1Z"/><path class="p" d="M581.8,217.06a.55.55,0,0,1,.24.74.55.55,0,1,1-1-.51A.55.55,0,0,1,581.8,217.06Z"/><path class="p" d="M563.9,223a.48.48,0,0,1,.2.64.47.47,0,0,1-.64.21.48.48,0,0,1-.21-.65A.49.49,0,0,1,563.9,223Z"/><path class="p" d="M572.4,239.23a.63.63,0,1,1-.58,1.11.62.62,0,0,1-.27-.84A.63.63,0,0,1,572.4,239.23Z"/><path class="p" d="M549.53,242.66a.57.57,0,0,1,.25.78.57.57,0,0,1-.77.24.56.56,0,0,1-.25-.77A.58.58,0,0,1,549.53,242.66Z"/><path class="p" d="M549.13,254.72a.6.6,0,1,1-.55,1.07.6.6,0,0,1-.26-.81A.59.59,0,0,1,549.13,254.72Z"/><path class="p" d="M555.54,273.29a.58.58,0,0,1,.25.79.59.59,0,1,1-.25-.79Z"/><path class="p" d="M531.91,274.36a.45.45,0,0,1-.41.8.46.46,0,0,1-.19-.61A.45.45,0,0,1,531.91,274.36Z"/><path class="p" d="M557.08,300.92a.53.53,0,0,1,.23.73.54.54,0,1,1-.95-.5A.53.53,0,0,1,557.08,300.92Z"/><path class="p" d="M548.94,309.54a.53.53,0,1,1-.71.23A.53.53,0,0,1,548.94,309.54Z"/><path class="p" d="M518.85,306.57a.46.46,0,1,1-.61.19A.45.45,0,0,1,518.85,306.57Z"/><path class="p" d="M527.92,327a.42.42,0,0,1,.18.56.42.42,0,0,1-.57.18.41.41,0,0,1-.17-.56A.4.4,0,0,1,527.92,327Z"/><path class="p" d="M520.42,342a.52.52,0,0,1,.23.71.53.53,0,1,1-.94-.48A.53.53,0,0,1,520.42,342Z"/><path class="p" d="M506.25,354.63a.56.56,0,1,1-.76.24A.56.56,0,0,1,506.25,354.63Z"/><path class="p" d="M489.83,345a.61.61,0,1,1-.82.26A.62.62,0,0,1,489.83,345Z"/><path class="p" d="M475.62,344.43a.57.57,0,0,1,.25.78.58.58,0,0,1-.79.25.59.59,0,0,1-.25-.78A.58.58,0,0,1,475.62,344.43Z"/><path class="p" d="M468.24,325a.55.55,0,1,1-.74.24A.56.56,0,0,1,468.24,325Z"/><path class="p" d="M459.35,317.44a.46.46,0,1,1-.42.82.47.47,0,0,1-.2-.62A.46.46,0,0,1,459.35,317.44Z"/><path class="p" d="M453.13,302.09a.61.61,0,0,1-.55,1.08.61.61,0,0,1,.55-1.08Z"/><path class="p" d="M418.72,313.74a.63.63,0,0,1,.27.83.62.62,0,1,1-1.1-.57A.61.61,0,0,1,418.72,313.74Z"/><path class="p" d="M430.44,296.66a.7.7,0,0,1,.31.94.71.71,0,0,1-.95.3.7.7,0,0,1-.3-.94A.69.69,0,0,1,430.44,296.66Z"/><path class="p" d="M457.72,295.38a.62.62,0,0,1,.27.84.64.64,0,0,1-.84.27.63.63,0,0,1-.26-.84A.61.61,0,0,1,457.72,295.38Z"/><path class="p" d="M439,272a.56.56,0,0,1-.51,1,.56.56,0,0,1-.24-.76A.56.56,0,0,1,439,272Z"/><path class="p" d="M440.87,259.22a.47.47,0,0,1,.2.63.45.45,0,0,1-.62.2.47.47,0,0,1-.2-.63A.47.47,0,0,1,440.87,259.22Z"/><path class="p" d="M479.45,265.12a.49.49,0,1,1-.66.21A.48.48,0,0,1,479.45,265.12Z"/><path class="p" d="M467.4,246a.57.57,0,0,1-.53,1,.57.57,0,0,1-.24-.77A.58.58,0,0,1,467.4,246Z"/><path class="p" d="M464.27,231.29a.66.66,0,1,1-.89.28A.66.66,0,0,1,464.27,231.29Z"/><path class="p" d="M482.94,228.06a.45.45,0,0,1-.41.79.45.45,0,1,1,.41-.79Z"/><path class="p" d="M468.12,206a.52.52,0,1,1-.7.22A.52.52,0,0,1,468.12,206Z"/><path class="p" d="M478.28,198.38a.5.5,0,0,1,.22.69.52.52,0,0,1-.7.23.53.53,0,0,1-.22-.7A.51.51,0,0,1,478.28,198.38Z"/><path class="p" d="M494.1,182.08a.46.46,0,0,1,.2.61.46.46,0,1,1-.2-.61Z"/><path class="p" d="M473.58,206.76a.47.47,0,0,1,.2.64.47.47,0,0,1-.63.2.47.47,0,0,1-.21-.64A.48.48,0,0,1,473.58,206.76Z"/><path class="p" d="M464.12,199.44a.5.5,0,1,1-.46.89.5.5,0,0,1,.46-.89Z"/><path class="p" d="M441,184.52a.68.68,0,1,1-.91.29A.68.68,0,0,1,441,184.52Z"/><path class="p" d="M450.46,221.79a.47.47,0,0,1-.43.84.47.47,0,0,1-.21-.64A.48.48,0,0,1,450.46,221.79Z"/><path class="p" d="M418.53,200.91a.44.44,0,1,1-.6.19A.44.44,0,0,1,418.53,200.91Z"/><path class="p" d="M414.21,213.79a.6.6,0,0,1,.26.81.6.6,0,0,1-1.07-.55A.6.6,0,0,1,414.21,213.79Z"/><path class="p" d="M418.81,237a.53.53,0,0,1,.23.71.52.52,0,0,1-.71.22.51.51,0,0,1-.22-.7A.52.52,0,0,1,418.81,237Z"/><path class="p" d="M399.37,235.05a.42.42,0,0,1,.18.56.42.42,0,1,1-.18-.56Z"/><path class="p" d="M390.86,244.55a.45.45,0,1,1-.42.8.45.45,0,1,1,.42-.8Z"/><path class="p" d="M398.71,271.69a.67.67,0,1,1-.91.29A.67.67,0,0,1,398.71,271.69Z"/><path class="p" d="M374.11,263.68a.49.49,0,1,1-.67.21A.51.51,0,0,1,374.11,263.68Z"/><path class="p" d="M365.2,271a.6.6,0,1,1-.81.26A.59.59,0,0,1,365.2,271Z"/><path class="p" d="M360.78,290.29a.49.49,0,1,1-.45.86.48.48,0,0,1-.21-.65A.5.5,0,0,1,360.78,290.29Z"/><path class="p" d="M340.68,265a.49.49,0,1,1-.45.87.48.48,0,0,1-.21-.66A.49.49,0,0,1,340.68,265Z"/><path class="p" d="M336.5,261.76a.62.62,0,0,1,.26.83.61.61,0,0,1-1.09-.56A.63.63,0,0,1,336.5,261.76Z"/><path class="p" d="M316.38,277.13a.5.5,0,1,1-.46.88.49.49,0,0,1-.21-.67A.5.5,0,0,1,316.38,277.13Z"/><path class="p" d="M337,261.08a.5.5,0,0,1,.21.67.49.49,0,0,1-.88-.45A.5.5,0,0,1,337,261.08Z"/><path class="p" d="M335,256.44a.42.42,0,0,1,.18.57.42.42,0,0,1-.58.19.43.43,0,1,1,.4-.76Z"/><path class="p" d="M333.32,247a.58.58,0,1,1-.78.25A.58.58,0,0,1,333.32,247Z"/><path class="p" d="M321.28,228.05a.56.56,0,0,1,.24.77.57.57,0,0,1-.77.24.58.58,0,0,1-.24-.77A.56.56,0,0,1,321.28,228.05Z"/><path class="p" d="M312.64,208.78a.47.47,0,0,1-.44.84.47.47,0,1,1,.44-.84Z"/><path class="p" d="M328.93,203a.42.42,0,0,1-.38.74.41.41,0,0,1-.18-.56A.42.42,0,0,1,328.93,203Z"/><path class="p" d="M339.55,195.35a.59.59,0,0,1,.26.79.59.59,0,1,1-1.05-.54A.58.58,0,0,1,339.55,195.35Z"/><path class="p" d="M846.79,211.2a.48.48,0,0,1,.21.66.49.49,0,1,1-.21-.66Z"/><path class="p" d="M844,196.78a.56.56,0,0,1,.25.77.57.57,0,1,1-.25-.77Z"/><path class="p" d="M852,182.43a.68.68,0,1,1-.91.29A.66.66,0,0,1,852,182.43Z"/><path class="p" d="M850.23,181.09a.48.48,0,0,1,.21.65.49.49,0,1,1-.21-.65Z"/><path class="p" d="M858.86,173.25a.57.57,0,0,1-.52,1,.57.57,0,1,1,.52-1Z"/><path class="p" d="M845.47,145.83a.68.68,0,0,1-.62,1.21.69.69,0,0,1-.29-.92A.68.68,0,0,1,845.47,145.83Z"/><path class="p" d="M849.25,132.46a.51.51,0,1,1-.69.22A.51.51,0,0,1,849.25,132.46Z"/><path class="p" d="M863.91,128.17a.4.4,0,0,1,.18.56.41.41,0,0,1-.56.17.42.42,0,0,1-.18-.56A.41.41,0,0,1,863.91,128.17Z"/><path class="p" d="M889.15,137.23a.7.7,0,0,1-.64,1.25.7.7,0,0,1,.64-1.25Z"/><path class="p" d="M889.2,120.91a.5.5,0,0,1,.21.67.5.5,0,0,1-.88-.46A.51.51,0,0,1,889.2,120.91Z"/><path class="p" d="M904.82,116.48a.69.69,0,1,1-.64,1.23.69.69,0,1,1,.64-1.23Z"/><path class="p" d="M920.21,113.83a.67.67,0,0,1,.28.9.65.65,0,0,1-.89.29.67.67,0,0,1-.29-.9A.67.67,0,0,1,920.21,113.83Z"/><path class="p" d="M895.66,81.68a.68.68,0,0,1,.29.93.69.69,0,1,1-.29-.93Z"/><path class="p" d="M924,83.91a.45.45,0,0,1,.2.61.46.46,0,1,1-.81-.42A.45.45,0,0,1,924,83.91Z"/><path class="p" d="M919.07,67.89a.58.58,0,0,1,.25.79.59.59,0,0,1-.78.25.6.6,0,0,1-.26-.79A.58.58,0,0,1,919.07,67.89Z"/><path class="p" d="M912.63,37.26a.58.58,0,1,1-.77.25A.57.57,0,0,1,912.63,37.26Z"/><path class="p" d="M900.1,36a.59.59,0,0,1-.55,1.05.58.58,0,0,1-.25-.79A.6.6,0,0,1,900.1,36Z"/><path class="p" d="M898.11,14.89a.42.42,0,0,1,.18.57.42.42,0,1,1-.18-.57Z"/><path class="p" d="M884.67,20a.44.44,0,0,1,.19.58.43.43,0,1,1-.19-.58Z"/><path class="p" d="M885.28,33.12a.6.6,0,0,1,.26.82.61.61,0,0,1-.82.26.62.62,0,0,1-.26-.82A.61.61,0,0,1,885.28,33.12Z"/><path class="p" d="M850.2,27.33a.42.42,0,1,1-.57.18A.42.42,0,0,1,850.2,27.33Z"/><path class="p" d="M847.45,39.07A.5.5,0,0,1,847,40a.5.5,0,1,1,.46-.89Z"/><path class="p" d="M838.72,51.92a.54.54,0,0,1,.24.75.56.56,0,0,1-1-.51A.54.54,0,0,1,838.72,51.92Z"/><path class="p" d="M858.82,69.57a.55.55,0,0,1,.24.74.56.56,0,0,1-.75.24.55.55,0,0,1,.51-1Z"/><path class="p" d="M840.92,75.53a.49.49,0,0,1,.2.65.48.48,0,0,1-.64.2.47.47,0,0,1-.21-.64A.48.48,0,0,1,840.92,75.53Z"/><path class="p" d="M849.42,91.74a.63.63,0,1,1-.85.27A.63.63,0,0,1,849.42,91.74Z"/><path class="p" d="M826.55,95.18a.56.56,0,0,1,.25.77.58.58,0,0,1-.77.25.57.57,0,1,1,.52-1Z"/><path class="p" d="M826.15,107.23a.61.61,0,0,1-.55,1.08.61.61,0,0,1-.26-.82A.6.6,0,0,1,826.15,107.23Z"/><path class="p" d="M832.56,125.8a.59.59,0,1,1-.8.25A.59.59,0,0,1,832.56,125.8Z"/><path class="p" d="M808.93,126.88a.44.44,0,0,1,.19.6.45.45,0,0,1-.79-.41A.44.44,0,0,1,808.93,126.88Z"/><path class="p" d="M834.1,153.43a.54.54,0,1,1-.72.23A.54.54,0,0,1,834.1,153.43Z"/><path class="p" d="M826,162.06a.53.53,0,0,1,.23.71.54.54,0,0,1-.71.22.52.52,0,1,1,.48-.93Z"/><path class="p" d="M795.87,159.08a.47.47,0,0,1,.2.62.46.46,0,0,1-.62.19.46.46,0,0,1,.42-.81Z"/><path class="p" d="M804.94,179.53a.44.44,0,0,1,.18.57.42.42,0,0,1-.57.17.41.41,0,0,1-.17-.56A.42.42,0,0,1,804.94,179.53Z"/><path class="p" d="M797.44,194.53a.53.53,0,0,1,.23.72.52.52,0,0,1-.71.22.53.53,0,0,1-.23-.71A.53.53,0,0,1,797.44,194.53Z"/><path class="p" d="M783.27,207.14a.57.57,0,0,1,.25.76.57.57,0,1,1-.25-.76Z"/><path class="p" d="M766.85,197.53a.6.6,0,1,1-.56,1.07.6.6,0,1,1,.56-1.07Z"/><path class="p" d="M752.64,196.94a.57.57,0,0,1,.25.78.58.58,0,0,1-.79.25.59.59,0,0,1-.25-.78A.58.58,0,0,1,752.64,196.94Z"/><path class="p" d="M745.26,177.49a.55.55,0,1,1-.74.23A.55.55,0,0,1,745.26,177.49Z"/><path class="p" d="M736.37,170a.46.46,0,0,1,.2.62.45.45,0,0,1-.62.2.46.46,0,1,1,.42-.82Z"/><path class="p" d="M730.15,154.61a.6.6,0,1,1-.81.25A.6.6,0,0,1,730.15,154.61Z"/><path class="p" d="M695.74,166.25a.64.64,0,0,1,.27.84.62.62,0,0,1-.84.26.62.62,0,0,1,.57-1.1Z"/><path class="p" d="M707.46,149.17a.7.7,0,1,1-.94.3A.7.7,0,0,1,707.46,149.17Z"/><path class="p" d="M734.74,147.9a.61.61,0,0,1,.27.83.62.62,0,1,1-1.1-.57A.61.61,0,0,1,734.74,147.9Z"/><path class="p" d="M716,124.56a.55.55,0,0,1,.24.75.56.56,0,0,1-.75.24.56.56,0,0,1,.51-1Z"/><path class="p" d="M717.89,111.74a.47.47,0,0,1,.2.63.47.47,0,0,1-.62.2.47.47,0,0,1-.2-.63A.45.45,0,0,1,717.89,111.74Z"/><path class="p" d="M756.47,117.63a.49.49,0,1,1-.66.21A.5.5,0,0,1,756.47,117.63Z"/><path class="p" d="M744.42,98.54a.57.57,0,0,1,.24.77.58.58,0,0,1-.77.24.57.57,0,1,1,.53-1Z"/><path class="p" d="M741.29,83.8a.66.66,0,1,1-.61,1.17.65.65,0,0,1-.28-.88A.66.66,0,0,1,741.29,83.8Z"/><path class="p" d="M760,80.57a.44.44,0,0,1,.19.6.45.45,0,0,1-.79-.41A.44.44,0,0,1,760,80.57Z"/><path class="p" d="M745.14,58.55a.51.51,0,0,1,.22.69.52.52,0,0,1-.7.22.51.51,0,0,1-.22-.69A.52.52,0,0,1,745.14,58.55Z"/><path class="p" d="M755.3,50.89a.51.51,0,0,1,.22.7.52.52,0,1,1-.22-.7Z"/><path class="p" d="M771.12,34.59a.46.46,0,1,1-.62.19A.46.46,0,0,1,771.12,34.59Z"/><path class="p" d="M750.6,59.27a.48.48,0,0,1,.2.64.47.47,0,0,1-.84-.43A.47.47,0,0,1,750.6,59.27Z"/><path class="p" d="M741.14,52a.5.5,0,1,1-.67.21A.49.49,0,0,1,741.14,52Z"/><path class="p" d="M718,37a.67.67,0,1,1-.62,1.19.67.67,0,0,1-.29-.91A.67.67,0,0,1,718,37Z"/><path class="p" d="M727.48,74.3a.48.48,0,0,1,.2.64.47.47,0,0,1-.63.2.47.47,0,1,1,.43-.84Z"/><path class="p" d="M695.55,53.42a.45.45,0,1,1-.6.19A.46.46,0,0,1,695.55,53.42Z"/><path class="p" d="M691.23,66.3a.61.61,0,0,1-.55,1.08.61.61,0,0,1,.55-1.08Z"/><path class="p" d="M695.83,89.47a.53.53,0,0,1-.48.94.53.53,0,0,1,.48-.94Z"/><path class="p" d="M676.39,87.56a.42.42,0,1,1-.56.18A.43.43,0,0,1,676.39,87.56Z"/><path class="p" d="M667.88,97.06a.46.46,0,1,1-.42.81.46.46,0,0,1,.42-.81Z"/><path class="p" d="M675.73,124.2a.68.68,0,0,1,.28.91.65.65,0,0,1-.9.28.67.67,0,0,1-.29-.9A.68.68,0,0,1,675.73,124.2Z"/><path class="p" d="M651.13,116.19a.5.5,0,1,1-.46.88.5.5,0,0,1-.21-.66A.5.5,0,0,1,651.13,116.19Z"/><path class="p" d="M642.22,123.54a.6.6,0,0,1,.26.82.6.6,0,1,1-1.07-.56A.6.6,0,0,1,642.22,123.54Z"/><path class="p" d="M637.8,142.8a.49.49,0,1,1-.66.21A.5.5,0,0,1,637.8,142.8Z"/><path class="p" d="M617.7,117.52a.5.5,0,0,1,.21.66.49.49,0,1,1-.87-.45A.49.49,0,0,1,617.7,117.52Z"/><path class="p" d="M613.52,114.28a.61.61,0,1,1-.83.26A.61.61,0,0,1,613.52,114.28Z"/><path class="p" d="M593.4,129.64a.5.5,0,1,1-.67.22A.49.49,0,0,1,593.4,129.64Z"/><path class="p" d="M614,113.6a.48.48,0,0,1,.21.66.5.5,0,0,1-.67.22.51.51,0,0,1-.21-.67A.5.5,0,0,1,614,113.6Z"/><path class="p" d="M612.05,109a.43.43,0,1,1-.58.18A.43.43,0,0,1,612.05,109Z"/><path class="p" d="M610.34,99.54a.57.57,0,0,1,.25.78.58.58,0,1,1-1-.54A.58.58,0,0,1,610.34,99.54Z"/><path class="p" d="M598.3,80.56a.57.57,0,1,1-.53,1,.57.57,0,0,1-.24-.76A.58.58,0,0,1,598.3,80.56Z"/><path class="p" d="M589.66,61.29a.48.48,0,1,1-.64.2A.48.48,0,0,1,589.66,61.29Z"/><path class="p" d="M606,55.52a.4.4,0,0,1,.17.55.4.4,0,0,1-.55.18.4.4,0,0,1-.18-.56A.41.41,0,0,1,606,55.52Z"/><path class="p" d="M616.57,47.86a.59.59,0,1,1-.54,1,.59.59,0,0,1,.54-1Z"/><path class="p" d="M723.61,486.23a.5.5,0,0,1,.22.68.51.51,0,1,1-.9-.47A.5.5,0,0,1,723.61,486.23Z"/><path class="p" d="M738.28,481.94a.41.41,0,1,1-.56.17A.41.41,0,0,1,738.28,481.94Z"/><path class="p" d="M763.52,491a.7.7,0,1,1-.95.3A.71.71,0,0,1,763.52,491Z"/><path class="p" d="M763.56,474.68a.49.49,0,1,1-.45.88.49.49,0,1,1,.45-.88Z"/><path class="p" d="M779.19,470.24a.71.71,0,0,1,.3.94.7.7,0,1,1-1.24-.64A.7.7,0,0,1,779.19,470.24Z"/><path class="p" d="M794.57,467.6a.67.67,0,0,1,.29.9.67.67,0,0,1-.9.29.66.66,0,0,1-.28-.9A.65.65,0,0,1,794.57,467.6Z"/><path class="p" d="M770,435.45a.69.69,0,1,1-.93.3A.7.7,0,0,1,770,435.45Z"/><path class="p" d="M798.37,437.67a.46.46,0,0,1-.42.82.46.46,0,0,1-.2-.62A.47.47,0,0,1,798.37,437.67Z"/><path class="p" d="M793.44,421.66a.58.58,0,1,1-.54,1,.57.57,0,0,1-.25-.78A.58.58,0,0,1,793.44,421.66Z"/><path class="p" d="M816.41,411.46a.42.42,0,1,1-.57.18A.42.42,0,0,1,816.41,411.46Z"/><path class="p" d="M815.58,392.27a.6.6,0,1,1-.56,1.07.6.6,0,1,1,.56-1.07Z"/><path class="p" d="M787,391a.58.58,0,0,1-.53,1,.57.57,0,0,1-.25-.78A.59.59,0,0,1,787,391Z"/><path class="p" d="M774.46,389.81a.59.59,0,0,1,.25.8.58.58,0,0,1-.79.25.59.59,0,1,1,.54-1.05Z"/><path class="p" d="M772.48,368.66a.44.44,0,0,1,.18.57.42.42,0,0,1-.57.18.43.43,0,0,1-.19-.57A.44.44,0,0,1,772.48,368.66Z"/><path class="p" d="M759,373.73a.42.42,0,0,1,.19.58.43.43,0,0,1-.76-.4A.42.42,0,0,1,759,373.73Z"/><path class="p" d="M759.65,386.89a.61.61,0,1,1-.56,1.08.61.61,0,0,1,.56-1.08Z"/><path class="p" d="M724.56,381.1a.42.42,0,0,1,.18.57.42.42,0,0,1-.57.18.44.44,0,0,1-.18-.57A.42.42,0,0,1,724.56,381.1Z"/><path class="p" d="M721.81,392.84a.5.5,0,0,1,.22.67.51.51,0,0,1-.68.22.5.5,0,0,1-.21-.68A.49.49,0,0,1,721.81,392.84Z"/><path class="p" d="M713.09,405.68a.56.56,0,0,1-.52,1,.56.56,0,0,1,.52-1Z"/><path class="p" d="M733.18,423.34a.55.55,0,1,1-.74.24A.54.54,0,0,1,733.18,423.34Z"/><path class="p" d="M715.28,429.3a.48.48,0,0,1-.44.85.48.48,0,0,1-.21-.65A.49.49,0,0,1,715.28,429.3Z"/><path class="p" d="M723.78,445.51a.63.63,0,0,1,.27.85.62.62,0,0,1-.84.27.63.63,0,0,1-.27-.85A.62.62,0,0,1,723.78,445.51Z"/><path class="p" d="M700.92,449a.56.56,0,0,1,.24.77.58.58,0,0,1-.77.25.59.59,0,0,1-.25-.78A.58.58,0,0,1,700.92,449Z"/><path class="p" d="M700.52,461a.62.62,0,0,1,.26.82.61.61,0,1,1-.26-.82Z"/><path class="p" d="M706.92,479.57a.59.59,0,0,1,.25.8.58.58,0,0,1-.79.25.59.59,0,1,1,.54-1.05Z"/><path class="p" d="M683.3,480.65a.44.44,0,0,1,.19.6.45.45,0,1,1-.19-.6Z"/><path class="p" d="M590.34,478.32a.56.56,0,0,1,.24.76.56.56,0,0,1-.75.24.57.57,0,0,1-.24-.76A.56.56,0,0,1,590.34,478.32Z"/><path class="p" d="M592.26,465.51a.45.45,0,0,1,.2.62.47.47,0,0,1-.63.2.45.45,0,0,1-.2-.62A.47.47,0,0,1,592.26,465.51Z"/><path class="p" d="M630.83,471.4a.5.5,0,0,1,.22.67.5.5,0,0,1-.88-.46A.5.5,0,0,1,630.83,471.4Z"/><path class="p" d="M618.78,452.31a.55.55,0,0,1,.24.76.57.57,0,0,1-.76.25.58.58,0,0,1-.25-.77A.57.57,0,0,1,618.78,452.31Z"/><path class="p" d="M615.65,437.57a.66.66,0,0,1,.28.89.66.66,0,0,1-1.17-.6A.67.67,0,0,1,615.65,437.57Z"/><path class="p" d="M634.32,434.34a.45.45,0,0,1-.41.79.44.44,0,0,1-.19-.6A.44.44,0,0,1,634.32,434.34Z"/><path class="p" d="M619.5,412.32a.51.51,0,0,1-.47.91.5.5,0,0,1-.22-.69A.5.5,0,0,1,619.5,412.32Z"/><path class="p" d="M629.66,404.66a.52.52,0,0,1,.23.7.53.53,0,0,1-.7.22.51.51,0,0,1-.22-.7A.51.51,0,0,1,629.66,404.66Z"/><path class="p" d="M645.48,388.36a.46.46,0,1,1-.42.81.46.46,0,0,1-.19-.62A.45.45,0,0,1,645.48,388.36Z"/><path class="p" d="M625,413a.48.48,0,0,1,.2.64.47.47,0,0,1-.63.2.47.47,0,0,1-.2-.64A.47.47,0,0,1,625,413Z"/><path class="p" d="M615.51,405.72a.51.51,0,0,1,.21.68.5.5,0,0,1-.89-.46A.51.51,0,0,1,615.51,405.72Z"/><path class="p" d="M592.34,390.8a.68.68,0,0,1-.62,1.2.68.68,0,0,1,.62-1.2Z"/><path class="p" d="M601.84,428.07a.47.47,0,0,1,.2.64.47.47,0,0,1-.63.2.48.48,0,0,1-.2-.64A.47.47,0,0,1,601.84,428.07Z"/><path class="p" d="M569.91,407.19a.44.44,0,1,1-.59.19A.44.44,0,0,1,569.91,407.19Z"/><path class="p" d="M565.6,420.07a.61.61,0,1,1-.82.26A.61.61,0,0,1,565.6,420.07Z"/><path class="p" d="M570.2,443.24a.54.54,0,0,1,.22.71.53.53,0,0,1-.71.23.54.54,0,0,1-.22-.71A.53.53,0,0,1,570.2,443.24Z"/><path class="p" d="M550.75,441.33a.42.42,0,1,1-.38.74.42.42,0,0,1,.38-.74Z"/><path class="p" d="M542.24,450.83a.45.45,0,0,1,.2.61.46.46,0,1,1-.81-.42A.45.45,0,0,1,542.24,450.83Z"/><path class="p" d="M550.09,478a.67.67,0,1,1-.62,1.19.67.67,0,0,1-.29-.9A.68.68,0,0,1,550.09,478Z"/><path class="p" d="M525.49,470a.5.5,0,0,1,.21.67.49.49,0,1,1-.21-.67Z"/><path class="p" d="M516.59,477.31a.61.61,0,1,1-.82.26A.6.6,0,0,1,516.59,477.31Z"/><path class="p" d="M512.16,496.57a.5.5,0,0,1,.21.66.49.49,0,1,1-.21-.66Z"/><path class="p" d="M492.06,471.29a.49.49,0,1,1-.45.87.49.49,0,1,1,.45-.87Z"/><path class="p" d="M487.88,468.05a.61.61,0,1,1-.82.26A.6.6,0,0,1,487.88,468.05Z"/><path class="p" d="M467.76,483.41a.49.49,0,0,1,.22.67.5.5,0,0,1-.67.22.51.51,0,0,1-.22-.68A.5.5,0,0,1,467.76,483.41Z"/><path class="p" d="M488.33,467.37a.48.48,0,0,1,.21.66.49.49,0,0,1-.66.22.5.5,0,0,1-.21-.67A.48.48,0,0,1,488.33,467.37Z"/><path class="p" d="M486.41,462.72a.43.43,0,0,1,.18.58.42.42,0,0,1-.57.18.43.43,0,1,1,.39-.76Z"/><path class="p" d="M484.71,453.3a.59.59,0,1,1-.79.25A.6.6,0,0,1,484.71,453.3Z"/><path class="p" d="M472.66,434.33a.58.58,0,0,1,.25.77.57.57,0,0,1-.77.24.57.57,0,1,1,.52-1Z"/><path class="p" d="M464,415.06a.47.47,0,1,1-.44.84.47.47,0,0,1,.44-.84Z"/><path class="p" d="M480.31,409.28a.43.43,0,0,1,.18.56.42.42,0,0,1-.56.18.42.42,0,0,1,.38-.74Z"/><path class="p" d="M490.94,401.63a.59.59,0,0,1,.25.8.59.59,0,0,1-1.05-.54A.6.6,0,0,1,490.94,401.63Z"/><path class="p" d="M89.76,480.24a.68.68,0,1,1-1.35,0,.68.68,0,1,1,1.35,0Z"/><path class="p" d="M103.38,477.45a.51.51,0,1,1-.51-.51A.51.51,0,0,1,103.38,477.45Z"/><path class="p" d="M113.93,488.5a.42.42,0,0,1-.42.42.41.41,0,0,1-.41-.42.41.41,0,0,1,.41-.41A.41.41,0,0,1,113.93,488.5Z"/><path class="p" d="M169.8,495.34a.69.69,0,1,1-.69-.69A.69.69,0,0,1,169.8,495.34Z"/><path class="p" d="M217.05,490a.58.58,0,1,1-.57-.58A.58.58,0,0,1,217.05,490Z"/><path class="p" d="M212.38,478.31a.6.6,0,0,1-1.19,0,.6.6,0,0,1,1.19,0Z"/><path class="p" d="M230.25,466.83a.43.43,0,1,1-.42-.42A.42.42,0,0,1,230.25,466.83Z"/><path class="p" d="M219.57,457.22a.43.43,0,0,1-.43.43.43.43,0,1,1,0-.86A.43.43,0,0,1,219.57,457.22Z"/><path class="p" d="M208.17,463.81a.61.61,0,0,1-.61.61.61.61,0,0,1-.61-.61.61.61,0,0,1,.61-.61A.62.62,0,0,1,208.17,463.81Z"/><path class="p" d="M197.19,430a.43.43,0,1,1-.42-.42A.42.42,0,0,1,197.19,430Z"/><path class="p" d="M185.5,432.94a.5.5,0,0,1-.5.5.5.5,0,0,1,0-1A.5.5,0,0,1,185.5,432.94Z"/><path class="p" d="M170.08,431.1a.56.56,0,1,1-.56-.56A.56.56,0,0,1,170.08,431.1Z"/><path class="p" d="M163.63,457.06a.55.55,0,1,1-.55-.56A.55.55,0,0,1,163.63,457.06Z"/><path class="p" d="M150.11,443.89a.47.47,0,0,1-.48.48.48.48,0,0,1-.48-.48.49.49,0,0,1,.48-.48A.48.48,0,0,1,150.11,443.89Z"/><path class="p" d="M139.62,458.9a.63.63,0,1,1-.63-.63A.63.63,0,0,1,139.62,458.9Z"/><path class="p" d="M126.06,440.16a.58.58,0,1,1-.57-.57A.58.58,0,0,1,126.06,440.16Z"/><circle class="p" cx="114.57" cy="445.35" r="0.6"/><path class="p" d="M101.62,459.57a.59.59,0,1,1-.59-.6A.59.59,0,0,1,101.62,459.57Z"/><circle class="p" cx="89.36" cy="439.08" r="0.45"/><path class="p" d="M77.79,473.64a.54.54,0,1,1-.54-.54A.54.54,0,0,1,77.79,473.64Z"/><path class="p" d="M66.39,470.37a.52.52,0,0,1-.53.52.52.52,0,0,1-.52-.52.52.52,0,0,1,.52-.53A.53.53,0,0,1,66.39,470.37Z"/><circle class="p" cx="54.75" cy="442.28" r="0.46"/><path class="p" d="M41.21,459.72a.42.42,0,1,1-.42-.41A.42.42,0,0,1,41.21,459.72Z"/><path class="p" d="M24.44,460a.53.53,0,1,1-.53-.53A.53.53,0,0,1,24.44,460Z"/><path class="p" d="M6.73,453.17a.57.57,0,0,1-1.13,0,.57.57,0,1,1,1.13,0Z"/><path class="p" d="M7.72,434.16a.61.61,0,1,1-.6-.6A.6.6,0,0,1,7.72,434.16Z"/><path class="p" d="M15.6,405.78a.55.55,0,1,1-.55-.55A.55.55,0,0,1,15.6,405.78Z"/><circle class="p" cx="17.75" cy="394.43" r="0.46"/><path class="p" d="M29,381.85a.6.6,0,0,1-.6.6.61.61,0,1,1,0-1.21A.6.6,0,0,1,29,381.85Z"/><path class="p" d="M2.83,356.64a.62.62,0,1,1-.62-.62A.61.61,0,0,1,2.83,356.64Z"/><path class="p" d="M23.39,359.2a.7.7,0,1,1-.7-.7A.7.7,0,0,1,23.39,359.2Z"/><circle class="p" cx="36.43" cy="382.84" r="0.62"/><path class="p" d="M49.16,355.45a.56.56,0,1,1-.56-.56A.56.56,0,0,1,49.16,355.45Z"/><path class="p" d="M61.43,351.26a.47.47,0,1,1-.47-.46A.47.47,0,0,1,61.43,351.26Z"/><path class="p" d="M73.92,388.24a.5.5,0,1,1-.5-.5A.49.49,0,0,1,73.92,388.24Z"/><path class="p" d="M85.34,368.75a.57.57,0,0,1-.57.57.56.56,0,0,1-.57-.57.57.57,0,0,1,.57-.57A.58.58,0,0,1,85.34,368.75Z"/><path class="p" d="M97,359.21a.66.66,0,1,1-.65-.66A.65.65,0,0,1,97,359.21Z"/><path class="p" d="M108.44,374.3a.45.45,0,1,1-.45-.44A.45.45,0,0,1,108.44,374.3Z"/><path class="p" d="M121.19,351a.52.52,0,1,1-.52-.52A.51.51,0,0,1,121.19,351Z"/><circle class="p" cx="132.14" cy="356.53" r="0.52"/><path class="p" d="M154.41,363.09a.46.46,0,1,1-.46-.46A.47.47,0,0,1,154.41,363.09Z"/><circle class="p" cx="122.58" cy="356.2" r="0.47"/><path class="p" d="M125.21,344.44a.5.5,0,0,1-.5.5.5.5,0,0,1-.5-.5.5.5,0,0,1,.5-.5A.51.51,0,0,1,125.21,344.44Z"/><path class="p" d="M127.81,317a.67.67,0,0,1-.67.67.68.68,0,0,1-.68-.67.69.69,0,0,1,.68-.68A.68.68,0,0,1,127.81,317Z"/><path class="p" d="M99.08,342.58a.47.47,0,1,1-.94,0,.47.47,0,1,1,.94,0Z"/><path class="p" d="M103,304.62a.44.44,0,1,1-.44-.44A.44.44,0,0,1,103,304.62Z"/><circle class="p" cx="88.93" cy="306.71" r="0.6"/><circle class="p" cx="70.54" cy="321.44" r="0.52"/><path class="p" d="M63.83,303.29a.42.42,0,1,1-.42-.41A.41.41,0,0,1,63.83,303.29Z"/><path class="p" d="M51.48,300.1a.45.45,0,0,1-.45.45.46.46,0,0,1-.46-.45.47.47,0,0,1,.46-.46A.46.46,0,0,1,51.48,300.1Z"/><path class="p" d="M31,319.54a.67.67,0,1,1-.67-.68A.67.67,0,0,1,31,319.54Z"/><path class="p" d="M26.79,294a.49.49,0,1,1-.49-.49A.49.49,0,0,1,26.79,294Z"/><path class="p" d="M16.17,289.48a.61.61,0,1,1-.6-.61A.6.6,0,0,1,16.17,289.48Z"/><path class="p" d="M10.25,264.93a.49.49,0,1,1-.49-.49A.49.49,0,0,1,10.25,264.93Z"/><path class="p" d="M11.21,259.72a.61.61,0,0,1-1.22,0,.61.61,0,1,1,1.22,0Z"/><path class="p" d="M12,259.81a.5.5,0,1,1-.49-.49A.49.49,0,0,1,12,259.81Z"/><path class="p" d="M15.27,256a.43.43,0,0,1-.43.43.43.43,0,0,1,0-.86A.43.43,0,0,1,15.27,256Z"/><path class="p" d="M22.85,250.13a.58.58,0,1,1-.58-.58A.58.58,0,0,1,22.85,250.13Z"/><path class="p" d="M34.16,230.71a.57.57,0,1,1-1.13,0,.57.57,0,1,1,1.13,0Z"/><path class="p" d="M47.31,214.19a.48.48,0,1,1-.47-.48A.47.47,0,0,1,47.31,214.19Z"/><path class="p" d="M59.92,226a.41.41,0,1,1-.41-.41A.41.41,0,0,1,59.92,226Z"/><circle class="p" cx="71.01" cy="231.92" r="0.59"/><path class="q" d="M24.51,277a4.59,4.59,0,0,1-3.84,5,19,19,0,0,0,4.41-.24,37.05,37.05,0,0,0,14.66-4.66,44.63,44.63,0,0,0,14-13.3,41,41,0,0,1-9,8.67c-3.13,2.19-6.4,4.43-11,4.8a14.94,14.94,0,0,1-8.78-1.69,10.62,10.62,0,0,1-1.34-.89A4.61,4.61,0,0,1,24.51,277Z"/><path class="r" d="M16.36,277.87a3,3,0,1,1,3.31,2.71A3,3,0,0,1,16.36,277.87Z"/><path class="h" d="M112.24,203.1l.21-2.69.2,2.69a1.52,1.52,0,0,0,1.39,1.39l2.69.2-2.69.21a1.5,1.5,0,0,0-1.39,1.38l-.2,2.7-.21-2.7a1.48,1.48,0,0,0-1.38-1.38l-2.69-.21,2.69-.2A1.5,1.5,0,0,0,112.24,203.1Z"/><path class="h" d="M869.88,214.3l.2-2.7.21,2.7a1.5,1.5,0,0,0,1.38,1.38l2.7.2-2.7.21a1.48,1.48,0,0,0-1.38,1.38l-.21,2.7-.2-2.7a1.5,1.5,0,0,0-1.38-1.38l-2.7-.21,2.7-.2A1.52,1.52,0,0,0,869.88,214.3Z"/><path class="h" d="M694.37,25.8l.2-2.65.2,2.65a1.49,1.49,0,0,0,1.36,1.36l2.65.2-2.65.2a1.5,1.5,0,0,0-1.36,1.36l-.2,2.65-.2-2.65A1.49,1.49,0,0,0,693,27.56l-2.65-.2,2.65-.2A1.48,1.48,0,0,0,694.37,25.8Z"/><path class="h" d="M903.6,59.45l.26-3.43.26,3.43a1.91,1.91,0,0,0,1.76,1.76l3.43.26-3.43.26a1.92,1.92,0,0,0-1.76,1.77l-.26,3.43-.26-3.43a1.93,1.93,0,0,0-1.77-1.77l-3.43-.26,3.43-.26A1.92,1.92,0,0,0,903.6,59.45Z"/><path class="h" d="M742.85,476.32l.26-3.44.27,3.44a1.9,1.9,0,0,0,1.76,1.76l3.43.26-3.43.26a1.9,1.9,0,0,0-1.76,1.76l-.27,3.44-.26-3.44a1.91,1.91,0,0,0-1.76-1.76l-3.43-.26,3.43-.26A1.91,1.91,0,0,0,742.85,476.32Z"/><path class="h" d="M36.92,399.48l.31-4.17.32,4.17a2.34,2.34,0,0,0,2.14,2.15l4.18.31-4.18.32a2.33,2.33,0,0,0-2.14,2.14l-.32,4.18-.31-4.18a2.34,2.34,0,0,0-2.15-2.14l-4.17-.32,4.17-.31A2.34,2.34,0,0,0,36.92,399.48Z"/><path class="h" d="M78.2,422.71l.24-3.13.23,3.13a1.74,1.74,0,0,0,1.61,1.6l3.13.24-3.13.24a1.76,1.76,0,0,0-1.61,1.61l-.23,3.13-.24-3.13a1.76,1.76,0,0,0-1.61-1.61l-3.13-.24,3.13-.24A1.74,1.74,0,0,0,78.2,422.71Z"/><path class="h" d="M23.67,44.51l.45-5.91.45,5.91a3.28,3.28,0,0,0,3,3l5.91.45-5.91.45a3.29,3.29,0,0,0-3,3l-.45,5.92-.45-5.92a3.3,3.3,0,0,0-3-3L14.73,48l5.91-.45A3.29,3.29,0,0,0,23.67,44.51Z"/><path class="h" d="M109.53,479.85l.24-3.16.24,3.16a1.77,1.77,0,0,0,1.62,1.62l3.16.24-3.16.24a1.75,1.75,0,0,0-1.62,1.62l-.24,3.16-.24-3.16a1.76,1.76,0,0,0-1.62-1.62l-3.16-.24,3.16-.24A1.78,1.78,0,0,0,109.53,479.85Z"/><path class="s" d="M761.9,111.93a1.66,1.66,0,0,1-1.52-1.53l-.22-3-.23,3a1.66,1.66,0,0,1-1.52,1.53l-3,.22,3,.23a1.65,1.65,0,0,1,1.52,1.52l.23,3,.22-3a1.65,1.65,0,0,1,1.52-1.52l3-.23Zm-1.23.41a.59.59,0,0,0-.33.33l-.18.47-.19-.47a.59.59,0,0,0-.33-.33l-.48-.19.48-.19a.54.54,0,0,0,.33-.33l.19-.47.18.47a.54.54,0,0,0,.33.33l.48.19Z"/><circle class="h" cx="100.32" cy="434.16" r="3.95"/><path class="t" d="M100.32,429.33a4.84,4.84,0,1,0,4.83,4.83A4.84,4.84,0,0,0,100.32,429.33Zm0,9.23a4.4,4.4,0,1,1,4.39-4.4A4.4,4.4,0,0,1,100.32,438.56Z"/><path class="q" d="M100.32,428.43a5.74,5.74,0,1,0,5.73,5.73A5.74,5.74,0,0,0,100.32,428.43Zm0,11a5.29,5.29,0,1,1,5.28-5.29A5.29,5.29,0,0,1,100.32,439.45Z"/><path class="h" d="M243.45,478.85a3.7,3.7,0,1,1-3.7-3.71A3.7,3.7,0,0,1,243.45,478.85Z"/><path class="h" d="M500,92.06a3.71,3.71,0,1,1-3.71-3.71A3.71,3.71,0,0,1,500,92.06Z"/><path class="h" d="M781,42.39a3.7,3.7,0,1,1-3.7-3.7A3.7,3.7,0,0,1,781,42.39Z"/><path class="h" d="M917.67,2.24A3.71,3.71,0,1,1,914-1.46,3.71,3.71,0,0,1,917.67,2.24Z"/><path class="h" d="M254.47,314.53a2.73,2.73,0,1,1-2.73-2.73A2.73,2.73,0,0,1,254.47,314.53Z"/><path class="q" d="M33.24,466.9a6.5,6.5,0,1,1-6.5-6.49A6.5,6.5,0,0,1,33.24,466.9Z"/><path class="h" d="M163.36,454.16a2.73,2.73,0,1,1-2.73-2.73A2.73,2.73,0,0,1,163.36,454.16Z"/><path class="h" d="M379.43,457.22a6.5,6.5,0,1,1-6.49-6.49A6.5,6.5,0,0,1,379.43,457.22Z"/><path class="q" d="M125.86,153.44a6.5,6.5,0,1,1-6.49-6.49A6.5,6.5,0,0,1,125.86,153.44Z"/><path class="h" d="M655.24,44.12a3.71,3.71,0,1,1-3.7-3.7A3.71,3.71,0,0,1,655.24,44.12Z"/><path class="h" d="M645.35,17.71A2.69,2.69,0,1,1,642.67,15,2.68,2.68,0,0,1,645.35,17.71Z"/><path class="h" d="M48.78,23.8a2.69,2.69,0,1,1-2.68-2.69A2.68,2.68,0,0,1,48.78,23.8Z"/><path class="h" d="M822.17,474a2.69,2.69,0,1,1-2.69-2.69A2.69,2.69,0,0,1,822.17,474Z"/><circle class="h" cx="846.27" cy="83.63" r="2.68" transform="translate(628.16 905.58) rotate(-80.78)"/><path class="h" d="M918.38,246.34a2.69,2.69,0,1,1-2.69-2.69A2.68,2.68,0,0,1,918.38,246.34Z"/><circle class="h" cx="50.57" cy="452.08" r="2.09"/><path class="f" d="M723.36,99.25a.85.85,0,1,1-.84.84A.85.85,0,0,1,723.36,99.25Z"/><path class="f" d="M678,173.51a1,1,0,1,1-1,1A1,1,0,0,1,678,173.51Z"/><path class="f" d="M728.5,195.07a.53.53,0,1,1-.52.53A.53.53,0,0,1,728.5,195.07Z"/><path class="f" d="M758.33,262.86A1.13,1.13,0,1,1,757.2,264,1.13,1.13,0,0,1,758.33,262.86Z"/><circle class="f" cx="798.7" cy="196.71" r="1.49"/><path class="f" d="M755.32,190.59a1.35,1.35,0,1,1-1.34,1.35A1.35,1.35,0,0,1,755.32,190.59Z"/><path class="f" d="M820.32,88.71A1.29,1.29,0,1,1,819,90,1.28,1.28,0,0,1,820.32,88.71Z"/><circle class="f" cx="804.43" cy="89.63" r="1.35"/><path class="f" d="M757.6,64.42a1.78,1.78,0,1,1-1.77,1.78A1.77,1.77,0,0,1,757.6,64.42Z"/><path class="f" d="M789.9,63.66a1,1,0,1,1,0,2,1,1,0,0,1,0-2Z"/><path class="f" d="M802.88,41.68a.44.44,0,0,1,.44.44.44.44,0,0,1-.88,0A.44.44,0,0,1,802.88,41.68Z"/><path class="f" d="M850.46,33.36a1.71,1.71,0,1,1-1.71,1.71A1.71,1.71,0,0,1,850.46,33.36Z"/><path class="f" d="M520,27.24a1.36,1.36,0,1,1-1.35,1.35A1.36,1.36,0,0,1,520,27.24Z"/><path class="f" d="M569.94,60.93a.5.5,0,0,1,.51.51.51.51,0,1,1-1,0A.5.5,0,0,1,569.94,60.93Z"/><circle class="f" cx="552.77" cy="95.46" r="1.44"/><path class="f" d="M587.8,166a1.11,1.11,0,1,1,0,2.22,1.11,1.11,0,1,1,0-2.22Z"/><path class="f" d="M515.42,170.13a.93.93,0,0,1,0,1.86.93.93,0,0,1,0-1.86Z"/><path class="f" d="M532.12,109a1.17,1.17,0,1,1-1.17,1.17A1.16,1.16,0,0,1,532.12,109Z"/><circle class="f" cx="565.53" cy="72.62" r="1.66"/><path class="f" d="M592.19,101.63a1.13,1.13,0,1,1-1.13,1.13A1.13,1.13,0,0,1,592.19,101.63Z"/><circle class="f" cx="642.55" cy="126" r="0.41"/><path class="f" d="M597.85,184.63a.7.7,0,0,1,0,1.4.7.7,0,1,1,0-1.4Z"/><path class="f" d="M619.15,157.82a1.42,1.42,0,1,1-1.42,1.42A1.42,1.42,0,0,1,619.15,157.82Z"/><path class="f" d="M579.58,215.33a1.72,1.72,0,1,1-1.71,1.72A1.72,1.72,0,0,1,579.58,215.33Z"/><path class="f" d="M600,139.4a1.44,1.44,0,1,1-1.43,1.43A1.44,1.44,0,0,1,600,139.4Z"/><path class="f" d="M639.28,171.6a1.12,1.12,0,1,1-1.12,1.12A1.12,1.12,0,0,1,639.28,171.6Z"/><path class="f" d="M667.19,174.57a.79.79,0,1,1-.79.79A.78.78,0,0,1,667.19,174.57Z"/><path class="f" d="M701.68,178.81A1.69,1.69,0,1,1,700,180.5,1.69,1.69,0,0,1,701.68,178.81Z"/><path class="h" d="M926.2,499.66a.75.75,0,0,1-.74.75.76.76,0,0,1-.75-.75.75.75,0,0,1,.75-.74A.74.74,0,0,1,926.2,499.66Z"/><path class="h" d="M923.86,470.42a1,1,0,1,1-1-1A1,1,0,0,1,923.86,470.42Z"/><circle class="h" cx="898.19" cy="458.52" r="0.83"/><circle class="h" cx="895.03" cy="454.86" r="0.99"/><path class="h" d="M878,449.73a.72.72,0,1,1-.72-.72A.71.71,0,0,1,878,449.73Z"/><path class="h" d="M873.75,423.51a.8.8,0,1,1-.8-.8A.79.79,0,0,1,873.75,423.51Z"/><path class="h" d="M873.61,416.61a.73.73,0,1,1-1.46,0,.73.73,0,0,1,1.46,0Z"/><path class="h" d="M862.12,431.53a.85.85,0,1,1-.85-.85A.85.85,0,0,1,862.12,431.53Z"/><path class="j" d="M221.68,39.21a1,1,0,1,1-1,1A1,1,0,0,1,221.68,39.21Z"/><path class="j" d="M200,11.7a1,1,0,1,1-1,1A1,1,0,0,1,200,11.7Z"/><path class="j" d="M172.86,16.24a.79.79,0,1,1,0,1.57.79.79,0,1,1,0-1.57Z"/><path class="j" d="M172.54,63.66a1.75,1.75,0,1,1-1.75,1.75A1.75,1.75,0,0,1,172.54,63.66Z"/><path class="j" d="M211.16,84.22a1.91,1.91,0,1,1-1.91,1.91A1.91,1.91,0,0,1,211.16,84.22Z"/><circle class="j" cx="265.14" cy="31.78" r="1.91"/><path class="j" d="M222.43,115.17a.59.59,0,0,1,.59.6.6.6,0,0,1-1.19,0A.6.6,0,0,1,222.43,115.17Z"/><path class="j" d="M266.53,155.21a1.39,1.39,0,1,1-1.39,1.39A1.39,1.39,0,0,1,266.53,155.21Z"/><path class="j" d="M175.49,147.86a1.73,1.73,0,1,1-1.72,1.72A1.72,1.72,0,0,1,175.49,147.86Z"/><path class="j" d="M144,150.57a.84.84,0,1,1,0,1.68.84.84,0,1,1,0-1.68Z"/><path class="j" d="M143.4,240a1.77,1.77,0,1,1-1.77,1.76A1.77,1.77,0,0,1,143.4,240Z"/><path class="j" d="M97,155.22a.38.38,0,0,1,0,.75.38.38,0,0,1,0-.75Z"/><circle class="j" cx="12.57" cy="178.13" r="1.49"/><path class="j" d="M103.65,149.34a1.34,1.34,0,1,1-1.33,1.34A1.34,1.34,0,0,1,103.65,149.34Z"/><path class="j" d="M123.53,239.61a1.34,1.34,0,1,1-1.34,1.34A1.34,1.34,0,0,1,123.53,239.61Z"/><path class="j" d="M168.73,190.06a.69.69,0,1,1-.68.69A.68.68,0,0,1,168.73,190.06Z"/><path class="j" d="M174.34,165.86a.38.38,0,1,1-.38.38A.38.38,0,0,1,174.34,165.86Z"/><path class="j" d="M129.28,67.7A1.24,1.24,0,1,1,128,68.94,1.25,1.25,0,0,1,129.28,67.7Z"/><path class="j" d="M118.87,101.48a.82.82,0,1,1-.82.82A.82.82,0,0,1,118.87,101.48Z"/><path class="j" d="M81.24,88.89a.5.5,0,0,1,.5.5.5.5,0,0,1-1,0A.5.5,0,0,1,81.24,88.89Z"/><circle class="j" cx="6.43" cy="121.64" r="1.81"/><circle class="j" cx="66.29" cy="86.45" r="1.35"/><path class="j" d="M45.7,68.26a1,1,0,1,1-1,1A1,1,0,0,1,45.7,68.26Z"/><path class="j" d="M96,76.58a1.23,1.23,0,1,1-1.24,1.23A1.23,1.23,0,0,1,96,76.58Z"/><path class="j" d="M77.52,155.74a.79.79,0,1,1-.78.79A.79.79,0,0,1,77.52,155.74Z"/><path class="j" d="M136.39,110.47a.65.65,0,1,1-.65.65A.65.65,0,0,1,136.39,110.47Z"/><circle class="j" cx="174.39" cy="82.31" r="0.97" transform="translate(-3.17 7.09) rotate(-2.31)"/><path class="j" d="M195.87,137.09a1,1,0,1,1-1,1A1,1,0,0,1,195.87,137.09Z"/><path class="j" d="M121.87,115.22a1.24,1.24,0,1,1-1.23,1.24A1.23,1.23,0,0,1,121.87,115.22Z"/><path class="j" d="M163.62,48.76a1.2,1.2,0,1,1-1.2,1.2A1.2,1.2,0,0,1,163.62,48.76Z"/><path class="j" d="M153.63,28.92a1,1,0,1,1-1,1A1,1,0,0,1,153.63,28.92Z"/><circle class="j" cx="190.8" cy="61.21" r="1.81"/><circle class="j" cx="221.7" cy="19.83" r="0.7"/><path class="j" d="M184.54,28.41a1.37,1.37,0,1,1-1.37,1.37A1.37,1.37,0,0,1,184.54,28.41Z"/><path class="j" d="M89.7,42.88a1.58,1.58,0,1,1-1.58,1.58A1.58,1.58,0,0,1,89.7,42.88Z"/><circle class="j" cx="24.31" cy="100.1" r="1.77"/><circle class="j" cx="85.87" cy="69.57" r="0.63"/><path class="j" d="M128,84.58a.91.91,0,1,1-.91.91A.91.91,0,0,1,128,84.58Z"/><circle class="j" cx="139.87" cy="135.45" r="1.05"/><path class="j" d="M124.64,201a.45.45,0,0,1,.45.45.45.45,0,0,1-.45.45.45.45,0,0,1-.45-.45A.46.46,0,0,1,124.64,201Z"/><path class="h" d="M294.84,497.4a.6.6,0,1,1-.6-.6A.6.6,0,0,1,294.84,497.4Z"/><path class="h" d="M273.21,489a.5.5,0,1,1-.49-.5A.49.49,0,0,1,273.21,489Z"/><circle class="h" cx="290.98" cy="478.41" r="0.48"/><path class="h" d="M316.25,475.19a.56.56,0,1,1-.56-.56A.56.56,0,0,1,316.25,475.19Z"/><path class="h" d="M307.09,452.65a.64.64,0,0,1-.63.64.64.64,0,0,1-.64-.64.64.64,0,0,1,.64-.63A.63.63,0,0,1,307.09,452.65Z"/><path class="h" d="M307.51,426.82a.5.5,0,1,1-.5-.5A.5.5,0,0,1,307.51,426.82Z"/><path class="h" d="M326.18,428.15a.65.65,0,1,1-.65-.65A.65.65,0,0,1,326.18,428.15Z"/><circle class="p" cx="7.6" cy="441.98" r="0.53"/><path class="p" d="M20.46,432.3a.61.61,0,0,1-.62.61.61.61,0,0,1-.61-.61.61.61,0,0,1,.61-.62A.62.62,0,0,1,20.46,432.3Z"/><path class="p" d="M38,432.83a.72.72,0,1,1-.72-.72A.72.72,0,0,1,38,432.83Z"/><path class="p" d="M38.38,430.46a.52.52,0,0,1-1,0,.52.52,0,1,1,1,0Z"/><path class="p" d="M50.05,434.8a.61.61,0,1,1-.61-.6A.61.61,0,0,1,50.05,434.8Z"/><path class="p" d="M69.49,408.65a.72.72,0,0,1-.72.72.73.73,0,0,1-.73-.72.73.73,0,0,1,.73-.73A.73.73,0,0,1,69.49,408.65Z"/><path class="p" d="M84,405.67a.54.54,0,0,1-1.08,0,.54.54,0,1,1,1.08,0Z"/><path class="p" d="M95.3,417.48a.45.45,0,1,1-.44-.45A.44.44,0,0,1,95.3,417.48Z"/><path class="p" d="M99.09,445.87a.75.75,0,1,1-.75-.75A.76.76,0,0,1,99.09,445.87Z"/><path class="p" d="M114.6,437.9a.53.53,0,0,1-.53.53.52.52,0,0,1-.53-.53.53.53,0,0,1,.53-.53A.53.53,0,0,1,114.6,437.9Z"/><path class="p" d="M126.47,450.55a.74.74,0,0,1-.74.74.75.75,0,0,1-.75-.74.76.76,0,0,1,.75-.75A.75.75,0,0,1,126.47,450.55Z"/><path class="p" d="M136.53,463.85a.71.71,0,1,1-.71-.71A.71.71,0,0,1,136.53,463.85Z"/><path class="p" d="M155,424.78a.74.74,0,1,1-.73-.74A.73.73,0,0,1,155,424.78Z"/><path class="p" d="M166.78,452.76a.48.48,0,0,1-.48.49.49.49,0,1,1,0-1A.48.48,0,0,1,166.78,452.76Z"/><path class="p" d="M179.56,440.22a.63.63,0,1,1-.62-.62A.63.63,0,0,1,179.56,440.22Z"/><path class="p" d="M200.51,457a.46.46,0,0,1-.45.46.46.46,0,0,1,0-.92A.46.46,0,0,1,200.51,457Z"/><path class="p" d="M218.31,446.8a.65.65,0,1,1-1.29,0,.65.65,0,0,1,1.29,0Z"/><path class="p" d="M205.45,419.08a.61.61,0,0,1-.61.62.62.62,0,0,1-.62-.62.61.61,0,0,1,.62-.61A.61.61,0,0,1,205.45,419.08Z"/><path class="p" d="M200.46,406.59a.63.63,0,1,1-.63-.63A.63.63,0,0,1,200.46,406.59Z"/><path class="p" d="M219.55,394.33a.45.45,0,0,1-.45.45.46.46,0,0,1-.46-.45.47.47,0,0,1,.46-.46A.46.46,0,0,1,219.55,394.33Z"/><path class="p" d="M208.15,384.06a.47.47,0,0,1-.46.46.46.46,0,1,1,0-.92A.47.47,0,0,1,208.15,384.06Z"/><circle class="p" cx="195.31" cy="391.1" r="0.65"/><path class="p" d="M184.24,355a.46.46,0,1,1-.45-.45A.46.46,0,0,1,184.24,355Z"/><path class="p" d="M171.75,358.13a.54.54,0,1,1-.54-.54A.54.54,0,0,1,171.75,358.13Z"/><path class="p" d="M155.28,356.16a.6.6,0,0,1-.6.59.6.6,0,0,1,0-1.19A.6.6,0,0,1,155.28,356.16Z"/><circle class="p" cx="147.8" cy="383.88" r="0.59"/><path class="p" d="M134,369.82a.51.51,0,1,1-.51-.51A.51.51,0,0,1,134,369.82Z"/><path class="p" d="M122.74,385.85a.67.67,0,1,1-.67-.67A.67.67,0,0,1,122.74,385.85Z"/><path class="p" d="M108.26,365.84a.61.61,0,1,1-1.22,0,.61.61,0,1,1,1.22,0Z"/><circle class="p" cx="95.99" cy="371.38" r="0.65"/><circle class="p" cx="81.53" cy="386.57" r="0.63"/><path class="p" d="M69.54,364.68a.48.48,0,1,1-.48-.48A.48.48,0,0,1,69.54,364.68Z"/><path class="p" d="M56.7,401.59a.58.58,0,1,1-.57-.57A.58.58,0,0,1,56.7,401.59Z"/><circle class="p" cx="43.96" cy="398.1" r="0.56"/><path class="p" d="M32.58,368.1a.49.49,0,1,1-.49-.49A.49.49,0,0,1,32.58,368.1Z"/><path class="p" d="M17.63,386.73a.45.45,0,1,1-.45-.44A.45.45,0,0,1,17.63,386.73Z"/><path class="p" d="M4.57,303.55a.65.65,0,1,1-.64-.65A.65.65,0,0,1,4.57,303.55Z"/><path class="p" d="M13.19,304.61a.67.67,0,1,1-.66-.66A.67.67,0,0,1,13.19,304.61Z"/><path class="p" d="M26.12,275.36a.59.59,0,0,1-.59.6.6.6,0,1,1,0-1.2A.59.59,0,0,1,26.12,275.36Z"/><path class="p" d="M39.22,270.88a.5.5,0,1,1-1,0,.5.5,0,1,1,1,0Z"/><path class="p" d="M52.57,310.37a.53.53,0,0,1-1.06,0,.53.53,0,0,1,1.06,0Z"/><circle class="p" cx="64.15" cy="289.57" r="0.61"/><path class="p" d="M77.21,279.37a.71.71,0,1,1-.71-.71A.71.71,0,0,1,77.21,279.37Z"/><path class="p" d="M89.44,295.49a.48.48,0,0,1-1,0,.48.48,0,0,1,1,0Z"/><path class="p" d="M103.06,270.62a.55.55,0,0,1-.55.55.54.54,0,0,1-.55-.55.55.55,0,0,1,.55-.55A.55.55,0,0,1,103.06,270.62Z"/><path class="p" d="M115.31,276.51a.56.56,0,1,1-.55-.56A.55.55,0,0,1,115.31,276.51Z"/><path class="p" d="M138.54,283.51a.49.49,0,1,1-1,0,.49.49,0,0,1,1,0Z"/><circle class="p" cx="104.54" cy="276.16" r="0.5"/><circle class="p" cx="106.81" cy="263.6" r="0.53"/><path class="p" d="M110.13,234.29a.72.72,0,1,1-.72-.72A.72.72,0,0,1,110.13,234.29Z"/><path class="p" d="M79.44,261.6a.5.5,0,1,1-.5-.5A.5.5,0,0,1,79.44,261.6Z"/><circle class="p" cx="83.11" cy="221.06" r="0.47"/><path class="p" d="M69.24,223.29a.65.65,0,1,1-.64-.65A.65.65,0,0,1,69.24,223.29Z"/><circle class="p" cx="48.96" cy="239.03" r="0.56"/><path class="p" d="M41.79,219.64a.44.44,0,0,1-.44.44.43.43,0,0,1-.44-.44.44.44,0,0,1,.44-.44A.44.44,0,0,1,41.79,219.64Z"/><path class="p" d="M28.6,216.23a.49.49,0,1,1-1,0,.49.49,0,0,1,1,0Z"/><path class="p" d="M6.7,237a.72.72,0,1,1-.71-.71A.71.71,0,0,1,6.7,237Z"/><path class="p" d="M2.23,209.73a.52.52,0,0,1-.53.52.52.52,0,0,1-.52-.52.52.52,0,0,1,.52-.53A.53.53,0,0,1,2.23,209.73Z"/><path class="p" d="M10.1,142.12a.61.61,0,1,1-.6-.61A.6.6,0,0,1,10.1,142.12Z"/><path class="p" d="M24.15,124.47a.51.51,0,1,1-.51-.51A.5.5,0,0,1,24.15,124.47Z"/><path class="p" d="M37.62,137.08a.45.45,0,1,1-.44-.44A.45.45,0,0,1,37.62,137.08Z"/><circle class="p" cx="49.46" cy="143.41" r="0.63"/><path class="q" d="M890.36,189.45a3.15,3.15,0,0,1-4.3.35,13.44,13.44,0,0,0,2.15,2.13,25.29,25.29,0,0,0,9.13,5.3,30.48,30.48,0,0,0,13.22,1,28.38,28.38,0,0,1-8.57-.61c-2.56-.58-5.2-1.21-7.52-3.39a10.36,10.36,0,0,1-3.19-5.25,9.12,9.12,0,0,1-.16-1.08A3.25,3.25,0,0,1,890.36,189.45Z"/><path class="r" d="M886.18,185.7a2.07,2.07,0,1,1,.15,2.92A2.07,2.07,0,0,1,886.18,185.7Z"/><path class="q" d="M686.14,76.46a3.63,3.63,0,0,1-3,3.94,15.11,15.11,0,0,0,3.48-.2,29.13,29.13,0,0,0,11.59-3.68A35.19,35.19,0,0,0,709.29,66a32.54,32.54,0,0,1-7.15,6.85c-2.48,1.73-5.06,3.5-8.73,3.8a11.88,11.88,0,0,1-6.93-1.34,11.17,11.17,0,0,1-1.07-.7A3.57,3.57,0,0,1,686.14,76.46Z"/><path class="r" d="M679.7,77.12a2.39,2.39,0,1,1,2.62,2.13A2.4,2.4,0,0,1,679.7,77.12Z"/><path class="q" d="M111.93,49.13A2.74,2.74,0,0,1,109,46.78a11.16,11.16,0,0,0,.09,2.63,21.92,21.92,0,0,0,2.59,8.79,26.43,26.43,0,0,0,7.75,8.54,24.35,24.35,0,0,1-5-5.5c-1.27-1.89-2.56-3.87-2.73-6.63a8.93,8.93,0,0,1,1.12-5.21,7.37,7.37,0,0,1,.54-.79A2.68,2.68,0,0,1,111.93,49.13Z"/><path class="h" d="M111.53,44.27a1.8,1.8,0,1,1-1.65,1.93A1.8,1.8,0,0,1,111.53,44.27Z"/><path class="h" d="M260.63,416.06l.2-2.55.19,2.55a1.43,1.43,0,0,0,1.31,1.31l2.54.19-2.54.19a1.43,1.43,0,0,0-1.31,1.31l-.19,2.55-.2-2.55a1.42,1.42,0,0,0-1.3-1.31l-2.55-.19,2.55-.19A1.42,1.42,0,0,0,260.63,416.06Z"/><path class="h" d="M861,467.78l.3-3.87.29,3.87a2.16,2.16,0,0,0,2,2l3.88.29-3.88.3a2.16,2.16,0,0,0-2,2l-.29,3.87-.3-3.87a2.15,2.15,0,0,0-2-2l-3.88-.3,3.88-.29A2.16,2.16,0,0,0,861,467.78Z"/><path class="h" d="M160.16,369.25l.21-2.77.21,2.77a1.53,1.53,0,0,0,1.42,1.41l2.76.21-2.76.22a1.53,1.53,0,0,0-1.42,1.41l-.21,2.77-.21-2.77a1.53,1.53,0,0,0-1.42-1.41l-2.76-.22,2.76-.21A1.53,1.53,0,0,0,160.16,369.25Z"/><path class="h" d="M763.12,189.52l.22-2.76.21,2.76a1.53,1.53,0,0,0,1.41,1.42l2.77.21-2.77.21a1.53,1.53,0,0,0-1.41,1.42l-.21,2.76-.22-2.76a1.53,1.53,0,0,0-1.41-1.42l-2.77-.21,2.77-.21A1.53,1.53,0,0,0,763.12,189.52Z"/><path class="h" d="M178.75,140l.19-2.52.19,2.52a1.4,1.4,0,0,0,1.29,1.29l2.52.19-2.52.19a1.41,1.41,0,0,0-1.29,1.3l-.19,2.52-.19-2.52a1.43,1.43,0,0,0-1.3-1.3l-2.52-.19,2.52-.19A1.41,1.41,0,0,0,178.75,140Z"/><circle class="h" cx="140.92" cy="50.84" r="8.94"/><path class="t" d="M140.92,39.9a10.94,10.94,0,1,0,10.93,10.94A10.94,10.94,0,0,0,140.92,39.9Zm0,20.89a9.95,9.95,0,1,1,10-9.95A10,10,0,0,1,140.92,60.79Z"/><path class="q" d="M140.92,37.87a13,13,0,1,0,13,13A13,13,0,0,0,140.92,37.87Zm0,24.93a12,12,0,1,1,12-12A12,12,0,0,1,140.92,62.8Z"/><path class="h" d="M839.7,329.11a5.34,5.34,0,1,1-5.34-5.34A5.34,5.34,0,0,1,839.7,329.11Z"/><path class="t" d="M834.36,322.58a6.53,6.53,0,1,0,6.53,6.53A6.54,6.54,0,0,0,834.36,322.58Zm0,12.47a5.94,5.94,0,1,1,5.95-5.94A5.94,5.94,0,0,1,834.36,335.05Z"/><path class="q" d="M834.36,321.37a7.75,7.75,0,1,0,7.75,7.74A7.74,7.74,0,0,0,834.36,321.37Zm0,14.88a7.14,7.14,0,1,1,7.14-7.14A7.14,7.14,0,0,1,834.36,336.25Z"/><path class="h" d="M536.24,105.28A1.26,1.26,0,1,1,535,104,1.26,1.26,0,0,1,536.24,105.28Z"/><g class="u"><path class="v" d="M897.67-6.32A6.53,6.53,0,0,0,891.14.21a6.53,6.53,0,0,0,6.53,6.54A6.54,6.54,0,0,0,904.21.21,6.53,6.53,0,0,0,897.67-6.32Zm0,12.48A6,6,0,0,1,891.72.21a6,6,0,0,1,5.95-5.95,6,6,0,0,1,6,6A6,6,0,0,1,897.67,6.16Z"/><path class="w" d="M897.67-7.54A7.75,7.75,0,0,0,889.92.21a7.76,7.76,0,1,0,15.51,0A7.75,7.75,0,0,0,897.67-7.54Zm0,14.9a7.15,7.15,0,0,1,0-14.29A7.15,7.15,0,0,1,904.82.21,7.15,7.15,0,0,1,897.67,7.36Z"/><circle class="h" cx="919.02" cy="160.65" r="9.41"/><path class="t" d="M919,149.14a11.52,11.52,0,1,0,11.51,11.51A11.51,11.51,0,0,0,919,149.14Zm0,22a10.48,10.48,0,1,1,10.48-10.48A10.48,10.48,0,0,1,919,171.13Z"/><path class="q" d="M919,147a13.66,13.66,0,1,0,13.65,13.65A13.66,13.66,0,0,0,919,147Zm0,26.24a12.59,12.59,0,1,1,12.58-12.59A12.59,12.59,0,0,1,919,173.24Z"/><path class="q" d="M919.9,350.86a15.23,15.23,0,1,0,15.23,15.23A15.23,15.23,0,0,0,919.9,350.86Zm0,29.09a13.86,13.86,0,1,1,13.87-13.86A13.87,13.87,0,0,1,919.9,380Z"/><path class="x" d="M919.9,348A18.07,18.07,0,1,0,938,366.09,18.07,18.07,0,0,0,919.9,348Zm0,34.72a16.65,16.65,0,1,1,16.65-16.65A16.66,16.66,0,0,1,919.9,382.74Z"/><path class="q" d="M417.88,479.38a12.41,12.41,0,1,0,12.42,12.41A12.41,12.41,0,0,0,417.88,479.38Zm0,23.71a11.3,11.3,0,1,1,11.3-11.3A11.3,11.3,0,0,1,417.88,503.09Z"/><path class="x" d="M417.88,477.07a14.72,14.72,0,1,0,14.73,14.72A14.72,14.72,0,0,0,417.88,477.07Zm0,28.29a13.57,13.57,0,1,1,13.57-13.57A13.57,13.57,0,0,1,417.88,505.36Z"/></g></svg>